M48
; DRILL file {KiCad 9.0.7} date 2026-03-09T10:35:38-0600
; FORMAT={-:-/ absolute / metric / decimal}
; #@! TF.CreationDate,2026-03-09T10:35:38-06:00
; #@! TF.GenerationSoftware,Kicad,Pcbnew,9.0.7
; #@! TF.FileFunction,Plated,1,2,PTH
FMAT,2
METRIC
; #@! TA.AperFunction,Plated,PTH,ViaDrill
T1C0.300
; #@! TA.AperFunction,Plated,PTH,ComponentDrill
T2C0.800
; #@! TA.AperFunction,Plated,PTH,ComponentDrill
T3C0.900
; #@! TA.AperFunction,Plated,PTH,ComponentDrill
T4C1.000
; #@! TA.AperFunction,Plated,PTH,ComponentDrill
T5C1.200
; #@! TA.AperFunction,Plated,PTH,ComponentDrill
T6C1.600
; #@! TA.AperFunction,Plated,PTH,ComponentDrill
T7C3.200
%
G90
G05
T1
X58.0Y-98.5
X58.25Y-103.75
X58.5Y-74.75
X58.5Y-113.5
X59.0Y-117.25
X59.25Y-85.0
X63.25Y-80.75
X64.25Y-126.75
X64.75Y-71.25
X65.5Y-87.25
X65.75Y-74.25
X65.75Y-119.5
X66.0Y-96.75
X66.5Y-103.0
X66.5Y-121.5
X67.0Y-112.915
X67.5Y-128.5
X67.75Y-74.25
X68.0Y-78.75
X69.25Y-84.25
X70.0Y-87.5
X70.25Y-124.5
X70.75Y-94.0
X72.25Y-126.5
X72.25Y-128.7
X73.0Y-128.7
X73.75Y-128.7
X74.5Y-123.5
X74.55Y-128.7
X74.75Y-131.0
X75.25Y-128.7
X75.5Y-83.0
X75.5Y-97.75
X75.5Y-108.75
X75.5Y-117.25
X75.75Y-104.25
X75.95Y-128.7
X76.25Y-101.25
X76.5Y-121.0
X76.75Y-71.75
X76.75Y-113.75
X76.75Y-132.0
X77.5Y-105.0
X77.75Y-84.25
X78.25Y-92.5
X78.75Y-99.25
X79.5Y-83.1
X79.75Y-81.25
X81.0Y-71.0
X81.0Y-120.0
X81.75Y-81.25
X81.75Y-108.75
X82.0Y-114.75
X82.0Y-127.0
X82.0Y-130.4
X82.0Y-132.5
X82.25Y-98.25
X82.5Y-91.75
X82.75Y-74.0
X82.75Y-127.0
X82.75Y-130.4
X83.0Y-76.5
X83.25Y-79.25
X83.75Y-72.5
X85.25Y-109.5
X86.0Y-99.75
X86.0Y-113.0
X86.5Y-96.0
X86.5Y-119.25
X86.75Y-116.0
X87.0Y-107.75
X87.25Y-110.75
X89.5Y-121.0
X90.25Y-120.75
X91.25Y-120.75
X92.25Y-120.75
X92.5Y-108.75
X92.75Y-70.0
X92.75Y-83.5
X92.75Y-114.5
X93.0Y-95.75
X93.0Y-118.75
X93.125Y-121.375
X93.5Y-133.0
T2
X64.0Y-109.75
X64.0Y-117.37
X65.0Y-68.44
X65.0Y-76.06
X66.75Y-109.75
X66.75Y-117.37
X68.25Y-68.38
X68.25Y-76.0
X69.5Y-109.75
X69.5Y-117.37
X75.5Y-88.44
X75.5Y-96.06
X78.5Y-88.44
X78.5Y-96.06
X79.0Y-102.25
X79.0Y-107.25
X83.25Y-112.25
X83.25Y-117.25
T3
X58.75Y-77.0
X61.29Y-77.0
X81.03Y-85.64
X82.3Y-83.1
X83.57Y-85.64
X84.84Y-83.1
T4
X72.63Y-69.735
X72.63Y-72.275
X72.63Y-74.815
X72.63Y-77.355
X72.63Y-79.895
X72.63Y-82.435
X72.63Y-84.975
X72.63Y-87.515
X72.63Y-90.055
X72.63Y-92.595
X72.63Y-95.135
X72.63Y-97.675
X72.63Y-100.215
X72.63Y-102.755
X72.63Y-105.295
X72.63Y-107.835
X72.63Y-110.375
X72.63Y-112.915
X72.63Y-115.455
X72.63Y-117.995
X90.41Y-69.735
X90.41Y-72.275
X90.41Y-74.815
X90.41Y-77.355
X90.41Y-79.895
X90.41Y-82.435
X90.41Y-84.975
X90.41Y-87.515
X90.41Y-90.055
X90.41Y-92.595
X90.41Y-95.135
X90.41Y-97.675
X90.41Y-100.215
X90.41Y-102.755
X90.41Y-105.295
X90.41Y-107.835
X90.41Y-110.375
X90.41Y-112.915
X90.41Y-115.455
X90.41Y-117.995
T5
X61.0Y-83.0
X61.0Y-86.5
X61.0Y-90.0
X61.0Y-93.5
X61.0Y-97.0
X61.0Y-100.5
X61.0Y-104.0
T6
X59.5Y-109.51
X59.5Y-124.75
X85.75Y-89.13
X85.75Y-104.37
T7
X59.75Y-70.5
X59.75Y-130.5
M30
