%TF.GenerationSoftware,KiCad,Pcbnew,9.0.7*%
%TF.CreationDate,2026-03-09T10:35:31-06:00*%
%TF.ProjectId,pcb,7063622e-6b69-4636-9164-5f7063625858,rev?*%
%TF.SameCoordinates,Original*%
%TF.FileFunction,Soldermask,Bot*%
%TF.FilePolarity,Negative*%
%FSLAX46Y46*%
G04 Gerber Fmt 4.6, Leading zero omitted, Abs format (unit mm)*
G04 Created by KiCad (PCBNEW 9.0.7) date 2026-03-09 10:35:31*
%MOMM*%
%LPD*%
G01*
G04 APERTURE LIST*
G04 Aperture macros list*
%AMRoundRect*
0 Rectangle with rounded corners*
0 $1 Rounding radius*
0 $2 $3 $4 $5 $6 $7 $8 $9 X,Y pos of 4 corners*
0 Add a 4 corners polygon primitive as box body*
4,1,4,$2,$3,$4,$5,$6,$7,$8,$9,$2,$3,0*
0 Add four circle primitives for the rounded corners*
1,1,$1+$1,$2,$3*
1,1,$1+$1,$4,$5*
1,1,$1+$1,$6,$7*
1,1,$1+$1,$8,$9*
0 Add four rect primitives between the rounded corners*
20,1,$1+$1,$2,$3,$4,$5,0*
20,1,$1+$1,$4,$5,$6,$7,0*
20,1,$1+$1,$6,$7,$8,$9,0*
20,1,$1+$1,$8,$9,$2,$3,0*%
%AMFreePoly0*
4,1,37,0.603843,0.796157,0.639018,0.796157,0.711114,0.766294,0.766294,0.711114,0.796157,0.639018,0.796157,0.603843,0.800000,0.600000,0.800000,-0.600000,0.796157,-0.603843,0.796157,-0.639018,0.766294,-0.711114,0.711114,-0.766294,0.639018,-0.796157,0.603843,-0.796157,0.600000,-0.800000,0.000000,-0.800000,0.000000,-0.796148,-0.078414,-0.796148,-0.232228,-0.765552,-0.377117,-0.705537,
-0.507515,-0.618408,-0.618408,-0.507515,-0.705537,-0.377117,-0.765552,-0.232228,-0.796148,-0.078414,-0.796148,0.078414,-0.765552,0.232228,-0.705537,0.377117,-0.618408,0.507515,-0.507515,0.618408,-0.377117,0.705537,-0.232228,0.765552,-0.078414,0.796148,0.000000,0.796148,0.000000,0.800000,0.600000,0.800000,0.603843,0.796157,0.603843,0.796157,$1*%
%AMFreePoly1*
4,1,37,0.000000,0.796148,0.078414,0.796148,0.232228,0.765552,0.377117,0.705537,0.507515,0.618408,0.618408,0.507515,0.705537,0.377117,0.765552,0.232228,0.796148,0.078414,0.796148,-0.078414,0.765552,-0.232228,0.705537,-0.377117,0.618408,-0.507515,0.507515,-0.618408,0.377117,-0.705537,0.232228,-0.765552,0.078414,-0.796148,0.000000,-0.796148,0.000000,-0.800000,-0.600000,-0.800000,
-0.603843,-0.796157,-0.639018,-0.796157,-0.711114,-0.766294,-0.766294,-0.711114,-0.796157,-0.639018,-0.796157,-0.603843,-0.800000,-0.600000,-0.800000,0.600000,-0.796157,0.603843,-0.796157,0.639018,-0.766294,0.711114,-0.711114,0.766294,-0.639018,0.796157,-0.603843,0.796157,-0.600000,0.800000,0.000000,0.800000,0.000000,0.796148,0.000000,0.796148,$1*%
G04 Aperture macros list end*
%ADD10C,1.600000*%
%ADD11C,3.600000*%
%ADD12C,5.700000*%
%ADD13RoundRect,0.250000X1.350000X-1.350000X1.350000X1.350000X-1.350000X1.350000X-1.350000X-1.350000X0*%
%ADD14C,3.200000*%
%ADD15RoundRect,0.250001X-0.949999X0.949999X-0.949999X-0.949999X0.949999X-0.949999X0.949999X0.949999X0*%
%ADD16C,2.400000*%
%ADD17C,3.250000*%
%ADD18RoundRect,0.250000X0.650000X0.650000X-0.650000X0.650000X-0.650000X-0.650000X0.650000X-0.650000X0*%
%ADD19C,1.800000*%
%ADD20R,1.800000X1.800000*%
%ADD21RoundRect,0.200000X-0.600000X-0.600000X0.600000X-0.600000X0.600000X0.600000X-0.600000X0.600000X0*%
%ADD22FreePoly0,0.000000*%
%ADD23FreePoly1,0.000000*%
G04 APERTURE END LIST*
D10*
%TO.C,R4*%
X78500000Y-96060000D03*
X78500000Y-88440000D03*
%TD*%
%TO.C,R6*%
X75500000Y-88440000D03*
X75500000Y-96060000D03*
%TD*%
%TO.C,R7*%
X64000000Y-117370000D03*
X64000000Y-109750000D03*
%TD*%
D11*
%TO.C,REF\u002A\u002A*%
X59750000Y-70500000D03*
D12*
X59750000Y-70500000D03*
%TD*%
D10*
%TO.C,R2*%
X66750000Y-109750000D03*
X66750000Y-117370000D03*
%TD*%
D11*
%TO.C,REF\u002A\u002A*%
X59750000Y-130500000D03*
D12*
X59750000Y-130500000D03*
%TD*%
D13*
%TO.C,D2*%
X85750000Y-104370000D03*
D14*
X85750000Y-89130000D03*
%TD*%
D10*
%TO.C,R3*%
X65000000Y-68440000D03*
X65000000Y-76060000D03*
%TD*%
D15*
%TO.C,J6*%
X61000000Y-83000000D03*
D16*
X61000000Y-86500000D03*
X61000000Y-90000000D03*
X61000000Y-93500000D03*
X61000000Y-97000000D03*
X61000000Y-100500000D03*
X61000000Y-104000000D03*
%TD*%
D17*
%TO.C,J2*%
X86750000Y-76750000D03*
X79250000Y-76750000D03*
D18*
X84840000Y-83100000D03*
D19*
X83570000Y-85640000D03*
X82300000Y-83100000D03*
X81030000Y-85640000D03*
%TD*%
D20*
%TO.C,D3*%
X58750000Y-77000000D03*
D19*
X61290000Y-77000000D03*
%TD*%
D10*
%TO.C,R1*%
X69500000Y-117370000D03*
X69500000Y-109750000D03*
%TD*%
%TO.C,C2*%
X83250000Y-117250000D03*
X83250000Y-112250000D03*
%TD*%
%TO.C,R5*%
X68250000Y-68380000D03*
X68250000Y-76000000D03*
%TD*%
D13*
%TO.C,D1*%
X59500000Y-124750000D03*
D14*
X59500000Y-109510000D03*
%TD*%
D10*
%TO.C,C1*%
X79000000Y-107250000D03*
X79000000Y-102250000D03*
%TD*%
D21*
%TO.C,A2*%
X72630000Y-69735000D03*
D10*
X72630000Y-72275000D03*
D22*
X72630000Y-74815000D03*
D10*
X72630000Y-77355000D03*
X72630000Y-79895000D03*
X72630000Y-82435000D03*
X72630000Y-84975000D03*
D22*
X72630000Y-87515000D03*
D10*
X72630000Y-90055000D03*
X72630000Y-92595000D03*
X72630000Y-95135000D03*
X72630000Y-97675000D03*
D22*
X72630000Y-100215000D03*
D10*
X72630000Y-102755000D03*
X72630000Y-105295000D03*
X72630000Y-107835000D03*
X72630000Y-110375000D03*
D22*
X72630000Y-112915000D03*
D10*
X72630000Y-115455000D03*
X72630000Y-117995000D03*
X90410000Y-117995000D03*
X90410000Y-115455000D03*
D23*
X90410000Y-112915000D03*
D10*
X90410000Y-110375000D03*
X90410000Y-107835000D03*
X90410000Y-105295000D03*
X90410000Y-102755000D03*
D23*
X90410000Y-100215000D03*
D10*
X90410000Y-97675000D03*
X90410000Y-95135000D03*
X90410000Y-92595000D03*
X90410000Y-90055000D03*
D23*
X90410000Y-87515000D03*
D10*
X90410000Y-84975000D03*
X90410000Y-82435000D03*
X90410000Y-79895000D03*
X90410000Y-77355000D03*
D23*
X90410000Y-74815000D03*
D10*
X90410000Y-72275000D03*
X90410000Y-69735000D03*
%TD*%
M02*
