%TF.GenerationSoftware,KiCad,Pcbnew,9.0.7*%
%TF.CreationDate,2026-03-09T10:35:30-06:00*%
%TF.ProjectId,pcb,7063622e-6b69-4636-9164-5f7063625858,rev?*%
%TF.SameCoordinates,Original*%
%TF.FileFunction,Copper,L2,Bot*%
%TF.FilePolarity,Positive*%
%FSLAX46Y46*%
G04 Gerber Fmt 4.6, Leading zero omitted, Abs format (unit mm)*
G04 Created by KiCad (PCBNEW 9.0.7) date 2026-03-09 10:35:30*
%MOMM*%
%LPD*%
G01*
G04 APERTURE LIST*
G04 Aperture macros list*
%AMRoundRect*
0 Rectangle with rounded corners*
0 $1 Rounding radius*
0 $2 $3 $4 $5 $6 $7 $8 $9 X,Y pos of 4 corners*
0 Add a 4 corners polygon primitive as box body*
4,1,4,$2,$3,$4,$5,$6,$7,$8,$9,$2,$3,0*
0 Add four circle primitives for the rounded corners*
1,1,$1+$1,$2,$3*
1,1,$1+$1,$4,$5*
1,1,$1+$1,$6,$7*
1,1,$1+$1,$8,$9*
0 Add four rect primitives between the rounded corners*
20,1,$1+$1,$2,$3,$4,$5,0*
20,1,$1+$1,$4,$5,$6,$7,0*
20,1,$1+$1,$6,$7,$8,$9,0*
20,1,$1+$1,$8,$9,$2,$3,0*%
%AMFreePoly0*
4,1,37,0.603843,0.796157,0.639018,0.796157,0.711114,0.766294,0.766294,0.711114,0.796157,0.639018,0.796157,0.603843,0.800000,0.600000,0.800000,-0.600000,0.796157,-0.603843,0.796157,-0.639018,0.766294,-0.711114,0.711114,-0.766294,0.639018,-0.796157,0.603843,-0.796157,0.600000,-0.800000,0.000000,-0.800000,0.000000,-0.796148,-0.078414,-0.796148,-0.232228,-0.765552,-0.377117,-0.705537,
-0.507515,-0.618408,-0.618408,-0.507515,-0.705537,-0.377117,-0.765552,-0.232228,-0.796148,-0.078414,-0.796148,0.078414,-0.765552,0.232228,-0.705537,0.377117,-0.618408,0.507515,-0.507515,0.618408,-0.377117,0.705537,-0.232228,0.765552,-0.078414,0.796148,0.000000,0.796148,0.000000,0.800000,0.600000,0.800000,0.603843,0.796157,0.603843,0.796157,$1*%
%AMFreePoly1*
4,1,37,0.000000,0.796148,0.078414,0.796148,0.232228,0.765552,0.377117,0.705537,0.507515,0.618408,0.618408,0.507515,0.705537,0.377117,0.765552,0.232228,0.796148,0.078414,0.796148,-0.078414,0.765552,-0.232228,0.705537,-0.377117,0.618408,-0.507515,0.507515,-0.618408,0.377117,-0.705537,0.232228,-0.765552,0.078414,-0.796148,0.000000,-0.796148,0.000000,-0.800000,-0.600000,-0.800000,
-0.603843,-0.796157,-0.639018,-0.796157,-0.711114,-0.766294,-0.766294,-0.711114,-0.796157,-0.639018,-0.796157,-0.603843,-0.800000,-0.600000,-0.800000,0.600000,-0.796157,0.603843,-0.796157,0.639018,-0.766294,0.711114,-0.711114,0.766294,-0.639018,0.796157,-0.603843,0.796157,-0.600000,0.800000,0.000000,0.800000,0.000000,0.796148,0.000000,0.796148,$1*%
G04 Aperture macros list end*
%TA.AperFunction,ComponentPad*%
%ADD10C,1.600000*%
%TD*%
%TA.AperFunction,ComponentPad*%
%ADD11C,3.600000*%
%TD*%
%TA.AperFunction,ConnectorPad*%
%ADD12C,5.700000*%
%TD*%
%TA.AperFunction,ComponentPad*%
%ADD13RoundRect,0.250000X1.350000X-1.350000X1.350000X1.350000X-1.350000X1.350000X-1.350000X-1.350000X0*%
%TD*%
%TA.AperFunction,ComponentPad*%
%ADD14C,3.200000*%
%TD*%
%TA.AperFunction,ComponentPad*%
%ADD15RoundRect,0.250001X-0.949999X0.949999X-0.949999X-0.949999X0.949999X-0.949999X0.949999X0.949999X0*%
%TD*%
%TA.AperFunction,ComponentPad*%
%ADD16C,2.400000*%
%TD*%
%TA.AperFunction,ComponentPad*%
%ADD17RoundRect,0.250000X0.650000X0.650000X-0.650000X0.650000X-0.650000X-0.650000X0.650000X-0.650000X0*%
%TD*%
%TA.AperFunction,ComponentPad*%
%ADD18C,1.800000*%
%TD*%
%TA.AperFunction,ComponentPad*%
%ADD19R,1.800000X1.800000*%
%TD*%
%TA.AperFunction,ComponentPad*%
%ADD20RoundRect,0.200000X-0.600000X-0.600000X0.600000X-0.600000X0.600000X0.600000X-0.600000X0.600000X0*%
%TD*%
%TA.AperFunction,ComponentPad*%
%ADD21FreePoly0,0.000000*%
%TD*%
%TA.AperFunction,ComponentPad*%
%ADD22FreePoly1,0.000000*%
%TD*%
%TA.AperFunction,ViaPad*%
%ADD23C,0.600000*%
%TD*%
%TA.AperFunction,Conductor*%
%ADD24C,1.000000*%
%TD*%
%TA.AperFunction,Conductor*%
%ADD25C,0.200000*%
%TD*%
%TA.AperFunction,Conductor*%
%ADD26C,0.250000*%
%TD*%
%TA.AperFunction,Conductor*%
%ADD27C,1.500000*%
%TD*%
G04 APERTURE END LIST*
D10*
%TO.P,R4,1*%
%TO.N,Net-(U2-A)*%
X78500000Y-96060000D03*
%TO.P,R4,2*%
%TO.N,Net-(U2-B)*%
X78500000Y-88440000D03*
%TD*%
%TO.P,R6,1*%
%TO.N,Net-(U2-B)*%
X75500000Y-88440000D03*
%TO.P,R6,2*%
%TO.N,GND*%
X75500000Y-96060000D03*
%TD*%
%TO.P,R7,1*%
%TO.N,Net-(A2-VSYS)*%
X64000000Y-117370000D03*
%TO.P,R7,2*%
%TO.N,Net-(A2-GPIO13)*%
X64000000Y-109750000D03*
%TD*%
D11*
%TO.P,REF\u002A\u002A,1*%
%TO.N,N/C*%
X59750000Y-70500000D03*
D12*
X59750000Y-70500000D03*
%TD*%
D10*
%TO.P,R2,1*%
%TO.N,Net-(A2-GPIO11)*%
X66750000Y-109750000D03*
%TO.P,R2,2*%
%TO.N,Net-(A2-VSYS)*%
X66750000Y-117370000D03*
%TD*%
D11*
%TO.P,REF\u002A\u002A,1*%
%TO.N,N/C*%
X59750000Y-130500000D03*
D12*
X59750000Y-130500000D03*
%TD*%
D13*
%TO.P,D2,1,K*%
%TO.N,Net-(D2-K)*%
X85750000Y-104370000D03*
D14*
%TO.P,D2,2,A*%
%TO.N,Net-(D2-A)*%
X85750000Y-89130000D03*
%TD*%
D10*
%TO.P,R3,1*%
%TO.N,GND*%
X65000000Y-68440000D03*
%TO.P,R3,2*%
%TO.N,Net-(D3-K)*%
X65000000Y-76060000D03*
%TD*%
D15*
%TO.P,J6,1,Pin_1*%
%TO.N,GND*%
X61000000Y-83000000D03*
D16*
%TO.P,J6,2,Pin_2*%
%TO.N,Net-(A2-3V3)*%
X61000000Y-86500000D03*
%TO.P,J6,3,Pin_3*%
%TO.N,Net-(A2-GPIO9)*%
X61000000Y-90000000D03*
%TO.P,J6,4,Pin_4*%
%TO.N,Net-(A2-GPIO8)*%
X61000000Y-93500000D03*
%TO.P,J6,5,Pin_5*%
%TO.N,Net-(A2-VSYS)*%
X61000000Y-97000000D03*
%TO.P,J6,6,Pin_6*%
%TO.N,Net-(A2-GPIO10)*%
X61000000Y-100500000D03*
%TO.P,J6,7,Pin_7*%
%TO.N,GND*%
X61000000Y-104000000D03*
%TD*%
D17*
%TO.P,J2,1*%
%TO.N,Net-(U2-A)*%
X84840000Y-83100000D03*
D18*
%TO.P,J2,2*%
%TO.N,Net-(U2-B)*%
X83570000Y-85640000D03*
%TO.P,J2,3*%
%TO.N,GND*%
X82300000Y-83100000D03*
%TO.P,J2,4*%
%TO.N,Net-(D2-A)*%
X81030000Y-85640000D03*
%TD*%
D19*
%TO.P,D3,1,K*%
%TO.N,Net-(D3-K)*%
X58750000Y-77000000D03*
D18*
%TO.P,D3,2,A*%
%TO.N,Net-(A2-GPIO1)*%
X61290000Y-77000000D03*
%TD*%
D10*
%TO.P,R1,1*%
%TO.N,Net-(A2-VSYS)*%
X69500000Y-117370000D03*
%TO.P,R1,2*%
%TO.N,Net-(A2-GPIO12)*%
X69500000Y-109750000D03*
%TD*%
%TO.P,C2,1*%
%TO.N,Net-(A2-VSYS)*%
X83250000Y-117250000D03*
%TO.P,C2,2*%
%TO.N,GND*%
X83250000Y-112250000D03*
%TD*%
%TO.P,R5,1*%
%TO.N,Net-(A2-VSYS)*%
X68250000Y-68380000D03*
%TO.P,R5,2*%
%TO.N,Net-(U2-A)*%
X68250000Y-76000000D03*
%TD*%
D13*
%TO.P,D1,1,K*%
%TO.N,Net-(D1-K)*%
X59500000Y-124750000D03*
D14*
%TO.P,D1,2,A*%
%TO.N,GND*%
X59500000Y-109510000D03*
%TD*%
D10*
%TO.P,C1,1*%
%TO.N,Net-(D2-K)*%
X79000000Y-107250000D03*
%TO.P,C1,2*%
%TO.N,GND*%
X79000000Y-102250000D03*
%TD*%
D20*
%TO.P,A2,1,GPIO0*%
%TO.N,unconnected-(A2-GPIO0-Pad1)*%
X72630000Y-69735000D03*
D10*
%TO.P,A2,2,GPIO1*%
%TO.N,Net-(A2-GPIO1)*%
X72630000Y-72275000D03*
D21*
%TO.P,A2,3,GND*%
%TO.N,GND*%
X72630000Y-74815000D03*
D10*
%TO.P,A2,4,GPIO2*%
%TO.N,unconnected-(A2-GPIO2-Pad4)*%
X72630000Y-77355000D03*
%TO.P,A2,5,GPIO3*%
%TO.N,unconnected-(A2-GPIO3-Pad5)*%
X72630000Y-79895000D03*
%TO.P,A2,6,GPIO4*%
%TO.N,unconnected-(A2-GPIO4-Pad6)*%
X72630000Y-82435000D03*
%TO.P,A2,7,GPIO5*%
%TO.N,unconnected-(A2-GPIO5-Pad7)*%
X72630000Y-84975000D03*
D21*
%TO.P,A2,8,GND*%
%TO.N,GND*%
X72630000Y-87515000D03*
D10*
%TO.P,A2,9,GPIO6*%
%TO.N,unconnected-(A2-GPIO6-Pad9)*%
X72630000Y-90055000D03*
%TO.P,A2,10,GPIO7*%
%TO.N,unconnected-(A2-GPIO7-Pad10)*%
X72630000Y-92595000D03*
%TO.P,A2,11,GPIO8*%
%TO.N,Net-(A2-GPIO8)*%
X72630000Y-95135000D03*
%TO.P,A2,12,GPIO9*%
%TO.N,Net-(A2-GPIO9)*%
X72630000Y-97675000D03*
D21*
%TO.P,A2,13,GND*%
%TO.N,GND*%
X72630000Y-100215000D03*
D10*
%TO.P,A2,14,GPIO10*%
%TO.N,Net-(A2-GPIO10)*%
X72630000Y-102755000D03*
%TO.P,A2,15,GPIO11*%
%TO.N,Net-(A2-GPIO11)*%
X72630000Y-105295000D03*
%TO.P,A2,16,GPIO12*%
%TO.N,Net-(A2-GPIO12)*%
X72630000Y-107835000D03*
%TO.P,A2,17,GPIO13*%
%TO.N,Net-(A2-GPIO13)*%
X72630000Y-110375000D03*
D21*
%TO.P,A2,18,GND*%
%TO.N,GND*%
X72630000Y-112915000D03*
D10*
%TO.P,A2,19,GPIO14*%
%TO.N,unconnected-(A2-GPIO14-Pad19)*%
X72630000Y-115455000D03*
%TO.P,A2,20,GPIO15*%
%TO.N,unconnected-(A2-GPIO15-Pad20)*%
X72630000Y-117995000D03*
%TO.P,A2,21,GPIO16*%
%TO.N,unconnected-(A2-GPIO16-Pad21)*%
X90410000Y-117995000D03*
%TO.P,A2,22,GPIO17*%
%TO.N,unconnected-(A2-GPIO17-Pad22)*%
X90410000Y-115455000D03*
D22*
%TO.P,A2,23,GND*%
%TO.N,GND*%
X90410000Y-112915000D03*
D10*
%TO.P,A2,24,GPIO18*%
%TO.N,unconnected-(A2-GPIO18-Pad24)*%
X90410000Y-110375000D03*
%TO.P,A2,25,GPIO19*%
%TO.N,unconnected-(A2-GPIO19-Pad25)*%
X90410000Y-107835000D03*
%TO.P,A2,26,GPIO20*%
%TO.N,unconnected-(A2-GPIO20-Pad26)*%
X90410000Y-105295000D03*
%TO.P,A2,27,GPIO21*%
%TO.N,unconnected-(A2-GPIO21-Pad27)*%
X90410000Y-102755000D03*
D22*
%TO.P,A2,28,GND*%
%TO.N,GND*%
X90410000Y-100215000D03*
D10*
%TO.P,A2,29,GPIO22*%
%TO.N,unconnected-(A2-GPIO22-Pad29)*%
X90410000Y-97675000D03*
%TO.P,A2,30,RUN*%
%TO.N,unconnected-(A2-RUN-Pad30)*%
X90410000Y-95135000D03*
%TO.P,A2,31,GPIO26_ADC0*%
%TO.N,unconnected-(A2-GPIO26_ADC0-Pad31)*%
X90410000Y-92595000D03*
%TO.P,A2,32,GPIO27_ADC1*%
%TO.N,unconnected-(A2-GPIO27_ADC1-Pad32)*%
X90410000Y-90055000D03*
D22*
%TO.P,A2,33,AGND*%
%TO.N,unconnected-(A2-AGND-Pad33)*%
X90410000Y-87515000D03*
D10*
%TO.P,A2,34,GPIO28_ADC2*%
%TO.N,unconnected-(A2-GPIO28_ADC2-Pad34)*%
X90410000Y-84975000D03*
%TO.P,A2,35,ADC_VREF*%
%TO.N,unconnected-(A2-ADC_VREF-Pad35)*%
X90410000Y-82435000D03*
%TO.P,A2,36,3V3*%
%TO.N,Net-(A2-3V3)*%
X90410000Y-79895000D03*
%TO.P,A2,37,3V3_EN*%
%TO.N,unconnected-(A2-3V3_EN-Pad37)*%
X90410000Y-77355000D03*
D22*
%TO.P,A2,38,GND*%
%TO.N,GND*%
X90410000Y-74815000D03*
D10*
%TO.P,A2,39,VSYS*%
%TO.N,Net-(A2-VSYS)*%
X90410000Y-72275000D03*
%TO.P,A2,40,VBUS*%
%TO.N,unconnected-(A2-VBUS-Pad40)*%
X90410000Y-69735000D03*
%TD*%
D23*
%TO.N,GND*%
X70000000Y-87500000D03*
X67500000Y-128500000D03*
X93000000Y-118750000D03*
X75500000Y-83000000D03*
X92750000Y-70000000D03*
X76500000Y-121000000D03*
X92750000Y-114500000D03*
X93125000Y-121375000D03*
X76750000Y-71750000D03*
X75500000Y-97750000D03*
X66500000Y-103000000D03*
X58250000Y-103750000D03*
X91250000Y-120750000D03*
X78250000Y-92500000D03*
X58000000Y-98500000D03*
X81000000Y-120000000D03*
X69250000Y-84250000D03*
X79500000Y-83100000D03*
X58500000Y-113500000D03*
X86500000Y-119250000D03*
X58500000Y-74750000D03*
X65500000Y-87250000D03*
X81000000Y-71000000D03*
X82000000Y-132500000D03*
X86750000Y-116000000D03*
X82750000Y-74000000D03*
X68000000Y-78750000D03*
X93500000Y-133000000D03*
X59000000Y-117250000D03*
X82750000Y-127000000D03*
X82000000Y-114750000D03*
X63250000Y-80750000D03*
X78750000Y-99250000D03*
X90250000Y-120750000D03*
X92250000Y-120750000D03*
X64250000Y-126750000D03*
X83250000Y-79250000D03*
X83000000Y-76500000D03*
X65750000Y-119500000D03*
X86000000Y-99750000D03*
X75750000Y-104250000D03*
X82750000Y-130400000D03*
X82000000Y-127000000D03*
X74500000Y-123500000D03*
X64750000Y-71250000D03*
X67000000Y-112915000D03*
X66000000Y-96750000D03*
X92500000Y-108750000D03*
X89500000Y-121000000D03*
X93000000Y-95750000D03*
X59250000Y-85000000D03*
X82500000Y-91750000D03*
X75500000Y-117250000D03*
X70250000Y-124500000D03*
X92750000Y-83500000D03*
X87000000Y-107750000D03*
X72250000Y-126500000D03*
X82250000Y-98250000D03*
X82000000Y-130400000D03*
X83750000Y-72500000D03*
X86000000Y-113000000D03*
X76750000Y-132000000D03*
X81750000Y-108750000D03*
X76750000Y-113750000D03*
X77750000Y-84250000D03*
X85250000Y-109500000D03*
X75500000Y-108750000D03*
X74750000Y-131000000D03*
X87250000Y-110750000D03*
X86500000Y-96000000D03*
X77500000Y-105000000D03*
X76250000Y-101250000D03*
%TO.N,Net-(D1-K)*%
X66500000Y-121500000D03*
%TO.N,Net-(A2-3V3)*%
X79750000Y-81250000D03*
X81750000Y-81250000D03*
%TO.N,Net-(A2-GPIO9)*%
X70750000Y-94000000D03*
%TO.N,Net-(A2-VSYS)*%
X75250000Y-128700000D03*
X72250000Y-128700000D03*
X75950003Y-128700000D03*
X73000000Y-128700000D03*
X74549997Y-128700000D03*
X73750000Y-128700000D03*
%TO.N,Net-(A2-GPIO1)*%
X67750000Y-74250000D03*
X65750000Y-74250000D03*
%TD*%
D24*
%TO.N,GND*%
X72630000Y-100215000D02*
X75215000Y-100215000D01*
X75215000Y-100215000D02*
X75500000Y-99930000D01*
X72835000Y-112915000D02*
X73500000Y-112250000D01*
X74000000Y-87000000D02*
X73500000Y-87500000D01*
X59500000Y-109510000D02*
X62905000Y-112915000D01*
X83250000Y-112250000D02*
X83250000Y-106500000D01*
X61000000Y-104000000D02*
X63500000Y-104000000D01*
D25*
X75215000Y-100215000D02*
X75250000Y-100250000D01*
D24*
X72630000Y-74815000D02*
X71065000Y-74815000D01*
D25*
X63500000Y-104000000D02*
X63250000Y-104000000D01*
D24*
X83250000Y-106500000D02*
X79000000Y-102250000D01*
X61000000Y-104000000D02*
X59500000Y-105500000D01*
D25*
X71065000Y-74815000D02*
X71000000Y-74750000D01*
X74185000Y-74815000D02*
X74250000Y-74750000D01*
D24*
X72630000Y-100215000D02*
X70535000Y-100215000D01*
X67000000Y-112915000D02*
X72630000Y-112915000D01*
X73500000Y-112250000D02*
X83250000Y-112250000D01*
X82300000Y-82450000D02*
X84000000Y-80750000D01*
X59500000Y-105500000D02*
X59500000Y-109510000D01*
X79500000Y-83100000D02*
X79350000Y-83100000D01*
D25*
X72630000Y-87515000D02*
X73500000Y-87515000D01*
D24*
X73500000Y-87500000D02*
X70000000Y-87500000D01*
X82300000Y-83100000D02*
X79500000Y-83100000D01*
X76250000Y-101250000D02*
X75215000Y-100215000D01*
X70535000Y-100215000D02*
X70500000Y-100250000D01*
D25*
X79350000Y-83100000D02*
X79250000Y-83000000D01*
D24*
X72630000Y-74815000D02*
X74185000Y-74815000D01*
X62905000Y-112915000D02*
X67000000Y-112915000D01*
X76625000Y-101625000D02*
X76250000Y-101250000D01*
X72630000Y-112915000D02*
X72835000Y-112915000D01*
D25*
X63500000Y-104000000D02*
X64250000Y-104000000D01*
D24*
X75500000Y-99930000D02*
X75500000Y-97750000D01*
X75500000Y-97750000D02*
X75500000Y-96060000D01*
X77250000Y-102250000D02*
X76625000Y-101625000D01*
X82300000Y-83100000D02*
X82300000Y-82450000D01*
X79000000Y-102250000D02*
X77250000Y-102250000D01*
X74000000Y-87000000D02*
X75250000Y-85750000D01*
D25*
%TO.N,Net-(D1-K)*%
X63250000Y-124750000D02*
X66500000Y-121500000D01*
X59500000Y-124750000D02*
X63250000Y-124750000D01*
%TO.N,Net-(U2-B)*%
X83570000Y-85640000D02*
X80770000Y-88440000D01*
X80770000Y-88440000D02*
X78500000Y-88440000D01*
%TO.N,Net-(A2-GPIO10)*%
X61000000Y-100500000D02*
X66750000Y-100500000D01*
X72625000Y-102750000D02*
X72630000Y-102755000D01*
X66750000Y-100500000D02*
X69000000Y-102750000D01*
X69000000Y-102750000D02*
X72625000Y-102750000D01*
D26*
%TO.N,Net-(A2-3V3)*%
X79750000Y-81250000D02*
X81750000Y-81250000D01*
D25*
%TO.N,Net-(A2-GPIO9)*%
X70750000Y-94000000D02*
X70750000Y-95795000D01*
X70750000Y-95795000D02*
X72630000Y-97675000D01*
D27*
%TO.N,Net-(A2-VSYS)*%
X83250000Y-121250000D02*
X83250000Y-117250000D01*
X75950003Y-128549997D02*
X83250000Y-121250000D01*
X72250000Y-128700000D02*
X75950003Y-128700000D01*
D24*
X75950003Y-128700000D02*
X75950003Y-128549997D01*
D25*
%TO.N,Net-(A2-GPIO1)*%
X67750000Y-74250000D02*
X65750000Y-74250000D01*
%TD*%
%TA.AperFunction,Conductor*%
%TO.N,GND*%
G36*
X63899736Y-67519685D02*
G01*
X63945491Y-67572489D01*
X63955435Y-67641647D01*
X63933015Y-67696885D01*
X63888142Y-67758647D01*
X63795244Y-67940968D01*
X63732009Y-68135582D01*
X63700000Y-68337682D01*
X63700000Y-68542317D01*
X63732009Y-68744417D01*
X63795244Y-68939031D01*
X63888141Y-69121350D01*
X63888147Y-69121359D01*
X63920523Y-69165921D01*
X63920524Y-69165922D01*
X64600000Y-68486446D01*
X64600000Y-68492661D01*
X64627259Y-68594394D01*
X64679920Y-68685606D01*
X64754394Y-68760080D01*
X64845606Y-68812741D01*
X64947339Y-68840000D01*
X64953553Y-68840000D01*
X64274076Y-69519474D01*
X64318650Y-69551859D01*
X64500968Y-69644755D01*
X64695582Y-69707990D01*
X64897683Y-69740000D01*
X65102317Y-69740000D01*
X65304417Y-69707990D01*
X65499031Y-69644755D01*
X65681349Y-69551859D01*
X65725921Y-69519474D01*
X65046447Y-68840000D01*
X65052661Y-68840000D01*
X65154394Y-68812741D01*
X65245606Y-68760080D01*
X65320080Y-68685606D01*
X65372741Y-68594394D01*
X65400000Y-68492661D01*
X65400000Y-68486447D01*
X66079474Y-69165921D01*
X66111859Y-69121349D01*
X66204755Y-68939031D01*
X66267990Y-68744417D01*
X66300000Y-68542317D01*
X66300000Y-68337682D01*
X66267990Y-68135582D01*
X66204755Y-67940968D01*
X66111857Y-67758647D01*
X66066985Y-67696885D01*
X66043505Y-67631079D01*
X66059330Y-67563025D01*
X66109436Y-67514330D01*
X66167303Y-67500000D01*
X67038488Y-67500000D01*
X67105527Y-67519685D01*
X67151282Y-67572489D01*
X67161226Y-67641647D01*
X67139956Y-67694048D01*
X67140259Y-67694234D01*
X67139140Y-67696059D01*
X67138804Y-67696888D01*
X67137714Y-67698387D01*
X67044781Y-67880776D01*
X66981522Y-68075465D01*
X66972001Y-68135582D01*
X66949500Y-68277648D01*
X66949500Y-68482352D01*
X66951133Y-68492661D01*
X66981522Y-68684534D01*
X67044781Y-68879223D01*
X67137715Y-69061613D01*
X67258028Y-69227213D01*
X67402786Y-69371971D01*
X67557749Y-69484556D01*
X67568390Y-69492287D01*
X67684607Y-69551503D01*
X67750776Y-69585218D01*
X67750778Y-69585218D01*
X67750781Y-69585220D01*
X67855137Y-69619127D01*
X67945465Y-69648477D01*
X68046557Y-69664488D01*
X68147648Y-69680500D01*
X68147649Y-69680500D01*
X68352351Y-69680500D01*
X68352352Y-69680500D01*
X68554534Y-69648477D01*
X68749219Y-69585220D01*
X68931610Y-69492287D01*
X69024590Y-69424732D01*
X69097213Y-69371971D01*
X69097215Y-69371968D01*
X69097219Y-69371966D01*
X69241966Y-69227219D01*
X69241968Y-69227215D01*
X69241971Y-69227213D01*
X69326298Y-69111144D01*
X69362287Y-69061610D01*
X69370917Y-69044672D01*
X69383857Y-69019278D01*
X69455218Y-68879223D01*
X69455218Y-68879222D01*
X69455220Y-68879219D01*
X69518477Y-68684534D01*
X69550500Y-68482352D01*
X69550500Y-68277648D01*
X69518477Y-68075466D01*
X69515810Y-68067259D01*
X69455218Y-67880776D01*
X69405276Y-67782761D01*
X69362287Y-67698390D01*
X69361196Y-67696888D01*
X69360957Y-67696218D01*
X69359741Y-67694234D01*
X69360157Y-67693978D01*
X69337714Y-67631083D01*
X69353538Y-67563028D01*
X69403642Y-67514332D01*
X69461512Y-67500000D01*
X93626000Y-67500000D01*
X93693039Y-67519685D01*
X93738794Y-67572489D01*
X93750000Y-67624000D01*
X93750000Y-133126000D01*
X93730315Y-133193039D01*
X93677511Y-133238794D01*
X93626000Y-133250000D01*
X62027097Y-133250000D01*
X61960058Y-133230315D01*
X61914303Y-133177511D01*
X61904359Y-133108353D01*
X61933384Y-133044797D01*
X61948432Y-133030147D01*
X61957914Y-133022364D01*
X62002772Y-132985551D01*
X62235551Y-132752772D01*
X62444393Y-132498298D01*
X62627286Y-132224579D01*
X62782469Y-131934251D01*
X62908448Y-131630111D01*
X63004010Y-131315087D01*
X63004012Y-131315077D01*
X63004015Y-131315066D01*
X63032916Y-131169760D01*
X63068233Y-130992213D01*
X63100500Y-130664600D01*
X63100500Y-130335400D01*
X63068233Y-130007787D01*
X63038614Y-129858882D01*
X63004015Y-129684933D01*
X63004012Y-129684922D01*
X63004011Y-129684919D01*
X63004010Y-129684913D01*
X62908448Y-129369889D01*
X62782469Y-129065749D01*
X62627286Y-128775421D01*
X62549092Y-128658396D01*
X62511127Y-128601577D01*
X70999500Y-128601577D01*
X70999500Y-128798422D01*
X71030290Y-128992826D01*
X71091117Y-129180029D01*
X71180475Y-129355403D01*
X71180476Y-129355405D01*
X71296172Y-129514646D01*
X71435354Y-129653828D01*
X71594595Y-129769524D01*
X71677455Y-129811743D01*
X71769970Y-129858882D01*
X71769972Y-129858882D01*
X71769975Y-129858884D01*
X71870317Y-129891487D01*
X71957173Y-129919709D01*
X72151578Y-129950500D01*
X72151583Y-129950500D01*
X76048425Y-129950500D01*
X76242829Y-129919709D01*
X76430028Y-129858884D01*
X76605408Y-129769524D01*
X76764649Y-129653828D01*
X76903831Y-129514646D01*
X77019527Y-129355405D01*
X77108887Y-129180025D01*
X77109521Y-129178073D01*
X77110057Y-129177197D01*
X77110749Y-129175528D01*
X77111013Y-129175637D01*
X77139772Y-129128700D01*
X84203829Y-122064646D01*
X84319524Y-121905405D01*
X84408884Y-121730026D01*
X84469709Y-121542826D01*
X84484211Y-121451265D01*
X84500500Y-121348421D01*
X84500500Y-117629500D01*
X84506569Y-117591182D01*
X84518477Y-117554534D01*
X84550500Y-117352352D01*
X84550500Y-117147648D01*
X84541057Y-117088030D01*
X84518477Y-116945465D01*
X84470057Y-116796446D01*
X84455220Y-116750781D01*
X84455218Y-116750778D01*
X84455218Y-116750776D01*
X84405681Y-116653555D01*
X84362287Y-116568390D01*
X84329154Y-116522786D01*
X84241971Y-116402786D01*
X84097213Y-116258028D01*
X83931613Y-116137715D01*
X83931612Y-116137714D01*
X83931610Y-116137713D01*
X83860583Y-116101523D01*
X83749223Y-116044781D01*
X83554534Y-115981522D01*
X83379995Y-115953878D01*
X83352352Y-115949500D01*
X83147648Y-115949500D01*
X83123329Y-115953351D01*
X82945465Y-115981522D01*
X82750776Y-116044781D01*
X82568386Y-116137715D01*
X82402786Y-116258028D01*
X82258028Y-116402786D01*
X82137715Y-116568386D01*
X82044781Y-116750776D01*
X81981522Y-116945465D01*
X81949500Y-117147648D01*
X81949500Y-117352351D01*
X81981522Y-117554530D01*
X81981522Y-117554531D01*
X81993431Y-117591182D01*
X81999500Y-117629500D01*
X81999500Y-120680663D01*
X81979815Y-120747702D01*
X81963181Y-120768344D01*
X75318345Y-127413181D01*
X75257022Y-127446666D01*
X75230664Y-127449500D01*
X72151578Y-127449500D01*
X71957173Y-127480290D01*
X71769970Y-127541117D01*
X71594594Y-127630476D01*
X71503741Y-127696485D01*
X71435354Y-127746172D01*
X71435352Y-127746174D01*
X71435351Y-127746174D01*
X71296174Y-127885351D01*
X71296174Y-127885352D01*
X71296172Y-127885354D01*
X71246485Y-127953741D01*
X71180476Y-128044594D01*
X71091117Y-128219970D01*
X71030290Y-128407173D01*
X70999500Y-128601577D01*
X62511127Y-128601577D01*
X62444405Y-128501719D01*
X62444398Y-128501709D01*
X62444393Y-128501702D01*
X62235551Y-128247228D01*
X62235550Y-128247227D01*
X62235546Y-128247222D01*
X62002777Y-128014453D01*
X61748303Y-127805611D01*
X61748302Y-127805610D01*
X61748298Y-127805607D01*
X61474579Y-127622714D01*
X61474574Y-127622711D01*
X61474567Y-127622707D01*
X61184258Y-127467535D01*
X61184251Y-127467531D01*
X61184244Y-127467528D01*
X60880112Y-127341552D01*
X60565077Y-127245987D01*
X60565066Y-127245984D01*
X60242218Y-127181768D01*
X60242213Y-127181767D01*
X60242211Y-127181766D01*
X60242201Y-127181765D01*
X60001522Y-127158061D01*
X59914600Y-127149500D01*
X59585400Y-127149500D01*
X59505540Y-127157365D01*
X59257798Y-127181765D01*
X59257781Y-127181768D01*
X58934933Y-127245984D01*
X58934922Y-127245987D01*
X58619887Y-127341552D01*
X58315755Y-127467528D01*
X58315741Y-127467535D01*
X58025432Y-127622707D01*
X58025414Y-127622718D01*
X57751710Y-127805601D01*
X57751696Y-127805611D01*
X57497222Y-128014453D01*
X57264453Y-128247222D01*
X57219853Y-128301568D01*
X57162107Y-128340902D01*
X57092263Y-128342773D01*
X57032494Y-128306585D01*
X57001779Y-128243829D01*
X57000000Y-128222903D01*
X57000000Y-123349983D01*
X57399500Y-123349983D01*
X57399500Y-126150001D01*
X57399501Y-126150018D01*
X57410000Y-126252796D01*
X57410001Y-126252799D01*
X57465185Y-126419331D01*
X57465186Y-126419334D01*
X57557288Y-126568656D01*
X57681344Y-126692712D01*
X57830666Y-126784814D01*
X57997203Y-126839999D01*
X58099991Y-126850500D01*
X60900008Y-126850499D01*
X61002797Y-126839999D01*
X61169334Y-126784814D01*
X61318656Y-126692712D01*
X61442712Y-126568656D01*
X61534814Y-126419334D01*
X61589999Y-126252797D01*
X61600500Y-126150009D01*
X61600500Y-125474500D01*
X61620185Y-125407461D01*
X61672989Y-125361706D01*
X61724500Y-125350500D01*
X63163331Y-125350500D01*
X63163347Y-125350501D01*
X63170943Y-125350501D01*
X63329054Y-125350501D01*
X63329057Y-125350501D01*
X63481785Y-125309577D01*
X63531904Y-125280639D01*
X63618716Y-125230520D01*
X63730520Y-125118716D01*
X63730520Y-125118714D01*
X63740728Y-125108507D01*
X63740729Y-125108504D01*
X66514662Y-122334572D01*
X66575983Y-122301089D01*
X66578150Y-122300638D01*
X66636085Y-122289113D01*
X66733497Y-122269737D01*
X66879179Y-122209394D01*
X67010289Y-122121789D01*
X67121789Y-122010289D01*
X67209394Y-121879179D01*
X67269737Y-121733497D01*
X67300500Y-121578842D01*
X67300500Y-121421158D01*
X67300500Y-121421155D01*
X67300499Y-121421153D01*
X67269737Y-121266503D01*
X67222136Y-121151583D01*
X67209397Y-121120827D01*
X67209390Y-121120814D01*
X67121789Y-120989711D01*
X67121786Y-120989707D01*
X67010292Y-120878213D01*
X67010288Y-120878210D01*
X66879185Y-120790609D01*
X66879172Y-120790602D01*
X66733501Y-120730264D01*
X66733489Y-120730261D01*
X66578845Y-120699500D01*
X66578842Y-120699500D01*
X66421158Y-120699500D01*
X66421155Y-120699500D01*
X66266510Y-120730261D01*
X66266498Y-120730264D01*
X66120827Y-120790602D01*
X66120814Y-120790609D01*
X65989711Y-120878210D01*
X65989707Y-120878213D01*
X65878213Y-120989707D01*
X65878210Y-120989711D01*
X65790609Y-121120814D01*
X65790602Y-121120827D01*
X65730264Y-121266498D01*
X65730261Y-121266508D01*
X65699361Y-121421850D01*
X65666976Y-121483761D01*
X65665425Y-121485339D01*
X63037584Y-124113181D01*
X62976261Y-124146666D01*
X62949903Y-124149500D01*
X61724499Y-124149500D01*
X61657460Y-124129815D01*
X61611705Y-124077011D01*
X61600499Y-124025500D01*
X61600499Y-123349998D01*
X61600498Y-123349981D01*
X61589999Y-123247203D01*
X61589998Y-123247200D01*
X61534814Y-123080666D01*
X61442712Y-122931344D01*
X61318656Y-122807288D01*
X61169334Y-122715186D01*
X61002797Y-122660001D01*
X61002795Y-122660000D01*
X60900010Y-122649500D01*
X58099998Y-122649500D01*
X58099981Y-122649501D01*
X57997203Y-122660000D01*
X57997200Y-122660001D01*
X57830668Y-122715185D01*
X57830663Y-122715187D01*
X57681342Y-122807289D01*
X57557289Y-122931342D01*
X57465187Y-123080663D01*
X57465186Y-123080666D01*
X57410001Y-123247203D01*
X57410001Y-123247204D01*
X57410000Y-123247204D01*
X57399500Y-123349983D01*
X57000000Y-123349983D01*
X57000000Y-117267648D01*
X62699500Y-117267648D01*
X62699500Y-117472351D01*
X62731522Y-117674534D01*
X62794781Y-117869223D01*
X62887715Y-118051613D01*
X63008028Y-118217213D01*
X63152786Y-118361971D01*
X63307749Y-118474556D01*
X63318390Y-118482287D01*
X63434607Y-118541503D01*
X63500776Y-118575218D01*
X63500778Y-118575218D01*
X63500781Y-118575220D01*
X63605137Y-118609127D01*
X63695465Y-118638477D01*
X63796557Y-118654488D01*
X63897648Y-118670500D01*
X63897649Y-118670500D01*
X64102351Y-118670500D01*
X64102352Y-118670500D01*
X64304534Y-118638477D01*
X64499219Y-118575220D01*
X64681610Y-118482287D01*
X64774590Y-118414732D01*
X64847213Y-118361971D01*
X64847215Y-118361968D01*
X64847219Y-118361966D01*
X64991966Y-118217219D01*
X64991968Y-118217215D01*
X64991971Y-118217213D01*
X65044732Y-118144590D01*
X65112287Y-118051610D01*
X65205220Y-117869219D01*
X65257069Y-117709645D01*
X65296507Y-117651969D01*
X65360865Y-117624771D01*
X65429712Y-117636686D01*
X65481187Y-117683930D01*
X65492931Y-117709645D01*
X65544781Y-117869221D01*
X65637715Y-118051613D01*
X65758028Y-118217213D01*
X65902786Y-118361971D01*
X66057749Y-118474556D01*
X66068390Y-118482287D01*
X66184607Y-118541503D01*
X66250776Y-118575218D01*
X66250778Y-118575218D01*
X66250781Y-118575220D01*
X66355137Y-118609127D01*
X66445465Y-118638477D01*
X66546557Y-118654488D01*
X66647648Y-118670500D01*
X66647649Y-118670500D01*
X66852351Y-118670500D01*
X66852352Y-118670500D01*
X67054534Y-118638477D01*
X67249219Y-118575220D01*
X67431610Y-118482287D01*
X67524590Y-118414732D01*
X67597213Y-118361971D01*
X67597215Y-118361968D01*
X67597219Y-118361966D01*
X67741966Y-118217219D01*
X67741968Y-118217215D01*
X67741971Y-118217213D01*
X67794732Y-118144590D01*
X67862287Y-118051610D01*
X67955220Y-117869219D01*
X68007069Y-117709645D01*
X68046507Y-117651969D01*
X68110865Y-117624771D01*
X68179712Y-117636686D01*
X68231187Y-117683930D01*
X68242931Y-117709645D01*
X68294781Y-117869221D01*
X68387715Y-118051613D01*
X68508028Y-118217213D01*
X68652786Y-118361971D01*
X68807749Y-118474556D01*
X68818390Y-118482287D01*
X68934607Y-118541503D01*
X69000776Y-118575218D01*
X69000778Y-118575218D01*
X69000781Y-118575220D01*
X69105137Y-118609127D01*
X69195465Y-118638477D01*
X69296557Y-118654488D01*
X69397648Y-118670500D01*
X69397649Y-118670500D01*
X69602351Y-118670500D01*
X69602352Y-118670500D01*
X69804534Y-118638477D01*
X69999219Y-118575220D01*
X70181610Y-118482287D01*
X70274590Y-118414732D01*
X70347213Y-118361971D01*
X70347215Y-118361968D01*
X70347219Y-118361966D01*
X70491966Y-118217219D01*
X70491968Y-118217215D01*
X70491971Y-118217213D01*
X70544732Y-118144590D01*
X70612287Y-118051610D01*
X70705220Y-117869219D01*
X70768477Y-117674534D01*
X70800500Y-117472352D01*
X70800500Y-117267648D01*
X70768477Y-117065465D01*
X70729486Y-116945465D01*
X70705220Y-116870781D01*
X70705218Y-116870778D01*
X70705218Y-116870776D01*
X70662792Y-116787511D01*
X70612287Y-116688390D01*
X70593470Y-116662490D01*
X70491971Y-116522786D01*
X70347213Y-116378028D01*
X70181613Y-116257715D01*
X70181612Y-116257714D01*
X70181610Y-116257713D01*
X70124653Y-116228691D01*
X69999223Y-116164781D01*
X69804534Y-116101522D01*
X69629995Y-116073878D01*
X69602352Y-116069500D01*
X69397648Y-116069500D01*
X69373329Y-116073351D01*
X69195465Y-116101522D01*
X69000776Y-116164781D01*
X68818386Y-116257715D01*
X68652786Y-116378028D01*
X68508028Y-116522786D01*
X68387715Y-116688386D01*
X68294781Y-116870776D01*
X68242931Y-117030355D01*
X68203493Y-117088030D01*
X68139134Y-117115228D01*
X68070288Y-117103313D01*
X68018812Y-117056069D01*
X68007069Y-117030355D01*
X67979486Y-116945465D01*
X67955220Y-116870781D01*
X67955218Y-116870778D01*
X67955218Y-116870776D01*
X67912792Y-116787511D01*
X67862287Y-116688390D01*
X67843470Y-116662490D01*
X67741971Y-116522786D01*
X67597213Y-116378028D01*
X67431613Y-116257715D01*
X67431612Y-116257714D01*
X67431610Y-116257713D01*
X67374653Y-116228691D01*
X67249223Y-116164781D01*
X67054534Y-116101522D01*
X66879995Y-116073878D01*
X66852352Y-116069500D01*
X66647648Y-116069500D01*
X66623329Y-116073351D01*
X66445465Y-116101522D01*
X66250776Y-116164781D01*
X66068386Y-116257715D01*
X65902786Y-116378028D01*
X65758028Y-116522786D01*
X65637715Y-116688386D01*
X65544781Y-116870776D01*
X65492931Y-117030355D01*
X65453493Y-117088030D01*
X65389134Y-117115228D01*
X65320288Y-117103313D01*
X65268812Y-117056069D01*
X65257069Y-117030355D01*
X65229486Y-116945465D01*
X65205220Y-116870781D01*
X65205218Y-116870778D01*
X65205218Y-116870776D01*
X65162792Y-116787511D01*
X65112287Y-116688390D01*
X65093470Y-116662490D01*
X64991971Y-116522786D01*
X64847213Y-116378028D01*
X64681613Y-116257715D01*
X64681612Y-116257714D01*
X64681610Y-116257713D01*
X64624653Y-116228691D01*
X64499223Y-116164781D01*
X64304534Y-116101522D01*
X64129995Y-116073878D01*
X64102352Y-116069500D01*
X63897648Y-116069500D01*
X63873329Y-116073351D01*
X63695465Y-116101522D01*
X63500776Y-116164781D01*
X63318386Y-116257715D01*
X63152786Y-116378028D01*
X63008028Y-116522786D01*
X62887715Y-116688386D01*
X62794781Y-116870776D01*
X62731522Y-117065465D01*
X62699500Y-117267648D01*
X57000000Y-117267648D01*
X57000000Y-109372358D01*
X57400000Y-109372358D01*
X57400000Y-109647641D01*
X57435930Y-109920565D01*
X57507180Y-110186471D01*
X57612520Y-110440787D01*
X57612527Y-110440802D01*
X57750163Y-110679196D01*
X57848758Y-110807686D01*
X58784152Y-109872291D01*
X58791049Y-109888942D01*
X58878599Y-110019970D01*
X58990030Y-110131401D01*
X59121058Y-110218951D01*
X59137706Y-110225847D01*
X58202312Y-111161240D01*
X58330804Y-111259836D01*
X58569197Y-111397472D01*
X58569212Y-111397479D01*
X58823528Y-111502819D01*
X59089434Y-111574069D01*
X59362358Y-111610000D01*
X59637642Y-111610000D01*
X59910565Y-111574069D01*
X60176471Y-111502819D01*
X60430787Y-111397479D01*
X60430802Y-111397472D01*
X60669194Y-111259836D01*
X60669211Y-111259825D01*
X60797686Y-111161241D01*
X60797686Y-111161239D01*
X59862293Y-110225847D01*
X59878942Y-110218951D01*
X60009970Y-110131401D01*
X60121401Y-110019970D01*
X60208951Y-109888942D01*
X60215847Y-109872293D01*
X61151239Y-110807686D01*
X61151241Y-110807686D01*
X61249825Y-110679211D01*
X61249836Y-110679194D01*
X61387472Y-110440802D01*
X61387479Y-110440787D01*
X61492819Y-110186471D01*
X61564069Y-109920565D01*
X61599999Y-109647648D01*
X62699500Y-109647648D01*
X62699500Y-109852351D01*
X62731522Y-110054534D01*
X62794781Y-110249223D01*
X62887715Y-110431613D01*
X63008028Y-110597213D01*
X63152786Y-110741971D01*
X63307749Y-110854556D01*
X63318390Y-110862287D01*
X63434607Y-110921503D01*
X63500776Y-110955218D01*
X63500778Y-110955218D01*
X63500781Y-110955220D01*
X63583229Y-110982009D01*
X63695465Y-111018477D01*
X63796557Y-111034488D01*
X63897648Y-111050500D01*
X63897649Y-111050500D01*
X64102351Y-111050500D01*
X64102352Y-111050500D01*
X64304534Y-111018477D01*
X64499219Y-110955220D01*
X64681610Y-110862287D01*
X64774590Y-110794732D01*
X64847213Y-110741971D01*
X64847215Y-110741968D01*
X64847219Y-110741966D01*
X64991966Y-110597219D01*
X64991968Y-110597215D01*
X64991971Y-110597213D01*
X65044732Y-110524590D01*
X65112287Y-110431610D01*
X65205220Y-110249219D01*
X65257069Y-110089645D01*
X65296507Y-110031969D01*
X65360865Y-110004771D01*
X65429712Y-110016686D01*
X65481187Y-110063930D01*
X65492931Y-110089645D01*
X65534945Y-110218951D01*
X65544781Y-110249221D01*
X65637715Y-110431613D01*
X65758028Y-110597213D01*
X65902786Y-110741971D01*
X66057749Y-110854556D01*
X66068390Y-110862287D01*
X66184607Y-110921503D01*
X66250776Y-110955218D01*
X66250778Y-110955218D01*
X66250781Y-110955220D01*
X66333229Y-110982009D01*
X66445465Y-111018477D01*
X66546557Y-111034488D01*
X66647648Y-111050500D01*
X66647649Y-111050500D01*
X66852351Y-111050500D01*
X66852352Y-111050500D01*
X67054534Y-111018477D01*
X67249219Y-110955220D01*
X67431610Y-110862287D01*
X67524590Y-110794732D01*
X67597213Y-110741971D01*
X67597215Y-110741968D01*
X67597219Y-110741966D01*
X67741966Y-110597219D01*
X67741968Y-110597215D01*
X67741971Y-110597213D01*
X67794732Y-110524590D01*
X67862287Y-110431610D01*
X67955220Y-110249219D01*
X68007069Y-110089645D01*
X68046507Y-110031969D01*
X68110865Y-110004771D01*
X68179712Y-110016686D01*
X68231187Y-110063930D01*
X68242931Y-110089645D01*
X68284945Y-110218951D01*
X68294781Y-110249221D01*
X68387715Y-110431613D01*
X68508028Y-110597213D01*
X68652786Y-110741971D01*
X68807749Y-110854556D01*
X68818390Y-110862287D01*
X68934607Y-110921503D01*
X69000776Y-110955218D01*
X69000778Y-110955218D01*
X69000781Y-110955220D01*
X69083229Y-110982009D01*
X69195465Y-111018477D01*
X69296557Y-111034488D01*
X69397648Y-111050500D01*
X69397649Y-111050500D01*
X69602351Y-111050500D01*
X69602352Y-111050500D01*
X69804534Y-111018477D01*
X69999219Y-110955220D01*
X70181610Y-110862287D01*
X70274590Y-110794732D01*
X70347213Y-110741971D01*
X70347215Y-110741968D01*
X70347219Y-110741966D01*
X70491966Y-110597219D01*
X70491968Y-110597215D01*
X70491971Y-110597213D01*
X70544732Y-110524590D01*
X70612287Y-110431610D01*
X70705220Y-110249219D01*
X70768477Y-110054534D01*
X70800500Y-109852352D01*
X70800500Y-109647648D01*
X70791178Y-109588793D01*
X70768477Y-109445465D01*
X70713625Y-109276649D01*
X70705220Y-109250781D01*
X70705218Y-109250778D01*
X70705218Y-109250776D01*
X70644218Y-109131058D01*
X70612287Y-109068390D01*
X70593470Y-109042490D01*
X70491971Y-108902786D01*
X70347213Y-108758028D01*
X70181613Y-108637715D01*
X70181612Y-108637714D01*
X70181610Y-108637713D01*
X70066796Y-108579212D01*
X69999223Y-108544781D01*
X69804534Y-108481522D01*
X69629995Y-108453878D01*
X69602352Y-108449500D01*
X69397648Y-108449500D01*
X69373329Y-108453351D01*
X69195465Y-108481522D01*
X69000776Y-108544781D01*
X68818386Y-108637715D01*
X68652786Y-108758028D01*
X68508028Y-108902786D01*
X68387715Y-109068386D01*
X68294781Y-109250776D01*
X68242931Y-109410355D01*
X68203493Y-109468030D01*
X68139134Y-109495228D01*
X68070288Y-109483313D01*
X68018812Y-109436069D01*
X68007069Y-109410355D01*
X67963625Y-109276649D01*
X67955220Y-109250781D01*
X67955218Y-109250778D01*
X67955218Y-109250776D01*
X67894218Y-109131058D01*
X67862287Y-109068390D01*
X67843470Y-109042490D01*
X67741971Y-108902786D01*
X67597213Y-108758028D01*
X67431613Y-108637715D01*
X67431612Y-108637714D01*
X67431610Y-108637713D01*
X67316796Y-108579212D01*
X67249223Y-108544781D01*
X67054534Y-108481522D01*
X66879995Y-108453878D01*
X66852352Y-108449500D01*
X66647648Y-108449500D01*
X66623329Y-108453351D01*
X66445465Y-108481522D01*
X66250776Y-108544781D01*
X66068386Y-108637715D01*
X65902786Y-108758028D01*
X65758028Y-108902786D01*
X65637715Y-109068386D01*
X65544781Y-109250776D01*
X65492931Y-109410355D01*
X65453493Y-109468030D01*
X65389134Y-109495228D01*
X65320288Y-109483313D01*
X65268812Y-109436069D01*
X65257069Y-109410355D01*
X65213625Y-109276649D01*
X65205220Y-109250781D01*
X65205218Y-109250778D01*
X65205218Y-109250776D01*
X65144218Y-109131058D01*
X65112287Y-109068390D01*
X65093470Y-109042490D01*
X64991971Y-108902786D01*
X64847213Y-108758028D01*
X64681613Y-108637715D01*
X64681612Y-108637714D01*
X64681610Y-108637713D01*
X64566796Y-108579212D01*
X64499223Y-108544781D01*
X64304534Y-108481522D01*
X64129995Y-108453878D01*
X64102352Y-108449500D01*
X63897648Y-108449500D01*
X63873329Y-108453351D01*
X63695465Y-108481522D01*
X63500776Y-108544781D01*
X63318386Y-108637715D01*
X63152786Y-108758028D01*
X63008028Y-108902786D01*
X62887715Y-109068386D01*
X62794781Y-109250776D01*
X62731522Y-109445465D01*
X62699500Y-109647648D01*
X61599999Y-109647648D01*
X61600000Y-109647641D01*
X61600000Y-109372358D01*
X61564069Y-109099434D01*
X61492819Y-108833528D01*
X61387479Y-108579212D01*
X61387472Y-108579197D01*
X61249836Y-108340804D01*
X61151240Y-108212312D01*
X60215846Y-109147705D01*
X60208951Y-109131058D01*
X60121401Y-109000030D01*
X60009970Y-108888599D01*
X59878942Y-108801049D01*
X59862293Y-108794152D01*
X60797686Y-107858758D01*
X60669196Y-107760163D01*
X60430802Y-107622527D01*
X60430787Y-107622520D01*
X60176471Y-107517180D01*
X59910565Y-107445930D01*
X59637642Y-107410000D01*
X59362358Y-107410000D01*
X59089434Y-107445930D01*
X58823528Y-107517180D01*
X58569212Y-107622520D01*
X58569197Y-107622527D01*
X58330799Y-107760166D01*
X58202312Y-107858757D01*
X58202312Y-107858758D01*
X59137706Y-108794152D01*
X59121058Y-108801049D01*
X58990030Y-108888599D01*
X58878599Y-109000030D01*
X58791049Y-109131058D01*
X58784152Y-109147706D01*
X57848758Y-108212312D01*
X57848757Y-108212312D01*
X57750166Y-108340799D01*
X57612527Y-108579197D01*
X57612520Y-108579212D01*
X57507180Y-108833528D01*
X57435930Y-109099434D01*
X57400000Y-109372358D01*
X57000000Y-109372358D01*
X57000000Y-86388549D01*
X59299500Y-86388549D01*
X59299500Y-86611450D01*
X59299501Y-86611466D01*
X59328594Y-86832452D01*
X59328595Y-86832457D01*
X59328596Y-86832463D01*
X59381392Y-87029500D01*
X59386290Y-87047780D01*
X59386293Y-87047790D01*
X59470955Y-87252181D01*
X59471595Y-87253726D01*
X59583052Y-87446774D01*
X59583057Y-87446780D01*
X59583058Y-87446782D01*
X59718751Y-87623622D01*
X59718757Y-87623629D01*
X59876370Y-87781242D01*
X59876376Y-87781247D01*
X60053226Y-87916948D01*
X60246274Y-88028405D01*
X60452219Y-88113710D01*
X60513857Y-88130225D01*
X60573516Y-88166590D01*
X60604045Y-88229437D01*
X60595750Y-88298813D01*
X60551265Y-88352691D01*
X60513858Y-88369773D01*
X60452219Y-88386290D01*
X60452217Y-88386290D01*
X60452216Y-88386291D01*
X60452209Y-88386293D01*
X60246277Y-88471593D01*
X60246273Y-88471595D01*
X60053226Y-88583052D01*
X60053217Y-88583058D01*
X59876377Y-88718751D01*
X59876370Y-88718757D01*
X59718757Y-88876370D01*
X59718751Y-88876377D01*
X59583058Y-89053217D01*
X59583052Y-89053226D01*
X59471595Y-89246273D01*
X59471593Y-89246277D01*
X59386293Y-89452209D01*
X59386290Y-89452219D01*
X59334577Y-89645218D01*
X59328597Y-89667534D01*
X59328594Y-89667547D01*
X59299501Y-89888533D01*
X59299500Y-89888549D01*
X59299500Y-90111450D01*
X59299501Y-90111466D01*
X59328594Y-90332452D01*
X59328595Y-90332457D01*
X59328596Y-90332463D01*
X59386290Y-90547780D01*
X59386293Y-90547790D01*
X59471593Y-90753722D01*
X59471595Y-90753726D01*
X59583052Y-90946774D01*
X59583057Y-90946780D01*
X59583058Y-90946782D01*
X59718751Y-91123622D01*
X59718757Y-91123629D01*
X59876370Y-91281242D01*
X59876377Y-91281248D01*
X59933396Y-91325000D01*
X60053226Y-91416948D01*
X60246274Y-91528405D01*
X60452219Y-91613710D01*
X60513857Y-91630225D01*
X60573516Y-91666590D01*
X60604045Y-91729437D01*
X60595750Y-91798813D01*
X60551265Y-91852691D01*
X60513858Y-91869773D01*
X60452219Y-91886290D01*
X60452217Y-91886290D01*
X60452216Y-91886291D01*
X60452209Y-91886293D01*
X60246277Y-91971593D01*
X60246273Y-91971595D01*
X60053226Y-92083052D01*
X60053217Y-92083058D01*
X59876377Y-92218751D01*
X59876370Y-92218757D01*
X59718757Y-92376370D01*
X59718751Y-92376377D01*
X59583058Y-92553217D01*
X59583052Y-92553226D01*
X59471595Y-92746273D01*
X59471593Y-92746277D01*
X59386293Y-92952209D01*
X59386290Y-92952219D01*
X59348242Y-93094219D01*
X59328597Y-93167534D01*
X59328594Y-93167547D01*
X59299501Y-93388533D01*
X59299500Y-93388549D01*
X59299500Y-93611450D01*
X59299501Y-93611466D01*
X59328594Y-93832452D01*
X59328595Y-93832457D01*
X59328596Y-93832463D01*
X59379573Y-94022713D01*
X59386290Y-94047780D01*
X59386293Y-94047790D01*
X59471593Y-94253722D01*
X59471595Y-94253726D01*
X59583052Y-94446774D01*
X59583057Y-94446780D01*
X59583058Y-94446782D01*
X59718751Y-94623622D01*
X59718757Y-94623629D01*
X59876370Y-94781242D01*
X59876377Y-94781248D01*
X59940520Y-94830466D01*
X60053226Y-94916948D01*
X60246274Y-95028405D01*
X60452219Y-95113710D01*
X60513857Y-95130225D01*
X60573516Y-95166590D01*
X60604045Y-95229437D01*
X60595750Y-95298813D01*
X60551265Y-95352691D01*
X60513858Y-95369773D01*
X60452219Y-95386290D01*
X60452217Y-95386290D01*
X60452216Y-95386291D01*
X60452209Y-95386293D01*
X60246277Y-95471593D01*
X60246273Y-95471595D01*
X60053226Y-95583052D01*
X60053217Y-95583058D01*
X59876377Y-95718751D01*
X59876370Y-95718757D01*
X59718757Y-95876370D01*
X59718751Y-95876377D01*
X59583058Y-96053217D01*
X59583052Y-96053226D01*
X59471595Y-96246273D01*
X59471593Y-96246277D01*
X59386293Y-96452209D01*
X59386290Y-96452219D01*
X59328597Y-96667534D01*
X59328594Y-96667547D01*
X59299501Y-96888533D01*
X59299500Y-96888549D01*
X59299500Y-97111450D01*
X59299501Y-97111466D01*
X59328594Y-97332452D01*
X59328595Y-97332457D01*
X59328596Y-97332463D01*
X59386290Y-97547780D01*
X59386293Y-97547790D01*
X59396590Y-97572648D01*
X59471595Y-97753726D01*
X59583052Y-97946774D01*
X59583057Y-97946780D01*
X59583058Y-97946782D01*
X59718751Y-98123622D01*
X59718757Y-98123629D01*
X59876370Y-98281242D01*
X59876377Y-98281248D01*
X59974595Y-98356613D01*
X60053226Y-98416948D01*
X60246274Y-98528405D01*
X60452219Y-98613710D01*
X60513857Y-98630225D01*
X60573516Y-98666590D01*
X60604045Y-98729437D01*
X60595750Y-98798813D01*
X60551265Y-98852691D01*
X60513858Y-98869773D01*
X60452219Y-98886290D01*
X60452217Y-98886290D01*
X60452216Y-98886291D01*
X60452209Y-98886293D01*
X60246277Y-98971593D01*
X60246273Y-98971595D01*
X60053226Y-99083052D01*
X60053217Y-99083058D01*
X59876377Y-99218751D01*
X59876370Y-99218757D01*
X59718757Y-99376370D01*
X59718751Y-99376377D01*
X59583058Y-99553217D01*
X59583052Y-99553226D01*
X59471595Y-99746273D01*
X59471593Y-99746277D01*
X59386293Y-99952209D01*
X59386290Y-99952219D01*
X59333517Y-100149174D01*
X59328597Y-100167534D01*
X59328594Y-100167547D01*
X59299501Y-100388533D01*
X59299500Y-100388549D01*
X59299500Y-100611450D01*
X59299501Y-100611466D01*
X59328594Y-100832452D01*
X59328595Y-100832457D01*
X59328596Y-100832463D01*
X59349041Y-100908764D01*
X59386290Y-101047780D01*
X59386293Y-101047790D01*
X59439834Y-101177048D01*
X59471595Y-101253726D01*
X59583052Y-101446774D01*
X59583057Y-101446780D01*
X59583058Y-101446782D01*
X59718751Y-101623622D01*
X59718757Y-101623629D01*
X59876370Y-101781242D01*
X59876376Y-101781247D01*
X60053226Y-101916948D01*
X60246274Y-102028405D01*
X60452219Y-102113710D01*
X60514822Y-102130484D01*
X60574480Y-102166847D01*
X60605010Y-102229694D01*
X60596716Y-102299070D01*
X60552231Y-102352948D01*
X60514821Y-102370033D01*
X60452379Y-102386764D01*
X60246497Y-102472045D01*
X60246479Y-102472054D01*
X60053511Y-102583462D01*
X59987595Y-102634042D01*
X60788941Y-103435387D01*
X60768409Y-103440889D01*
X60631592Y-103519881D01*
X60519881Y-103631592D01*
X60440889Y-103768409D01*
X60435387Y-103788940D01*
X59634042Y-102987595D01*
X59583462Y-103053511D01*
X59472054Y-103246479D01*
X59472045Y-103246497D01*
X59386763Y-103452381D01*
X59329088Y-103667632D01*
X59329085Y-103667645D01*
X59300000Y-103888575D01*
X59300000Y-104111424D01*
X59329085Y-104332354D01*
X59329088Y-104332367D01*
X59386763Y-104547618D01*
X59472045Y-104753502D01*
X59472054Y-104753520D01*
X59583464Y-104946491D01*
X59583473Y-104946504D01*
X59634040Y-105012403D01*
X59634043Y-105012403D01*
X60435387Y-104211059D01*
X60440889Y-104231591D01*
X60519881Y-104368408D01*
X60631592Y-104480119D01*
X60768409Y-104559111D01*
X60788940Y-104564612D01*
X59987595Y-105365955D01*
X59987595Y-105365956D01*
X60053507Y-105416533D01*
X60246485Y-105527949D01*
X60246497Y-105527954D01*
X60452381Y-105613236D01*
X60667632Y-105670911D01*
X60667645Y-105670914D01*
X60888575Y-105700000D01*
X61111425Y-105700000D01*
X61332354Y-105670914D01*
X61332367Y-105670911D01*
X61547618Y-105613236D01*
X61753502Y-105527954D01*
X61753514Y-105527949D01*
X61946498Y-105416530D01*
X62012403Y-105365957D01*
X62012404Y-105365956D01*
X61211059Y-104564612D01*
X61231591Y-104559111D01*
X61368408Y-104480119D01*
X61480119Y-104368408D01*
X61559111Y-104231591D01*
X61564612Y-104211059D01*
X62365956Y-105012404D01*
X62365957Y-105012403D01*
X62416530Y-104946498D01*
X62527949Y-104753514D01*
X62527954Y-104753502D01*
X62613236Y-104547618D01*
X62670911Y-104332367D01*
X62670914Y-104332354D01*
X62700000Y-104111424D01*
X62700000Y-103888575D01*
X62670914Y-103667645D01*
X62670911Y-103667632D01*
X62613236Y-103452381D01*
X62527954Y-103246497D01*
X62527949Y-103246485D01*
X62416533Y-103053507D01*
X62365956Y-102987595D01*
X62365955Y-102987595D01*
X61564612Y-103788939D01*
X61559111Y-103768409D01*
X61480119Y-103631592D01*
X61368408Y-103519881D01*
X61231591Y-103440889D01*
X61211058Y-103435387D01*
X62012403Y-102634043D01*
X62012403Y-102634040D01*
X61946504Y-102583473D01*
X61946491Y-102583464D01*
X61753520Y-102472054D01*
X61753502Y-102472045D01*
X61547620Y-102386764D01*
X61485178Y-102370033D01*
X61425518Y-102333668D01*
X61394989Y-102270821D01*
X61403284Y-102201445D01*
X61447769Y-102147567D01*
X61485175Y-102130484D01*
X61547781Y-102113710D01*
X61753726Y-102028405D01*
X61946774Y-101916948D01*
X62123624Y-101781247D01*
X62281247Y-101623624D01*
X62416948Y-101446774D01*
X62528405Y-101253726D01*
X62560166Y-101177048D01*
X62604006Y-101122644D01*
X62670300Y-101100579D01*
X62674727Y-101100500D01*
X66449903Y-101100500D01*
X66516942Y-101120185D01*
X66537583Y-101136818D01*
X68631284Y-103230520D01*
X68631286Y-103230521D01*
X68631290Y-103230524D01*
X68672332Y-103254219D01*
X68768216Y-103309577D01*
X68920943Y-103350501D01*
X68920945Y-103350501D01*
X69086654Y-103350501D01*
X69086670Y-103350500D01*
X71397851Y-103350500D01*
X71464890Y-103370185D01*
X71508335Y-103418205D01*
X71517713Y-103436610D01*
X71517717Y-103436616D01*
X71517720Y-103436620D01*
X71638028Y-103602213D01*
X71782786Y-103746971D01*
X71937749Y-103859556D01*
X71948390Y-103867287D01*
X72039840Y-103913883D01*
X72041080Y-103914515D01*
X72091876Y-103962490D01*
X72108671Y-104030311D01*
X72086134Y-104096446D01*
X72041080Y-104135485D01*
X71948386Y-104182715D01*
X71782786Y-104303028D01*
X71638028Y-104447786D01*
X71517715Y-104613386D01*
X71424781Y-104795776D01*
X71361522Y-104990465D01*
X71329500Y-105192648D01*
X71329500Y-105397351D01*
X71361522Y-105599534D01*
X71424781Y-105794223D01*
X71517715Y-105976613D01*
X71638028Y-106142213D01*
X71782786Y-106286971D01*
X71937749Y-106399556D01*
X71948390Y-106407287D01*
X72039840Y-106453883D01*
X72041080Y-106454515D01*
X72091876Y-106502490D01*
X72108671Y-106570311D01*
X72086134Y-106636446D01*
X72041080Y-106675485D01*
X71948386Y-106722715D01*
X71782786Y-106843028D01*
X71638028Y-106987786D01*
X71517715Y-107153386D01*
X71424781Y-107335776D01*
X71361522Y-107530465D01*
X71329500Y-107732648D01*
X71329500Y-107937351D01*
X71361522Y-108139534D01*
X71424781Y-108334223D01*
X71517715Y-108516613D01*
X71638028Y-108682213D01*
X71782786Y-108826971D01*
X71887132Y-108902781D01*
X71948390Y-108947287D01*
X72039840Y-108993883D01*
X72041080Y-108994515D01*
X72091876Y-109042490D01*
X72108671Y-109110311D01*
X72086134Y-109176446D01*
X72041080Y-109215485D01*
X71948386Y-109262715D01*
X71782786Y-109383028D01*
X71638028Y-109527786D01*
X71517715Y-109693386D01*
X71424781Y-109875776D01*
X71361522Y-110070465D01*
X71329500Y-110272648D01*
X71329500Y-110477351D01*
X71361522Y-110679534D01*
X71424781Y-110874223D01*
X71517715Y-111056613D01*
X71638028Y-111222213D01*
X71782786Y-111366971D01*
X71948388Y-111487286D01*
X71948390Y-111487287D01*
X72034294Y-111531057D01*
X72085090Y-111579031D01*
X72101886Y-111646852D01*
X72079349Y-111712987D01*
X72036455Y-111750899D01*
X71970497Y-111786155D01*
X71901086Y-111832534D01*
X71901085Y-111832534D01*
X72500589Y-112432037D01*
X72437007Y-112449075D01*
X72322993Y-112514901D01*
X72229901Y-112607993D01*
X72164075Y-112722007D01*
X72147037Y-112785588D01*
X71547534Y-112186085D01*
X71547534Y-112186086D01*
X71501158Y-112255493D01*
X71454490Y-112342801D01*
X71394185Y-112488387D01*
X71365444Y-112583135D01*
X71334701Y-112737697D01*
X71334701Y-112737700D01*
X71325000Y-112836210D01*
X71325000Y-112993789D01*
X71334701Y-113092299D01*
X71334701Y-113092302D01*
X71365444Y-113246864D01*
X71394185Y-113341612D01*
X71454490Y-113487198D01*
X71501155Y-113574501D01*
X71501161Y-113574511D01*
X71547534Y-113643912D01*
X72147037Y-113044410D01*
X72164075Y-113107993D01*
X72229901Y-113222007D01*
X72322993Y-113315099D01*
X72437007Y-113380925D01*
X72500589Y-113397962D01*
X71901085Y-113997465D01*
X71970488Y-114043838D01*
X71970498Y-114043844D01*
X72036454Y-114079099D01*
X72086298Y-114128062D01*
X72101758Y-114196200D01*
X72077926Y-114261879D01*
X72034295Y-114298942D01*
X71948386Y-114342715D01*
X71782786Y-114463028D01*
X71638028Y-114607786D01*
X71517715Y-114773386D01*
X71424781Y-114955776D01*
X71361522Y-115150465D01*
X71329500Y-115352648D01*
X71329500Y-115557351D01*
X71361522Y-115759534D01*
X71424781Y-115954223D01*
X71517715Y-116136613D01*
X71638028Y-116302213D01*
X71782786Y-116446971D01*
X71887132Y-116522781D01*
X71948390Y-116567287D01*
X72039840Y-116613883D01*
X72041080Y-116614515D01*
X72091876Y-116662490D01*
X72108671Y-116730311D01*
X72086134Y-116796446D01*
X72041080Y-116835485D01*
X71948386Y-116882715D01*
X71782786Y-117003028D01*
X71638028Y-117147786D01*
X71517715Y-117313386D01*
X71424781Y-117495776D01*
X71361522Y-117690465D01*
X71329500Y-117892648D01*
X71329500Y-118097351D01*
X71361522Y-118299534D01*
X71424781Y-118494223D01*
X71517715Y-118676613D01*
X71638028Y-118842213D01*
X71782786Y-118986971D01*
X71937749Y-119099556D01*
X71948390Y-119107287D01*
X72064607Y-119166503D01*
X72130776Y-119200218D01*
X72130778Y-119200218D01*
X72130781Y-119200220D01*
X72235137Y-119234127D01*
X72325465Y-119263477D01*
X72426557Y-119279488D01*
X72527648Y-119295500D01*
X72527649Y-119295500D01*
X72732351Y-119295500D01*
X72732352Y-119295500D01*
X72934534Y-119263477D01*
X73129219Y-119200220D01*
X73311610Y-119107287D01*
X73404590Y-119039732D01*
X73477213Y-118986971D01*
X73477215Y-118986968D01*
X73477219Y-118986966D01*
X73621966Y-118842219D01*
X73621968Y-118842215D01*
X73621971Y-118842213D01*
X73674732Y-118769590D01*
X73742287Y-118676610D01*
X73835220Y-118494219D01*
X73898477Y-118299534D01*
X73930500Y-118097352D01*
X73930500Y-117892648D01*
X73898477Y-117690466D01*
X73896353Y-117683930D01*
X73835218Y-117495776D01*
X73762139Y-117352352D01*
X73742287Y-117313390D01*
X73709054Y-117267648D01*
X73621971Y-117147786D01*
X73477213Y-117003028D01*
X73311614Y-116882715D01*
X73288182Y-116870776D01*
X73218917Y-116835483D01*
X73168123Y-116787511D01*
X73151328Y-116719690D01*
X73173865Y-116653555D01*
X73218917Y-116614516D01*
X73311610Y-116567287D01*
X73372868Y-116522781D01*
X73477213Y-116446971D01*
X73477215Y-116446968D01*
X73477219Y-116446966D01*
X73621966Y-116302219D01*
X73621968Y-116302215D01*
X73621971Y-116302213D01*
X73674732Y-116229590D01*
X73742287Y-116136610D01*
X73835220Y-115954219D01*
X73898477Y-115759534D01*
X73930500Y-115557352D01*
X73930500Y-115352648D01*
X73898477Y-115150466D01*
X73835220Y-114955781D01*
X73835218Y-114955778D01*
X73835218Y-114955776D01*
X73801503Y-114889607D01*
X73742287Y-114773390D01*
X73734556Y-114762749D01*
X73621971Y-114607786D01*
X73477217Y-114463032D01*
X73400415Y-114407232D01*
X73357750Y-114351902D01*
X73351771Y-114282288D01*
X73384377Y-114220494D01*
X73442640Y-114186765D01*
X73463039Y-114181559D01*
X73519584Y-114158136D01*
X73519584Y-114158135D01*
X72759410Y-113397962D01*
X72822993Y-113380925D01*
X72937007Y-113315099D01*
X73030099Y-113222007D01*
X73095925Y-113107993D01*
X73112962Y-113044410D01*
X73873135Y-113804584D01*
X73873136Y-113804584D01*
X73896552Y-113748053D01*
X73914544Y-113697053D01*
X73934999Y-113554780D01*
X73935000Y-113554779D01*
X73935000Y-112275214D01*
X73932107Y-112221237D01*
X73919918Y-112173483D01*
X73919918Y-112173481D01*
X73913333Y-112147682D01*
X81950000Y-112147682D01*
X81950000Y-112352317D01*
X81982009Y-112554417D01*
X82045244Y-112749031D01*
X82138141Y-112931350D01*
X82138147Y-112931359D01*
X82170523Y-112975921D01*
X82170524Y-112975922D01*
X82850000Y-112296446D01*
X82850000Y-112302661D01*
X82877259Y-112404394D01*
X82929920Y-112495606D01*
X83004394Y-112570080D01*
X83095606Y-112622741D01*
X83197339Y-112650000D01*
X83203553Y-112650000D01*
X82524076Y-113329474D01*
X82568650Y-113361859D01*
X82750968Y-113454755D01*
X82945582Y-113517990D01*
X83147683Y-113550000D01*
X83352317Y-113550000D01*
X83554417Y-113517990D01*
X83749031Y-113454755D01*
X83931349Y-113361859D01*
X83975921Y-113329474D01*
X83296447Y-112650000D01*
X83302661Y-112650000D01*
X83404394Y-112622741D01*
X83495606Y-112570080D01*
X83570080Y-112495606D01*
X83622741Y-112404394D01*
X83650000Y-112302661D01*
X83650000Y-112296447D01*
X84329474Y-112975921D01*
X84361859Y-112931349D01*
X84454755Y-112749031D01*
X84517990Y-112554417D01*
X84550000Y-112352317D01*
X84550000Y-112147682D01*
X84517990Y-111945582D01*
X84454755Y-111750968D01*
X84361859Y-111568650D01*
X84329474Y-111524077D01*
X84329474Y-111524076D01*
X83650000Y-112203551D01*
X83650000Y-112197339D01*
X83622741Y-112095606D01*
X83570080Y-112004394D01*
X83495606Y-111929920D01*
X83404394Y-111877259D01*
X83302661Y-111850000D01*
X83296446Y-111850000D01*
X83975922Y-111170524D01*
X83975921Y-111170523D01*
X83931359Y-111138147D01*
X83931350Y-111138141D01*
X83749031Y-111045244D01*
X83554417Y-110982009D01*
X83352317Y-110950000D01*
X83147683Y-110950000D01*
X82945582Y-110982009D01*
X82750968Y-111045244D01*
X82568644Y-111138143D01*
X82524077Y-111170523D01*
X82524077Y-111170524D01*
X83203554Y-111850000D01*
X83197339Y-111850000D01*
X83095606Y-111877259D01*
X83004394Y-111929920D01*
X82929920Y-112004394D01*
X82877259Y-112095606D01*
X82850000Y-112197339D01*
X82850000Y-112203553D01*
X82170524Y-111524077D01*
X82170523Y-111524077D01*
X82138143Y-111568644D01*
X82045244Y-111750968D01*
X81982009Y-111945582D01*
X81950000Y-112147682D01*
X73913333Y-112147682D01*
X73896562Y-112081972D01*
X73896559Y-112081962D01*
X73873135Y-112025414D01*
X73112962Y-112785588D01*
X73095925Y-112722007D01*
X73030099Y-112607993D01*
X72937007Y-112514901D01*
X72822993Y-112449075D01*
X72759410Y-112432037D01*
X73519584Y-111671862D01*
X73463059Y-111648449D01*
X73463048Y-111648445D01*
X73434374Y-111638329D01*
X73377703Y-111597462D01*
X73352122Y-111532443D01*
X73365754Y-111463916D01*
X73402745Y-111421074D01*
X73477215Y-111366969D01*
X73477215Y-111366968D01*
X73477219Y-111366966D01*
X73621966Y-111222219D01*
X73742287Y-111056610D01*
X73835220Y-110874219D01*
X73898477Y-110679534D01*
X73930500Y-110477352D01*
X73930500Y-110272648D01*
X73898477Y-110070466D01*
X73896353Y-110063930D01*
X73835218Y-109875776D01*
X73767743Y-109743351D01*
X73742287Y-109693390D01*
X73709049Y-109647641D01*
X73621971Y-109527786D01*
X73477213Y-109383028D01*
X73311614Y-109262715D01*
X73288182Y-109250776D01*
X73218917Y-109215483D01*
X73168123Y-109167511D01*
X73151328Y-109099690D01*
X73173865Y-109033555D01*
X73218917Y-108994516D01*
X73311610Y-108947287D01*
X73392388Y-108888599D01*
X73477213Y-108826971D01*
X73477215Y-108826968D01*
X73477219Y-108826966D01*
X73621966Y-108682219D01*
X73621968Y-108682215D01*
X73621971Y-108682213D01*
X73696815Y-108579197D01*
X73742287Y-108516610D01*
X73835220Y-108334219D01*
X73898477Y-108139534D01*
X73930500Y-107937352D01*
X73930500Y-107732648D01*
X73898477Y-107530466D01*
X73835220Y-107335781D01*
X73835218Y-107335778D01*
X73835218Y-107335776D01*
X73765563Y-107199071D01*
X73765562Y-107199069D01*
X73742286Y-107153388D01*
X73738116Y-107147648D01*
X77699500Y-107147648D01*
X77699500Y-107352351D01*
X77731522Y-107554534D01*
X77794781Y-107749223D01*
X77887715Y-107931613D01*
X78008028Y-108097213D01*
X78152786Y-108241971D01*
X78279757Y-108334219D01*
X78318390Y-108362287D01*
X78434607Y-108421503D01*
X78500776Y-108455218D01*
X78500778Y-108455218D01*
X78500781Y-108455220D01*
X78605137Y-108489127D01*
X78695465Y-108518477D01*
X78796557Y-108534488D01*
X78897648Y-108550500D01*
X78897649Y-108550500D01*
X79102351Y-108550500D01*
X79102352Y-108550500D01*
X79304534Y-108518477D01*
X79499219Y-108455220D01*
X79681610Y-108362287D01*
X79774590Y-108294732D01*
X79847213Y-108241971D01*
X79847215Y-108241968D01*
X79847219Y-108241966D01*
X79991966Y-108097219D01*
X79991968Y-108097215D01*
X79991971Y-108097213D01*
X80044732Y-108024590D01*
X80112287Y-107931610D01*
X80205220Y-107749219D01*
X80268477Y-107554534D01*
X80300500Y-107352352D01*
X80300500Y-107147648D01*
X80268477Y-106945466D01*
X80205220Y-106750781D01*
X80205218Y-106750778D01*
X80205218Y-106750776D01*
X80146963Y-106636446D01*
X80112287Y-106568390D01*
X80104556Y-106557749D01*
X79991971Y-106402786D01*
X79847213Y-106258028D01*
X79681613Y-106137715D01*
X79681612Y-106137714D01*
X79681610Y-106137713D01*
X79624653Y-106108691D01*
X79499223Y-106044781D01*
X79304534Y-105981522D01*
X79129995Y-105953878D01*
X79102352Y-105949500D01*
X78897648Y-105949500D01*
X78873329Y-105953351D01*
X78695465Y-105981522D01*
X78500776Y-106044781D01*
X78318386Y-106137715D01*
X78152786Y-106258028D01*
X78008028Y-106402786D01*
X77887715Y-106568386D01*
X77794781Y-106750776D01*
X77731522Y-106945465D01*
X77699500Y-107147648D01*
X73738116Y-107147648D01*
X73621971Y-106987786D01*
X73477213Y-106843028D01*
X73311614Y-106722715D01*
X73305006Y-106719348D01*
X73218917Y-106675483D01*
X73168123Y-106627511D01*
X73151328Y-106559690D01*
X73173865Y-106493555D01*
X73218917Y-106454516D01*
X73311610Y-106407287D01*
X73332770Y-106391913D01*
X73477213Y-106286971D01*
X73477215Y-106286968D01*
X73477219Y-106286966D01*
X73621966Y-106142219D01*
X73621968Y-106142215D01*
X73621971Y-106142213D01*
X73696714Y-106039336D01*
X73742287Y-105976610D01*
X73835220Y-105794219D01*
X73898477Y-105599534D01*
X73930500Y-105397352D01*
X73930500Y-105192648D01*
X73898477Y-104990466D01*
X73835220Y-104795781D01*
X73835218Y-104795778D01*
X73835218Y-104795776D01*
X73801503Y-104729607D01*
X73742287Y-104613390D01*
X73732559Y-104600000D01*
X73621971Y-104447786D01*
X73477213Y-104303028D01*
X73311614Y-104182715D01*
X73305006Y-104179348D01*
X73218917Y-104135483D01*
X73168123Y-104087511D01*
X73151328Y-104019690D01*
X73173865Y-103953555D01*
X73218917Y-103914516D01*
X73311610Y-103867287D01*
X73332770Y-103851913D01*
X73477213Y-103746971D01*
X73477215Y-103746968D01*
X73477219Y-103746966D01*
X73621966Y-103602219D01*
X73621968Y-103602215D01*
X73621971Y-103602213D01*
X73674732Y-103529590D01*
X73742287Y-103436610D01*
X73835220Y-103254219D01*
X73898477Y-103059534D01*
X73930500Y-102857352D01*
X73930500Y-102652648D01*
X73917422Y-102570080D01*
X73898477Y-102450465D01*
X73866586Y-102352317D01*
X73835220Y-102255781D01*
X73835218Y-102255778D01*
X73835218Y-102255776D01*
X73806345Y-102199111D01*
X73805442Y-102197339D01*
X73780141Y-102147682D01*
X77700000Y-102147682D01*
X77700000Y-102352317D01*
X77732009Y-102554417D01*
X77795244Y-102749031D01*
X77888141Y-102931350D01*
X77888147Y-102931359D01*
X77920523Y-102975921D01*
X77920524Y-102975922D01*
X78600000Y-102296446D01*
X78600000Y-102302661D01*
X78627259Y-102404394D01*
X78679920Y-102495606D01*
X78754394Y-102570080D01*
X78845606Y-102622741D01*
X78947339Y-102650000D01*
X78953553Y-102650000D01*
X78274076Y-103329474D01*
X78318650Y-103361859D01*
X78500968Y-103454755D01*
X78695582Y-103517990D01*
X78897683Y-103550000D01*
X79102317Y-103550000D01*
X79304417Y-103517990D01*
X79499031Y-103454755D01*
X79681349Y-103361859D01*
X79725921Y-103329474D01*
X79046447Y-102650000D01*
X79052661Y-102650000D01*
X79154394Y-102622741D01*
X79245606Y-102570080D01*
X79320080Y-102495606D01*
X79372741Y-102404394D01*
X79400000Y-102302661D01*
X79400000Y-102296447D01*
X80079474Y-102975921D01*
X80083788Y-102969983D01*
X83649500Y-102969983D01*
X83649500Y-105770001D01*
X83649501Y-105770018D01*
X83660000Y-105872796D01*
X83660001Y-105872799D01*
X83685418Y-105949500D01*
X83715186Y-106039334D01*
X83807288Y-106188656D01*
X83931344Y-106312712D01*
X84080666Y-106404814D01*
X84247203Y-106459999D01*
X84349991Y-106470500D01*
X87150008Y-106470499D01*
X87252797Y-106459999D01*
X87419334Y-106404814D01*
X87568656Y-106312712D01*
X87692712Y-106188656D01*
X87784814Y-106039334D01*
X87839999Y-105872797D01*
X87850500Y-105770009D01*
X87850499Y-102969992D01*
X87839999Y-102867203D01*
X87784814Y-102700666D01*
X87692712Y-102551344D01*
X87568656Y-102427288D01*
X87419334Y-102335186D01*
X87252797Y-102280001D01*
X87252795Y-102280000D01*
X87150010Y-102269500D01*
X84349998Y-102269500D01*
X84349981Y-102269501D01*
X84247203Y-102280000D01*
X84247200Y-102280001D01*
X84080668Y-102335185D01*
X84080663Y-102335187D01*
X83931342Y-102427289D01*
X83807289Y-102551342D01*
X83715187Y-102700663D01*
X83715186Y-102700666D01*
X83660001Y-102867203D01*
X83660001Y-102867204D01*
X83660000Y-102867204D01*
X83649500Y-102969983D01*
X80083788Y-102969983D01*
X80111859Y-102931349D01*
X80122463Y-102910539D01*
X80204755Y-102749031D01*
X80267990Y-102554417D01*
X80300000Y-102352317D01*
X80300000Y-102147682D01*
X80267990Y-101945582D01*
X80204755Y-101750968D01*
X80111859Y-101568650D01*
X80079474Y-101524077D01*
X80079474Y-101524076D01*
X79400000Y-102203551D01*
X79400000Y-102197339D01*
X79372741Y-102095606D01*
X79320080Y-102004394D01*
X79245606Y-101929920D01*
X79154394Y-101877259D01*
X79052661Y-101850000D01*
X79046446Y-101850000D01*
X79725922Y-101170524D01*
X79725921Y-101170523D01*
X79681359Y-101138147D01*
X79681350Y-101138141D01*
X79499031Y-101045244D01*
X79304417Y-100982009D01*
X79102317Y-100950000D01*
X78897683Y-100950000D01*
X78695582Y-100982009D01*
X78500968Y-101045244D01*
X78318644Y-101138143D01*
X78274077Y-101170523D01*
X78274077Y-101170524D01*
X78953554Y-101850000D01*
X78947339Y-101850000D01*
X78845606Y-101877259D01*
X78754394Y-101929920D01*
X78679920Y-102004394D01*
X78627259Y-102095606D01*
X78600000Y-102197339D01*
X78600000Y-102203553D01*
X77920524Y-101524077D01*
X77920523Y-101524077D01*
X77888143Y-101568644D01*
X77795244Y-101750968D01*
X77732009Y-101945582D01*
X77700000Y-102147682D01*
X73780141Y-102147682D01*
X73742287Y-102073390D01*
X73742285Y-102073387D01*
X73742284Y-102073385D01*
X73621971Y-101907786D01*
X73477217Y-101763032D01*
X73400415Y-101707232D01*
X73357750Y-101651902D01*
X73351771Y-101582288D01*
X73384377Y-101520494D01*
X73442640Y-101486765D01*
X73463039Y-101481559D01*
X73519584Y-101458136D01*
X73519584Y-101458135D01*
X72759410Y-100697962D01*
X72822993Y-100680925D01*
X72937007Y-100615099D01*
X73030099Y-100522007D01*
X73095925Y-100407993D01*
X73112962Y-100344410D01*
X73873135Y-101104584D01*
X73873136Y-101104584D01*
X73896552Y-101048053D01*
X73914544Y-100997053D01*
X73934999Y-100854780D01*
X73935000Y-100854779D01*
X73935000Y-99575224D01*
X73934999Y-99575204D01*
X73932106Y-99521237D01*
X73932106Y-99521235D01*
X73896561Y-99381969D01*
X73896559Y-99381962D01*
X73873135Y-99325414D01*
X73112962Y-100085588D01*
X73095925Y-100022007D01*
X73030099Y-99907993D01*
X72937007Y-99814901D01*
X72822993Y-99749075D01*
X72759410Y-99732037D01*
X73519584Y-98971862D01*
X73463059Y-98948449D01*
X73463048Y-98948445D01*
X73434374Y-98938329D01*
X73377703Y-98897462D01*
X73352122Y-98832443D01*
X73365754Y-98763916D01*
X73402745Y-98721074D01*
X73477215Y-98666969D01*
X73477215Y-98666968D01*
X73477219Y-98666966D01*
X73621966Y-98522219D01*
X73621968Y-98522215D01*
X73621971Y-98522213D01*
X73698454Y-98416941D01*
X73742287Y-98356610D01*
X73835220Y-98174219D01*
X73898477Y-97979534D01*
X73930500Y-97777352D01*
X73930500Y-97572648D01*
X73898477Y-97370466D01*
X73895076Y-97360000D01*
X73835217Y-97175773D01*
X73821326Y-97148511D01*
X73821325Y-97148510D01*
X73802442Y-97111450D01*
X73742287Y-96993390D01*
X73679681Y-96907219D01*
X73621971Y-96827786D01*
X73477213Y-96683028D01*
X73311614Y-96562715D01*
X73304384Y-96559031D01*
X73218917Y-96515483D01*
X73168123Y-96467511D01*
X73151328Y-96399690D01*
X73173865Y-96333555D01*
X73218917Y-96294516D01*
X73311610Y-96247287D01*
X73356884Y-96214394D01*
X73477213Y-96126971D01*
X73477215Y-96126968D01*
X73477219Y-96126966D01*
X73621966Y-95982219D01*
X73639793Y-95957682D01*
X74200000Y-95957682D01*
X74200000Y-96162317D01*
X74232009Y-96364417D01*
X74295244Y-96559031D01*
X74388141Y-96741350D01*
X74388147Y-96741359D01*
X74420523Y-96785921D01*
X74420524Y-96785922D01*
X75100000Y-96106446D01*
X75100000Y-96112661D01*
X75127259Y-96214394D01*
X75179920Y-96305606D01*
X75254394Y-96380080D01*
X75345606Y-96432741D01*
X75447339Y-96460000D01*
X75453553Y-96460000D01*
X74774076Y-97139474D01*
X74818650Y-97171859D01*
X75000968Y-97264755D01*
X75195582Y-97327990D01*
X75397683Y-97360000D01*
X75602317Y-97360000D01*
X75804417Y-97327990D01*
X75999031Y-97264755D01*
X76181349Y-97171859D01*
X76225921Y-97139474D01*
X75546447Y-96460000D01*
X75552661Y-96460000D01*
X75654394Y-96432741D01*
X75745606Y-96380080D01*
X75820080Y-96305606D01*
X75872741Y-96214394D01*
X75900000Y-96112661D01*
X75900000Y-96106448D01*
X76579474Y-96785922D01*
X76579474Y-96785921D01*
X76611859Y-96741349D01*
X76704755Y-96559031D01*
X76767990Y-96364417D01*
X76800000Y-96162317D01*
X76800000Y-95957682D01*
X76799995Y-95957648D01*
X77199500Y-95957648D01*
X77199500Y-96162351D01*
X77231522Y-96364534D01*
X77294781Y-96559223D01*
X77349969Y-96667534D01*
X77387585Y-96741359D01*
X77387715Y-96741613D01*
X77508028Y-96907213D01*
X77652786Y-97051971D01*
X77785665Y-97148511D01*
X77818390Y-97172287D01*
X77931966Y-97230157D01*
X78000776Y-97265218D01*
X78000778Y-97265218D01*
X78000781Y-97265220D01*
X78081601Y-97291480D01*
X78195465Y-97328477D01*
X78296557Y-97344488D01*
X78397648Y-97360500D01*
X78397649Y-97360500D01*
X78602351Y-97360500D01*
X78602352Y-97360500D01*
X78804534Y-97328477D01*
X78999219Y-97265220D01*
X79181610Y-97172287D01*
X79274590Y-97104732D01*
X79347213Y-97051971D01*
X79347215Y-97051968D01*
X79347219Y-97051966D01*
X79491966Y-96907219D01*
X79491968Y-96907215D01*
X79491971Y-96907213D01*
X79549681Y-96827781D01*
X79612287Y-96741610D01*
X79705220Y-96559219D01*
X79768477Y-96364534D01*
X79800500Y-96162352D01*
X79800500Y-95957648D01*
X79778162Y-95816613D01*
X79768477Y-95755465D01*
X79712456Y-95583052D01*
X79705220Y-95560781D01*
X79705218Y-95560778D01*
X79705218Y-95560776D01*
X79643441Y-95439534D01*
X79612287Y-95378390D01*
X79580092Y-95334077D01*
X79491971Y-95212786D01*
X79347213Y-95068028D01*
X79181613Y-94947715D01*
X79181612Y-94947714D01*
X79181610Y-94947713D01*
X79088088Y-94900061D01*
X78999223Y-94854781D01*
X78804534Y-94791522D01*
X78629995Y-94763878D01*
X78602352Y-94759500D01*
X78397648Y-94759500D01*
X78373329Y-94763351D01*
X78195465Y-94791522D01*
X78000776Y-94854781D01*
X77818386Y-94947715D01*
X77652786Y-95068028D01*
X77508028Y-95212786D01*
X77387715Y-95378386D01*
X77294781Y-95560776D01*
X77231522Y-95755465D01*
X77199500Y-95957648D01*
X76799995Y-95957648D01*
X76767990Y-95755582D01*
X76704755Y-95560968D01*
X76611859Y-95378650D01*
X76579474Y-95334077D01*
X76579474Y-95334076D01*
X75900000Y-96013551D01*
X75900000Y-96007339D01*
X75872741Y-95905606D01*
X75820080Y-95814394D01*
X75745606Y-95739920D01*
X75654394Y-95687259D01*
X75552661Y-95660000D01*
X75546446Y-95660000D01*
X76225922Y-94980524D01*
X76225921Y-94980523D01*
X76181359Y-94948147D01*
X76181350Y-94948141D01*
X75999031Y-94855244D01*
X75804417Y-94792009D01*
X75602317Y-94760000D01*
X75397683Y-94760000D01*
X75195582Y-94792009D01*
X75000968Y-94855244D01*
X74818644Y-94948143D01*
X74774077Y-94980523D01*
X74774077Y-94980524D01*
X75453554Y-95660000D01*
X75447339Y-95660000D01*
X75345606Y-95687259D01*
X75254394Y-95739920D01*
X75179920Y-95814394D01*
X75127259Y-95905606D01*
X75100000Y-96007339D01*
X75100000Y-96013553D01*
X74420524Y-95334077D01*
X74420523Y-95334077D01*
X74388143Y-95378644D01*
X74295244Y-95560968D01*
X74232009Y-95755582D01*
X74200000Y-95957682D01*
X73639793Y-95957682D01*
X73742287Y-95816610D01*
X73835220Y-95634219D01*
X73898477Y-95439534D01*
X73930500Y-95237352D01*
X73930500Y-95032648D01*
X73912175Y-94916948D01*
X73898477Y-94830465D01*
X73835218Y-94635776D01*
X73782126Y-94531578D01*
X73742287Y-94453390D01*
X73734556Y-94442749D01*
X73621971Y-94287786D01*
X73477213Y-94143028D01*
X73311614Y-94022715D01*
X73305006Y-94019348D01*
X73218917Y-93975483D01*
X73168123Y-93927511D01*
X73151328Y-93859690D01*
X73173865Y-93793555D01*
X73218917Y-93754516D01*
X73311610Y-93707287D01*
X73332770Y-93691913D01*
X73477213Y-93586971D01*
X73477215Y-93586968D01*
X73477219Y-93586966D01*
X73621966Y-93442219D01*
X73621968Y-93442215D01*
X73621971Y-93442213D01*
X73732121Y-93290602D01*
X73742287Y-93276610D01*
X73835220Y-93094219D01*
X73898477Y-92899534D01*
X73930500Y-92697352D01*
X73930500Y-92492648D01*
X73898477Y-92290466D01*
X73835220Y-92095781D01*
X73835218Y-92095778D01*
X73835218Y-92095776D01*
X73801503Y-92029607D01*
X73742287Y-91913390D01*
X73684179Y-91833410D01*
X73621971Y-91747786D01*
X73477213Y-91603028D01*
X73311614Y-91482715D01*
X73305006Y-91479348D01*
X73218917Y-91435483D01*
X73168123Y-91387511D01*
X73151328Y-91319690D01*
X73173865Y-91253555D01*
X73218917Y-91214516D01*
X73311610Y-91167287D01*
X73371701Y-91123629D01*
X73477213Y-91046971D01*
X73477215Y-91046968D01*
X73477219Y-91046966D01*
X73621966Y-90902219D01*
X73621968Y-90902215D01*
X73621971Y-90902213D01*
X73674732Y-90829590D01*
X73742287Y-90736610D01*
X73835220Y-90554219D01*
X73898477Y-90359534D01*
X73930500Y-90157352D01*
X73930500Y-89952648D01*
X73898477Y-89750466D01*
X73835220Y-89555781D01*
X73835218Y-89555778D01*
X73835218Y-89555776D01*
X73782447Y-89452209D01*
X73742287Y-89373390D01*
X73679681Y-89287219D01*
X73621971Y-89207786D01*
X73477217Y-89063032D01*
X73400415Y-89007232D01*
X73357750Y-88951902D01*
X73351771Y-88882288D01*
X73384377Y-88820494D01*
X73442640Y-88786765D01*
X73463039Y-88781559D01*
X73519584Y-88758136D01*
X73519584Y-88758135D01*
X72759410Y-87997962D01*
X72822993Y-87980925D01*
X72937007Y-87915099D01*
X73030099Y-87822007D01*
X73095925Y-87707993D01*
X73112962Y-87644410D01*
X73873135Y-88404584D01*
X73873136Y-88404584D01*
X73896553Y-88348053D01*
X73900224Y-88337648D01*
X74199500Y-88337648D01*
X74199500Y-88542352D01*
X74201776Y-88556721D01*
X74231522Y-88744534D01*
X74294781Y-88939223D01*
X74387715Y-89121613D01*
X74508028Y-89287213D01*
X74652786Y-89431971D01*
X74802380Y-89540655D01*
X74818390Y-89552287D01*
X74934607Y-89611503D01*
X75000776Y-89645218D01*
X75000778Y-89645218D01*
X75000781Y-89645220D01*
X75105137Y-89679127D01*
X75195465Y-89708477D01*
X75296557Y-89724488D01*
X75397648Y-89740500D01*
X75397649Y-89740500D01*
X75602351Y-89740500D01*
X75602352Y-89740500D01*
X75804534Y-89708477D01*
X75999219Y-89645220D01*
X76181610Y-89552287D01*
X76319357Y-89452209D01*
X76347213Y-89431971D01*
X76347215Y-89431968D01*
X76347219Y-89431966D01*
X76491966Y-89287219D01*
X76491968Y-89287215D01*
X76491971Y-89287213D01*
X76549681Y-89207781D01*
X76612287Y-89121610D01*
X76705220Y-88939219D01*
X76768477Y-88744534D01*
X76800500Y-88542352D01*
X76800500Y-88337648D01*
X77199500Y-88337648D01*
X77199500Y-88542352D01*
X77201776Y-88556721D01*
X77231522Y-88744534D01*
X77294781Y-88939223D01*
X77387715Y-89121613D01*
X77508028Y-89287213D01*
X77652786Y-89431971D01*
X77802380Y-89540655D01*
X77818390Y-89552287D01*
X77934607Y-89611503D01*
X78000776Y-89645218D01*
X78000778Y-89645218D01*
X78000781Y-89645220D01*
X78105137Y-89679127D01*
X78195465Y-89708477D01*
X78296557Y-89724488D01*
X78397648Y-89740500D01*
X78397649Y-89740500D01*
X78602351Y-89740500D01*
X78602352Y-89740500D01*
X78804534Y-89708477D01*
X78999219Y-89645220D01*
X79181610Y-89552287D01*
X79319357Y-89452209D01*
X79347213Y-89431971D01*
X79347215Y-89431968D01*
X79347219Y-89431966D01*
X79491966Y-89287219D01*
X79491968Y-89287215D01*
X79491971Y-89287213D01*
X79612284Y-89121614D01*
X79612285Y-89121613D01*
X79612287Y-89121610D01*
X79619117Y-89108204D01*
X79667091Y-89057409D01*
X79729602Y-89040500D01*
X80683331Y-89040500D01*
X80683347Y-89040501D01*
X80690943Y-89040501D01*
X80849054Y-89040501D01*
X80849057Y-89040501D01*
X81001785Y-88999577D01*
X81014333Y-88992332D01*
X83649500Y-88992332D01*
X83649500Y-89267667D01*
X83649501Y-89267684D01*
X83685438Y-89540655D01*
X83685439Y-89540660D01*
X83685440Y-89540666D01*
X83721072Y-89673649D01*
X83756704Y-89806630D01*
X83862075Y-90061017D01*
X83862080Y-90061028D01*
X83944861Y-90204407D01*
X83999751Y-90299479D01*
X83999753Y-90299482D01*
X83999754Y-90299483D01*
X84167370Y-90517926D01*
X84167376Y-90517933D01*
X84362066Y-90712623D01*
X84362072Y-90712628D01*
X84580521Y-90880249D01*
X84733778Y-90968732D01*
X84818971Y-91017919D01*
X84818976Y-91017921D01*
X84818979Y-91017923D01*
X85073368Y-91123295D01*
X85339334Y-91194560D01*
X85612326Y-91230500D01*
X85612333Y-91230500D01*
X85887667Y-91230500D01*
X85887674Y-91230500D01*
X86160666Y-91194560D01*
X86426632Y-91123295D01*
X86681021Y-91017923D01*
X86919479Y-90880249D01*
X87137928Y-90712628D01*
X87332628Y-90517928D01*
X87500249Y-90299479D01*
X87637923Y-90061021D01*
X87743295Y-89806632D01*
X87814560Y-89540666D01*
X87850500Y-89267674D01*
X87850500Y-88992326D01*
X87814560Y-88719334D01*
X87743295Y-88453368D01*
X87637923Y-88198979D01*
X87637921Y-88198976D01*
X87637919Y-88198971D01*
X87573500Y-88087396D01*
X87500249Y-87960521D01*
X87345146Y-87758386D01*
X87332629Y-87742073D01*
X87332623Y-87742066D01*
X87137933Y-87547376D01*
X87137926Y-87547370D01*
X86919483Y-87379754D01*
X86919482Y-87379753D01*
X86919479Y-87379751D01*
X86819464Y-87322007D01*
X86681028Y-87242080D01*
X86681017Y-87242075D01*
X86426630Y-87136704D01*
X86293649Y-87101072D01*
X86160666Y-87065440D01*
X86160660Y-87065439D01*
X86160655Y-87065438D01*
X85887684Y-87029501D01*
X85887679Y-87029500D01*
X85887674Y-87029500D01*
X85612326Y-87029500D01*
X85612320Y-87029500D01*
X85612315Y-87029501D01*
X85339344Y-87065438D01*
X85339337Y-87065439D01*
X85339334Y-87065440D01*
X85283125Y-87080500D01*
X85073369Y-87136704D01*
X84818982Y-87242075D01*
X84818971Y-87242080D01*
X84580516Y-87379754D01*
X84362073Y-87547370D01*
X84362066Y-87547376D01*
X84167376Y-87742066D01*
X84167370Y-87742073D01*
X83999754Y-87960516D01*
X83862080Y-88198971D01*
X83862075Y-88198982D01*
X83756704Y-88453369D01*
X83706167Y-88641980D01*
X83696148Y-88679373D01*
X83685441Y-88719331D01*
X83685438Y-88719344D01*
X83649501Y-88992315D01*
X83649500Y-88992332D01*
X81014333Y-88992332D01*
X81051904Y-88970639D01*
X81138716Y-88920520D01*
X81250520Y-88808716D01*
X81250521Y-88808713D01*
X83045797Y-87013436D01*
X83107118Y-86979953D01*
X83171794Y-86983188D01*
X83242049Y-87006015D01*
X83459778Y-87040500D01*
X83459779Y-87040500D01*
X83680221Y-87040500D01*
X83680222Y-87040500D01*
X83897951Y-87006015D01*
X84107606Y-86937895D01*
X84230613Y-86875219D01*
X89104500Y-86875219D01*
X89104500Y-88154784D01*
X89107395Y-88208814D01*
X89107396Y-88208818D01*
X89142976Y-88348221D01*
X89142980Y-88348233D01*
X89173419Y-88421719D01*
X89173431Y-88421747D01*
X89196779Y-88470548D01*
X89196782Y-88470553D01*
X89214213Y-88493837D01*
X89283006Y-88585733D01*
X89283010Y-88585737D01*
X89283015Y-88585743D01*
X89339252Y-88641980D01*
X89339261Y-88641988D01*
X89339267Y-88641994D01*
X89379524Y-88678156D01*
X89379532Y-88678162D01*
X89503263Y-88751573D01*
X89503262Y-88751573D01*
X89510329Y-88754500D01*
X89576774Y-88782022D01*
X89592645Y-88787621D01*
X89605133Y-88792027D01*
X89661805Y-88832894D01*
X89687386Y-88897912D01*
X89673754Y-88966439D01*
X89636765Y-89009281D01*
X89562782Y-89063032D01*
X89418028Y-89207786D01*
X89297715Y-89373386D01*
X89204781Y-89555776D01*
X89141522Y-89750465D01*
X89109500Y-89952648D01*
X89109500Y-90157351D01*
X89141522Y-90359534D01*
X89204781Y-90554223D01*
X89297715Y-90736613D01*
X89418028Y-90902213D01*
X89562786Y-91046971D01*
X89668299Y-91123629D01*
X89728390Y-91167287D01*
X89819840Y-91213883D01*
X89821080Y-91214515D01*
X89871876Y-91262490D01*
X89888671Y-91330311D01*
X89866134Y-91396446D01*
X89821080Y-91435485D01*
X89728386Y-91482715D01*
X89562786Y-91603028D01*
X89418028Y-91747786D01*
X89297715Y-91913386D01*
X89204781Y-92095776D01*
X89141522Y-92290465D01*
X89109500Y-92492648D01*
X89109500Y-92697351D01*
X89141522Y-92899534D01*
X89204781Y-93094223D01*
X89258423Y-93199500D01*
X89297712Y-93276609D01*
X89297715Y-93276613D01*
X89418028Y-93442213D01*
X89562786Y-93586971D01*
X89717749Y-93699556D01*
X89728390Y-93707287D01*
X89819840Y-93753883D01*
X89821080Y-93754515D01*
X89871876Y-93802490D01*
X89888671Y-93870311D01*
X89866134Y-93936446D01*
X89821080Y-93975485D01*
X89728386Y-94022715D01*
X89562786Y-94143028D01*
X89418028Y-94287786D01*
X89297715Y-94453386D01*
X89204781Y-94635776D01*
X89141522Y-94830465D01*
X89109500Y-95032648D01*
X89109500Y-95237351D01*
X89141522Y-95439534D01*
X89204781Y-95634223D01*
X89266618Y-95755582D01*
X89297712Y-95816609D01*
X89297715Y-95816613D01*
X89418028Y-95982213D01*
X89562786Y-96126971D01*
X89683116Y-96214394D01*
X89728390Y-96247287D01*
X89797676Y-96282590D01*
X89821080Y-96294515D01*
X89871876Y-96342490D01*
X89888671Y-96410311D01*
X89866134Y-96476446D01*
X89821080Y-96515485D01*
X89728386Y-96562715D01*
X89562786Y-96683028D01*
X89418028Y-96827786D01*
X89297715Y-96993386D01*
X89204781Y-97175776D01*
X89141522Y-97370465D01*
X89109500Y-97572648D01*
X89109500Y-97777351D01*
X89141522Y-97979534D01*
X89204781Y-98174223D01*
X89297715Y-98356613D01*
X89418028Y-98522213D01*
X89562782Y-98666967D01*
X89562787Y-98666971D01*
X89639583Y-98722767D01*
X89682249Y-98778097D01*
X89688228Y-98847710D01*
X89655622Y-98909505D01*
X89597365Y-98943233D01*
X89576973Y-98948437D01*
X89576962Y-98948441D01*
X89520415Y-98971863D01*
X90280589Y-99732037D01*
X90217007Y-99749075D01*
X90102993Y-99814901D01*
X90009901Y-99907993D01*
X89944075Y-100022007D01*
X89927037Y-100085589D01*
X89166863Y-99325415D01*
X89166862Y-99325415D01*
X89143446Y-99381947D01*
X89143431Y-99381987D01*
X89125457Y-99432939D01*
X89125455Y-99432946D01*
X89105000Y-99575219D01*
X89105000Y-100854785D01*
X89107893Y-100908762D01*
X89107893Y-100908764D01*
X89143438Y-101048030D01*
X89143442Y-101048043D01*
X89166862Y-101104584D01*
X89927037Y-100344410D01*
X89944075Y-100407993D01*
X90009901Y-100522007D01*
X90102993Y-100615099D01*
X90217007Y-100680925D01*
X90280589Y-100697962D01*
X89520414Y-101458135D01*
X89576960Y-101481557D01*
X89576986Y-101481567D01*
X89605621Y-101491669D01*
X89662294Y-101532534D01*
X89687876Y-101597552D01*
X89674246Y-101666080D01*
X89637256Y-101708924D01*
X89562782Y-101763032D01*
X89418028Y-101907786D01*
X89297715Y-102073386D01*
X89204781Y-102255776D01*
X89141522Y-102450465D01*
X89120456Y-102583473D01*
X89109500Y-102652648D01*
X89109500Y-102857352D01*
X89113878Y-102884995D01*
X89141522Y-103059534D01*
X89204781Y-103254223D01*
X89297715Y-103436613D01*
X89418028Y-103602213D01*
X89562786Y-103746971D01*
X89717749Y-103859556D01*
X89728390Y-103867287D01*
X89819840Y-103913883D01*
X89821080Y-103914515D01*
X89871876Y-103962490D01*
X89888671Y-104030311D01*
X89866134Y-104096446D01*
X89821080Y-104135485D01*
X89728386Y-104182715D01*
X89562786Y-104303028D01*
X89418028Y-104447786D01*
X89297715Y-104613386D01*
X89204781Y-104795776D01*
X89141522Y-104990465D01*
X89109500Y-105192648D01*
X89109500Y-105397351D01*
X89141522Y-105599534D01*
X89204781Y-105794223D01*
X89297715Y-105976613D01*
X89418028Y-106142213D01*
X89562786Y-106286971D01*
X89717749Y-106399556D01*
X89728390Y-106407287D01*
X89819840Y-106453883D01*
X89821080Y-106454515D01*
X89871876Y-106502490D01*
X89888671Y-106570311D01*
X89866134Y-106636446D01*
X89821080Y-106675485D01*
X89728386Y-106722715D01*
X89562786Y-106843028D01*
X89418028Y-106987786D01*
X89297715Y-107153386D01*
X89204781Y-107335776D01*
X89141522Y-107530465D01*
X89109500Y-107732648D01*
X89109500Y-107937351D01*
X89141522Y-108139534D01*
X89204781Y-108334223D01*
X89297715Y-108516613D01*
X89418028Y-108682213D01*
X89562786Y-108826971D01*
X89667132Y-108902781D01*
X89728390Y-108947287D01*
X89819840Y-108993883D01*
X89821080Y-108994515D01*
X89871876Y-109042490D01*
X89888671Y-109110311D01*
X89866134Y-109176446D01*
X89821080Y-109215485D01*
X89728386Y-109262715D01*
X89562786Y-109383028D01*
X89418028Y-109527786D01*
X89297715Y-109693386D01*
X89204781Y-109875776D01*
X89141522Y-110070465D01*
X89109500Y-110272648D01*
X89109500Y-110477351D01*
X89141522Y-110679534D01*
X89204781Y-110874223D01*
X89297715Y-111056613D01*
X89418028Y-111222213D01*
X89562782Y-111366967D01*
X89562787Y-111366971D01*
X89639583Y-111422767D01*
X89682249Y-111478097D01*
X89688228Y-111547710D01*
X89655622Y-111609505D01*
X89597365Y-111643233D01*
X89576973Y-111648437D01*
X89576962Y-111648441D01*
X89520415Y-111671863D01*
X90280589Y-112432037D01*
X90217007Y-112449075D01*
X90102993Y-112514901D01*
X90009901Y-112607993D01*
X89944075Y-112722007D01*
X89927037Y-112785589D01*
X89166863Y-112025415D01*
X89166862Y-112025415D01*
X89143446Y-112081947D01*
X89143431Y-112081987D01*
X89125457Y-112132939D01*
X89125455Y-112132946D01*
X89105000Y-112275219D01*
X89105000Y-113554785D01*
X89107893Y-113608762D01*
X89107893Y-113608764D01*
X89143438Y-113748030D01*
X89143442Y-113748043D01*
X89166862Y-113804584D01*
X89927037Y-113044410D01*
X89944075Y-113107993D01*
X90009901Y-113222007D01*
X90102993Y-113315099D01*
X90217007Y-113380925D01*
X90280589Y-113397962D01*
X89520414Y-114158135D01*
X89576960Y-114181557D01*
X89576986Y-114181567D01*
X89605621Y-114191669D01*
X89662294Y-114232534D01*
X89687876Y-114297552D01*
X89674246Y-114366080D01*
X89637256Y-114408924D01*
X89562782Y-114463032D01*
X89418028Y-114607786D01*
X89297715Y-114773386D01*
X89204781Y-114955776D01*
X89141522Y-115150465D01*
X89109500Y-115352648D01*
X89109500Y-115557351D01*
X89141522Y-115759534D01*
X89204781Y-115954223D01*
X89297715Y-116136613D01*
X89418028Y-116302213D01*
X89562786Y-116446971D01*
X89667132Y-116522781D01*
X89728390Y-116567287D01*
X89819840Y-116613883D01*
X89821080Y-116614515D01*
X89871876Y-116662490D01*
X89888671Y-116730311D01*
X89866134Y-116796446D01*
X89821080Y-116835485D01*
X89728386Y-116882715D01*
X89562786Y-117003028D01*
X89418028Y-117147786D01*
X89297715Y-117313386D01*
X89204781Y-117495776D01*
X89141522Y-117690465D01*
X89109500Y-117892648D01*
X89109500Y-118097351D01*
X89141522Y-118299534D01*
X89204781Y-118494223D01*
X89297715Y-118676613D01*
X89418028Y-118842213D01*
X89562786Y-118986971D01*
X89717749Y-119099556D01*
X89728390Y-119107287D01*
X89844607Y-119166503D01*
X89910776Y-119200218D01*
X89910778Y-119200218D01*
X89910781Y-119200220D01*
X90015137Y-119234127D01*
X90105465Y-119263477D01*
X90206557Y-119279488D01*
X90307648Y-119295500D01*
X90307649Y-119295500D01*
X90512351Y-119295500D01*
X90512352Y-119295500D01*
X90714534Y-119263477D01*
X90909219Y-119200220D01*
X91091610Y-119107287D01*
X91184590Y-119039732D01*
X91257213Y-118986971D01*
X91257215Y-118986968D01*
X91257219Y-118986966D01*
X91401966Y-118842219D01*
X91401968Y-118842215D01*
X91401971Y-118842213D01*
X91454732Y-118769590D01*
X91522287Y-118676610D01*
X91615220Y-118494219D01*
X91678477Y-118299534D01*
X91710500Y-118097352D01*
X91710500Y-117892648D01*
X91678477Y-117690466D01*
X91676353Y-117683930D01*
X91615218Y-117495776D01*
X91542139Y-117352352D01*
X91522287Y-117313390D01*
X91489054Y-117267648D01*
X91401971Y-117147786D01*
X91257213Y-117003028D01*
X91091614Y-116882715D01*
X91068182Y-116870776D01*
X90998917Y-116835483D01*
X90948123Y-116787511D01*
X90931328Y-116719690D01*
X90953865Y-116653555D01*
X90998917Y-116614516D01*
X91091610Y-116567287D01*
X91152868Y-116522781D01*
X91257213Y-116446971D01*
X91257215Y-116446968D01*
X91257219Y-116446966D01*
X91401966Y-116302219D01*
X91401968Y-116302215D01*
X91401971Y-116302213D01*
X91454732Y-116229590D01*
X91522287Y-116136610D01*
X91615220Y-115954219D01*
X91678477Y-115759534D01*
X91710500Y-115557352D01*
X91710500Y-115352648D01*
X91678477Y-115150466D01*
X91615220Y-114955781D01*
X91615218Y-114955778D01*
X91615218Y-114955776D01*
X91581503Y-114889607D01*
X91522287Y-114773390D01*
X91514556Y-114762749D01*
X91401971Y-114607786D01*
X91257213Y-114463028D01*
X91091614Y-114342715D01*
X91083410Y-114338535D01*
X91005703Y-114298941D01*
X90954908Y-114250968D01*
X90938113Y-114183147D01*
X90960650Y-114117012D01*
X91003546Y-114079099D01*
X91069503Y-114043843D01*
X91069515Y-114043837D01*
X91138913Y-113997465D01*
X90539410Y-113397962D01*
X90602993Y-113380925D01*
X90717007Y-113315099D01*
X90810099Y-113222007D01*
X90875925Y-113107993D01*
X90892962Y-113044410D01*
X91492465Y-113643913D01*
X91538837Y-113574515D01*
X91538838Y-113574511D01*
X91585509Y-113487198D01*
X91645814Y-113341612D01*
X91674555Y-113246864D01*
X91705298Y-113092302D01*
X91705298Y-113092299D01*
X91715000Y-112993789D01*
X91715000Y-112836210D01*
X91705298Y-112737700D01*
X91705298Y-112737697D01*
X91674555Y-112583135D01*
X91645814Y-112488387D01*
X91585509Y-112342801D01*
X91538844Y-112255498D01*
X91538838Y-112255488D01*
X91492465Y-112186085D01*
X90892962Y-112785588D01*
X90875925Y-112722007D01*
X90810099Y-112607993D01*
X90717007Y-112514901D01*
X90602993Y-112449075D01*
X90539410Y-112432037D01*
X91138912Y-111832534D01*
X91069511Y-111786161D01*
X91069500Y-111786155D01*
X91003545Y-111750900D01*
X90953701Y-111701937D01*
X90938241Y-111633799D01*
X90962073Y-111568119D01*
X91005702Y-111531059D01*
X91091610Y-111487287D01*
X91182745Y-111421074D01*
X91257213Y-111366971D01*
X91257215Y-111366968D01*
X91257219Y-111366966D01*
X91401966Y-111222219D01*
X91401968Y-111222215D01*
X91401971Y-111222213D01*
X91454732Y-111149590D01*
X91522287Y-111056610D01*
X91615220Y-110874219D01*
X91678477Y-110679534D01*
X91710500Y-110477352D01*
X91710500Y-110272648D01*
X91678477Y-110070466D01*
X91676353Y-110063930D01*
X91615218Y-109875776D01*
X91547743Y-109743351D01*
X91522287Y-109693390D01*
X91489049Y-109647641D01*
X91401971Y-109527786D01*
X91257213Y-109383028D01*
X91091614Y-109262715D01*
X91068182Y-109250776D01*
X90998917Y-109215483D01*
X90948123Y-109167511D01*
X90931328Y-109099690D01*
X90953865Y-109033555D01*
X90998917Y-108994516D01*
X91091610Y-108947287D01*
X91172388Y-108888599D01*
X91257213Y-108826971D01*
X91257215Y-108826968D01*
X91257219Y-108826966D01*
X91401966Y-108682219D01*
X91401968Y-108682215D01*
X91401971Y-108682213D01*
X91476815Y-108579197D01*
X91522287Y-108516610D01*
X91615220Y-108334219D01*
X91678477Y-108139534D01*
X91710500Y-107937352D01*
X91710500Y-107732648D01*
X91678477Y-107530466D01*
X91615220Y-107335781D01*
X91615218Y-107335778D01*
X91615218Y-107335776D01*
X91581503Y-107269607D01*
X91522287Y-107153390D01*
X91514556Y-107142749D01*
X91401971Y-106987786D01*
X91257213Y-106843028D01*
X91091614Y-106722715D01*
X91085006Y-106719348D01*
X90998917Y-106675483D01*
X90948123Y-106627511D01*
X90931328Y-106559690D01*
X90953865Y-106493555D01*
X90998917Y-106454516D01*
X91091610Y-106407287D01*
X91112770Y-106391913D01*
X91257213Y-106286971D01*
X91257215Y-106286968D01*
X91257219Y-106286966D01*
X91401966Y-106142219D01*
X91401968Y-106142215D01*
X91401971Y-106142213D01*
X91476714Y-106039336D01*
X91522287Y-105976610D01*
X91615220Y-105794219D01*
X91678477Y-105599534D01*
X91710500Y-105397352D01*
X91710500Y-105192648D01*
X91678477Y-104990466D01*
X91615220Y-104795781D01*
X91615218Y-104795778D01*
X91615218Y-104795776D01*
X91581503Y-104729607D01*
X91522287Y-104613390D01*
X91512559Y-104600000D01*
X91401971Y-104447786D01*
X91257213Y-104303028D01*
X91091614Y-104182715D01*
X91085006Y-104179348D01*
X90998917Y-104135483D01*
X90948123Y-104087511D01*
X90931328Y-104019690D01*
X90953865Y-103953555D01*
X90998917Y-103914516D01*
X91091610Y-103867287D01*
X91112770Y-103851913D01*
X91257213Y-103746971D01*
X91257215Y-103746968D01*
X91257219Y-103746966D01*
X91401966Y-103602219D01*
X91401968Y-103602215D01*
X91401971Y-103602213D01*
X91454732Y-103529590D01*
X91522287Y-103436610D01*
X91615220Y-103254219D01*
X91678477Y-103059534D01*
X91710500Y-102857352D01*
X91710500Y-102652648D01*
X91697422Y-102570080D01*
X91678477Y-102450465D01*
X91646586Y-102352317D01*
X91615220Y-102255781D01*
X91615218Y-102255778D01*
X91615218Y-102255776D01*
X91561067Y-102149500D01*
X91522287Y-102073390D01*
X91514556Y-102062749D01*
X91401971Y-101907786D01*
X91257213Y-101763028D01*
X91091614Y-101642715D01*
X91083410Y-101638535D01*
X91005703Y-101598941D01*
X90954908Y-101550968D01*
X90938113Y-101483147D01*
X90960650Y-101417012D01*
X91003546Y-101379099D01*
X91069503Y-101343843D01*
X91069515Y-101343837D01*
X91138913Y-101297465D01*
X90539410Y-100697962D01*
X90602993Y-100680925D01*
X90717007Y-100615099D01*
X90810099Y-100522007D01*
X90875925Y-100407993D01*
X90892962Y-100344410D01*
X91492465Y-100943913D01*
X91538837Y-100874515D01*
X91538838Y-100874511D01*
X91585509Y-100787198D01*
X91645814Y-100641612D01*
X91674555Y-100546864D01*
X91705298Y-100392302D01*
X91705298Y-100392299D01*
X91715000Y-100293789D01*
X91715000Y-100136210D01*
X91705298Y-100037700D01*
X91705298Y-100037697D01*
X91674555Y-99883135D01*
X91645814Y-99788387D01*
X91585509Y-99642801D01*
X91538844Y-99555498D01*
X91538838Y-99555488D01*
X91492465Y-99486085D01*
X90892962Y-100085588D01*
X90875925Y-100022007D01*
X90810099Y-99907993D01*
X90717007Y-99814901D01*
X90602993Y-99749075D01*
X90539410Y-99732037D01*
X91138912Y-99132534D01*
X91069511Y-99086161D01*
X91069500Y-99086155D01*
X91003545Y-99050900D01*
X90953701Y-99001937D01*
X90938241Y-98933799D01*
X90962073Y-98868119D01*
X91005702Y-98831059D01*
X91091610Y-98787287D01*
X91141144Y-98751298D01*
X91257213Y-98666971D01*
X91257215Y-98666968D01*
X91257219Y-98666966D01*
X91401966Y-98522219D01*
X91401968Y-98522215D01*
X91401971Y-98522213D01*
X91478454Y-98416941D01*
X91522287Y-98356610D01*
X91615220Y-98174219D01*
X91678477Y-97979534D01*
X91710500Y-97777352D01*
X91710500Y-97572648D01*
X91678477Y-97370466D01*
X91675076Y-97360000D01*
X91615218Y-97175776D01*
X91581503Y-97109607D01*
X91522287Y-96993390D01*
X91459681Y-96907219D01*
X91401971Y-96827786D01*
X91257213Y-96683028D01*
X91091614Y-96562715D01*
X91084384Y-96559031D01*
X90998917Y-96515483D01*
X90948123Y-96467511D01*
X90931328Y-96399690D01*
X90953865Y-96333555D01*
X90998917Y-96294516D01*
X91091610Y-96247287D01*
X91136884Y-96214394D01*
X91257213Y-96126971D01*
X91257215Y-96126968D01*
X91257219Y-96126966D01*
X91401966Y-95982219D01*
X91401968Y-95982215D01*
X91401971Y-95982213D01*
X91478869Y-95876370D01*
X91522287Y-95816610D01*
X91615220Y-95634219D01*
X91678477Y-95439534D01*
X91710500Y-95237352D01*
X91710500Y-95032648D01*
X91692175Y-94916948D01*
X91678477Y-94830465D01*
X91615218Y-94635776D01*
X91562126Y-94531578D01*
X91522287Y-94453390D01*
X91514556Y-94442749D01*
X91401971Y-94287786D01*
X91257213Y-94143028D01*
X91091614Y-94022715D01*
X91085006Y-94019348D01*
X90998917Y-93975483D01*
X90948123Y-93927511D01*
X90931328Y-93859690D01*
X90953865Y-93793555D01*
X90998917Y-93754516D01*
X91091610Y-93707287D01*
X91112770Y-93691913D01*
X91257213Y-93586971D01*
X91257215Y-93586968D01*
X91257219Y-93586966D01*
X91401966Y-93442219D01*
X91401968Y-93442215D01*
X91401971Y-93442213D01*
X91512121Y-93290602D01*
X91522287Y-93276610D01*
X91615220Y-93094219D01*
X91678477Y-92899534D01*
X91710500Y-92697352D01*
X91710500Y-92492648D01*
X91678477Y-92290466D01*
X91615220Y-92095781D01*
X91615218Y-92095778D01*
X91615218Y-92095776D01*
X91581503Y-92029607D01*
X91522287Y-91913390D01*
X91464179Y-91833410D01*
X91401971Y-91747786D01*
X91257213Y-91603028D01*
X91091614Y-91482715D01*
X91085006Y-91479348D01*
X90998917Y-91435483D01*
X90948123Y-91387511D01*
X90931328Y-91319690D01*
X90953865Y-91253555D01*
X90998917Y-91214516D01*
X91091610Y-91167287D01*
X91151701Y-91123629D01*
X91257213Y-91046971D01*
X91257215Y-91046968D01*
X91257219Y-91046966D01*
X91401966Y-90902219D01*
X91401968Y-90902215D01*
X91401971Y-90902213D01*
X91454732Y-90829590D01*
X91522287Y-90736610D01*
X91615220Y-90554219D01*
X91678477Y-90359534D01*
X91710500Y-90157352D01*
X91710500Y-89952648D01*
X91678477Y-89750466D01*
X91615220Y-89555781D01*
X91615218Y-89555778D01*
X91615218Y-89555776D01*
X91562447Y-89452209D01*
X91522287Y-89373390D01*
X91459681Y-89287219D01*
X91401971Y-89207786D01*
X91257213Y-89063028D01*
X91091613Y-88942715D01*
X91091612Y-88942714D01*
X91091610Y-88942713D01*
X91038947Y-88915880D01*
X91006245Y-88899217D01*
X90955449Y-88851242D01*
X90938654Y-88783421D01*
X90961192Y-88717286D01*
X91004083Y-88679376D01*
X91069783Y-88644259D01*
X91200811Y-88556709D01*
X91277412Y-88493843D01*
X91388843Y-88382412D01*
X91451709Y-88305811D01*
X91539259Y-88174783D01*
X91585972Y-88087389D01*
X91646278Y-87941798D01*
X91675044Y-87846968D01*
X91705787Y-87692410D01*
X91715500Y-87593793D01*
X91715500Y-87436207D01*
X91705787Y-87337590D01*
X91675044Y-87183032D01*
X91646278Y-87088202D01*
X91585972Y-86942611D01*
X91583451Y-86937895D01*
X91539265Y-86855228D01*
X91539263Y-86855226D01*
X91539259Y-86855217D01*
X91539248Y-86855200D01*
X91451721Y-86724206D01*
X91451712Y-86724194D01*
X91451709Y-86724189D01*
X91388843Y-86647588D01*
X91277412Y-86536157D01*
X91200811Y-86473291D01*
X91200804Y-86473286D01*
X91200793Y-86473278D01*
X91069799Y-86385751D01*
X91069788Y-86385744D01*
X91069783Y-86385741D01*
X91047645Y-86373908D01*
X91004086Y-86350625D01*
X90954242Y-86301662D01*
X90938782Y-86233524D01*
X90962614Y-86167845D01*
X91006246Y-86130782D01*
X91091610Y-86087287D01*
X91182745Y-86021074D01*
X91257213Y-85966971D01*
X91257215Y-85966968D01*
X91257219Y-85966966D01*
X91401966Y-85822219D01*
X91401968Y-85822215D01*
X91401971Y-85822213D01*
X91457144Y-85746273D01*
X91522287Y-85656610D01*
X91615220Y-85474219D01*
X91678477Y-85279534D01*
X91710500Y-85077352D01*
X91710500Y-84872648D01*
X91678477Y-84670466D01*
X91615220Y-84475781D01*
X91615218Y-84475778D01*
X91615218Y-84475776D01*
X91581503Y-84409607D01*
X91522287Y-84293390D01*
X91504653Y-84269118D01*
X91401971Y-84127786D01*
X91257213Y-83983028D01*
X91091614Y-83862715D01*
X91085006Y-83859348D01*
X90998917Y-83815483D01*
X90948123Y-83767511D01*
X90931328Y-83699690D01*
X90953865Y-83633555D01*
X90998917Y-83594516D01*
X91091610Y-83547287D01*
X91184060Y-83480119D01*
X91257213Y-83426971D01*
X91257215Y-83426968D01*
X91257219Y-83426966D01*
X91401966Y-83282219D01*
X91401968Y-83282215D01*
X91401971Y-83282213D01*
X91454732Y-83209590D01*
X91522287Y-83116610D01*
X91615220Y-82934219D01*
X91678477Y-82739534D01*
X91710500Y-82537352D01*
X91710500Y-82332648D01*
X91704886Y-82297203D01*
X91678477Y-82130465D01*
X91636095Y-82000027D01*
X91615220Y-81935781D01*
X91615218Y-81935778D01*
X91615218Y-81935776D01*
X91575226Y-81857288D01*
X91522287Y-81753390D01*
X91503521Y-81727560D01*
X91401971Y-81587786D01*
X91257213Y-81443028D01*
X91091614Y-81322715D01*
X91047033Y-81300000D01*
X90998917Y-81275483D01*
X90948123Y-81227511D01*
X90931328Y-81159690D01*
X90953865Y-81093555D01*
X90998917Y-81054516D01*
X91091610Y-81007287D01*
X91112770Y-80991913D01*
X91257213Y-80886971D01*
X91257215Y-80886968D01*
X91257219Y-80886966D01*
X91401966Y-80742219D01*
X91401968Y-80742215D01*
X91401971Y-80742213D01*
X91454732Y-80669590D01*
X91522287Y-80576610D01*
X91615220Y-80394219D01*
X91678477Y-80199534D01*
X91710500Y-79997352D01*
X91710500Y-79792648D01*
X91678477Y-79590466D01*
X91615220Y-79395781D01*
X91615218Y-79395778D01*
X91615218Y-79395776D01*
X91581503Y-79329607D01*
X91522287Y-79213390D01*
X91514556Y-79202749D01*
X91401971Y-79047786D01*
X91257213Y-78903028D01*
X91091614Y-78782715D01*
X91085006Y-78779348D01*
X90998917Y-78735483D01*
X90948123Y-78687511D01*
X90931328Y-78619690D01*
X90953865Y-78553555D01*
X90998917Y-78514516D01*
X91091610Y-78467287D01*
X91135092Y-78435696D01*
X91257213Y-78346971D01*
X91257215Y-78346968D01*
X91257219Y-78346966D01*
X91401966Y-78202219D01*
X91401968Y-78202215D01*
X91401971Y-78202213D01*
X91454732Y-78129590D01*
X91522287Y-78036610D01*
X91615220Y-77854219D01*
X91678477Y-77659534D01*
X91710500Y-77457352D01*
X91710500Y-77252648D01*
X91687942Y-77110222D01*
X91678477Y-77050465D01*
X91620791Y-76872927D01*
X91615220Y-76855781D01*
X91615218Y-76855778D01*
X91615218Y-76855776D01*
X91557048Y-76741613D01*
X91522287Y-76673390D01*
X91489826Y-76628711D01*
X91401971Y-76507786D01*
X91257213Y-76363028D01*
X91091614Y-76242715D01*
X91083410Y-76238535D01*
X91005703Y-76198941D01*
X90954908Y-76150968D01*
X90938113Y-76083147D01*
X90960650Y-76017012D01*
X91003546Y-75979099D01*
X91069503Y-75943843D01*
X91069515Y-75943837D01*
X91138913Y-75897465D01*
X90539410Y-75297962D01*
X90602993Y-75280925D01*
X90717007Y-75215099D01*
X90810099Y-75122007D01*
X90875925Y-75007993D01*
X90892962Y-74944410D01*
X91492465Y-75543913D01*
X91538837Y-75474515D01*
X91538838Y-75474511D01*
X91585509Y-75387198D01*
X91645814Y-75241612D01*
X91674555Y-75146864D01*
X91705298Y-74992302D01*
X91705298Y-74992299D01*
X91715000Y-74893789D01*
X91715000Y-74736210D01*
X91705298Y-74637700D01*
X91705298Y-74637697D01*
X91674555Y-74483135D01*
X91645814Y-74388387D01*
X91585509Y-74242801D01*
X91538844Y-74155498D01*
X91538838Y-74155488D01*
X91492465Y-74086085D01*
X90892962Y-74685588D01*
X90875925Y-74622007D01*
X90810099Y-74507993D01*
X90717007Y-74414901D01*
X90602993Y-74349075D01*
X90539410Y-74332037D01*
X91138912Y-73732534D01*
X91069511Y-73686161D01*
X91069500Y-73686155D01*
X91003545Y-73650900D01*
X90953701Y-73601937D01*
X90938241Y-73533799D01*
X90962073Y-73468119D01*
X91005702Y-73431059D01*
X91091610Y-73387287D01*
X91182745Y-73321074D01*
X91257213Y-73266971D01*
X91257215Y-73266968D01*
X91257219Y-73266966D01*
X91401966Y-73122219D01*
X91401968Y-73122215D01*
X91401971Y-73122213D01*
X91501260Y-72985551D01*
X91522287Y-72956610D01*
X91615220Y-72774219D01*
X91678477Y-72579534D01*
X91710500Y-72377352D01*
X91710500Y-72172648D01*
X91678477Y-71970466D01*
X91666712Y-71934258D01*
X91615218Y-71775776D01*
X91581503Y-71709607D01*
X91522287Y-71593390D01*
X91514556Y-71582749D01*
X91401971Y-71427786D01*
X91257213Y-71283028D01*
X91091614Y-71162715D01*
X91085006Y-71159348D01*
X90998917Y-71115483D01*
X90948123Y-71067511D01*
X90931328Y-70999690D01*
X90953865Y-70933555D01*
X90998917Y-70894516D01*
X91091610Y-70847287D01*
X91197733Y-70770185D01*
X91257213Y-70726971D01*
X91257215Y-70726968D01*
X91257219Y-70726966D01*
X91401966Y-70582219D01*
X91401968Y-70582215D01*
X91401971Y-70582213D01*
X91489170Y-70462192D01*
X91522287Y-70416610D01*
X91615220Y-70234219D01*
X91678477Y-70039534D01*
X91710500Y-69837352D01*
X91710500Y-69632648D01*
X91678477Y-69430466D01*
X91615220Y-69235781D01*
X91615218Y-69235778D01*
X91615218Y-69235776D01*
X91556914Y-69121350D01*
X91522287Y-69053390D01*
X91514556Y-69042749D01*
X91401971Y-68887786D01*
X91257213Y-68743028D01*
X91091613Y-68622715D01*
X91091612Y-68622714D01*
X91091610Y-68622713D01*
X91006855Y-68579528D01*
X90909223Y-68529781D01*
X90714534Y-68466522D01*
X90539995Y-68438878D01*
X90512352Y-68434500D01*
X90307648Y-68434500D01*
X90283329Y-68438351D01*
X90105465Y-68466522D01*
X89910776Y-68529781D01*
X89728386Y-68622715D01*
X89562786Y-68743028D01*
X89418028Y-68887786D01*
X89297715Y-69053386D01*
X89204781Y-69235776D01*
X89141522Y-69430465D01*
X89109500Y-69632648D01*
X89109500Y-69837351D01*
X89141522Y-70039534D01*
X89204781Y-70234223D01*
X89256334Y-70335400D01*
X89284976Y-70391613D01*
X89297715Y-70416613D01*
X89418028Y-70582213D01*
X89562786Y-70726971D01*
X89717749Y-70839556D01*
X89728390Y-70847287D01*
X89813139Y-70890469D01*
X89821080Y-70894515D01*
X89871876Y-70942490D01*
X89888671Y-71010311D01*
X89866134Y-71076446D01*
X89821080Y-71115485D01*
X89728386Y-71162715D01*
X89562786Y-71283028D01*
X89418028Y-71427786D01*
X89297715Y-71593386D01*
X89204781Y-71775776D01*
X89141522Y-71970465D01*
X89109500Y-72172648D01*
X89109500Y-72377351D01*
X89141522Y-72579534D01*
X89204781Y-72774223D01*
X89297715Y-72956613D01*
X89418028Y-73122213D01*
X89562782Y-73266967D01*
X89562787Y-73266971D01*
X89639583Y-73322767D01*
X89682249Y-73378097D01*
X89688228Y-73447710D01*
X89655622Y-73509505D01*
X89597365Y-73543233D01*
X89576973Y-73548437D01*
X89576962Y-73548441D01*
X89520415Y-73571863D01*
X90280589Y-74332037D01*
X90217007Y-74349075D01*
X90102993Y-74414901D01*
X90009901Y-74507993D01*
X89944075Y-74622007D01*
X89927037Y-74685589D01*
X89166863Y-73925415D01*
X89166862Y-73925415D01*
X89143446Y-73981947D01*
X89143431Y-73981987D01*
X89125457Y-74032939D01*
X89125455Y-74032946D01*
X89105000Y-74175219D01*
X89105000Y-75454785D01*
X89107893Y-75508762D01*
X89107893Y-75508764D01*
X89143438Y-75648030D01*
X89143442Y-75648043D01*
X89166862Y-75704584D01*
X89927037Y-74944410D01*
X89944075Y-75007993D01*
X90009901Y-75122007D01*
X90102993Y-75215099D01*
X90217007Y-75280925D01*
X90280589Y-75297962D01*
X89520414Y-76058135D01*
X89576960Y-76081557D01*
X89576986Y-76081567D01*
X89605621Y-76091669D01*
X89662294Y-76132534D01*
X89687876Y-76197552D01*
X89674246Y-76266080D01*
X89637256Y-76308924D01*
X89562782Y-76363032D01*
X89418028Y-76507786D01*
X89297715Y-76673386D01*
X89204781Y-76855776D01*
X89141522Y-77050465D01*
X89109500Y-77252648D01*
X89109500Y-77457351D01*
X89141522Y-77659534D01*
X89204781Y-77854223D01*
X89265171Y-77972743D01*
X89277489Y-77996919D01*
X89297715Y-78036613D01*
X89418028Y-78202213D01*
X89562786Y-78346971D01*
X89684908Y-78435696D01*
X89728390Y-78467287D01*
X89819840Y-78513883D01*
X89821080Y-78514515D01*
X89871876Y-78562490D01*
X89888671Y-78630311D01*
X89866134Y-78696446D01*
X89821080Y-78735485D01*
X89728386Y-78782715D01*
X89562786Y-78903028D01*
X89418028Y-79047786D01*
X89297715Y-79213386D01*
X89204781Y-79395776D01*
X89141522Y-79590465D01*
X89109500Y-79792648D01*
X89109500Y-79997351D01*
X89141522Y-80199534D01*
X89204781Y-80394223D01*
X89297715Y-80576613D01*
X89418028Y-80742213D01*
X89562786Y-80886971D01*
X89717749Y-80999556D01*
X89728390Y-81007287D01*
X89819840Y-81053883D01*
X89821080Y-81054515D01*
X89871876Y-81102490D01*
X89888671Y-81170311D01*
X89866134Y-81236446D01*
X89821080Y-81275485D01*
X89728386Y-81322715D01*
X89562786Y-81443028D01*
X89418028Y-81587786D01*
X89297715Y-81753386D01*
X89204781Y-81935776D01*
X89141522Y-82130465D01*
X89109500Y-82332648D01*
X89109500Y-82537351D01*
X89141522Y-82739534D01*
X89204781Y-82934223D01*
X89233109Y-82989818D01*
X89289249Y-83099999D01*
X89297715Y-83116613D01*
X89418028Y-83282213D01*
X89562786Y-83426971D01*
X89689914Y-83519333D01*
X89728390Y-83547287D01*
X89819840Y-83593883D01*
X89821080Y-83594515D01*
X89871876Y-83642490D01*
X89888671Y-83710311D01*
X89866134Y-83776446D01*
X89821080Y-83815485D01*
X89728386Y-83862715D01*
X89562786Y-83983028D01*
X89418028Y-84127786D01*
X89297715Y-84293386D01*
X89204781Y-84475776D01*
X89141522Y-84670465D01*
X89109500Y-84872648D01*
X89109500Y-85077351D01*
X89141522Y-85279534D01*
X89204781Y-85474223D01*
X89297715Y-85656613D01*
X89418028Y-85822213D01*
X89562782Y-85966967D01*
X89562787Y-85966971D01*
X89639063Y-86022389D01*
X89681729Y-86077719D01*
X89687708Y-86147332D01*
X89655102Y-86209127D01*
X89596845Y-86242855D01*
X89576776Y-86247977D01*
X89576766Y-86247980D01*
X89503280Y-86278419D01*
X89503252Y-86278431D01*
X89454451Y-86301779D01*
X89454446Y-86301782D01*
X89339268Y-86388005D01*
X89339256Y-86388015D01*
X89283019Y-86444252D01*
X89246843Y-86484524D01*
X89246837Y-86484532D01*
X89173426Y-86608263D01*
X89142978Y-86681774D01*
X89142970Y-86681795D01*
X89124976Y-86732800D01*
X89104500Y-86875219D01*
X84230613Y-86875219D01*
X84304022Y-86837815D01*
X84345700Y-86807534D01*
X84396715Y-86770471D01*
X84482358Y-86708247D01*
X84482356Y-86708247D01*
X84482365Y-86708242D01*
X84638242Y-86552365D01*
X84767815Y-86374022D01*
X84867895Y-86177606D01*
X84936015Y-85967951D01*
X84970500Y-85750222D01*
X84970500Y-85529778D01*
X84936015Y-85312049D01*
X84867895Y-85102394D01*
X84867895Y-85102393D01*
X84833237Y-85034375D01*
X84767815Y-84905978D01*
X84749729Y-84881084D01*
X84638247Y-84727641D01*
X84638243Y-84727636D01*
X84622787Y-84712180D01*
X84589302Y-84650857D01*
X84594286Y-84581165D01*
X84636158Y-84525232D01*
X84701622Y-84500815D01*
X84710468Y-84500499D01*
X85540002Y-84500499D01*
X85540008Y-84500499D01*
X85545334Y-84499955D01*
X85560399Y-84498416D01*
X85642797Y-84489999D01*
X85809334Y-84434814D01*
X85958656Y-84342712D01*
X86082712Y-84218656D01*
X86174814Y-84069334D01*
X86229999Y-83902797D01*
X86240500Y-83800009D01*
X86240499Y-82399992D01*
X86237050Y-82366233D01*
X86229999Y-82297203D01*
X86229998Y-82297200D01*
X86174814Y-82130666D01*
X86082712Y-81981344D01*
X85958656Y-81857288D01*
X85809334Y-81765186D01*
X85642797Y-81710001D01*
X85642795Y-81710000D01*
X85540010Y-81699500D01*
X84139998Y-81699500D01*
X84139981Y-81699501D01*
X84037203Y-81710000D01*
X84037200Y-81710001D01*
X83870668Y-81765185D01*
X83870663Y-81765187D01*
X83721342Y-81857289D01*
X83597289Y-81981342D01*
X83505187Y-82130663D01*
X83505186Y-82130666D01*
X83456098Y-82278802D01*
X83426073Y-82327478D01*
X82742138Y-83011415D01*
X82719333Y-82926306D01*
X82660090Y-82823694D01*
X82576306Y-82739910D01*
X82473694Y-82680667D01*
X82388583Y-82657861D01*
X83097513Y-81948932D01*
X83033756Y-81902611D01*
X82837410Y-81802567D01*
X82627837Y-81734473D01*
X82584190Y-81727560D01*
X82521055Y-81697630D01*
X82484125Y-81638318D01*
X82485123Y-81568456D01*
X82489023Y-81557646D01*
X82519737Y-81483497D01*
X82550500Y-81328842D01*
X82550500Y-81171158D01*
X82550500Y-81171155D01*
X82550499Y-81171153D01*
X82535093Y-81093702D01*
X82519737Y-81016503D01*
X82515918Y-81007284D01*
X82459397Y-80870827D01*
X82459390Y-80870814D01*
X82371789Y-80739711D01*
X82371786Y-80739707D01*
X82260292Y-80628213D01*
X82260288Y-80628210D01*
X82129185Y-80540609D01*
X82129172Y-80540602D01*
X81983501Y-80480264D01*
X81983489Y-80480261D01*
X81828845Y-80449500D01*
X81828842Y-80449500D01*
X81671158Y-80449500D01*
X81671155Y-80449500D01*
X81516510Y-80480261D01*
X81516498Y-80480264D01*
X81370827Y-80540602D01*
X81370815Y-80540609D01*
X81276541Y-80603602D01*
X81209864Y-80624480D01*
X81207650Y-80624500D01*
X80292350Y-80624500D01*
X80225311Y-80604815D01*
X80223459Y-80603602D01*
X80129184Y-80540609D01*
X80129172Y-80540602D01*
X79983501Y-80480264D01*
X79983489Y-80480261D01*
X79828845Y-80449500D01*
X79828842Y-80449500D01*
X79671158Y-80449500D01*
X79671155Y-80449500D01*
X79516510Y-80480261D01*
X79516498Y-80480264D01*
X79370827Y-80540602D01*
X79370814Y-80540609D01*
X79239711Y-80628210D01*
X79239707Y-80628213D01*
X79128213Y-80739707D01*
X79128210Y-80739711D01*
X79040609Y-80870814D01*
X79040602Y-80870827D01*
X78980264Y-81016498D01*
X78980261Y-81016510D01*
X78949500Y-81171153D01*
X78949500Y-81328846D01*
X78980261Y-81483489D01*
X78980264Y-81483501D01*
X79040602Y-81629172D01*
X79040609Y-81629185D01*
X79128210Y-81760288D01*
X79128213Y-81760292D01*
X79239707Y-81871786D01*
X79239711Y-81871789D01*
X79370814Y-81959390D01*
X79370827Y-81959397D01*
X79423813Y-81981344D01*
X79516503Y-82019737D01*
X79671153Y-82050499D01*
X79671156Y-82050500D01*
X79671158Y-82050500D01*
X79828844Y-82050500D01*
X79828845Y-82050499D01*
X79983497Y-82019737D01*
X80129179Y-81959394D01*
X80223459Y-81896398D01*
X80290136Y-81875520D01*
X80292350Y-81875500D01*
X81207650Y-81875500D01*
X81274689Y-81895185D01*
X81276541Y-81896398D01*
X81370821Y-81959394D01*
X81370823Y-81959395D01*
X81370827Y-81959397D01*
X81423813Y-81981344D01*
X81516503Y-82019737D01*
X81550499Y-82026499D01*
X81612409Y-82058883D01*
X81613988Y-82060435D01*
X82211414Y-82657861D01*
X82126306Y-82680667D01*
X82023694Y-82739910D01*
X81939910Y-82823694D01*
X81880667Y-82926306D01*
X81857861Y-83011414D01*
X81148932Y-82302485D01*
X81148931Y-82302485D01*
X81102616Y-82366233D01*
X81002567Y-82562589D01*
X80934473Y-82772164D01*
X80900000Y-82989818D01*
X80900000Y-83210181D01*
X80934473Y-83427835D01*
X81002567Y-83637410D01*
X81102611Y-83833756D01*
X81148932Y-83897513D01*
X81857861Y-83188584D01*
X81880667Y-83273694D01*
X81939910Y-83376306D01*
X82023694Y-83460090D01*
X82126306Y-83519333D01*
X82211415Y-83542138D01*
X81503473Y-84250078D01*
X81442150Y-84283563D01*
X81377474Y-84280328D01*
X81357952Y-84273985D01*
X81249086Y-84256742D01*
X81140222Y-84239500D01*
X80919778Y-84239500D01*
X80852991Y-84250078D01*
X80702047Y-84273985D01*
X80492396Y-84342103D01*
X80492393Y-84342104D01*
X80295974Y-84442187D01*
X80117641Y-84571752D01*
X80117636Y-84571756D01*
X79961756Y-84727636D01*
X79961752Y-84727641D01*
X79832187Y-84905974D01*
X79732104Y-85102393D01*
X79732103Y-85102396D01*
X79663985Y-85312047D01*
X79629500Y-85529778D01*
X79629500Y-85750221D01*
X79663985Y-85967952D01*
X79732103Y-86177603D01*
X79732104Y-86177606D01*
X79795315Y-86301662D01*
X79814354Y-86339028D01*
X79832187Y-86374025D01*
X79961752Y-86552358D01*
X79961756Y-86552363D01*
X80117636Y-86708243D01*
X80117641Y-86708247D01*
X80273157Y-86821235D01*
X80295978Y-86837815D01*
X80424375Y-86903237D01*
X80492393Y-86937895D01*
X80492396Y-86937896D01*
X80559525Y-86959707D01*
X80702049Y-87006015D01*
X80919778Y-87040500D01*
X80919779Y-87040500D01*
X81020902Y-87040500D01*
X81087941Y-87060185D01*
X81133696Y-87112989D01*
X81143640Y-87182147D01*
X81114615Y-87245703D01*
X81108583Y-87252181D01*
X80557584Y-87803181D01*
X80496261Y-87836666D01*
X80469903Y-87839500D01*
X79729602Y-87839500D01*
X79662563Y-87819815D01*
X79619117Y-87771795D01*
X79612284Y-87758385D01*
X79491971Y-87592786D01*
X79347213Y-87448028D01*
X79181613Y-87327715D01*
X79181612Y-87327714D01*
X79181610Y-87327713D01*
X79124653Y-87298691D01*
X78999223Y-87234781D01*
X78804534Y-87171522D01*
X78629995Y-87143878D01*
X78602352Y-87139500D01*
X78397648Y-87139500D01*
X78373329Y-87143351D01*
X78195465Y-87171522D01*
X78000776Y-87234781D01*
X77818386Y-87327715D01*
X77652786Y-87448028D01*
X77508028Y-87592786D01*
X77387715Y-87758386D01*
X77294781Y-87940776D01*
X77231522Y-88135465D01*
X77200934Y-88328596D01*
X77199500Y-88337648D01*
X76800500Y-88337648D01*
X76795457Y-88305811D01*
X76768477Y-88135465D01*
X76729335Y-88015000D01*
X76705220Y-87940781D01*
X76705218Y-87940778D01*
X76705218Y-87940776D01*
X76657367Y-87846864D01*
X76612287Y-87758390D01*
X76575672Y-87707993D01*
X76491971Y-87592786D01*
X76347213Y-87448028D01*
X76181613Y-87327715D01*
X76181612Y-87327714D01*
X76181610Y-87327713D01*
X76124653Y-87298691D01*
X75999223Y-87234781D01*
X75804534Y-87171522D01*
X75629995Y-87143878D01*
X75602352Y-87139500D01*
X75397648Y-87139500D01*
X75373329Y-87143351D01*
X75195465Y-87171522D01*
X75000776Y-87234781D01*
X74818386Y-87327715D01*
X74652786Y-87448028D01*
X74508028Y-87592786D01*
X74387715Y-87758386D01*
X74294781Y-87940776D01*
X74231522Y-88135465D01*
X74200934Y-88328596D01*
X74199500Y-88337648D01*
X73900224Y-88337648D01*
X73914543Y-88297057D01*
X73914544Y-88297053D01*
X73934999Y-88154780D01*
X73935000Y-88154779D01*
X73935000Y-86875214D01*
X73932106Y-86821237D01*
X73932106Y-86821235D01*
X73896561Y-86681969D01*
X73896559Y-86681962D01*
X73873135Y-86625414D01*
X73112962Y-87385588D01*
X73095925Y-87322007D01*
X73030099Y-87207993D01*
X72937007Y-87114901D01*
X72822993Y-87049075D01*
X72759410Y-87032037D01*
X73519584Y-86271862D01*
X73463059Y-86248449D01*
X73463048Y-86248445D01*
X73434374Y-86238329D01*
X73377703Y-86197462D01*
X73352122Y-86132443D01*
X73365754Y-86063916D01*
X73402745Y-86021074D01*
X73477215Y-85966969D01*
X73477215Y-85966968D01*
X73477219Y-85966966D01*
X73621966Y-85822219D01*
X73621968Y-85822215D01*
X73621971Y-85822213D01*
X73677144Y-85746273D01*
X73742287Y-85656610D01*
X73835220Y-85474219D01*
X73898477Y-85279534D01*
X73930500Y-85077352D01*
X73930500Y-84872648D01*
X73898477Y-84670466D01*
X73835220Y-84475781D01*
X73835218Y-84475778D01*
X73835218Y-84475776D01*
X73801503Y-84409607D01*
X73742287Y-84293390D01*
X73724653Y-84269118D01*
X73621971Y-84127786D01*
X73477213Y-83983028D01*
X73311614Y-83862715D01*
X73305006Y-83859348D01*
X73218917Y-83815483D01*
X73168123Y-83767511D01*
X73151328Y-83699690D01*
X73173865Y-83633555D01*
X73218917Y-83594516D01*
X73311610Y-83547287D01*
X73404060Y-83480119D01*
X73477213Y-83426971D01*
X73477215Y-83426968D01*
X73477219Y-83426966D01*
X73621966Y-83282219D01*
X73621968Y-83282215D01*
X73621971Y-83282213D01*
X73674732Y-83209590D01*
X73742287Y-83116610D01*
X73835220Y-82934219D01*
X73898477Y-82739534D01*
X73930500Y-82537352D01*
X73930500Y-82332648D01*
X73924886Y-82297203D01*
X73898477Y-82130465D01*
X73856095Y-82000027D01*
X73835220Y-81935781D01*
X73835218Y-81935778D01*
X73835218Y-81935776D01*
X73795226Y-81857288D01*
X73742287Y-81753390D01*
X73723521Y-81727560D01*
X73621971Y-81587786D01*
X73477213Y-81443028D01*
X73311614Y-81322715D01*
X73219210Y-81275633D01*
X73219049Y-81275550D01*
X73219053Y-81275542D01*
X73168214Y-81227666D01*
X73151320Y-81159870D01*
X73173761Y-81093702D01*
X73218917Y-81054516D01*
X73311610Y-81007287D01*
X73332770Y-80991913D01*
X73477213Y-80886971D01*
X73477215Y-80886968D01*
X73477219Y-80886966D01*
X73621966Y-80742219D01*
X73621968Y-80742215D01*
X73621971Y-80742213D01*
X73674732Y-80669590D01*
X73742287Y-80576610D01*
X73835220Y-80394219D01*
X73898477Y-80199534D01*
X73930500Y-79997352D01*
X73930500Y-79792648D01*
X73898477Y-79590466D01*
X73835220Y-79395781D01*
X73835218Y-79395778D01*
X73835218Y-79395776D01*
X73801503Y-79329607D01*
X73742287Y-79213390D01*
X73734556Y-79202749D01*
X73621971Y-79047786D01*
X73477213Y-78903028D01*
X73311614Y-78782715D01*
X73305006Y-78779348D01*
X73218917Y-78735483D01*
X73168123Y-78687511D01*
X73151328Y-78619690D01*
X73173865Y-78553555D01*
X73218917Y-78514516D01*
X73311610Y-78467287D01*
X73355092Y-78435696D01*
X73477213Y-78346971D01*
X73477215Y-78346968D01*
X73477219Y-78346966D01*
X73621966Y-78202219D01*
X73621968Y-78202215D01*
X73621971Y-78202213D01*
X73674732Y-78129590D01*
X73742287Y-78036610D01*
X73835220Y-77854219D01*
X73898477Y-77659534D01*
X73930500Y-77457352D01*
X73930500Y-77252648D01*
X73907942Y-77110222D01*
X73898477Y-77050465D01*
X73840791Y-76872927D01*
X73835220Y-76855781D01*
X73835218Y-76855778D01*
X73835218Y-76855776D01*
X73745303Y-76679309D01*
X73742285Y-76673386D01*
X73708631Y-76627065D01*
X77374500Y-76627065D01*
X77374500Y-76872934D01*
X77397874Y-77050465D01*
X77406591Y-77116677D01*
X77470222Y-77354152D01*
X77470225Y-77354162D01*
X77559717Y-77570214D01*
X77564306Y-77581292D01*
X77687233Y-77794208D01*
X77687235Y-77794211D01*
X77687236Y-77794212D01*
X77836897Y-77989254D01*
X77836903Y-77989261D01*
X78010738Y-78163096D01*
X78010745Y-78163102D01*
X78061723Y-78202219D01*
X78205792Y-78312767D01*
X78418708Y-78435694D01*
X78645847Y-78529778D01*
X78883323Y-78593409D01*
X79127073Y-78625500D01*
X79127080Y-78625500D01*
X79372920Y-78625500D01*
X79372927Y-78625500D01*
X79616677Y-78593409D01*
X79854153Y-78529778D01*
X80081292Y-78435694D01*
X80294208Y-78312767D01*
X80489256Y-78163101D01*
X80663101Y-77989256D01*
X80812767Y-77794208D01*
X80935694Y-77581292D01*
X81029778Y-77354153D01*
X81093409Y-77116677D01*
X81125500Y-76872927D01*
X81125500Y-76628711D01*
X84899500Y-76628711D01*
X84899500Y-76871288D01*
X84930955Y-77110222D01*
X84931162Y-77111789D01*
X84932469Y-77116668D01*
X84993947Y-77346104D01*
X85040028Y-77457352D01*
X85086776Y-77570212D01*
X85208064Y-77780289D01*
X85208066Y-77780292D01*
X85208067Y-77780293D01*
X85355733Y-77972736D01*
X85355739Y-77972743D01*
X85527256Y-78144260D01*
X85527263Y-78144266D01*
X85551811Y-78163102D01*
X85719711Y-78291936D01*
X85929788Y-78413224D01*
X86153900Y-78506054D01*
X86388211Y-78568838D01*
X86568586Y-78592584D01*
X86628711Y-78600500D01*
X86628712Y-78600500D01*
X86871289Y-78600500D01*
X86925166Y-78593407D01*
X87111789Y-78568838D01*
X87346100Y-78506054D01*
X87570212Y-78413224D01*
X87780289Y-78291936D01*
X87972738Y-78144265D01*
X88144265Y-77972738D01*
X88291936Y-77780289D01*
X88413224Y-77570212D01*
X88506054Y-77346100D01*
X88568838Y-77111789D01*
X88600500Y-76871288D01*
X88600500Y-76628712D01*
X88568838Y-76388211D01*
X88506054Y-76153900D01*
X88504347Y-76149780D01*
X88464881Y-76054500D01*
X88413224Y-75929788D01*
X88291936Y-75719711D01*
X88144265Y-75527262D01*
X88144260Y-75527256D01*
X87972743Y-75355739D01*
X87972736Y-75355733D01*
X87780293Y-75208067D01*
X87780292Y-75208066D01*
X87780289Y-75208064D01*
X87570212Y-75086776D01*
X87570205Y-75086773D01*
X87346104Y-74993947D01*
X87173565Y-74947715D01*
X87111789Y-74931162D01*
X87111788Y-74931161D01*
X87111785Y-74931161D01*
X86871289Y-74899500D01*
X86871288Y-74899500D01*
X86628712Y-74899500D01*
X86628711Y-74899500D01*
X86388214Y-74931161D01*
X86153895Y-74993947D01*
X85929794Y-75086773D01*
X85929785Y-75086777D01*
X85719706Y-75208067D01*
X85527263Y-75355733D01*
X85527256Y-75355739D01*
X85355739Y-75527256D01*
X85355733Y-75527263D01*
X85208067Y-75719706D01*
X85208064Y-75719710D01*
X85208064Y-75719711D01*
X85194933Y-75742454D01*
X85086777Y-75929785D01*
X85086773Y-75929794D01*
X84993947Y-76153895D01*
X84931161Y-76388214D01*
X84899500Y-76628711D01*
X81125500Y-76628711D01*
X81125500Y-76627073D01*
X81093409Y-76383323D01*
X81029778Y-76145847D01*
X81019276Y-76120494D01*
X80993447Y-76058136D01*
X80935694Y-75918708D01*
X80812767Y-75705792D01*
X80663101Y-75510744D01*
X80663096Y-75510738D01*
X80489261Y-75336903D01*
X80489254Y-75336897D01*
X80294212Y-75187236D01*
X80294211Y-75187235D01*
X80294208Y-75187233D01*
X80081292Y-75064306D01*
X80081285Y-75064303D01*
X79854162Y-74970225D01*
X79854155Y-74970223D01*
X79854153Y-74970222D01*
X79616677Y-74906591D01*
X79562817Y-74899500D01*
X79372934Y-74874500D01*
X79372927Y-74874500D01*
X79127073Y-74874500D01*
X79127065Y-74874500D01*
X78895059Y-74905045D01*
X78883323Y-74906591D01*
X78729845Y-74947715D01*
X78645847Y-74970222D01*
X78645837Y-74970225D01*
X78418714Y-75064303D01*
X78418705Y-75064307D01*
X78205787Y-75187236D01*
X78010745Y-75336897D01*
X78010738Y-75336903D01*
X77836903Y-75510738D01*
X77836897Y-75510745D01*
X77687236Y-75705787D01*
X77564307Y-75918705D01*
X77564303Y-75918714D01*
X77470225Y-76145837D01*
X77470222Y-76145847D01*
X77411626Y-76364534D01*
X77406592Y-76383320D01*
X77406590Y-76383331D01*
X77374500Y-76627065D01*
X73708631Y-76627065D01*
X73621971Y-76507786D01*
X73477217Y-76363032D01*
X73400415Y-76307232D01*
X73357750Y-76251902D01*
X73351771Y-76182288D01*
X73384377Y-76120494D01*
X73442640Y-76086765D01*
X73463039Y-76081559D01*
X73519584Y-76058136D01*
X73519584Y-76058135D01*
X72759410Y-75297962D01*
X72822993Y-75280925D01*
X72937007Y-75215099D01*
X73030099Y-75122007D01*
X73095925Y-75007993D01*
X73112962Y-74944410D01*
X73873135Y-75704584D01*
X73873136Y-75704584D01*
X73896552Y-75648053D01*
X73914544Y-75597053D01*
X73934999Y-75454780D01*
X73935000Y-75454779D01*
X73935000Y-74175224D01*
X73934999Y-74175204D01*
X73932106Y-74121237D01*
X73932106Y-74121235D01*
X73896561Y-73981969D01*
X73896559Y-73981962D01*
X73873135Y-73925414D01*
X73112962Y-74685588D01*
X73095925Y-74622007D01*
X73030099Y-74507993D01*
X72937007Y-74414901D01*
X72822993Y-74349075D01*
X72759410Y-74332037D01*
X73519584Y-73571862D01*
X73463059Y-73548449D01*
X73463048Y-73548445D01*
X73434374Y-73538329D01*
X73377703Y-73497462D01*
X73352122Y-73432443D01*
X73365754Y-73363916D01*
X73402745Y-73321074D01*
X73477215Y-73266969D01*
X73477215Y-73266968D01*
X73477219Y-73266966D01*
X73621966Y-73122219D01*
X73621968Y-73122215D01*
X73621971Y-73122213D01*
X73721260Y-72985551D01*
X73742287Y-72956610D01*
X73835220Y-72774219D01*
X73898477Y-72579534D01*
X73930500Y-72377352D01*
X73930500Y-72172648D01*
X73898477Y-71970466D01*
X73886712Y-71934258D01*
X73835218Y-71775776D01*
X73801503Y-71709607D01*
X73742287Y-71593390D01*
X73734556Y-71582749D01*
X73621971Y-71427786D01*
X73477217Y-71283032D01*
X73477212Y-71283028D01*
X73396440Y-71224344D01*
X73353774Y-71169015D01*
X73347795Y-71099401D01*
X73380400Y-71037606D01*
X73432433Y-71005641D01*
X73519606Y-70978478D01*
X73665185Y-70890472D01*
X73785472Y-70770185D01*
X73873478Y-70624606D01*
X73924086Y-70462196D01*
X73930500Y-70391616D01*
X73930500Y-69078384D01*
X73924086Y-69007804D01*
X73873478Y-68845394D01*
X73785472Y-68699815D01*
X73785470Y-68699813D01*
X73785469Y-68699811D01*
X73665188Y-68579530D01*
X73519606Y-68491522D01*
X73490178Y-68482352D01*
X73357196Y-68440914D01*
X73357194Y-68440913D01*
X73357192Y-68440913D01*
X73307778Y-68436423D01*
X73286616Y-68434500D01*
X71973384Y-68434500D01*
X71954145Y-68436248D01*
X71902807Y-68440913D01*
X71740393Y-68491522D01*
X71594811Y-68579530D01*
X71474530Y-68699811D01*
X71386522Y-68845393D01*
X71335913Y-69007807D01*
X71329500Y-69078386D01*
X71329500Y-70391613D01*
X71335913Y-70462192D01*
X71386522Y-70624606D01*
X71474530Y-70770188D01*
X71594811Y-70890469D01*
X71594813Y-70890470D01*
X71594815Y-70890472D01*
X71740394Y-70978478D01*
X71827566Y-71005641D01*
X71885712Y-71044378D01*
X71913686Y-71108403D01*
X71902605Y-71177388D01*
X71863560Y-71224344D01*
X71782782Y-71283032D01*
X71638028Y-71427786D01*
X71517715Y-71593386D01*
X71424781Y-71775776D01*
X71361522Y-71970465D01*
X71329500Y-72172648D01*
X71329500Y-72377351D01*
X71361522Y-72579534D01*
X71424781Y-72774223D01*
X71517715Y-72956613D01*
X71638028Y-73122213D01*
X71782786Y-73266971D01*
X71948388Y-73387286D01*
X71948390Y-73387287D01*
X72034294Y-73431057D01*
X72085090Y-73479031D01*
X72101886Y-73546852D01*
X72079349Y-73612987D01*
X72036455Y-73650899D01*
X71970497Y-73686155D01*
X71901086Y-73732534D01*
X71901085Y-73732534D01*
X72500589Y-74332037D01*
X72437007Y-74349075D01*
X72322993Y-74414901D01*
X72229901Y-74507993D01*
X72164075Y-74622007D01*
X72147037Y-74685588D01*
X71547534Y-74086085D01*
X71547534Y-74086086D01*
X71501158Y-74155493D01*
X71454490Y-74242801D01*
X71394185Y-74388387D01*
X71365444Y-74483135D01*
X71334701Y-74637697D01*
X71334701Y-74637700D01*
X71325000Y-74736210D01*
X71325000Y-74893789D01*
X71334701Y-74992299D01*
X71334701Y-74992302D01*
X71365444Y-75146864D01*
X71394185Y-75241612D01*
X71454490Y-75387198D01*
X71501155Y-75474501D01*
X71501161Y-75474511D01*
X71547534Y-75543912D01*
X72147037Y-74944410D01*
X72164075Y-75007993D01*
X72229901Y-75122007D01*
X72322993Y-75215099D01*
X72437007Y-75280925D01*
X72500589Y-75297962D01*
X71901085Y-75897465D01*
X71970488Y-75943838D01*
X71970498Y-75943844D01*
X72036454Y-75979099D01*
X72086298Y-76028062D01*
X72101758Y-76096200D01*
X72077926Y-76161879D01*
X72034295Y-76198942D01*
X71948386Y-76242715D01*
X71782786Y-76363028D01*
X71638028Y-76507786D01*
X71517715Y-76673386D01*
X71424781Y-76855776D01*
X71361522Y-77050465D01*
X71329500Y-77252648D01*
X71329500Y-77457351D01*
X71361522Y-77659534D01*
X71424781Y-77854223D01*
X71485171Y-77972743D01*
X71497489Y-77996919D01*
X71517715Y-78036613D01*
X71638028Y-78202213D01*
X71782786Y-78346971D01*
X71904908Y-78435696D01*
X71948390Y-78467287D01*
X72039840Y-78513883D01*
X72041080Y-78514515D01*
X72091876Y-78562490D01*
X72108671Y-78630311D01*
X72086134Y-78696446D01*
X72041080Y-78735485D01*
X71948386Y-78782715D01*
X71782786Y-78903028D01*
X71638028Y-79047786D01*
X71517715Y-79213386D01*
X71424781Y-79395776D01*
X71361522Y-79590465D01*
X71329500Y-79792648D01*
X71329500Y-79997351D01*
X71361522Y-80199534D01*
X71424781Y-80394223D01*
X71517715Y-80576613D01*
X71638028Y-80742213D01*
X71782786Y-80886971D01*
X71937749Y-80999556D01*
X71948390Y-81007287D01*
X72039840Y-81053883D01*
X72041080Y-81054515D01*
X72091876Y-81102490D01*
X72108671Y-81170311D01*
X72086134Y-81236446D01*
X72041080Y-81275485D01*
X71948386Y-81322715D01*
X71782786Y-81443028D01*
X71638028Y-81587786D01*
X71517715Y-81753386D01*
X71424781Y-81935776D01*
X71361522Y-82130465D01*
X71329500Y-82332648D01*
X71329500Y-82537351D01*
X71361522Y-82739534D01*
X71424781Y-82934223D01*
X71453109Y-82989818D01*
X71509249Y-83099999D01*
X71517715Y-83116613D01*
X71638028Y-83282213D01*
X71782786Y-83426971D01*
X71909914Y-83519333D01*
X71948390Y-83547287D01*
X72039840Y-83593883D01*
X72041080Y-83594515D01*
X72091876Y-83642490D01*
X72108671Y-83710311D01*
X72086134Y-83776446D01*
X72041080Y-83815485D01*
X71948386Y-83862715D01*
X71782786Y-83983028D01*
X71638028Y-84127786D01*
X71517715Y-84293386D01*
X71424781Y-84475776D01*
X71361522Y-84670465D01*
X71329500Y-84872648D01*
X71329500Y-85077351D01*
X71361522Y-85279534D01*
X71424781Y-85474223D01*
X71517715Y-85656613D01*
X71638028Y-85822213D01*
X71782786Y-85966971D01*
X71948388Y-86087286D01*
X71948390Y-86087287D01*
X72034294Y-86131057D01*
X72085090Y-86179031D01*
X72101886Y-86246852D01*
X72079349Y-86312987D01*
X72036455Y-86350899D01*
X71970497Y-86386155D01*
X71901086Y-86432534D01*
X71901085Y-86432534D01*
X72500589Y-87032037D01*
X72437007Y-87049075D01*
X72322993Y-87114901D01*
X72229901Y-87207993D01*
X72164075Y-87322007D01*
X72147037Y-87385588D01*
X71547534Y-86786085D01*
X71547534Y-86786086D01*
X71501158Y-86855493D01*
X71454490Y-86942801D01*
X71394185Y-87088387D01*
X71365444Y-87183135D01*
X71334701Y-87337697D01*
X71334701Y-87337700D01*
X71325000Y-87436210D01*
X71325000Y-87593789D01*
X71334701Y-87692299D01*
X71334701Y-87692302D01*
X71365444Y-87846864D01*
X71394185Y-87941612D01*
X71454490Y-88087198D01*
X71501155Y-88174501D01*
X71501161Y-88174511D01*
X71547534Y-88243912D01*
X72147037Y-87644410D01*
X72164075Y-87707993D01*
X72229901Y-87822007D01*
X72322993Y-87915099D01*
X72437007Y-87980925D01*
X72500589Y-87997962D01*
X71901085Y-88597465D01*
X71970488Y-88643838D01*
X71970498Y-88643844D01*
X72036454Y-88679099D01*
X72086298Y-88728062D01*
X72101758Y-88796200D01*
X72077926Y-88861879D01*
X72034295Y-88898942D01*
X71948386Y-88942715D01*
X71782786Y-89063028D01*
X71638028Y-89207786D01*
X71517715Y-89373386D01*
X71424781Y-89555776D01*
X71361522Y-89750465D01*
X71329500Y-89952648D01*
X71329500Y-90157351D01*
X71361522Y-90359534D01*
X71424781Y-90554223D01*
X71517715Y-90736613D01*
X71638028Y-90902213D01*
X71782786Y-91046971D01*
X71888299Y-91123629D01*
X71948390Y-91167287D01*
X72039840Y-91213883D01*
X72041080Y-91214515D01*
X72091876Y-91262490D01*
X72108671Y-91330311D01*
X72086134Y-91396446D01*
X72041080Y-91435485D01*
X71948386Y-91482715D01*
X71782786Y-91603028D01*
X71638028Y-91747786D01*
X71517715Y-91913386D01*
X71424781Y-92095776D01*
X71361522Y-92290465D01*
X71329500Y-92492648D01*
X71329500Y-92697351D01*
X71361522Y-92899534D01*
X71424781Y-93094223D01*
X71517712Y-93276609D01*
X71545498Y-93314853D01*
X71568977Y-93380660D01*
X71564680Y-93399134D01*
X71585225Y-93408077D01*
X71615613Y-93419907D01*
X71617966Y-93422328D01*
X71619413Y-93422958D01*
X71634349Y-93438943D01*
X71634862Y-93438506D01*
X71638032Y-93442217D01*
X71782786Y-93586971D01*
X71937749Y-93699556D01*
X71948390Y-93707287D01*
X72039840Y-93753883D01*
X72041080Y-93754515D01*
X72091876Y-93802490D01*
X72108671Y-93870311D01*
X72086134Y-93936446D01*
X72041080Y-93975485D01*
X71948386Y-94022715D01*
X71782786Y-94143028D01*
X71782782Y-94143032D01*
X71762181Y-94163634D01*
X71700858Y-94197119D01*
X71631166Y-94192135D01*
X71575233Y-94150263D01*
X71550816Y-94084799D01*
X71550500Y-94075953D01*
X71550500Y-93921155D01*
X71550499Y-93921153D01*
X71526895Y-93802490D01*
X71519737Y-93766503D01*
X71519735Y-93766498D01*
X71459397Y-93620827D01*
X71459390Y-93620814D01*
X71436794Y-93586997D01*
X71427057Y-93555901D01*
X71416098Y-93525189D01*
X71416670Y-93522728D01*
X71415916Y-93520320D01*
X71419955Y-93505594D01*
X71369458Y-93485933D01*
X71357498Y-93475419D01*
X71260292Y-93378213D01*
X71260288Y-93378210D01*
X71129185Y-93290609D01*
X71129172Y-93290602D01*
X70983501Y-93230264D01*
X70983489Y-93230261D01*
X70828845Y-93199500D01*
X70828842Y-93199500D01*
X70671158Y-93199500D01*
X70671155Y-93199500D01*
X70516510Y-93230261D01*
X70516498Y-93230264D01*
X70370827Y-93290602D01*
X70370814Y-93290609D01*
X70239711Y-93378210D01*
X70239707Y-93378213D01*
X70128213Y-93489707D01*
X70128210Y-93489711D01*
X70040609Y-93620814D01*
X70040602Y-93620827D01*
X69980264Y-93766498D01*
X69980261Y-93766510D01*
X69949500Y-93921153D01*
X69949500Y-94078846D01*
X69980261Y-94233489D01*
X69980264Y-94233501D01*
X70040602Y-94379172D01*
X70040609Y-94379185D01*
X70128602Y-94510874D01*
X70149480Y-94577551D01*
X70149500Y-94579765D01*
X70149500Y-95708330D01*
X70149499Y-95708348D01*
X70149499Y-95874054D01*
X70149498Y-95874054D01*
X70151073Y-95879931D01*
X70190423Y-96026785D01*
X70190424Y-96026786D01*
X70205688Y-96053226D01*
X70205689Y-96053227D01*
X70269475Y-96163709D01*
X70269481Y-96163717D01*
X70388349Y-96282585D01*
X70388355Y-96282590D01*
X71335922Y-97230157D01*
X71369407Y-97291480D01*
X71366173Y-97356155D01*
X71361522Y-97370468D01*
X71329500Y-97572648D01*
X71329500Y-97777351D01*
X71361522Y-97979534D01*
X71424781Y-98174223D01*
X71517715Y-98356613D01*
X71638028Y-98522213D01*
X71782786Y-98666971D01*
X71948388Y-98787286D01*
X71948390Y-98787287D01*
X72034294Y-98831057D01*
X72085090Y-98879031D01*
X72101886Y-98946852D01*
X72079349Y-99012987D01*
X72036455Y-99050899D01*
X71970497Y-99086155D01*
X71901086Y-99132534D01*
X71901085Y-99132534D01*
X72500589Y-99732037D01*
X72437007Y-99749075D01*
X72322993Y-99814901D01*
X72229901Y-99907993D01*
X72164075Y-100022007D01*
X72147037Y-100085588D01*
X71547534Y-99486085D01*
X71547534Y-99486086D01*
X71501158Y-99555493D01*
X71454490Y-99642801D01*
X71394185Y-99788387D01*
X71365444Y-99883135D01*
X71334701Y-100037697D01*
X71334701Y-100037700D01*
X71325000Y-100136210D01*
X71325000Y-100293789D01*
X71334701Y-100392299D01*
X71334701Y-100392302D01*
X71365444Y-100546864D01*
X71394185Y-100641612D01*
X71454490Y-100787198D01*
X71501155Y-100874501D01*
X71501161Y-100874511D01*
X71547534Y-100943912D01*
X72147037Y-100344410D01*
X72164075Y-100407993D01*
X72229901Y-100522007D01*
X72322993Y-100615099D01*
X72437007Y-100680925D01*
X72500589Y-100697962D01*
X71901085Y-101297465D01*
X71970488Y-101343838D01*
X71970498Y-101343844D01*
X72036454Y-101379099D01*
X72086298Y-101428062D01*
X72101758Y-101496200D01*
X72077926Y-101561879D01*
X72034295Y-101598942D01*
X71948386Y-101642715D01*
X71782786Y-101763028D01*
X71638028Y-101907786D01*
X71517713Y-102073387D01*
X71513432Y-102081792D01*
X71465459Y-102132589D01*
X71402946Y-102149500D01*
X69300098Y-102149500D01*
X69233059Y-102129815D01*
X69212417Y-102113181D01*
X67320079Y-100220844D01*
X67237590Y-100138355D01*
X67237588Y-100138352D01*
X67118717Y-100019481D01*
X67118716Y-100019480D01*
X67031904Y-99969360D01*
X67031904Y-99969359D01*
X67031900Y-99969358D01*
X66981785Y-99940423D01*
X66829057Y-99899499D01*
X66670943Y-99899499D01*
X66663347Y-99899499D01*
X66663331Y-99899500D01*
X62674727Y-99899500D01*
X62607688Y-99879815D01*
X62561933Y-99827011D01*
X62560166Y-99822952D01*
X62528409Y-99746282D01*
X62528404Y-99746273D01*
X62416948Y-99553226D01*
X62365429Y-99486085D01*
X62281248Y-99376377D01*
X62281242Y-99376370D01*
X62123629Y-99218757D01*
X62123622Y-99218751D01*
X61946782Y-99083058D01*
X61946780Y-99083057D01*
X61946774Y-99083052D01*
X61753726Y-98971595D01*
X61753722Y-98971593D01*
X61547790Y-98886293D01*
X61547783Y-98886291D01*
X61547781Y-98886290D01*
X61486142Y-98869774D01*
X61426483Y-98833410D01*
X61395954Y-98770563D01*
X61404249Y-98701188D01*
X61448734Y-98647310D01*
X61486141Y-98630226D01*
X61547781Y-98613710D01*
X61753726Y-98528405D01*
X61946774Y-98416948D01*
X62123624Y-98281247D01*
X62281247Y-98123624D01*
X62416948Y-97946774D01*
X62528405Y-97753726D01*
X62613710Y-97547781D01*
X62671404Y-97332463D01*
X62700500Y-97111457D01*
X62700500Y-96888543D01*
X62671404Y-96667537D01*
X62613710Y-96452219D01*
X62593520Y-96403477D01*
X62577341Y-96364417D01*
X62528405Y-96246274D01*
X62416948Y-96053226D01*
X62281247Y-95876376D01*
X62281242Y-95876370D01*
X62123629Y-95718757D01*
X62123622Y-95718751D01*
X61946782Y-95583058D01*
X61946780Y-95583057D01*
X61946774Y-95583052D01*
X61753726Y-95471595D01*
X61753722Y-95471593D01*
X61547790Y-95386293D01*
X61547783Y-95386291D01*
X61547781Y-95386290D01*
X61486142Y-95369774D01*
X61426483Y-95333410D01*
X61395954Y-95270563D01*
X61404249Y-95201188D01*
X61448734Y-95147310D01*
X61486141Y-95130226D01*
X61547781Y-95113710D01*
X61753726Y-95028405D01*
X61946774Y-94916948D01*
X62123624Y-94781247D01*
X62281247Y-94623624D01*
X62416948Y-94446774D01*
X62528405Y-94253726D01*
X62613710Y-94047781D01*
X62671404Y-93832463D01*
X62700500Y-93611457D01*
X62700500Y-93388543D01*
X62671404Y-93167537D01*
X62613710Y-92952219D01*
X62528405Y-92746274D01*
X62416948Y-92553226D01*
X62281247Y-92376376D01*
X62281242Y-92376370D01*
X62123629Y-92218757D01*
X62123622Y-92218751D01*
X61946782Y-92083058D01*
X61946780Y-92083057D01*
X61946774Y-92083052D01*
X61753726Y-91971595D01*
X61753722Y-91971593D01*
X61547790Y-91886293D01*
X61547783Y-91886291D01*
X61547781Y-91886290D01*
X61486142Y-91869774D01*
X61426483Y-91833410D01*
X61395954Y-91770563D01*
X61404249Y-91701188D01*
X61448734Y-91647310D01*
X61486141Y-91630226D01*
X61547781Y-91613710D01*
X61753726Y-91528405D01*
X61946774Y-91416948D01*
X62123624Y-91281247D01*
X62281247Y-91123624D01*
X62416948Y-90946774D01*
X62528405Y-90753726D01*
X62613710Y-90547781D01*
X62671404Y-90332463D01*
X62700500Y-90111457D01*
X62700500Y-89888543D01*
X62671404Y-89667537D01*
X62613710Y-89452219D01*
X62528405Y-89246274D01*
X62416948Y-89053226D01*
X62339200Y-88951902D01*
X62281248Y-88876377D01*
X62281242Y-88876370D01*
X62123629Y-88718757D01*
X62123622Y-88718751D01*
X61946782Y-88583058D01*
X61946780Y-88583057D01*
X61946774Y-88583052D01*
X61753726Y-88471595D01*
X61753722Y-88471593D01*
X61547790Y-88386293D01*
X61547783Y-88386291D01*
X61547781Y-88386290D01*
X61486142Y-88369774D01*
X61426483Y-88333410D01*
X61395954Y-88270563D01*
X61404249Y-88201188D01*
X61448734Y-88147310D01*
X61486141Y-88130226D01*
X61547781Y-88113710D01*
X61753726Y-88028405D01*
X61946774Y-87916948D01*
X62123624Y-87781247D01*
X62281247Y-87623624D01*
X62416948Y-87446774D01*
X62528405Y-87253726D01*
X62613710Y-87047781D01*
X62671404Y-86832463D01*
X62700500Y-86611457D01*
X62700500Y-86388543D01*
X62671404Y-86167537D01*
X62613710Y-85952219D01*
X62528405Y-85746274D01*
X62416948Y-85553226D01*
X62281247Y-85376376D01*
X62281242Y-85376370D01*
X62123629Y-85218757D01*
X62123622Y-85218751D01*
X61946782Y-85083058D01*
X61946780Y-85083057D01*
X61946774Y-85083052D01*
X61753726Y-84971595D01*
X61753716Y-84971590D01*
X61673976Y-84938561D01*
X61619572Y-84894720D01*
X61597507Y-84828426D01*
X61614786Y-84760727D01*
X61665923Y-84713116D01*
X61721428Y-84700000D01*
X61999973Y-84700000D01*
X61999985Y-84699999D01*
X62102689Y-84689506D01*
X62102696Y-84689505D01*
X62269118Y-84634358D01*
X62269123Y-84634356D01*
X62418344Y-84542315D01*
X62542315Y-84418344D01*
X62634356Y-84269123D01*
X62634358Y-84269118D01*
X62689505Y-84102696D01*
X62689506Y-84102689D01*
X62699999Y-83999985D01*
X62700000Y-83999972D01*
X62700000Y-83250000D01*
X61548482Y-83250000D01*
X61559111Y-83231591D01*
X61600000Y-83078991D01*
X61600000Y-82921009D01*
X61559111Y-82768409D01*
X61548482Y-82750000D01*
X62700000Y-82750000D01*
X62700000Y-82000027D01*
X62699999Y-82000014D01*
X62689506Y-81897310D01*
X62689505Y-81897303D01*
X62634358Y-81730881D01*
X62634356Y-81730876D01*
X62542315Y-81581655D01*
X62418344Y-81457684D01*
X62269123Y-81365643D01*
X62269118Y-81365641D01*
X62102696Y-81310494D01*
X62102689Y-81310493D01*
X61999985Y-81300000D01*
X61250000Y-81300000D01*
X61250000Y-82451517D01*
X61231591Y-82440889D01*
X61078991Y-82400000D01*
X60921009Y-82400000D01*
X60768409Y-82440889D01*
X60750000Y-82451517D01*
X60750000Y-81300000D01*
X60000014Y-81300000D01*
X59897310Y-81310493D01*
X59897303Y-81310494D01*
X59730881Y-81365641D01*
X59730876Y-81365643D01*
X59581655Y-81457684D01*
X59457684Y-81581655D01*
X59365643Y-81730876D01*
X59365641Y-81730881D01*
X59310494Y-81897303D01*
X59310493Y-81897310D01*
X59300000Y-82000014D01*
X59300000Y-82750000D01*
X60451518Y-82750000D01*
X60440889Y-82768409D01*
X60400000Y-82921009D01*
X60400000Y-83078991D01*
X60440889Y-83231591D01*
X60451518Y-83250000D01*
X59300000Y-83250000D01*
X59300000Y-83999985D01*
X59310493Y-84102689D01*
X59310494Y-84102696D01*
X59365641Y-84269118D01*
X59365643Y-84269123D01*
X59457684Y-84418344D01*
X59581655Y-84542315D01*
X59730876Y-84634356D01*
X59730881Y-84634358D01*
X59897303Y-84689505D01*
X59897310Y-84689506D01*
X60000014Y-84699999D01*
X60000027Y-84700000D01*
X60278572Y-84700000D01*
X60345611Y-84719685D01*
X60391366Y-84772489D01*
X60401310Y-84841647D01*
X60372285Y-84905203D01*
X60326024Y-84938561D01*
X60246283Y-84971590D01*
X60246273Y-84971595D01*
X60053226Y-85083052D01*
X60053217Y-85083058D01*
X59876377Y-85218751D01*
X59876370Y-85218757D01*
X59718757Y-85376370D01*
X59718751Y-85376377D01*
X59583058Y-85553217D01*
X59583052Y-85553226D01*
X59471595Y-85746273D01*
X59471593Y-85746277D01*
X59386293Y-85952209D01*
X59386290Y-85952219D01*
X59338000Y-86132443D01*
X59328597Y-86167534D01*
X59328594Y-86167547D01*
X59299501Y-86388533D01*
X59299500Y-86388549D01*
X57000000Y-86388549D01*
X57000000Y-76052135D01*
X57349500Y-76052135D01*
X57349500Y-77947870D01*
X57349501Y-77947876D01*
X57355908Y-78007483D01*
X57406202Y-78142328D01*
X57406206Y-78142335D01*
X57492452Y-78257544D01*
X57492455Y-78257547D01*
X57607664Y-78343793D01*
X57607671Y-78343797D01*
X57742517Y-78394091D01*
X57742516Y-78394091D01*
X57749444Y-78394835D01*
X57802127Y-78400500D01*
X59697872Y-78400499D01*
X59757483Y-78394091D01*
X59892331Y-78343796D01*
X60007546Y-78257546D01*
X60093796Y-78142331D01*
X60121429Y-78068243D01*
X60123601Y-78062420D01*
X60165471Y-78006486D01*
X60230936Y-77982068D01*
X60299209Y-77996919D01*
X60327464Y-78018071D01*
X60377636Y-78068243D01*
X60377641Y-78068247D01*
X60508191Y-78163096D01*
X60555978Y-78197815D01*
X60684375Y-78263237D01*
X60752393Y-78297895D01*
X60752396Y-78297896D01*
X60857221Y-78331955D01*
X60962049Y-78366015D01*
X61179778Y-78400500D01*
X61179779Y-78400500D01*
X61400221Y-78400500D01*
X61400222Y-78400500D01*
X61617951Y-78366015D01*
X61827606Y-78297895D01*
X62024022Y-78197815D01*
X62202365Y-78068242D01*
X62358242Y-77912365D01*
X62487815Y-77734022D01*
X62587895Y-77537606D01*
X62656015Y-77327951D01*
X62690500Y-77110222D01*
X62690500Y-76889778D01*
X62656015Y-76672049D01*
X62602642Y-76507781D01*
X62587896Y-76462396D01*
X62587895Y-76462393D01*
X62507460Y-76304534D01*
X62487815Y-76265978D01*
X62406386Y-76153900D01*
X62358247Y-76087641D01*
X62358243Y-76087636D01*
X62228255Y-75957648D01*
X63699500Y-75957648D01*
X63699500Y-76162351D01*
X63731522Y-76364534D01*
X63794781Y-76559223D01*
X63887715Y-76741613D01*
X64008028Y-76907213D01*
X64152786Y-77051971D01*
X64307749Y-77164556D01*
X64318390Y-77172287D01*
X64383021Y-77205218D01*
X64500776Y-77265218D01*
X64500778Y-77265218D01*
X64500781Y-77265220D01*
X64605137Y-77299127D01*
X64695465Y-77328477D01*
X64796557Y-77344488D01*
X64897648Y-77360500D01*
X64897649Y-77360500D01*
X65102351Y-77360500D01*
X65102352Y-77360500D01*
X65304534Y-77328477D01*
X65499219Y-77265220D01*
X65681610Y-77172287D01*
X65774590Y-77104732D01*
X65847213Y-77051971D01*
X65847215Y-77051968D01*
X65847219Y-77051966D01*
X65991966Y-76907219D01*
X65991968Y-76907215D01*
X65991971Y-76907213D01*
X66044732Y-76834590D01*
X66112287Y-76741610D01*
X66205220Y-76559219D01*
X66268477Y-76364534D01*
X66300500Y-76162352D01*
X66300500Y-75957648D01*
X66298313Y-75943837D01*
X66268477Y-75755465D01*
X66219883Y-75605909D01*
X66205220Y-75560781D01*
X66205218Y-75560778D01*
X66205218Y-75560776D01*
X66151212Y-75454785D01*
X66112287Y-75378390D01*
X66082145Y-75336903D01*
X65991971Y-75212786D01*
X65984206Y-75205021D01*
X65950721Y-75143698D01*
X65955705Y-75074006D01*
X65997577Y-75018073D01*
X66024425Y-75002784D01*
X66129179Y-74959394D01*
X66171433Y-74931161D01*
X66260875Y-74871398D01*
X66327553Y-74850520D01*
X66329766Y-74850500D01*
X67170234Y-74850500D01*
X67188378Y-74855827D01*
X67207286Y-74856165D01*
X67235506Y-74869666D01*
X67237273Y-74870185D01*
X67239124Y-74871397D01*
X67239711Y-74871789D01*
X67293507Y-74907734D01*
X67338311Y-74961345D01*
X67347020Y-75030670D01*
X67316866Y-75093697D01*
X67312298Y-75098516D01*
X67258028Y-75152786D01*
X67137715Y-75318386D01*
X67044781Y-75500776D01*
X66981522Y-75695465D01*
X66955833Y-75857664D01*
X66949500Y-75897648D01*
X66949500Y-76102352D01*
X66953878Y-76129995D01*
X66981522Y-76304534D01*
X67044781Y-76499223D01*
X67108691Y-76624653D01*
X67132841Y-76672049D01*
X67137715Y-76681613D01*
X67258028Y-76847213D01*
X67402786Y-76991971D01*
X67485371Y-77051971D01*
X67568390Y-77112287D01*
X67684607Y-77171503D01*
X67750776Y-77205218D01*
X67750778Y-77205218D01*
X67750781Y-77205220D01*
X67855137Y-77239127D01*
X67945465Y-77268477D01*
X68046557Y-77284488D01*
X68147648Y-77300500D01*
X68147649Y-77300500D01*
X68352351Y-77300500D01*
X68352352Y-77300500D01*
X68554534Y-77268477D01*
X68749219Y-77205220D01*
X68931610Y-77112287D01*
X69024590Y-77044732D01*
X69097213Y-76991971D01*
X69097215Y-76991968D01*
X69097219Y-76991966D01*
X69241966Y-76847219D01*
X69241968Y-76847215D01*
X69241971Y-76847213D01*
X69294732Y-76774590D01*
X69362287Y-76681610D01*
X69455220Y-76499219D01*
X69518477Y-76304534D01*
X69550500Y-76102352D01*
X69550500Y-75897648D01*
X69527980Y-75755465D01*
X69518477Y-75695465D01*
X69474715Y-75560781D01*
X69455220Y-75500781D01*
X69455218Y-75500778D01*
X69455218Y-75500776D01*
X69397346Y-75387198D01*
X69362287Y-75318390D01*
X69354556Y-75307749D01*
X69241971Y-75152786D01*
X69097213Y-75008028D01*
X68931613Y-74887715D01*
X68931612Y-74887714D01*
X68931610Y-74887713D01*
X68858615Y-74850520D01*
X68845128Y-74843648D01*
X68749221Y-74794781D01*
X68749220Y-74794780D01*
X68749219Y-74794780D01*
X68560891Y-74733588D01*
X68503216Y-74694151D01*
X68476018Y-74629793D01*
X68484648Y-74568208D01*
X68519737Y-74483497D01*
X68550500Y-74328842D01*
X68550500Y-74171158D01*
X68550500Y-74171155D01*
X68550499Y-74171153D01*
X68533578Y-74086085D01*
X68519737Y-74016503D01*
X68505424Y-73981947D01*
X68459397Y-73870827D01*
X68459390Y-73870814D01*
X68371789Y-73739711D01*
X68371786Y-73739707D01*
X68260292Y-73628213D01*
X68260288Y-73628210D01*
X68129185Y-73540609D01*
X68129172Y-73540602D01*
X67983501Y-73480264D01*
X67983489Y-73480261D01*
X67828845Y-73449500D01*
X67828842Y-73449500D01*
X67671158Y-73449500D01*
X67671155Y-73449500D01*
X67516510Y-73480261D01*
X67516498Y-73480264D01*
X67370827Y-73540602D01*
X67370814Y-73540609D01*
X67239125Y-73628602D01*
X67172447Y-73649480D01*
X67170234Y-73649500D01*
X66329766Y-73649500D01*
X66262727Y-73629815D01*
X66260875Y-73628602D01*
X66129185Y-73540609D01*
X66129172Y-73540602D01*
X65983501Y-73480264D01*
X65983489Y-73480261D01*
X65828845Y-73449500D01*
X65828842Y-73449500D01*
X65671158Y-73449500D01*
X65671155Y-73449500D01*
X65516510Y-73480261D01*
X65516498Y-73480264D01*
X65370827Y-73540602D01*
X65370814Y-73540609D01*
X65239711Y-73628210D01*
X65239707Y-73628213D01*
X65128213Y-73739707D01*
X65128210Y-73739711D01*
X65040609Y-73870814D01*
X65040602Y-73870827D01*
X64980264Y-74016498D01*
X64980261Y-74016510D01*
X64949500Y-74171153D01*
X64949500Y-74328846D01*
X64961344Y-74388387D01*
X64980263Y-74483497D01*
X64990409Y-74507993D01*
X65023569Y-74588047D01*
X65031038Y-74657517D01*
X64999763Y-74719996D01*
X64939674Y-74755648D01*
X64909008Y-74759500D01*
X64897648Y-74759500D01*
X64892667Y-74760289D01*
X64695465Y-74791522D01*
X64500776Y-74854781D01*
X64318386Y-74947715D01*
X64152786Y-75068028D01*
X64008028Y-75212786D01*
X63887715Y-75378386D01*
X63794781Y-75560776D01*
X63731522Y-75755465D01*
X63699500Y-75957648D01*
X62228255Y-75957648D01*
X62202363Y-75931756D01*
X62202358Y-75931752D01*
X62024025Y-75802187D01*
X62024024Y-75802186D01*
X62024022Y-75802185D01*
X61906791Y-75742452D01*
X61827606Y-75702104D01*
X61827603Y-75702103D01*
X61617952Y-75633985D01*
X61509086Y-75616742D01*
X61400222Y-75599500D01*
X61179778Y-75599500D01*
X61107201Y-75610995D01*
X60962047Y-75633985D01*
X60752396Y-75702103D01*
X60752393Y-75702104D01*
X60555974Y-75802187D01*
X60377641Y-75931752D01*
X60377636Y-75931756D01*
X60327463Y-75981929D01*
X60266140Y-76015413D01*
X60196448Y-76010428D01*
X60140515Y-75968557D01*
X60123601Y-75937580D01*
X60093797Y-75857671D01*
X60093793Y-75857664D01*
X60007547Y-75742455D01*
X60007544Y-75742452D01*
X59892335Y-75656206D01*
X59892328Y-75656202D01*
X59757482Y-75605908D01*
X59757483Y-75605908D01*
X59697883Y-75599501D01*
X59697881Y-75599500D01*
X59697873Y-75599500D01*
X59697864Y-75599500D01*
X57802129Y-75599500D01*
X57802123Y-75599501D01*
X57742516Y-75605908D01*
X57607671Y-75656202D01*
X57607664Y-75656206D01*
X57492455Y-75742452D01*
X57492452Y-75742455D01*
X57406206Y-75857664D01*
X57406202Y-75857671D01*
X57355908Y-75992517D01*
X57349501Y-76052116D01*
X57349500Y-76052135D01*
X57000000Y-76052135D01*
X57000000Y-72777096D01*
X57019685Y-72710057D01*
X57072489Y-72664302D01*
X57141647Y-72654358D01*
X57205203Y-72683383D01*
X57219848Y-72698426D01*
X57229394Y-72710057D01*
X57264454Y-72752778D01*
X57497222Y-72985546D01*
X57497227Y-72985550D01*
X57497228Y-72985551D01*
X57751702Y-73194393D01*
X58025421Y-73377286D01*
X58025430Y-73377291D01*
X58025432Y-73377292D01*
X58066829Y-73399419D01*
X58315749Y-73532469D01*
X58619889Y-73658448D01*
X58934913Y-73754010D01*
X58934919Y-73754011D01*
X58934922Y-73754012D01*
X58934933Y-73754015D01*
X59115361Y-73789903D01*
X59257787Y-73818233D01*
X59585400Y-73850500D01*
X59585403Y-73850500D01*
X59914597Y-73850500D01*
X59914600Y-73850500D01*
X60242213Y-73818233D01*
X60419760Y-73782916D01*
X60565066Y-73754015D01*
X60565077Y-73754012D01*
X60565077Y-73754011D01*
X60565087Y-73754010D01*
X60880111Y-73658448D01*
X61184251Y-73532469D01*
X61474579Y-73377286D01*
X61748298Y-73194393D01*
X62002772Y-72985551D01*
X62235551Y-72752772D01*
X62444393Y-72498298D01*
X62627286Y-72224579D01*
X62782469Y-71934251D01*
X62908448Y-71630111D01*
X63004010Y-71315087D01*
X63004012Y-71315077D01*
X63004015Y-71315066D01*
X63043713Y-71115485D01*
X63068233Y-70992213D01*
X63100500Y-70664600D01*
X63100500Y-70335400D01*
X63068233Y-70007787D01*
X63034332Y-69837351D01*
X63004015Y-69684933D01*
X63004012Y-69684922D01*
X63004011Y-69684919D01*
X63004010Y-69684913D01*
X62908448Y-69369889D01*
X62782469Y-69065749D01*
X62627286Y-68775421D01*
X62444393Y-68501702D01*
X62235551Y-68247228D01*
X62235550Y-68247227D01*
X62235546Y-68247222D01*
X62002777Y-68014453D01*
X61748303Y-67805611D01*
X61748302Y-67805610D01*
X61748298Y-67805607D01*
X61630807Y-67727102D01*
X61586002Y-67673490D01*
X61577295Y-67604165D01*
X61607449Y-67541138D01*
X61666892Y-67504418D01*
X61699698Y-67500000D01*
X63832697Y-67500000D01*
X63899736Y-67519685D01*
G37*
%TD.AperFunction*%
%TD*%
M02*
