%TF.GenerationSoftware,KiCad,Pcbnew,9.0.7*%
%TF.CreationDate,2026-03-09T10:35:30-06:00*%
%TF.ProjectId,pcb,7063622e-6b69-4636-9164-5f7063625858,rev?*%
%TF.SameCoordinates,Original*%
%TF.FileFunction,Copper,L1,Top*%
%TF.FilePolarity,Positive*%
%FSLAX46Y46*%
G04 Gerber Fmt 4.6, Leading zero omitted, Abs format (unit mm)*
G04 Created by KiCad (PCBNEW 9.0.7) date 2026-03-09 10:35:30*
%MOMM*%
%LPD*%
G01*
G04 APERTURE LIST*
G04 Aperture macros list*
%AMRoundRect*
0 Rectangle with rounded corners*
0 $1 Rounding radius*
0 $2 $3 $4 $5 $6 $7 $8 $9 X,Y pos of 4 corners*
0 Add a 4 corners polygon primitive as box body*
4,1,4,$2,$3,$4,$5,$6,$7,$8,$9,$2,$3,0*
0 Add four circle primitives for the rounded corners*
1,1,$1+$1,$2,$3*
1,1,$1+$1,$4,$5*
1,1,$1+$1,$6,$7*
1,1,$1+$1,$8,$9*
0 Add four rect primitives between the rounded corners*
20,1,$1+$1,$2,$3,$4,$5,0*
20,1,$1+$1,$4,$5,$6,$7,0*
20,1,$1+$1,$6,$7,$8,$9,0*
20,1,$1+$1,$8,$9,$2,$3,0*%
%AMFreePoly0*
4,1,37,0.603843,0.796157,0.639018,0.796157,0.711114,0.766294,0.766294,0.711114,0.796157,0.639018,0.796157,0.603843,0.800000,0.600000,0.800000,-0.600000,0.796157,-0.603843,0.796157,-0.639018,0.766294,-0.711114,0.711114,-0.766294,0.639018,-0.796157,0.603843,-0.796157,0.600000,-0.800000,0.000000,-0.800000,0.000000,-0.796148,-0.078414,-0.796148,-0.232228,-0.765552,-0.377117,-0.705537,
-0.507515,-0.618408,-0.618408,-0.507515,-0.705537,-0.377117,-0.765552,-0.232228,-0.796148,-0.078414,-0.796148,0.078414,-0.765552,0.232228,-0.705537,0.377117,-0.618408,0.507515,-0.507515,0.618408,-0.377117,0.705537,-0.232228,0.765552,-0.078414,0.796148,0.000000,0.796148,0.000000,0.800000,0.600000,0.800000,0.603843,0.796157,0.603843,0.796157,$1*%
%AMFreePoly1*
4,1,37,0.000000,0.796148,0.078414,0.796148,0.232228,0.765552,0.377117,0.705537,0.507515,0.618408,0.618408,0.507515,0.705537,0.377117,0.765552,0.232228,0.796148,0.078414,0.796148,-0.078414,0.765552,-0.232228,0.705537,-0.377117,0.618408,-0.507515,0.507515,-0.618408,0.377117,-0.705537,0.232228,-0.765552,0.078414,-0.796148,0.000000,-0.796148,0.000000,-0.800000,-0.600000,-0.800000,
-0.603843,-0.796157,-0.639018,-0.796157,-0.711114,-0.766294,-0.766294,-0.711114,-0.796157,-0.639018,-0.796157,-0.603843,-0.800000,-0.600000,-0.800000,0.600000,-0.796157,0.603843,-0.796157,0.639018,-0.766294,0.711114,-0.711114,0.766294,-0.639018,0.796157,-0.603843,0.796157,-0.600000,0.800000,0.000000,0.800000,0.000000,0.796148,0.000000,0.796148,$1*%
G04 Aperture macros list end*
%TA.AperFunction,ComponentPad*%
%ADD10C,1.600000*%
%TD*%
%TA.AperFunction,ComponentPad*%
%ADD11C,3.600000*%
%TD*%
%TA.AperFunction,ConnectorPad*%
%ADD12C,5.700000*%
%TD*%
%TA.AperFunction,ComponentPad*%
%ADD13RoundRect,0.250000X1.350000X-1.350000X1.350000X1.350000X-1.350000X1.350000X-1.350000X-1.350000X0*%
%TD*%
%TA.AperFunction,ComponentPad*%
%ADD14C,3.200000*%
%TD*%
%TA.AperFunction,SMDPad,CuDef*%
%ADD15R,5.400000X2.900000*%
%TD*%
%TA.AperFunction,SMDPad,CuDef*%
%ADD16RoundRect,0.250000X-2.050000X-0.300000X2.050000X-0.300000X2.050000X0.300000X-2.050000X0.300000X0*%
%TD*%
%TA.AperFunction,SMDPad,CuDef*%
%ADD17RoundRect,0.250002X-4.449998X-5.149998X4.449998X-5.149998X4.449998X5.149998X-4.449998X5.149998X0*%
%TD*%
%TA.AperFunction,SMDPad,CuDef*%
%ADD18RoundRect,0.150000X0.150000X-0.825000X0.150000X0.825000X-0.150000X0.825000X-0.150000X-0.825000X0*%
%TD*%
%TA.AperFunction,ComponentPad*%
%ADD19RoundRect,0.250001X-0.949999X0.949999X-0.949999X-0.949999X0.949999X-0.949999X0.949999X0.949999X0*%
%TD*%
%TA.AperFunction,ComponentPad*%
%ADD20C,2.400000*%
%TD*%
%TA.AperFunction,ComponentPad*%
%ADD21RoundRect,0.250000X0.650000X0.650000X-0.650000X0.650000X-0.650000X-0.650000X0.650000X-0.650000X0*%
%TD*%
%TA.AperFunction,ComponentPad*%
%ADD22C,1.800000*%
%TD*%
%TA.AperFunction,ComponentPad*%
%ADD23R,1.800000X1.800000*%
%TD*%
%TA.AperFunction,ComponentPad*%
%ADD24RoundRect,0.200000X-0.600000X-0.600000X0.600000X-0.600000X0.600000X0.600000X-0.600000X0.600000X0*%
%TD*%
%TA.AperFunction,ComponentPad*%
%ADD25FreePoly0,0.000000*%
%TD*%
%TA.AperFunction,ComponentPad*%
%ADD26FreePoly1,0.000000*%
%TD*%
%TA.AperFunction,ViaPad*%
%ADD27C,0.600000*%
%TD*%
%TA.AperFunction,Conductor*%
%ADD28C,1.000000*%
%TD*%
%TA.AperFunction,Conductor*%
%ADD29C,0.200000*%
%TD*%
%TA.AperFunction,Conductor*%
%ADD30C,0.250000*%
%TD*%
%TA.AperFunction,Conductor*%
%ADD31C,1.300000*%
%TD*%
%TA.AperFunction,Conductor*%
%ADD32C,0.300000*%
%TD*%
G04 APERTURE END LIST*
D10*
%TO.P,R4,1*%
%TO.N,Net-(U2-A)*%
X78500000Y-96060000D03*
%TO.P,R4,2*%
%TO.N,Net-(U2-B)*%
X78500000Y-88440000D03*
%TD*%
%TO.P,R6,1*%
%TO.N,Net-(U2-B)*%
X75500000Y-88440000D03*
%TO.P,R6,2*%
%TO.N,GND*%
X75500000Y-96060000D03*
%TD*%
%TO.P,R7,1*%
%TO.N,Net-(A2-VSYS)*%
X64000000Y-117370000D03*
%TO.P,R7,2*%
%TO.N,Net-(A2-GPIO13)*%
X64000000Y-109750000D03*
%TD*%
D11*
%TO.P,REF\u002A\u002A,1*%
%TO.N,N/C*%
X59750000Y-70500000D03*
D12*
X59750000Y-70500000D03*
%TD*%
D10*
%TO.P,R2,1*%
%TO.N,Net-(A2-GPIO11)*%
X66750000Y-109750000D03*
%TO.P,R2,2*%
%TO.N,Net-(A2-VSYS)*%
X66750000Y-117370000D03*
%TD*%
D11*
%TO.P,REF\u002A\u002A,1*%
%TO.N,N/C*%
X59750000Y-130500000D03*
D12*
X59750000Y-130500000D03*
%TD*%
D13*
%TO.P,D2,1,K*%
%TO.N,Net-(D2-K)*%
X85750000Y-104370000D03*
D14*
%TO.P,D2,2,A*%
%TO.N,Net-(D2-A)*%
X85750000Y-89130000D03*
%TD*%
D15*
%TO.P,L1,1,1*%
%TO.N,Net-(D1-K)*%
X69750000Y-121400000D03*
%TO.P,L1,2,2*%
%TO.N,Net-(A2-VSYS)*%
X69750000Y-131100000D03*
%TD*%
D16*
%TO.P,U1,1,VIN*%
%TO.N,Net-(D2-K)*%
X79000000Y-123600000D03*
%TO.P,U1,2,OUT*%
%TO.N,Net-(D1-K)*%
X79000000Y-125300000D03*
%TO.P,U1,3,GND*%
%TO.N,GND*%
X79000000Y-127000000D03*
D17*
X88150000Y-127000000D03*
D16*
%TO.P,U1,4,FB*%
%TO.N,Net-(A2-VSYS)*%
X79000000Y-128700000D03*
%TO.P,U1,5,~{ON}/OFF*%
%TO.N,GND*%
X79000000Y-130400000D03*
%TD*%
D10*
%TO.P,R3,1*%
%TO.N,GND*%
X65000000Y-68440000D03*
%TO.P,R3,2*%
%TO.N,Net-(D3-K)*%
X65000000Y-76060000D03*
%TD*%
D18*
%TO.P,U2,1,RO*%
%TO.N,Net-(A2-GPIO13)*%
X66095000Y-105475000D03*
%TO.P,U2,2,~{RE}*%
%TO.N,Net-(A2-GPIO11)*%
X67365000Y-105475000D03*
%TO.P,U2,3,DE*%
X68635000Y-105475000D03*
%TO.P,U2,4,DI*%
%TO.N,Net-(A2-GPIO12)*%
X69905000Y-105475000D03*
%TO.P,U2,5,GND*%
%TO.N,GND*%
X69905000Y-100525000D03*
%TO.P,U2,6,A*%
%TO.N,Net-(U2-A)*%
X68635000Y-100525000D03*
%TO.P,U2,7,B*%
%TO.N,Net-(U2-B)*%
X67365000Y-100525000D03*
%TO.P,U2,8,VCC*%
%TO.N,Net-(A2-VSYS)*%
X66095000Y-100525000D03*
%TD*%
D19*
%TO.P,J6,1,Pin_1*%
%TO.N,GND*%
X61000000Y-83000000D03*
D20*
%TO.P,J6,2,Pin_2*%
%TO.N,Net-(A2-3V3)*%
X61000000Y-86500000D03*
%TO.P,J6,3,Pin_3*%
%TO.N,Net-(A2-GPIO9)*%
X61000000Y-90000000D03*
%TO.P,J6,4,Pin_4*%
%TO.N,Net-(A2-GPIO8)*%
X61000000Y-93500000D03*
%TO.P,J6,5,Pin_5*%
%TO.N,Net-(A2-VSYS)*%
X61000000Y-97000000D03*
%TO.P,J6,6,Pin_6*%
%TO.N,Net-(A2-GPIO10)*%
X61000000Y-100500000D03*
%TO.P,J6,7,Pin_7*%
%TO.N,GND*%
X61000000Y-104000000D03*
%TD*%
D21*
%TO.P,J2,1*%
%TO.N,Net-(U2-A)*%
X84840000Y-83100000D03*
D22*
%TO.P,J2,2*%
%TO.N,Net-(U2-B)*%
X83570000Y-85640000D03*
%TO.P,J2,3*%
%TO.N,GND*%
X82300000Y-83100000D03*
%TO.P,J2,4*%
%TO.N,Net-(D2-A)*%
X81030000Y-85640000D03*
%TD*%
D23*
%TO.P,D3,1,K*%
%TO.N,Net-(D3-K)*%
X58750000Y-77000000D03*
D22*
%TO.P,D3,2,A*%
%TO.N,Net-(A2-GPIO1)*%
X61290000Y-77000000D03*
%TD*%
D10*
%TO.P,R1,1*%
%TO.N,Net-(A2-VSYS)*%
X69500000Y-117370000D03*
%TO.P,R1,2*%
%TO.N,Net-(A2-GPIO12)*%
X69500000Y-109750000D03*
%TD*%
%TO.P,C2,1*%
%TO.N,Net-(A2-VSYS)*%
X83250000Y-117250000D03*
%TO.P,C2,2*%
%TO.N,GND*%
X83250000Y-112250000D03*
%TD*%
%TO.P,R5,1*%
%TO.N,Net-(A2-VSYS)*%
X68250000Y-68380000D03*
%TO.P,R5,2*%
%TO.N,Net-(U2-A)*%
X68250000Y-76000000D03*
%TD*%
D13*
%TO.P,D1,1,K*%
%TO.N,Net-(D1-K)*%
X59500000Y-124750000D03*
D14*
%TO.P,D1,2,A*%
%TO.N,GND*%
X59500000Y-109510000D03*
%TD*%
D10*
%TO.P,C1,1*%
%TO.N,Net-(D2-K)*%
X79000000Y-107250000D03*
%TO.P,C1,2*%
%TO.N,GND*%
X79000000Y-102250000D03*
%TD*%
D24*
%TO.P,A2,1,GPIO0*%
%TO.N,unconnected-(A2-GPIO0-Pad1)*%
X72630000Y-69735000D03*
D10*
%TO.P,A2,2,GPIO1*%
%TO.N,Net-(A2-GPIO1)*%
X72630000Y-72275000D03*
D25*
%TO.P,A2,3,GND*%
%TO.N,GND*%
X72630000Y-74815000D03*
D10*
%TO.P,A2,4,GPIO2*%
%TO.N,unconnected-(A2-GPIO2-Pad4)*%
X72630000Y-77355000D03*
%TO.P,A2,5,GPIO3*%
%TO.N,unconnected-(A2-GPIO3-Pad5)*%
X72630000Y-79895000D03*
%TO.P,A2,6,GPIO4*%
%TO.N,unconnected-(A2-GPIO4-Pad6)*%
X72630000Y-82435000D03*
%TO.P,A2,7,GPIO5*%
%TO.N,unconnected-(A2-GPIO5-Pad7)*%
X72630000Y-84975000D03*
D25*
%TO.P,A2,8,GND*%
%TO.N,GND*%
X72630000Y-87515000D03*
D10*
%TO.P,A2,9,GPIO6*%
%TO.N,unconnected-(A2-GPIO6-Pad9)*%
X72630000Y-90055000D03*
%TO.P,A2,10,GPIO7*%
%TO.N,unconnected-(A2-GPIO7-Pad10)*%
X72630000Y-92595000D03*
%TO.P,A2,11,GPIO8*%
%TO.N,Net-(A2-GPIO8)*%
X72630000Y-95135000D03*
%TO.P,A2,12,GPIO9*%
%TO.N,Net-(A2-GPIO9)*%
X72630000Y-97675000D03*
D25*
%TO.P,A2,13,GND*%
%TO.N,GND*%
X72630000Y-100215000D03*
D10*
%TO.P,A2,14,GPIO10*%
%TO.N,Net-(A2-GPIO10)*%
X72630000Y-102755000D03*
%TO.P,A2,15,GPIO11*%
%TO.N,Net-(A2-GPIO11)*%
X72630000Y-105295000D03*
%TO.P,A2,16,GPIO12*%
%TO.N,Net-(A2-GPIO12)*%
X72630000Y-107835000D03*
%TO.P,A2,17,GPIO13*%
%TO.N,Net-(A2-GPIO13)*%
X72630000Y-110375000D03*
D25*
%TO.P,A2,18,GND*%
%TO.N,GND*%
X72630000Y-112915000D03*
D10*
%TO.P,A2,19,GPIO14*%
%TO.N,unconnected-(A2-GPIO14-Pad19)*%
X72630000Y-115455000D03*
%TO.P,A2,20,GPIO15*%
%TO.N,unconnected-(A2-GPIO15-Pad20)*%
X72630000Y-117995000D03*
%TO.P,A2,21,GPIO16*%
%TO.N,unconnected-(A2-GPIO16-Pad21)*%
X90410000Y-117995000D03*
%TO.P,A2,22,GPIO17*%
%TO.N,unconnected-(A2-GPIO17-Pad22)*%
X90410000Y-115455000D03*
D26*
%TO.P,A2,23,GND*%
%TO.N,GND*%
X90410000Y-112915000D03*
D10*
%TO.P,A2,24,GPIO18*%
%TO.N,unconnected-(A2-GPIO18-Pad24)*%
X90410000Y-110375000D03*
%TO.P,A2,25,GPIO19*%
%TO.N,unconnected-(A2-GPIO19-Pad25)*%
X90410000Y-107835000D03*
%TO.P,A2,26,GPIO20*%
%TO.N,unconnected-(A2-GPIO20-Pad26)*%
X90410000Y-105295000D03*
%TO.P,A2,27,GPIO21*%
%TO.N,unconnected-(A2-GPIO21-Pad27)*%
X90410000Y-102755000D03*
D26*
%TO.P,A2,28,GND*%
%TO.N,GND*%
X90410000Y-100215000D03*
D10*
%TO.P,A2,29,GPIO22*%
%TO.N,unconnected-(A2-GPIO22-Pad29)*%
X90410000Y-97675000D03*
%TO.P,A2,30,RUN*%
%TO.N,unconnected-(A2-RUN-Pad30)*%
X90410000Y-95135000D03*
%TO.P,A2,31,GPIO26_ADC0*%
%TO.N,unconnected-(A2-GPIO26_ADC0-Pad31)*%
X90410000Y-92595000D03*
%TO.P,A2,32,GPIO27_ADC1*%
%TO.N,unconnected-(A2-GPIO27_ADC1-Pad32)*%
X90410000Y-90055000D03*
D26*
%TO.P,A2,33,AGND*%
%TO.N,unconnected-(A2-AGND-Pad33)*%
X90410000Y-87515000D03*
D10*
%TO.P,A2,34,GPIO28_ADC2*%
%TO.N,unconnected-(A2-GPIO28_ADC2-Pad34)*%
X90410000Y-84975000D03*
%TO.P,A2,35,ADC_VREF*%
%TO.N,unconnected-(A2-ADC_VREF-Pad35)*%
X90410000Y-82435000D03*
%TO.P,A2,36,3V3*%
%TO.N,Net-(A2-3V3)*%
X90410000Y-79895000D03*
%TO.P,A2,37,3V3_EN*%
%TO.N,unconnected-(A2-3V3_EN-Pad37)*%
X90410000Y-77355000D03*
D26*
%TO.P,A2,38,GND*%
%TO.N,GND*%
X90410000Y-74815000D03*
D10*
%TO.P,A2,39,VSYS*%
%TO.N,Net-(A2-VSYS)*%
X90410000Y-72275000D03*
%TO.P,A2,40,VBUS*%
%TO.N,unconnected-(A2-VBUS-Pad40)*%
X90410000Y-69735000D03*
%TD*%
D27*
%TO.N,GND*%
X70000000Y-87500000D03*
X67500000Y-128500000D03*
X93000000Y-118750000D03*
X75500000Y-83000000D03*
X92750000Y-70000000D03*
X76500000Y-121000000D03*
X92750000Y-114500000D03*
X93125000Y-121375000D03*
X76750000Y-71750000D03*
X75500000Y-97750000D03*
X66500000Y-103000000D03*
X58250000Y-103750000D03*
X91250000Y-120750000D03*
X78250000Y-92500000D03*
X58000000Y-98500000D03*
X81000000Y-120000000D03*
X69250000Y-84250000D03*
X79500000Y-83100000D03*
X58500000Y-113500000D03*
X86500000Y-119250000D03*
X58500000Y-74750000D03*
X65500000Y-87250000D03*
X81000000Y-71000000D03*
X82000000Y-132500000D03*
X86750000Y-116000000D03*
X82750000Y-74000000D03*
X68000000Y-78750000D03*
X93500000Y-133000000D03*
X59000000Y-117250000D03*
X82750000Y-127000000D03*
X82000000Y-114750000D03*
X63250000Y-80750000D03*
X78750000Y-99250000D03*
X90250000Y-120750000D03*
X92250000Y-120750000D03*
X64250000Y-126750000D03*
X83250000Y-79250000D03*
X83000000Y-76500000D03*
X65750000Y-119500000D03*
X86000000Y-99750000D03*
X75750000Y-104250000D03*
X82750000Y-130400000D03*
X82000000Y-127000000D03*
X74500000Y-123500000D03*
X64750000Y-71250000D03*
X67000000Y-112915000D03*
X66000000Y-96750000D03*
X92500000Y-108750000D03*
X89500000Y-121000000D03*
X93000000Y-95750000D03*
X59250000Y-85000000D03*
X82500000Y-91750000D03*
X75500000Y-117250000D03*
X70250000Y-124500000D03*
X92750000Y-83500000D03*
X87000000Y-107750000D03*
X72250000Y-126500000D03*
X82250000Y-98250000D03*
X82000000Y-130400000D03*
X83750000Y-72500000D03*
X86000000Y-113000000D03*
X76750000Y-132000000D03*
X81750000Y-108750000D03*
X76750000Y-113750000D03*
X77750000Y-84250000D03*
X85250000Y-109500000D03*
X75500000Y-108750000D03*
X74750000Y-131000000D03*
X87250000Y-110750000D03*
X86500000Y-96000000D03*
X77500000Y-105000000D03*
X76250000Y-101250000D03*
%TO.N,Net-(D1-K)*%
X66500000Y-121500000D03*
%TO.N,Net-(A2-3V3)*%
X79750000Y-81250000D03*
X81750000Y-81250000D03*
%TO.N,Net-(A2-GPIO9)*%
X70750000Y-94000000D03*
%TO.N,Net-(A2-VSYS)*%
X75250000Y-128700000D03*
X72250000Y-128700000D03*
X75950003Y-128700000D03*
X73000000Y-128700000D03*
X74549997Y-128700000D03*
X73750000Y-128700000D03*
%TO.N,Net-(A2-GPIO1)*%
X67750000Y-74250000D03*
X65750000Y-74250000D03*
%TD*%
D28*
%TO.N,GND*%
X82000000Y-127000000D02*
X82750000Y-127000000D01*
X84750000Y-127000000D02*
X90250000Y-121500000D01*
D29*
X84750000Y-130400000D02*
X88150000Y-127000000D01*
D28*
X89500000Y-125650000D02*
X88150000Y-127000000D01*
X93125000Y-121375000D02*
X92500000Y-120750000D01*
X79000000Y-130400000D02*
X82000000Y-130400000D01*
X91250000Y-120750000D02*
X90250000Y-120750000D01*
X82750000Y-130400000D02*
X84750000Y-130400000D01*
X82000000Y-130400000D02*
X82750000Y-130400000D01*
X93250000Y-121500000D02*
X93125000Y-121375000D01*
X92250000Y-120750000D02*
X91250000Y-120750000D01*
X90250000Y-120750000D02*
X89500000Y-120750000D01*
X89500000Y-121000000D02*
X89500000Y-125650000D01*
X89500000Y-120750000D02*
X89500000Y-121000000D01*
X82750000Y-127000000D02*
X84750000Y-127000000D01*
X79000000Y-127000000D02*
X82000000Y-127000000D01*
X90250000Y-121500000D02*
X93250000Y-121500000D01*
X92500000Y-120750000D02*
X92250000Y-120750000D01*
%TO.N,Net-(D1-K)*%
X79000000Y-125300000D02*
X73650000Y-125300000D01*
D29*
X66600000Y-121400000D02*
X69750000Y-121400000D01*
D28*
X73650000Y-125300000D02*
X69750000Y-121400000D01*
D29*
X66500000Y-121500000D02*
X66600000Y-121400000D01*
D28*
%TO.N,Net-(D2-A)*%
X81030000Y-88280000D02*
X81030000Y-85640000D01*
X81880000Y-89130000D02*
X81030000Y-88280000D01*
X85750000Y-89130000D02*
X81880000Y-89130000D01*
%TO.N,Net-(D2-K)*%
X79250000Y-107250000D02*
X79000000Y-107250000D01*
X79750000Y-106750000D02*
X82130000Y-104370000D01*
X82130000Y-104370000D02*
X85750000Y-104370000D01*
X79750000Y-106750000D02*
X79250000Y-107250000D01*
X79000000Y-107250000D02*
X79000000Y-123600000D01*
D29*
%TO.N,Net-(U2-A)*%
X83639000Y-81899000D02*
X84840000Y-83100000D01*
X88250000Y-90750000D02*
X88250000Y-86510000D01*
X68635000Y-100525000D02*
X68635000Y-99550001D01*
X84840000Y-83100000D02*
X85750000Y-84010000D01*
X82940000Y-96060000D02*
X88250000Y-90750000D01*
X68635000Y-99550001D02*
X69409001Y-98776000D01*
X78500000Y-96060000D02*
X82940000Y-96060000D01*
X88250000Y-86510000D02*
X84840000Y-83100000D01*
X75500000Y-76000000D02*
X81399000Y-81899000D01*
X81399000Y-81899000D02*
X83639000Y-81899000D01*
X69409001Y-98776000D02*
X75784000Y-98776000D01*
X68250000Y-76000000D02*
X75500000Y-76000000D01*
X75784000Y-98776000D02*
X78500000Y-96060000D01*
%TO.N,Net-(U2-B)*%
X73086050Y-96236000D02*
X75500000Y-93822050D01*
X78500000Y-88440000D02*
X75500000Y-88440000D01*
X75500000Y-93822050D02*
X75500000Y-88440000D01*
X67365000Y-99550001D02*
X70679001Y-96236000D01*
X67365000Y-100525000D02*
X67365000Y-99550001D01*
X70679001Y-96236000D02*
X73086050Y-96236000D01*
D30*
%TO.N,Net-(A2-3V3)*%
X66250000Y-81250000D02*
X79750000Y-81250000D01*
X61000000Y-86500000D02*
X66250000Y-81250000D01*
X89000000Y-81250000D02*
X81750000Y-81250000D01*
D29*
X90410000Y-79895000D02*
X90355000Y-79895000D01*
D30*
X90355000Y-79895000D02*
X89000000Y-81250000D01*
D29*
%TO.N,Net-(A2-GPIO9)*%
X61000000Y-90250000D02*
X64750000Y-94000000D01*
X61000000Y-90000000D02*
X61000000Y-90250000D01*
X64750000Y-94000000D02*
X70750000Y-94000000D01*
%TO.N,Net-(A2-GPIO13)*%
X65000000Y-109750000D02*
X66250000Y-108500000D01*
X66250000Y-108500000D02*
X66250000Y-105630000D01*
X72154000Y-110851000D02*
X72630000Y-110375000D01*
X64000000Y-109750000D02*
X65101000Y-110851000D01*
X66250000Y-105630000D02*
X66095000Y-105475000D01*
X64000000Y-109750000D02*
X65000000Y-109750000D01*
X65101000Y-110851000D02*
X72154000Y-110851000D01*
D31*
%TO.N,Net-(A2-VSYS)*%
X63750000Y-98250000D02*
X62500000Y-97000000D01*
X70950000Y-128700000D02*
X67750000Y-125500000D01*
X62000000Y-119202000D02*
X62000000Y-106750000D01*
X67750000Y-125500000D02*
X62000000Y-119750000D01*
D28*
X75250000Y-128700000D02*
X74549997Y-128700000D01*
D31*
X67750000Y-125500000D02*
X69750000Y-127500000D01*
X79000000Y-128700000D02*
X75950003Y-128700000D01*
X70950000Y-128700000D02*
X70950000Y-129900000D01*
D29*
X62120000Y-117370000D02*
X62000000Y-117250000D01*
X66750000Y-117370000D02*
X64000000Y-117370000D01*
D32*
X64750000Y-78750000D02*
X66750000Y-76750000D01*
D29*
X69500000Y-117370000D02*
X66750000Y-117370000D01*
D32*
X60750000Y-78750000D02*
X64750000Y-78750000D01*
D28*
X74549997Y-128700000D02*
X73750000Y-128700000D01*
D31*
X62000000Y-106750000D02*
X63750000Y-105000000D01*
D32*
X58000000Y-94000000D02*
X58000000Y-81500000D01*
X66750000Y-69880000D02*
X68250000Y-68380000D01*
D28*
X62000000Y-119202000D02*
X62000000Y-117250000D01*
X73750000Y-128700000D02*
X73000000Y-128700000D01*
D31*
X70950000Y-129900000D02*
X69750000Y-131100000D01*
X63750000Y-105000000D02*
X63750000Y-98250000D01*
D32*
X66750000Y-76750000D02*
X66750000Y-69880000D01*
D31*
X79000000Y-128700000D02*
X72150000Y-128700000D01*
X69750000Y-127500000D02*
X69750000Y-131100000D01*
X62000000Y-119750000D02*
X62000000Y-119202000D01*
X72150000Y-128700000D02*
X69750000Y-131100000D01*
D32*
X58000000Y-81500000D02*
X60750000Y-78750000D01*
D29*
X64000000Y-117370000D02*
X62120000Y-117370000D01*
D28*
X73000000Y-128700000D02*
X72250000Y-128700000D01*
D31*
X71498000Y-128700000D02*
X70950000Y-128700000D01*
D28*
X62000000Y-117250000D02*
X62000000Y-106750000D01*
D32*
X68250000Y-68380000D02*
X86515000Y-68380000D01*
X61000000Y-97000000D02*
X58000000Y-94000000D01*
X86515000Y-68380000D02*
X90410000Y-72275000D01*
D28*
X75950003Y-128700000D02*
X75250000Y-128700000D01*
D31*
X79000000Y-128700000D02*
X71498000Y-128700000D01*
D28*
X72250000Y-128700000D02*
X72150000Y-128700000D01*
D31*
X62500000Y-97000000D02*
X61000000Y-97000000D01*
D28*
X72250000Y-128700000D02*
X71498000Y-128700000D01*
D29*
%TO.N,Net-(A2-GPIO11)*%
X72630000Y-105295000D02*
X71534000Y-104199000D01*
X71534000Y-104199000D02*
X68801000Y-104199000D01*
X67365000Y-105475000D02*
X68635000Y-105475000D01*
X68801000Y-104199000D02*
X68635000Y-104365000D01*
X68635000Y-104365000D02*
X68635000Y-105475000D01*
X66750000Y-106090000D02*
X67365000Y-105475000D01*
X66750000Y-109750000D02*
X66750000Y-106090000D01*
%TO.N,Net-(A2-GPIO8)*%
X62635000Y-95135000D02*
X72630000Y-95135000D01*
X61000000Y-93500000D02*
X62635000Y-95135000D01*
%TO.N,Net-(A2-GPIO12)*%
X69500000Y-105880000D02*
X69905000Y-105475000D01*
X72265000Y-107835000D02*
X72630000Y-107835000D01*
X69500000Y-109750000D02*
X69500000Y-105880000D01*
X69905000Y-105475000D02*
X72265000Y-107835000D01*
%TO.N,Net-(A2-GPIO1)*%
X72630000Y-72275000D02*
X69725000Y-72275000D01*
X64040000Y-74250000D02*
X65750000Y-74250000D01*
X61290000Y-77000000D02*
X64040000Y-74250000D01*
X69725000Y-72275000D02*
X67750000Y-74250000D01*
%TO.N,Net-(D3-K)*%
X62859000Y-78201000D02*
X59951000Y-78201000D01*
X59951000Y-78201000D02*
X58750000Y-77000000D01*
X65000000Y-76060000D02*
X62859000Y-78201000D01*
%TD*%
%TA.AperFunction,Conductor*%
%TO.N,GND*%
G36*
X63899736Y-67519685D02*
G01*
X63945491Y-67572489D01*
X63955435Y-67641647D01*
X63933015Y-67696885D01*
X63888142Y-67758647D01*
X63795244Y-67940968D01*
X63732009Y-68135582D01*
X63700000Y-68337682D01*
X63700000Y-68542317D01*
X63732009Y-68744417D01*
X63795244Y-68939031D01*
X63888141Y-69121350D01*
X63888147Y-69121359D01*
X63920523Y-69165921D01*
X63920524Y-69165922D01*
X64600000Y-68486446D01*
X64600000Y-68492661D01*
X64627259Y-68594394D01*
X64679920Y-68685606D01*
X64754394Y-68760080D01*
X64845606Y-68812741D01*
X64947339Y-68840000D01*
X64953553Y-68840000D01*
X64274076Y-69519474D01*
X64318650Y-69551859D01*
X64500968Y-69644755D01*
X64695582Y-69707990D01*
X64897683Y-69740000D01*
X65102317Y-69740000D01*
X65304417Y-69707990D01*
X65499031Y-69644755D01*
X65681349Y-69551859D01*
X65725921Y-69519474D01*
X65046447Y-68840000D01*
X65052661Y-68840000D01*
X65154394Y-68812741D01*
X65245606Y-68760080D01*
X65320080Y-68685606D01*
X65372741Y-68594394D01*
X65400000Y-68492661D01*
X65400000Y-68486447D01*
X66079474Y-69165921D01*
X66111859Y-69121349D01*
X66204755Y-68939031D01*
X66267990Y-68744417D01*
X66300000Y-68542317D01*
X66300000Y-68337682D01*
X66267990Y-68135582D01*
X66204755Y-67940968D01*
X66111857Y-67758647D01*
X66066985Y-67696885D01*
X66043505Y-67631079D01*
X66059330Y-67563025D01*
X66109436Y-67514330D01*
X66167303Y-67500000D01*
X67038488Y-67500000D01*
X67105527Y-67519685D01*
X67151282Y-67572489D01*
X67161226Y-67641647D01*
X67139956Y-67694048D01*
X67140259Y-67694234D01*
X67139140Y-67696059D01*
X67138804Y-67696888D01*
X67137714Y-67698387D01*
X67044781Y-67880776D01*
X66981522Y-68075465D01*
X66949500Y-68277648D01*
X66949500Y-68482351D01*
X66977654Y-68660111D01*
X66968699Y-68729405D01*
X66942862Y-68767190D01*
X66244725Y-69465328D01*
X66244724Y-69465329D01*
X66175469Y-69568979D01*
X66175468Y-69568979D01*
X66173541Y-69571862D01*
X66173532Y-69571878D01*
X66124499Y-69690255D01*
X66124497Y-69690261D01*
X66099500Y-69815928D01*
X66099500Y-73352242D01*
X66079815Y-73419281D01*
X66027011Y-73465036D01*
X65957853Y-73474980D01*
X65951309Y-73473859D01*
X65828846Y-73449500D01*
X65828842Y-73449500D01*
X65671158Y-73449500D01*
X65671155Y-73449500D01*
X65516510Y-73480261D01*
X65516498Y-73480264D01*
X65370827Y-73540602D01*
X65370814Y-73540609D01*
X65239125Y-73628602D01*
X65172447Y-73649480D01*
X65170234Y-73649500D01*
X64119057Y-73649500D01*
X63960942Y-73649500D01*
X63808215Y-73690423D01*
X63808214Y-73690423D01*
X63808212Y-73690424D01*
X63808209Y-73690425D01*
X63758096Y-73719359D01*
X63758095Y-73719360D01*
X63735277Y-73732534D01*
X63671285Y-73769479D01*
X63671282Y-73769481D01*
X63559478Y-73881286D01*
X61814202Y-75626561D01*
X61752879Y-75660046D01*
X61688203Y-75656811D01*
X61631401Y-75638355D01*
X61617952Y-75633985D01*
X61509086Y-75616742D01*
X61400222Y-75599500D01*
X61179778Y-75599500D01*
X61107201Y-75610995D01*
X60962047Y-75633985D01*
X60752396Y-75702103D01*
X60752393Y-75702104D01*
X60555974Y-75802187D01*
X60377641Y-75931752D01*
X60377636Y-75931756D01*
X60327463Y-75981929D01*
X60266140Y-76015413D01*
X60196448Y-76010428D01*
X60140515Y-75968557D01*
X60123601Y-75937580D01*
X60093797Y-75857671D01*
X60093793Y-75857664D01*
X60007547Y-75742455D01*
X60007544Y-75742452D01*
X59892335Y-75656206D01*
X59892328Y-75656202D01*
X59757482Y-75605908D01*
X59757483Y-75605908D01*
X59697883Y-75599501D01*
X59697881Y-75599500D01*
X59697873Y-75599500D01*
X59697864Y-75599500D01*
X57802129Y-75599500D01*
X57802123Y-75599501D01*
X57742516Y-75605908D01*
X57607671Y-75656202D01*
X57607664Y-75656206D01*
X57492455Y-75742452D01*
X57492452Y-75742455D01*
X57406206Y-75857664D01*
X57406202Y-75857671D01*
X57355908Y-75992517D01*
X57349501Y-76052116D01*
X57349500Y-76052135D01*
X57349500Y-77947870D01*
X57349501Y-77947876D01*
X57355908Y-78007483D01*
X57406202Y-78142328D01*
X57406206Y-78142335D01*
X57492452Y-78257544D01*
X57492455Y-78257547D01*
X57607664Y-78343793D01*
X57607671Y-78343797D01*
X57742517Y-78394091D01*
X57742516Y-78394091D01*
X57749444Y-78394835D01*
X57802127Y-78400500D01*
X59249902Y-78400499D01*
X59279342Y-78409143D01*
X59309329Y-78415667D01*
X59314344Y-78419421D01*
X59316941Y-78420184D01*
X59337583Y-78436818D01*
X59466139Y-78565374D01*
X59466149Y-78565385D01*
X59470479Y-78569715D01*
X59470480Y-78569716D01*
X59582284Y-78681520D01*
X59582286Y-78681521D01*
X59582290Y-78681524D01*
X59642827Y-78716475D01*
X59691043Y-78767041D01*
X59704267Y-78835648D01*
X59678299Y-78900513D01*
X59668509Y-78911543D01*
X57494724Y-81085328D01*
X57440472Y-81166524D01*
X57423535Y-81191871D01*
X57374499Y-81310255D01*
X57374497Y-81310261D01*
X57349500Y-81435928D01*
X57349500Y-94064070D01*
X57356505Y-94099284D01*
X57361512Y-94124458D01*
X57363510Y-94134499D01*
X57363510Y-94134501D01*
X57374497Y-94189736D01*
X57374499Y-94189744D01*
X57421233Y-94302571D01*
X57423535Y-94308127D01*
X57454170Y-94353976D01*
X57494726Y-94414673D01*
X57494727Y-94414674D01*
X59370460Y-96290406D01*
X59403945Y-96351729D01*
X59398961Y-96421421D01*
X59397341Y-96425538D01*
X59386293Y-96452210D01*
X59386290Y-96452219D01*
X59337001Y-96636171D01*
X59328597Y-96667534D01*
X59328594Y-96667547D01*
X59299501Y-96888533D01*
X59299500Y-96888549D01*
X59299500Y-97111450D01*
X59299501Y-97111466D01*
X59328594Y-97332452D01*
X59328595Y-97332457D01*
X59328596Y-97332463D01*
X59338472Y-97369321D01*
X59386290Y-97547780D01*
X59386293Y-97547790D01*
X59427390Y-97647006D01*
X59471595Y-97753726D01*
X59583052Y-97946774D01*
X59583057Y-97946780D01*
X59583058Y-97946782D01*
X59718751Y-98123622D01*
X59718757Y-98123629D01*
X59876370Y-98281242D01*
X59876377Y-98281248D01*
X59974595Y-98356613D01*
X60053226Y-98416948D01*
X60246274Y-98528405D01*
X60452219Y-98613710D01*
X60513857Y-98630225D01*
X60573516Y-98666590D01*
X60604045Y-98729437D01*
X60595750Y-98798813D01*
X60551265Y-98852691D01*
X60513858Y-98869773D01*
X60452219Y-98886290D01*
X60452217Y-98886290D01*
X60452216Y-98886291D01*
X60452209Y-98886293D01*
X60246277Y-98971593D01*
X60246273Y-98971595D01*
X60053226Y-99083052D01*
X60053217Y-99083058D01*
X59876377Y-99218751D01*
X59876370Y-99218757D01*
X59718757Y-99376370D01*
X59718751Y-99376377D01*
X59583058Y-99553217D01*
X59583052Y-99553226D01*
X59471595Y-99746273D01*
X59471593Y-99746277D01*
X59386293Y-99952209D01*
X59386290Y-99952219D01*
X59333517Y-100149174D01*
X59328597Y-100167534D01*
X59328594Y-100167547D01*
X59299501Y-100388533D01*
X59299500Y-100388549D01*
X59299500Y-100611450D01*
X59299501Y-100611466D01*
X59328594Y-100832452D01*
X59328595Y-100832457D01*
X59328596Y-100832463D01*
X59349041Y-100908764D01*
X59386290Y-101047780D01*
X59386293Y-101047790D01*
X59471593Y-101253722D01*
X59471595Y-101253726D01*
X59583052Y-101446774D01*
X59583057Y-101446780D01*
X59583058Y-101446782D01*
X59718751Y-101623622D01*
X59718757Y-101623629D01*
X59876370Y-101781242D01*
X59876377Y-101781248D01*
X59985447Y-101864940D01*
X60053226Y-101916948D01*
X60246274Y-102028405D01*
X60452219Y-102113710D01*
X60514822Y-102130484D01*
X60574480Y-102166847D01*
X60605010Y-102229694D01*
X60596716Y-102299070D01*
X60552231Y-102352948D01*
X60514821Y-102370033D01*
X60452379Y-102386764D01*
X60246497Y-102472045D01*
X60246479Y-102472054D01*
X60053511Y-102583462D01*
X59987595Y-102634042D01*
X60788941Y-103435387D01*
X60768409Y-103440889D01*
X60631592Y-103519881D01*
X60519881Y-103631592D01*
X60440889Y-103768409D01*
X60435387Y-103788940D01*
X59634042Y-102987595D01*
X59583462Y-103053511D01*
X59472054Y-103246479D01*
X59472045Y-103246497D01*
X59386763Y-103452381D01*
X59329088Y-103667632D01*
X59329085Y-103667645D01*
X59300000Y-103888575D01*
X59300000Y-104111424D01*
X59329085Y-104332354D01*
X59329088Y-104332367D01*
X59386763Y-104547618D01*
X59472045Y-104753502D01*
X59472054Y-104753520D01*
X59583464Y-104946491D01*
X59583473Y-104946504D01*
X59634040Y-105012403D01*
X59634043Y-105012403D01*
X60435387Y-104211059D01*
X60440889Y-104231591D01*
X60519881Y-104368408D01*
X60631592Y-104480119D01*
X60768409Y-104559111D01*
X60788940Y-104564612D01*
X59987595Y-105365955D01*
X59987595Y-105365956D01*
X60053507Y-105416533D01*
X60246485Y-105527949D01*
X60246497Y-105527954D01*
X60452381Y-105613236D01*
X60667632Y-105670911D01*
X60667645Y-105670914D01*
X60888575Y-105700000D01*
X61111431Y-105700000D01*
X61115474Y-105699735D01*
X61115599Y-105701656D01*
X61176944Y-105711167D01*
X61229241Y-105757500D01*
X61248187Y-105824752D01*
X61227767Y-105891571D01*
X61211877Y-105911069D01*
X61122441Y-106000505D01*
X61041280Y-106112217D01*
X61041278Y-106112220D01*
X61016004Y-106147004D01*
X60933788Y-106308360D01*
X60933787Y-106308363D01*
X60877829Y-106480589D01*
X60863618Y-106570311D01*
X60854559Y-106627511D01*
X60849499Y-106659455D01*
X60849499Y-106845656D01*
X60849500Y-106845681D01*
X60849500Y-107649488D01*
X60829815Y-107716527D01*
X60777011Y-107762282D01*
X60707853Y-107772226D01*
X60663500Y-107756875D01*
X60430802Y-107622527D01*
X60430787Y-107622520D01*
X60176471Y-107517180D01*
X59910565Y-107445930D01*
X59637642Y-107410000D01*
X59362358Y-107410000D01*
X59089434Y-107445930D01*
X58823528Y-107517180D01*
X58569212Y-107622520D01*
X58569197Y-107622527D01*
X58330799Y-107760166D01*
X58202312Y-107858757D01*
X58202312Y-107858758D01*
X59137706Y-108794152D01*
X59121058Y-108801049D01*
X58990030Y-108888599D01*
X58878599Y-109000030D01*
X58791049Y-109131058D01*
X58784152Y-109147706D01*
X57848758Y-108212312D01*
X57848757Y-108212312D01*
X57750166Y-108340799D01*
X57612527Y-108579197D01*
X57612520Y-108579212D01*
X57507180Y-108833528D01*
X57435930Y-109099434D01*
X57400000Y-109372358D01*
X57400000Y-109647641D01*
X57435930Y-109920565D01*
X57507180Y-110186471D01*
X57612520Y-110440787D01*
X57612527Y-110440802D01*
X57750163Y-110679196D01*
X57848758Y-110807686D01*
X58784152Y-109872291D01*
X58791049Y-109888942D01*
X58878599Y-110019970D01*
X58990030Y-110131401D01*
X59121058Y-110218951D01*
X59137705Y-110225846D01*
X58202312Y-111161240D01*
X58330804Y-111259836D01*
X58569197Y-111397472D01*
X58569212Y-111397479D01*
X58823528Y-111502819D01*
X59089434Y-111574069D01*
X59362358Y-111610000D01*
X59637642Y-111610000D01*
X59910565Y-111574069D01*
X60176471Y-111502819D01*
X60430787Y-111397479D01*
X60430801Y-111397472D01*
X60663500Y-111263124D01*
X60731400Y-111246651D01*
X60797427Y-111269504D01*
X60840618Y-111324425D01*
X60849500Y-111370511D01*
X60849500Y-119655038D01*
X60849499Y-119655053D01*
X60849499Y-119840544D01*
X60867073Y-119951501D01*
X60877829Y-120019410D01*
X60933787Y-120191636D01*
X60933788Y-120191639D01*
X61016006Y-120352997D01*
X61122440Y-120499493D01*
X61122444Y-120499497D01*
X61122447Y-120499501D01*
X61198446Y-120575500D01*
X61254829Y-120631883D01*
X61254840Y-120631893D01*
X68563181Y-127940234D01*
X68596666Y-128001557D01*
X68599500Y-128027915D01*
X68599500Y-129025500D01*
X68579815Y-129092539D01*
X68527011Y-129138294D01*
X68475500Y-129149500D01*
X67002129Y-129149500D01*
X67002123Y-129149501D01*
X66942516Y-129155908D01*
X66807671Y-129206202D01*
X66807664Y-129206206D01*
X66692455Y-129292452D01*
X66692452Y-129292455D01*
X66606206Y-129407664D01*
X66606202Y-129407671D01*
X66555908Y-129542517D01*
X66549501Y-129602116D01*
X66549500Y-129602135D01*
X66549500Y-132597870D01*
X66549501Y-132597876D01*
X66555908Y-132657483D01*
X66606202Y-132792328D01*
X66606206Y-132792335D01*
X66692452Y-132907544D01*
X66692455Y-132907547D01*
X66807664Y-132993793D01*
X66807671Y-132993797D01*
X66850625Y-133009818D01*
X66906559Y-133051689D01*
X66930976Y-133117153D01*
X66916124Y-133185426D01*
X66866719Y-133234832D01*
X66807292Y-133250000D01*
X62027097Y-133250000D01*
X61960058Y-133230315D01*
X61914303Y-133177511D01*
X61904359Y-133108353D01*
X61933384Y-133044797D01*
X61948432Y-133030147D01*
X61957914Y-133022364D01*
X62002772Y-132985551D01*
X62235551Y-132752772D01*
X62444393Y-132498298D01*
X62627286Y-132224579D01*
X62782469Y-131934251D01*
X62908448Y-131630111D01*
X63004010Y-131315087D01*
X63004012Y-131315077D01*
X63004015Y-131315066D01*
X63033199Y-131168345D01*
X63068233Y-130992213D01*
X63100500Y-130664600D01*
X63100500Y-130335400D01*
X63068233Y-130007787D01*
X63023098Y-129780875D01*
X63004015Y-129684933D01*
X63004012Y-129684922D01*
X63004011Y-129684919D01*
X63004010Y-129684913D01*
X62908448Y-129369889D01*
X62782469Y-129065749D01*
X62627286Y-128775421D01*
X62444393Y-128501702D01*
X62235551Y-128247228D01*
X62235550Y-128247227D01*
X62235546Y-128247222D01*
X62002777Y-128014453D01*
X61748303Y-127805611D01*
X61748302Y-127805610D01*
X61748298Y-127805607D01*
X61474579Y-127622714D01*
X61474574Y-127622711D01*
X61474567Y-127622707D01*
X61184258Y-127467535D01*
X61184251Y-127467531D01*
X61052358Y-127412899D01*
X60880112Y-127341552D01*
X60565077Y-127245987D01*
X60565066Y-127245984D01*
X60242218Y-127181768D01*
X60242213Y-127181767D01*
X60242211Y-127181766D01*
X60242201Y-127181765D01*
X60001522Y-127158061D01*
X59914600Y-127149500D01*
X59585400Y-127149500D01*
X59505540Y-127157365D01*
X59257798Y-127181765D01*
X59257781Y-127181768D01*
X58934933Y-127245984D01*
X58934922Y-127245987D01*
X58619887Y-127341552D01*
X58315755Y-127467528D01*
X58315741Y-127467535D01*
X58025432Y-127622707D01*
X58025414Y-127622718D01*
X57751710Y-127805601D01*
X57751696Y-127805611D01*
X57497222Y-128014453D01*
X57264453Y-128247222D01*
X57219853Y-128301568D01*
X57162107Y-128340902D01*
X57092263Y-128342773D01*
X57032494Y-128306585D01*
X57001779Y-128243829D01*
X57000000Y-128222903D01*
X57000000Y-123349983D01*
X57399500Y-123349983D01*
X57399500Y-126150001D01*
X57399501Y-126150018D01*
X57410000Y-126252796D01*
X57410001Y-126252799D01*
X57465185Y-126419331D01*
X57465186Y-126419334D01*
X57557288Y-126568656D01*
X57681344Y-126692712D01*
X57830666Y-126784814D01*
X57997203Y-126839999D01*
X58099991Y-126850500D01*
X60900008Y-126850499D01*
X61002797Y-126839999D01*
X61169334Y-126784814D01*
X61318656Y-126692712D01*
X61442712Y-126568656D01*
X61534814Y-126419334D01*
X61589999Y-126252797D01*
X61600500Y-126150009D01*
X61600499Y-123349992D01*
X61589999Y-123247203D01*
X61534814Y-123080666D01*
X61442712Y-122931344D01*
X61318656Y-122807288D01*
X61169334Y-122715186D01*
X61002797Y-122660001D01*
X61002795Y-122660000D01*
X60900010Y-122649500D01*
X58099998Y-122649500D01*
X58099981Y-122649501D01*
X57997203Y-122660000D01*
X57997200Y-122660001D01*
X57830668Y-122715185D01*
X57830663Y-122715187D01*
X57681342Y-122807289D01*
X57557289Y-122931342D01*
X57465187Y-123080663D01*
X57465185Y-123080668D01*
X57454395Y-123113230D01*
X57410001Y-123247203D01*
X57410001Y-123247204D01*
X57410000Y-123247204D01*
X57399500Y-123349983D01*
X57000000Y-123349983D01*
X57000000Y-72777096D01*
X57019685Y-72710057D01*
X57072489Y-72664302D01*
X57141647Y-72654358D01*
X57205203Y-72683383D01*
X57219848Y-72698426D01*
X57229394Y-72710057D01*
X57264454Y-72752778D01*
X57497222Y-72985546D01*
X57497227Y-72985550D01*
X57497228Y-72985551D01*
X57751702Y-73194393D01*
X58025421Y-73377286D01*
X58025430Y-73377291D01*
X58025432Y-73377292D01*
X58066829Y-73399419D01*
X58315749Y-73532469D01*
X58619889Y-73658448D01*
X58934913Y-73754010D01*
X58934919Y-73754011D01*
X58934922Y-73754012D01*
X58934933Y-73754015D01*
X59115361Y-73789903D01*
X59257787Y-73818233D01*
X59585400Y-73850500D01*
X59585403Y-73850500D01*
X59914597Y-73850500D01*
X59914600Y-73850500D01*
X60242213Y-73818233D01*
X60419760Y-73782916D01*
X60565066Y-73754015D01*
X60565077Y-73754012D01*
X60565077Y-73754011D01*
X60565087Y-73754010D01*
X60880111Y-73658448D01*
X61184251Y-73532469D01*
X61474579Y-73377286D01*
X61748298Y-73194393D01*
X62002772Y-72985551D01*
X62235551Y-72752772D01*
X62444393Y-72498298D01*
X62627286Y-72224579D01*
X62782469Y-71934251D01*
X62908448Y-71630111D01*
X63004010Y-71315087D01*
X63004012Y-71315077D01*
X63004015Y-71315066D01*
X63043713Y-71115485D01*
X63068233Y-70992213D01*
X63100500Y-70664600D01*
X63100500Y-70335400D01*
X63068233Y-70007787D01*
X63030071Y-69815931D01*
X63004015Y-69684933D01*
X63004012Y-69684922D01*
X63004011Y-69684919D01*
X63004010Y-69684913D01*
X62908448Y-69369889D01*
X62782469Y-69065749D01*
X62627286Y-68775421D01*
X62444393Y-68501702D01*
X62235551Y-68247228D01*
X62235550Y-68247227D01*
X62235546Y-68247222D01*
X62002777Y-68014453D01*
X61748303Y-67805611D01*
X61748302Y-67805610D01*
X61748298Y-67805607D01*
X61630807Y-67727102D01*
X61586002Y-67673490D01*
X61577295Y-67604165D01*
X61607449Y-67541138D01*
X61666892Y-67504418D01*
X61699698Y-67500000D01*
X63832697Y-67500000D01*
X63899736Y-67519685D01*
G37*
%TD.AperFunction*%
%TA.AperFunction,Conductor*%
G36*
X93693039Y-67519685D02*
G01*
X93738794Y-67572489D01*
X93750000Y-67624000D01*
X93750000Y-133126000D01*
X93730315Y-133193039D01*
X93677511Y-133238794D01*
X93626000Y-133250000D01*
X72692708Y-133250000D01*
X72625669Y-133230315D01*
X72579914Y-133177511D01*
X72569970Y-133108353D01*
X72598995Y-133044797D01*
X72649375Y-133009818D01*
X72692328Y-132993797D01*
X72692327Y-132993797D01*
X72692331Y-132993796D01*
X72807546Y-132907546D01*
X72893796Y-132792331D01*
X72944091Y-132657483D01*
X72950500Y-132597873D01*
X72950500Y-132199984D01*
X82950001Y-132199984D01*
X82960494Y-132302695D01*
X83015641Y-132469117D01*
X83015643Y-132469122D01*
X83107684Y-132618344D01*
X83231655Y-132742315D01*
X83380877Y-132834356D01*
X83380882Y-132834358D01*
X83547304Y-132889505D01*
X83547311Y-132889506D01*
X83650021Y-132899999D01*
X87899999Y-132899999D01*
X88400000Y-132899999D01*
X92649970Y-132899999D01*
X92649984Y-132899998D01*
X92752695Y-132889505D01*
X92919117Y-132834358D01*
X92919122Y-132834356D01*
X93068344Y-132742315D01*
X93192315Y-132618344D01*
X93284356Y-132469122D01*
X93284358Y-132469117D01*
X93339505Y-132302695D01*
X93339506Y-132302688D01*
X93349999Y-132199984D01*
X93350000Y-132199971D01*
X93350000Y-127250000D01*
X88400000Y-127250000D01*
X88400000Y-132899999D01*
X87899999Y-132899999D01*
X87900000Y-132899998D01*
X87900000Y-127250000D01*
X82950001Y-127250000D01*
X82950001Y-132199984D01*
X72950500Y-132199984D01*
X72950499Y-130749986D01*
X76200001Y-130749986D01*
X76210494Y-130852697D01*
X76265641Y-131019119D01*
X76265643Y-131019124D01*
X76357684Y-131168345D01*
X76481654Y-131292315D01*
X76630875Y-131384356D01*
X76630880Y-131384358D01*
X76797302Y-131439505D01*
X76797309Y-131439506D01*
X76900019Y-131449999D01*
X78749999Y-131449999D01*
X79250000Y-131449999D01*
X81099972Y-131449999D01*
X81099986Y-131449998D01*
X81202697Y-131439505D01*
X81369119Y-131384358D01*
X81369124Y-131384356D01*
X81518345Y-131292315D01*
X81642315Y-131168345D01*
X81734356Y-131019124D01*
X81734358Y-131019119D01*
X81789505Y-130852697D01*
X81789506Y-130852690D01*
X81799999Y-130749986D01*
X81800000Y-130749973D01*
X81800000Y-130650000D01*
X79250000Y-130650000D01*
X79250000Y-131449999D01*
X78749999Y-131449999D01*
X78750000Y-131449998D01*
X78750000Y-130650000D01*
X76200001Y-130650000D01*
X76200001Y-130749986D01*
X72950499Y-130749986D01*
X72950499Y-129974499D01*
X72970184Y-129907461D01*
X73022988Y-129861706D01*
X73074499Y-129850500D01*
X76083070Y-129850500D01*
X76150109Y-129870185D01*
X76195864Y-129922989D01*
X76206428Y-129987103D01*
X76200000Y-130050013D01*
X76200000Y-130150000D01*
X81799999Y-130150000D01*
X81799999Y-130050028D01*
X81799998Y-130050013D01*
X81789505Y-129947302D01*
X81734358Y-129780880D01*
X81734356Y-129780875D01*
X81642314Y-129631653D01*
X81638886Y-129627317D01*
X81612745Y-129562521D01*
X81625786Y-129493879D01*
X81638884Y-129473497D01*
X81642706Y-129468661D01*
X81642712Y-129468656D01*
X81734814Y-129319334D01*
X81789999Y-129152797D01*
X81800500Y-129050009D01*
X81800499Y-128349992D01*
X81799570Y-128340902D01*
X81789999Y-128247203D01*
X81789998Y-128247200D01*
X81781947Y-128222903D01*
X81734814Y-128080666D01*
X81642712Y-127931344D01*
X81642710Y-127931342D01*
X81638884Y-127926503D01*
X81612745Y-127861707D01*
X81625787Y-127793065D01*
X81638886Y-127772683D01*
X81642314Y-127768346D01*
X81734356Y-127619124D01*
X81734358Y-127619119D01*
X81789505Y-127452697D01*
X81789506Y-127452690D01*
X81799999Y-127349986D01*
X81800000Y-127349973D01*
X81800000Y-127250000D01*
X76200001Y-127250000D01*
X76200001Y-127349989D01*
X76206428Y-127412899D01*
X76193658Y-127481592D01*
X76145777Y-127532476D01*
X76083070Y-127549500D01*
X72240553Y-127549500D01*
X72240547Y-127549499D01*
X72059454Y-127549499D01*
X72059448Y-127549500D01*
X71477915Y-127549500D01*
X71410876Y-127529815D01*
X71390234Y-127513181D01*
X70631893Y-126754840D01*
X70631873Y-126754818D01*
X70496405Y-126619350D01*
X70496374Y-126619321D01*
X67439233Y-123562180D01*
X67405748Y-123500857D01*
X67410732Y-123431165D01*
X67452604Y-123375232D01*
X67518068Y-123350815D01*
X67526914Y-123350499D01*
X70234217Y-123350499D01*
X70301256Y-123370184D01*
X70321898Y-123386818D01*
X72869735Y-125934655D01*
X72869764Y-125934686D01*
X73012214Y-126077136D01*
X73012218Y-126077139D01*
X73176079Y-126186628D01*
X73176092Y-126186635D01*
X73304833Y-126239961D01*
X73347744Y-126257735D01*
X73358164Y-126262051D01*
X73454812Y-126281275D01*
X73503135Y-126290887D01*
X73551458Y-126300500D01*
X73551459Y-126300500D01*
X73551460Y-126300500D01*
X73748540Y-126300500D01*
X76120557Y-126300500D01*
X76187596Y-126320185D01*
X76233351Y-126372989D01*
X76243295Y-126442147D01*
X76238263Y-126463504D01*
X76210494Y-126547302D01*
X76210493Y-126547309D01*
X76200000Y-126650013D01*
X76200000Y-126750000D01*
X81799999Y-126750000D01*
X81799999Y-126650028D01*
X81799998Y-126650013D01*
X81789505Y-126547302D01*
X81734358Y-126380880D01*
X81734356Y-126380875D01*
X81642314Y-126231653D01*
X81638886Y-126227317D01*
X81612745Y-126162521D01*
X81625786Y-126093879D01*
X81638884Y-126073497D01*
X81642706Y-126068661D01*
X81642712Y-126068656D01*
X81734814Y-125919334D01*
X81789999Y-125752797D01*
X81800500Y-125650009D01*
X81800499Y-124949992D01*
X81789999Y-124847203D01*
X81734814Y-124680666D01*
X81642712Y-124531344D01*
X81642707Y-124531339D01*
X81639209Y-124526915D01*
X81613066Y-124462121D01*
X81626103Y-124393478D01*
X81639209Y-124373085D01*
X81642703Y-124368664D01*
X81642712Y-124368656D01*
X81734814Y-124219334D01*
X81789999Y-124052797D01*
X81800500Y-123950009D01*
X81800499Y-123249992D01*
X81789999Y-123147203D01*
X81734814Y-122980666D01*
X81642712Y-122831344D01*
X81518656Y-122707288D01*
X81369334Y-122615186D01*
X81202797Y-122560001D01*
X81202795Y-122560000D01*
X81100016Y-122549500D01*
X81100009Y-122549500D01*
X80124500Y-122549500D01*
X80057461Y-122529815D01*
X80011706Y-122477011D01*
X80000500Y-122425500D01*
X80000500Y-121800015D01*
X82950000Y-121800015D01*
X82950000Y-126750000D01*
X87900000Y-126750000D01*
X88400000Y-126750000D01*
X93349999Y-126750000D01*
X93349999Y-121800030D01*
X93349998Y-121800015D01*
X93339505Y-121697304D01*
X93284358Y-121530882D01*
X93284356Y-121530877D01*
X93192315Y-121381655D01*
X93068344Y-121257684D01*
X92919122Y-121165643D01*
X92919117Y-121165641D01*
X92752695Y-121110494D01*
X92752688Y-121110493D01*
X92649984Y-121100000D01*
X88400000Y-121100000D01*
X88400000Y-126750000D01*
X87900000Y-126750000D01*
X87900000Y-121100000D01*
X83650030Y-121100000D01*
X83650014Y-121100001D01*
X83547304Y-121110494D01*
X83380882Y-121165641D01*
X83380877Y-121165643D01*
X83231655Y-121257684D01*
X83107684Y-121381655D01*
X83015643Y-121530877D01*
X83015641Y-121530882D01*
X82960494Y-121697304D01*
X82960493Y-121697311D01*
X82950000Y-121800015D01*
X80000500Y-121800015D01*
X80000500Y-117147648D01*
X81949500Y-117147648D01*
X81949500Y-117352351D01*
X81981522Y-117554534D01*
X82044781Y-117749223D01*
X82137715Y-117931613D01*
X82258028Y-118097213D01*
X82402786Y-118241971D01*
X82557749Y-118354556D01*
X82568390Y-118362287D01*
X82684607Y-118421503D01*
X82750776Y-118455218D01*
X82750778Y-118455218D01*
X82750781Y-118455220D01*
X82834085Y-118482287D01*
X82945465Y-118518477D01*
X83031180Y-118532053D01*
X83147648Y-118550500D01*
X83147649Y-118550500D01*
X83352351Y-118550500D01*
X83352352Y-118550500D01*
X83554534Y-118518477D01*
X83749219Y-118455220D01*
X83931610Y-118362287D01*
X84024590Y-118294732D01*
X84097213Y-118241971D01*
X84097215Y-118241968D01*
X84097219Y-118241966D01*
X84241966Y-118097219D01*
X84241968Y-118097215D01*
X84241971Y-118097213D01*
X84334032Y-117970500D01*
X84362287Y-117931610D01*
X84455220Y-117749219D01*
X84518477Y-117554534D01*
X84550500Y-117352352D01*
X84550500Y-117147648D01*
X84518477Y-116945465D01*
X84470057Y-116796446D01*
X84455220Y-116750781D01*
X84455218Y-116750778D01*
X84455218Y-116750776D01*
X84405681Y-116653555D01*
X84362287Y-116568390D01*
X84329154Y-116522786D01*
X84241971Y-116402786D01*
X84097213Y-116258028D01*
X83931613Y-116137715D01*
X83931612Y-116137714D01*
X83931610Y-116137713D01*
X83860583Y-116101523D01*
X83749223Y-116044781D01*
X83554534Y-115981522D01*
X83379995Y-115953878D01*
X83352352Y-115949500D01*
X83147648Y-115949500D01*
X83123329Y-115953351D01*
X82945465Y-115981522D01*
X82750776Y-116044781D01*
X82568386Y-116137715D01*
X82402786Y-116258028D01*
X82258028Y-116402786D01*
X82137715Y-116568386D01*
X82044781Y-116750776D01*
X81981522Y-116945465D01*
X81949500Y-117147648D01*
X80000500Y-117147648D01*
X80000500Y-112147682D01*
X81950000Y-112147682D01*
X81950000Y-112352317D01*
X81982009Y-112554417D01*
X82045244Y-112749031D01*
X82138141Y-112931350D01*
X82138147Y-112931359D01*
X82170523Y-112975921D01*
X82170524Y-112975922D01*
X82850000Y-112296446D01*
X82850000Y-112302661D01*
X82877259Y-112404394D01*
X82929920Y-112495606D01*
X83004394Y-112570080D01*
X83095606Y-112622741D01*
X83197339Y-112650000D01*
X83203553Y-112650000D01*
X82524076Y-113329474D01*
X82568650Y-113361859D01*
X82750968Y-113454755D01*
X82945582Y-113517990D01*
X83147683Y-113550000D01*
X83352317Y-113550000D01*
X83554417Y-113517990D01*
X83749031Y-113454755D01*
X83931349Y-113361859D01*
X83975921Y-113329474D01*
X83296447Y-112650000D01*
X83302661Y-112650000D01*
X83404394Y-112622741D01*
X83495606Y-112570080D01*
X83570080Y-112495606D01*
X83622741Y-112404394D01*
X83650000Y-112302661D01*
X83650000Y-112296447D01*
X84329474Y-112975921D01*
X84361859Y-112931349D01*
X84454755Y-112749031D01*
X84517990Y-112554417D01*
X84550000Y-112352317D01*
X84550000Y-112147682D01*
X84517990Y-111945582D01*
X84454755Y-111750968D01*
X84361859Y-111568650D01*
X84329474Y-111524077D01*
X84329474Y-111524076D01*
X83650000Y-112203551D01*
X83650000Y-112197339D01*
X83622741Y-112095606D01*
X83570080Y-112004394D01*
X83495606Y-111929920D01*
X83404394Y-111877259D01*
X83302661Y-111850000D01*
X83296446Y-111850000D01*
X83975922Y-111170524D01*
X83975921Y-111170523D01*
X83931359Y-111138147D01*
X83931350Y-111138141D01*
X83749031Y-111045244D01*
X83554417Y-110982009D01*
X83352317Y-110950000D01*
X83147683Y-110950000D01*
X82945582Y-110982009D01*
X82750968Y-111045244D01*
X82568644Y-111138143D01*
X82524077Y-111170523D01*
X82524077Y-111170524D01*
X83203554Y-111850000D01*
X83197339Y-111850000D01*
X83095606Y-111877259D01*
X83004394Y-111929920D01*
X82929920Y-112004394D01*
X82877259Y-112095606D01*
X82850000Y-112197339D01*
X82850000Y-112203553D01*
X82170524Y-111524077D01*
X82170523Y-111524077D01*
X82138143Y-111568644D01*
X82045244Y-111750968D01*
X81982009Y-111945582D01*
X81950000Y-112147682D01*
X80000500Y-112147682D01*
X80000500Y-108125761D01*
X80020185Y-108058722D01*
X80024165Y-108052899D01*
X80112287Y-107931610D01*
X80205220Y-107749219D01*
X80215040Y-107718993D01*
X80245287Y-107669631D01*
X80527139Y-107387781D01*
X80527138Y-107387781D01*
X80585707Y-107329212D01*
X82508102Y-105406819D01*
X82569425Y-105373334D01*
X82595783Y-105370500D01*
X83525501Y-105370500D01*
X83592540Y-105390185D01*
X83638295Y-105442989D01*
X83649501Y-105494500D01*
X83649501Y-105770018D01*
X83660000Y-105872796D01*
X83660001Y-105872799D01*
X83685418Y-105949500D01*
X83715186Y-106039334D01*
X83807288Y-106188656D01*
X83931344Y-106312712D01*
X84080666Y-106404814D01*
X84247203Y-106459999D01*
X84349991Y-106470500D01*
X87150008Y-106470499D01*
X87252797Y-106459999D01*
X87419334Y-106404814D01*
X87568656Y-106312712D01*
X87692712Y-106188656D01*
X87784814Y-106039334D01*
X87839999Y-105872797D01*
X87850500Y-105770009D01*
X87850499Y-102969992D01*
X87839999Y-102867203D01*
X87784814Y-102700666D01*
X87692712Y-102551344D01*
X87568656Y-102427288D01*
X87419334Y-102335186D01*
X87252797Y-102280001D01*
X87252795Y-102280000D01*
X87150010Y-102269500D01*
X84349998Y-102269500D01*
X84349981Y-102269501D01*
X84247203Y-102280000D01*
X84247200Y-102280001D01*
X84080668Y-102335185D01*
X84080663Y-102335187D01*
X83931342Y-102427289D01*
X83807289Y-102551342D01*
X83715187Y-102700663D01*
X83715186Y-102700666D01*
X83660001Y-102867203D01*
X83660001Y-102867204D01*
X83660000Y-102867204D01*
X83649500Y-102969983D01*
X83649500Y-103245500D01*
X83629815Y-103312539D01*
X83577011Y-103358294D01*
X83525500Y-103369500D01*
X82031455Y-103369500D01*
X81934812Y-103388724D01*
X81838167Y-103407947D01*
X81838161Y-103407949D01*
X81784834Y-103430037D01*
X81784834Y-103430038D01*
X81768961Y-103436613D01*
X81656089Y-103483366D01*
X81656079Y-103483371D01*
X81492218Y-103592860D01*
X81492214Y-103592863D01*
X79171898Y-105913181D01*
X79110575Y-105946666D01*
X79084217Y-105949500D01*
X78897648Y-105949500D01*
X78873329Y-105953351D01*
X78695465Y-105981522D01*
X78500776Y-106044781D01*
X78318386Y-106137715D01*
X78152786Y-106258028D01*
X78008028Y-106402786D01*
X77887715Y-106568386D01*
X77794781Y-106750776D01*
X77731522Y-106945465D01*
X77699500Y-107147648D01*
X77699500Y-107352351D01*
X77731522Y-107554534D01*
X77794781Y-107749223D01*
X77850592Y-107858757D01*
X77887713Y-107931610D01*
X77975819Y-108052877D01*
X77999298Y-108118681D01*
X77999500Y-108125761D01*
X77999500Y-122425500D01*
X77979815Y-122492539D01*
X77927011Y-122538294D01*
X77875500Y-122549500D01*
X76899998Y-122549500D01*
X76899980Y-122549501D01*
X76797203Y-122560000D01*
X76797200Y-122560001D01*
X76630668Y-122615185D01*
X76630663Y-122615187D01*
X76481342Y-122707289D01*
X76357289Y-122831342D01*
X76265187Y-122980663D01*
X76265186Y-122980666D01*
X76210001Y-123147203D01*
X76210001Y-123147204D01*
X76210000Y-123147204D01*
X76199500Y-123249983D01*
X76199500Y-123950001D01*
X76199501Y-123950019D01*
X76210000Y-124052796D01*
X76210001Y-124052799D01*
X76237736Y-124136496D01*
X76240138Y-124206324D01*
X76204406Y-124266366D01*
X76141886Y-124297559D01*
X76120030Y-124299500D01*
X74115782Y-124299500D01*
X74048743Y-124279815D01*
X74028101Y-124263181D01*
X72940217Y-123175297D01*
X72906732Y-123113974D01*
X72911715Y-123044285D01*
X72944091Y-122957483D01*
X72950500Y-122897873D01*
X72950499Y-119902128D01*
X72944091Y-119842517D01*
X72893796Y-119707669D01*
X72893795Y-119707668D01*
X72893793Y-119707664D01*
X72807547Y-119592455D01*
X72701896Y-119513364D01*
X72660026Y-119457430D01*
X72655042Y-119387739D01*
X72688528Y-119326416D01*
X72749851Y-119292932D01*
X72756776Y-119291631D01*
X72934534Y-119263477D01*
X73129219Y-119200220D01*
X73311610Y-119107287D01*
X73404590Y-119039732D01*
X73477213Y-118986971D01*
X73477215Y-118986968D01*
X73477219Y-118986966D01*
X73621966Y-118842219D01*
X73621968Y-118842215D01*
X73621971Y-118842213D01*
X73674732Y-118769590D01*
X73742287Y-118676610D01*
X73835220Y-118494219D01*
X73898477Y-118299534D01*
X73930500Y-118097352D01*
X73930500Y-117892648D01*
X73898477Y-117690466D01*
X73893300Y-117674534D01*
X73835218Y-117495776D01*
X73762139Y-117352352D01*
X73742287Y-117313390D01*
X73709054Y-117267648D01*
X73621971Y-117147786D01*
X73477213Y-117003028D01*
X73311614Y-116882715D01*
X73288182Y-116870776D01*
X73218917Y-116835483D01*
X73168123Y-116787511D01*
X73151328Y-116719690D01*
X73173865Y-116653555D01*
X73218917Y-116614516D01*
X73311610Y-116567287D01*
X73372868Y-116522781D01*
X73477213Y-116446971D01*
X73477215Y-116446968D01*
X73477219Y-116446966D01*
X73621966Y-116302219D01*
X73621968Y-116302215D01*
X73621971Y-116302213D01*
X73710105Y-116180905D01*
X73742287Y-116136610D01*
X73835220Y-115954219D01*
X73898477Y-115759534D01*
X73930500Y-115557352D01*
X73930500Y-115352648D01*
X73898477Y-115150466D01*
X73835220Y-114955781D01*
X73835218Y-114955778D01*
X73835218Y-114955776D01*
X73801503Y-114889607D01*
X73742287Y-114773390D01*
X73734556Y-114762749D01*
X73621971Y-114607786D01*
X73477217Y-114463032D01*
X73400415Y-114407232D01*
X73357750Y-114351902D01*
X73351771Y-114282288D01*
X73384377Y-114220494D01*
X73442640Y-114186765D01*
X73463039Y-114181559D01*
X73519584Y-114158136D01*
X73519584Y-114158135D01*
X72759410Y-113397962D01*
X72822993Y-113380925D01*
X72937007Y-113315099D01*
X73030099Y-113222007D01*
X73095925Y-113107993D01*
X73112962Y-113044410D01*
X73873135Y-113804584D01*
X73873136Y-113804584D01*
X73896552Y-113748053D01*
X73914544Y-113697053D01*
X73934999Y-113554780D01*
X73935000Y-113554779D01*
X73935000Y-112275214D01*
X73932106Y-112221237D01*
X73932106Y-112221235D01*
X73896561Y-112081969D01*
X73896559Y-112081962D01*
X73873135Y-112025414D01*
X73112962Y-112785588D01*
X73095925Y-112722007D01*
X73030099Y-112607993D01*
X72937007Y-112514901D01*
X72822993Y-112449075D01*
X72759410Y-112432037D01*
X73519584Y-111671862D01*
X73463059Y-111648449D01*
X73463048Y-111648445D01*
X73434374Y-111638329D01*
X73377703Y-111597462D01*
X73352122Y-111532443D01*
X73365754Y-111463916D01*
X73402745Y-111421074D01*
X73477215Y-111366969D01*
X73477215Y-111366968D01*
X73477219Y-111366966D01*
X73621966Y-111222219D01*
X73621968Y-111222215D01*
X73621971Y-111222213D01*
X73683052Y-111138141D01*
X73742287Y-111056610D01*
X73835220Y-110874219D01*
X73898477Y-110679534D01*
X73930500Y-110477352D01*
X73930500Y-110272648D01*
X73923874Y-110230815D01*
X73898477Y-110070465D01*
X73835218Y-109875776D01*
X73801503Y-109809607D01*
X73742287Y-109693390D01*
X73709049Y-109647641D01*
X73621971Y-109527786D01*
X73477213Y-109383028D01*
X73311614Y-109262715D01*
X73277910Y-109245542D01*
X73218917Y-109215483D01*
X73168123Y-109167511D01*
X73151328Y-109099690D01*
X73173865Y-109033555D01*
X73218917Y-108994516D01*
X73311610Y-108947287D01*
X73450183Y-108846609D01*
X73477213Y-108826971D01*
X73477215Y-108826968D01*
X73477219Y-108826966D01*
X73621966Y-108682219D01*
X73621968Y-108682215D01*
X73621971Y-108682213D01*
X73674732Y-108609590D01*
X73742287Y-108516610D01*
X73835220Y-108334219D01*
X73898477Y-108139534D01*
X73930500Y-107937352D01*
X73930500Y-107732648D01*
X73898477Y-107530466D01*
X73835220Y-107335781D01*
X73835218Y-107335778D01*
X73835218Y-107335776D01*
X73779565Y-107226552D01*
X73742287Y-107153390D01*
X73684971Y-107074500D01*
X73621971Y-106987786D01*
X73477213Y-106843028D01*
X73311614Y-106722715D01*
X73270703Y-106701870D01*
X73218917Y-106675483D01*
X73168123Y-106627511D01*
X73151328Y-106559690D01*
X73173865Y-106493555D01*
X73218917Y-106454516D01*
X73311610Y-106407287D01*
X73368849Y-106365701D01*
X73477213Y-106286971D01*
X73477215Y-106286968D01*
X73477219Y-106286966D01*
X73621966Y-106142219D01*
X73621968Y-106142215D01*
X73621971Y-106142213D01*
X73696714Y-106039336D01*
X73742287Y-105976610D01*
X73835220Y-105794219D01*
X73898477Y-105599534D01*
X73930500Y-105397352D01*
X73930500Y-105192648D01*
X73898477Y-104990466D01*
X73876718Y-104923500D01*
X73842824Y-104819185D01*
X73835220Y-104795781D01*
X73835218Y-104795778D01*
X73835218Y-104795776D01*
X73801503Y-104729607D01*
X73742287Y-104613390D01*
X73732559Y-104600000D01*
X73621971Y-104447786D01*
X73477213Y-104303028D01*
X73311614Y-104182715D01*
X73268715Y-104160857D01*
X73218917Y-104135483D01*
X73168123Y-104087511D01*
X73151328Y-104019690D01*
X73173865Y-103953555D01*
X73218917Y-103914516D01*
X73311610Y-103867287D01*
X73362541Y-103830284D01*
X73477213Y-103746971D01*
X73477215Y-103746968D01*
X73477219Y-103746966D01*
X73621966Y-103602219D01*
X73621968Y-103602215D01*
X73621971Y-103602213D01*
X73674732Y-103529590D01*
X73742287Y-103436610D01*
X73835220Y-103254219D01*
X73898477Y-103059534D01*
X73930500Y-102857352D01*
X73930500Y-102652648D01*
X73917422Y-102570080D01*
X73898477Y-102450465D01*
X73866586Y-102352317D01*
X73835220Y-102255781D01*
X73835218Y-102255778D01*
X73835218Y-102255776D01*
X73806345Y-102199111D01*
X73805442Y-102197339D01*
X73780141Y-102147682D01*
X77700000Y-102147682D01*
X77700000Y-102352317D01*
X77732009Y-102554417D01*
X77795244Y-102749031D01*
X77888141Y-102931350D01*
X77888147Y-102931359D01*
X77920523Y-102975921D01*
X77920524Y-102975922D01*
X78600000Y-102296446D01*
X78600000Y-102302661D01*
X78627259Y-102404394D01*
X78679920Y-102495606D01*
X78754394Y-102570080D01*
X78845606Y-102622741D01*
X78947339Y-102650000D01*
X78953553Y-102650000D01*
X78274076Y-103329474D01*
X78318650Y-103361859D01*
X78500968Y-103454755D01*
X78695582Y-103517990D01*
X78897683Y-103550000D01*
X79102317Y-103550000D01*
X79304417Y-103517990D01*
X79499031Y-103454755D01*
X79681349Y-103361859D01*
X79725921Y-103329474D01*
X79046447Y-102650000D01*
X79052661Y-102650000D01*
X79154394Y-102622741D01*
X79245606Y-102570080D01*
X79320080Y-102495606D01*
X79372741Y-102404394D01*
X79400000Y-102302661D01*
X79400000Y-102296447D01*
X80079474Y-102975921D01*
X80111859Y-102931349D01*
X80204755Y-102749031D01*
X80267990Y-102554417D01*
X80300000Y-102352317D01*
X80300000Y-102147682D01*
X80267990Y-101945582D01*
X80204755Y-101750968D01*
X80111859Y-101568650D01*
X80079474Y-101524077D01*
X80079474Y-101524076D01*
X79400000Y-102203551D01*
X79400000Y-102197339D01*
X79372741Y-102095606D01*
X79320080Y-102004394D01*
X79245606Y-101929920D01*
X79154394Y-101877259D01*
X79052661Y-101850000D01*
X79046446Y-101850000D01*
X79725922Y-101170524D01*
X79725921Y-101170523D01*
X79681359Y-101138147D01*
X79681350Y-101138141D01*
X79499031Y-101045244D01*
X79304417Y-100982009D01*
X79102317Y-100950000D01*
X78897683Y-100950000D01*
X78695582Y-100982009D01*
X78500968Y-101045244D01*
X78318644Y-101138143D01*
X78274077Y-101170523D01*
X78274077Y-101170524D01*
X78953554Y-101850000D01*
X78947339Y-101850000D01*
X78845606Y-101877259D01*
X78754394Y-101929920D01*
X78679920Y-102004394D01*
X78627259Y-102095606D01*
X78600000Y-102197339D01*
X78600000Y-102203553D01*
X77920524Y-101524077D01*
X77920523Y-101524077D01*
X77888143Y-101568644D01*
X77795244Y-101750968D01*
X77732009Y-101945582D01*
X77700000Y-102147682D01*
X73780141Y-102147682D01*
X73742287Y-102073390D01*
X73742285Y-102073387D01*
X73742284Y-102073385D01*
X73621971Y-101907786D01*
X73477217Y-101763032D01*
X73400415Y-101707232D01*
X73357750Y-101651902D01*
X73351771Y-101582288D01*
X73384377Y-101520494D01*
X73442640Y-101486765D01*
X73463039Y-101481559D01*
X73519584Y-101458136D01*
X73519584Y-101458135D01*
X72759410Y-100697962D01*
X72822993Y-100680925D01*
X72937007Y-100615099D01*
X73030099Y-100522007D01*
X73095925Y-100407993D01*
X73112962Y-100344411D01*
X73873135Y-101104584D01*
X73873136Y-101104584D01*
X73896552Y-101048053D01*
X73914544Y-100997053D01*
X73934999Y-100854780D01*
X73935000Y-100854779D01*
X73935000Y-99575938D01*
X73930636Y-99508508D01*
X73937155Y-99479484D01*
X73941128Y-99449996D01*
X73944731Y-99445761D01*
X73945950Y-99440338D01*
X73967128Y-99419443D01*
X73986411Y-99396786D01*
X73991730Y-99395172D01*
X73995688Y-99391268D01*
X74024801Y-99385141D01*
X74053272Y-99376505D01*
X74054377Y-99376500D01*
X75697331Y-99376500D01*
X75697347Y-99376501D01*
X75704943Y-99376501D01*
X75863054Y-99376501D01*
X75863057Y-99376501D01*
X76015785Y-99335577D01*
X76080636Y-99298135D01*
X76152716Y-99256520D01*
X76264520Y-99144716D01*
X76264520Y-99144714D01*
X76274724Y-99134511D01*
X76274728Y-99134506D01*
X78055158Y-97354075D01*
X78116479Y-97320592D01*
X78181151Y-97323825D01*
X78195466Y-97328477D01*
X78397648Y-97360500D01*
X78397649Y-97360500D01*
X78602351Y-97360500D01*
X78602352Y-97360500D01*
X78804534Y-97328477D01*
X78999219Y-97265220D01*
X79181610Y-97172287D01*
X79274590Y-97104732D01*
X79347213Y-97051971D01*
X79347215Y-97051968D01*
X79347219Y-97051966D01*
X79491966Y-96907219D01*
X79491968Y-96907215D01*
X79491971Y-96907213D01*
X79612284Y-96741614D01*
X79612283Y-96741614D01*
X79612287Y-96741610D01*
X79619117Y-96728204D01*
X79667091Y-96677409D01*
X79729602Y-96660500D01*
X82853331Y-96660500D01*
X82853347Y-96660501D01*
X82860943Y-96660501D01*
X83019054Y-96660501D01*
X83019057Y-96660501D01*
X83171785Y-96619577D01*
X83231100Y-96585331D01*
X83308716Y-96540520D01*
X83420520Y-96428716D01*
X83420520Y-96428714D01*
X83430724Y-96418511D01*
X83430728Y-96418506D01*
X88608506Y-91240728D01*
X88608511Y-91240724D01*
X88618714Y-91230520D01*
X88618716Y-91230520D01*
X88730520Y-91118716D01*
X88772637Y-91045767D01*
X88789216Y-91017052D01*
X88789217Y-91017050D01*
X88809574Y-90981790D01*
X88809575Y-90981789D01*
X88809575Y-90981787D01*
X88809577Y-90981785D01*
X88850501Y-90829057D01*
X88850501Y-90670943D01*
X88850501Y-90663348D01*
X88850500Y-90663330D01*
X88850500Y-86430945D01*
X88850498Y-86430936D01*
X88845797Y-86413389D01*
X88809577Y-86278215D01*
X88769904Y-86209500D01*
X88730520Y-86141284D01*
X88618716Y-86029480D01*
X88614385Y-86025149D01*
X88614374Y-86025139D01*
X86276818Y-83687583D01*
X86243333Y-83626260D01*
X86240499Y-83599902D01*
X86240499Y-82399998D01*
X86240498Y-82399981D01*
X86229999Y-82297203D01*
X86229998Y-82297200D01*
X86174814Y-82130666D01*
X86134061Y-82064595D01*
X86115622Y-81997204D01*
X86136545Y-81930541D01*
X86190187Y-81885771D01*
X86239601Y-81875500D01*
X89053695Y-81875500D01*
X89120734Y-81895185D01*
X89166489Y-81947989D01*
X89176433Y-82017147D01*
X89171626Y-82037819D01*
X89141522Y-82130465D01*
X89109500Y-82332648D01*
X89109500Y-82537351D01*
X89141522Y-82739534D01*
X89204781Y-82934223D01*
X89297715Y-83116613D01*
X89418028Y-83282213D01*
X89562786Y-83426971D01*
X89689914Y-83519333D01*
X89728390Y-83547287D01*
X89819840Y-83593883D01*
X89821080Y-83594515D01*
X89871876Y-83642490D01*
X89888671Y-83710311D01*
X89866134Y-83776446D01*
X89821080Y-83815485D01*
X89728386Y-83862715D01*
X89562786Y-83983028D01*
X89418028Y-84127786D01*
X89297715Y-84293386D01*
X89204781Y-84475776D01*
X89141522Y-84670465D01*
X89109500Y-84872648D01*
X89109500Y-85077351D01*
X89141522Y-85279534D01*
X89204781Y-85474223D01*
X89297715Y-85656613D01*
X89418028Y-85822213D01*
X89562782Y-85966967D01*
X89562787Y-85966971D01*
X89639063Y-86022389D01*
X89681729Y-86077719D01*
X89687708Y-86147332D01*
X89655102Y-86209127D01*
X89596845Y-86242855D01*
X89576776Y-86247977D01*
X89576766Y-86247980D01*
X89503280Y-86278419D01*
X89503252Y-86278431D01*
X89454451Y-86301779D01*
X89454446Y-86301782D01*
X89339268Y-86388005D01*
X89339256Y-86388015D01*
X89283019Y-86444252D01*
X89246843Y-86484524D01*
X89246837Y-86484532D01*
X89173426Y-86608263D01*
X89142978Y-86681774D01*
X89142970Y-86681795D01*
X89124976Y-86732800D01*
X89104500Y-86875219D01*
X89104500Y-88154784D01*
X89107395Y-88208814D01*
X89107396Y-88208818D01*
X89142976Y-88348221D01*
X89142980Y-88348233D01*
X89173419Y-88421719D01*
X89173431Y-88421747D01*
X89196779Y-88470548D01*
X89196782Y-88470553D01*
X89214213Y-88493837D01*
X89283006Y-88585733D01*
X89283010Y-88585737D01*
X89283015Y-88585743D01*
X89339252Y-88641980D01*
X89339261Y-88641988D01*
X89339267Y-88641994D01*
X89379524Y-88678156D01*
X89379532Y-88678162D01*
X89503263Y-88751573D01*
X89503262Y-88751573D01*
X89510329Y-88754500D01*
X89576774Y-88782022D01*
X89592645Y-88787621D01*
X89605133Y-88792027D01*
X89661805Y-88832894D01*
X89687386Y-88897912D01*
X89673754Y-88966439D01*
X89636765Y-89009281D01*
X89562782Y-89063032D01*
X89418028Y-89207786D01*
X89297715Y-89373386D01*
X89204781Y-89555776D01*
X89141522Y-89750465D01*
X89109500Y-89952648D01*
X89109500Y-90157351D01*
X89141522Y-90359534D01*
X89204781Y-90554223D01*
X89297715Y-90736613D01*
X89418028Y-90902213D01*
X89562786Y-91046971D01*
X89668299Y-91123629D01*
X89728390Y-91167287D01*
X89819840Y-91213883D01*
X89821080Y-91214515D01*
X89871876Y-91262490D01*
X89888671Y-91330311D01*
X89866134Y-91396446D01*
X89821080Y-91435485D01*
X89728386Y-91482715D01*
X89562786Y-91603028D01*
X89418028Y-91747786D01*
X89297715Y-91913386D01*
X89204781Y-92095776D01*
X89141522Y-92290465D01*
X89109500Y-92492648D01*
X89109500Y-92697351D01*
X89141522Y-92899534D01*
X89204781Y-93094223D01*
X89258423Y-93199500D01*
X89297712Y-93276609D01*
X89297715Y-93276613D01*
X89418028Y-93442213D01*
X89562786Y-93586971D01*
X89689720Y-93679192D01*
X89728390Y-93707287D01*
X89798459Y-93742989D01*
X89821080Y-93754515D01*
X89871876Y-93802490D01*
X89888671Y-93870311D01*
X89866134Y-93936446D01*
X89821080Y-93975485D01*
X89728386Y-94022715D01*
X89562786Y-94143028D01*
X89418028Y-94287786D01*
X89297715Y-94453386D01*
X89204781Y-94635776D01*
X89141522Y-94830465D01*
X89109500Y-95032648D01*
X89109500Y-95237351D01*
X89141522Y-95439534D01*
X89204781Y-95634223D01*
X89266566Y-95755480D01*
X89293320Y-95807989D01*
X89297715Y-95816613D01*
X89418028Y-95982213D01*
X89562786Y-96126971D01*
X89683116Y-96214394D01*
X89728390Y-96247287D01*
X89813016Y-96290406D01*
X89821080Y-96294515D01*
X89871876Y-96342490D01*
X89888671Y-96410311D01*
X89866134Y-96476446D01*
X89821080Y-96515485D01*
X89728386Y-96562715D01*
X89562786Y-96683028D01*
X89418028Y-96827786D01*
X89297715Y-96993386D01*
X89204781Y-97175776D01*
X89141522Y-97370465D01*
X89109500Y-97572648D01*
X89109500Y-97777351D01*
X89141522Y-97979534D01*
X89204781Y-98174223D01*
X89259314Y-98281248D01*
X89292144Y-98345681D01*
X89297715Y-98356613D01*
X89418028Y-98522213D01*
X89562782Y-98666967D01*
X89562787Y-98666971D01*
X89639583Y-98722767D01*
X89682249Y-98778097D01*
X89688228Y-98847710D01*
X89655622Y-98909505D01*
X89597365Y-98943233D01*
X89576973Y-98948437D01*
X89576962Y-98948441D01*
X89520415Y-98971863D01*
X90280589Y-99732037D01*
X90217007Y-99749075D01*
X90102993Y-99814901D01*
X90009901Y-99907993D01*
X89944075Y-100022007D01*
X89927037Y-100085589D01*
X89166863Y-99325415D01*
X89166862Y-99325415D01*
X89143446Y-99381947D01*
X89143431Y-99381987D01*
X89125457Y-99432939D01*
X89125455Y-99432946D01*
X89105000Y-99575219D01*
X89105000Y-100854785D01*
X89107893Y-100908762D01*
X89107893Y-100908764D01*
X89143438Y-101048030D01*
X89143442Y-101048043D01*
X89166862Y-101104584D01*
X89927037Y-100344410D01*
X89944075Y-100407993D01*
X90009901Y-100522007D01*
X90102993Y-100615099D01*
X90217007Y-100680925D01*
X90280589Y-100697962D01*
X89520414Y-101458135D01*
X89576960Y-101481557D01*
X89576986Y-101481567D01*
X89605621Y-101491669D01*
X89662294Y-101532534D01*
X89687876Y-101597552D01*
X89674246Y-101666080D01*
X89637256Y-101708924D01*
X89562782Y-101763032D01*
X89418028Y-101907786D01*
X89297715Y-102073386D01*
X89204781Y-102255776D01*
X89141522Y-102450465D01*
X89120456Y-102583473D01*
X89109500Y-102652648D01*
X89109500Y-102857352D01*
X89113878Y-102884995D01*
X89141522Y-103059534D01*
X89204781Y-103254223D01*
X89243124Y-103329474D01*
X89294364Y-103430038D01*
X89297715Y-103436613D01*
X89418028Y-103602213D01*
X89562786Y-103746971D01*
X89677459Y-103830284D01*
X89728390Y-103867287D01*
X89819840Y-103913883D01*
X89821080Y-103914515D01*
X89871876Y-103962490D01*
X89888671Y-104030311D01*
X89866134Y-104096446D01*
X89821080Y-104135485D01*
X89728386Y-104182715D01*
X89562786Y-104303028D01*
X89418028Y-104447786D01*
X89297715Y-104613386D01*
X89204781Y-104795776D01*
X89141522Y-104990465D01*
X89109500Y-105192648D01*
X89109500Y-105397352D01*
X89112538Y-105416533D01*
X89141522Y-105599534D01*
X89204781Y-105794223D01*
X89297715Y-105976613D01*
X89418028Y-106142213D01*
X89562786Y-106286971D01*
X89671151Y-106365701D01*
X89728390Y-106407287D01*
X89819840Y-106453883D01*
X89821080Y-106454515D01*
X89871876Y-106502490D01*
X89888671Y-106570311D01*
X89866134Y-106636446D01*
X89821080Y-106675485D01*
X89728386Y-106722715D01*
X89562786Y-106843028D01*
X89418028Y-106987786D01*
X89297715Y-107153386D01*
X89204781Y-107335776D01*
X89141522Y-107530465D01*
X89109500Y-107732648D01*
X89109500Y-107937351D01*
X89141522Y-108139534D01*
X89204781Y-108334223D01*
X89297715Y-108516613D01*
X89418028Y-108682213D01*
X89562786Y-108826971D01*
X89717749Y-108939556D01*
X89728390Y-108947287D01*
X89819840Y-108993883D01*
X89821080Y-108994515D01*
X89871876Y-109042490D01*
X89888671Y-109110311D01*
X89866134Y-109176446D01*
X89821080Y-109215485D01*
X89728386Y-109262715D01*
X89562786Y-109383028D01*
X89418028Y-109527786D01*
X89297715Y-109693386D01*
X89204781Y-109875776D01*
X89141522Y-110070465D01*
X89109500Y-110272648D01*
X89109500Y-110477351D01*
X89141522Y-110679534D01*
X89204781Y-110874223D01*
X89259702Y-110982009D01*
X89279018Y-111019920D01*
X89297715Y-111056613D01*
X89418028Y-111222213D01*
X89562782Y-111366967D01*
X89562787Y-111366971D01*
X89639583Y-111422767D01*
X89682249Y-111478097D01*
X89688228Y-111547710D01*
X89655622Y-111609505D01*
X89597365Y-111643233D01*
X89576973Y-111648437D01*
X89576962Y-111648441D01*
X89520415Y-111671863D01*
X90280589Y-112432037D01*
X90217007Y-112449075D01*
X90102993Y-112514901D01*
X90009901Y-112607993D01*
X89944075Y-112722007D01*
X89927037Y-112785589D01*
X89166863Y-112025415D01*
X89166862Y-112025415D01*
X89143446Y-112081947D01*
X89143431Y-112081987D01*
X89125457Y-112132939D01*
X89125455Y-112132946D01*
X89105000Y-112275219D01*
X89105000Y-113554785D01*
X89107893Y-113608762D01*
X89107893Y-113608764D01*
X89143438Y-113748030D01*
X89143442Y-113748043D01*
X89166862Y-113804584D01*
X89927037Y-113044410D01*
X89944075Y-113107993D01*
X90009901Y-113222007D01*
X90102993Y-113315099D01*
X90217007Y-113380925D01*
X90280589Y-113397962D01*
X89520414Y-114158135D01*
X89576960Y-114181557D01*
X89576986Y-114181567D01*
X89605621Y-114191669D01*
X89662294Y-114232534D01*
X89687876Y-114297552D01*
X89674246Y-114366080D01*
X89637256Y-114408924D01*
X89562782Y-114463032D01*
X89418028Y-114607786D01*
X89297715Y-114773386D01*
X89204781Y-114955776D01*
X89141522Y-115150465D01*
X89109500Y-115352648D01*
X89109500Y-115557351D01*
X89141522Y-115759534D01*
X89204781Y-115954223D01*
X89297715Y-116136613D01*
X89418028Y-116302213D01*
X89562786Y-116446971D01*
X89667132Y-116522781D01*
X89728390Y-116567287D01*
X89819840Y-116613883D01*
X89821080Y-116614515D01*
X89871876Y-116662490D01*
X89888671Y-116730311D01*
X89866134Y-116796446D01*
X89821080Y-116835485D01*
X89728386Y-116882715D01*
X89562786Y-117003028D01*
X89418028Y-117147786D01*
X89297715Y-117313386D01*
X89204781Y-117495776D01*
X89141522Y-117690465D01*
X89109500Y-117892648D01*
X89109500Y-118097351D01*
X89141522Y-118299534D01*
X89204781Y-118494223D01*
X89297715Y-118676613D01*
X89418028Y-118842213D01*
X89562786Y-118986971D01*
X89717749Y-119099556D01*
X89728390Y-119107287D01*
X89844607Y-119166503D01*
X89910776Y-119200218D01*
X89910778Y-119200218D01*
X89910781Y-119200220D01*
X89978075Y-119222085D01*
X90105465Y-119263477D01*
X90168413Y-119273447D01*
X90307648Y-119295500D01*
X90307649Y-119295500D01*
X90512351Y-119295500D01*
X90512352Y-119295500D01*
X90714534Y-119263477D01*
X90909219Y-119200220D01*
X91091610Y-119107287D01*
X91184590Y-119039732D01*
X91257213Y-118986971D01*
X91257215Y-118986968D01*
X91257219Y-118986966D01*
X91401966Y-118842219D01*
X91401968Y-118842215D01*
X91401971Y-118842213D01*
X91454732Y-118769590D01*
X91522287Y-118676610D01*
X91615220Y-118494219D01*
X91678477Y-118299534D01*
X91710500Y-118097352D01*
X91710500Y-117892648D01*
X91678477Y-117690466D01*
X91673300Y-117674534D01*
X91615218Y-117495776D01*
X91542139Y-117352352D01*
X91522287Y-117313390D01*
X91489054Y-117267648D01*
X91401971Y-117147786D01*
X91257213Y-117003028D01*
X91091614Y-116882715D01*
X91068182Y-116870776D01*
X90998917Y-116835483D01*
X90948123Y-116787511D01*
X90931328Y-116719690D01*
X90953865Y-116653555D01*
X90998917Y-116614516D01*
X91091610Y-116567287D01*
X91152868Y-116522781D01*
X91257213Y-116446971D01*
X91257215Y-116446968D01*
X91257219Y-116446966D01*
X91401966Y-116302219D01*
X91401968Y-116302215D01*
X91401971Y-116302213D01*
X91490105Y-116180905D01*
X91522287Y-116136610D01*
X91615220Y-115954219D01*
X91678477Y-115759534D01*
X91710500Y-115557352D01*
X91710500Y-115352648D01*
X91678477Y-115150466D01*
X91615220Y-114955781D01*
X91615218Y-114955778D01*
X91615218Y-114955776D01*
X91581503Y-114889607D01*
X91522287Y-114773390D01*
X91514556Y-114762749D01*
X91401971Y-114607786D01*
X91257213Y-114463028D01*
X91091614Y-114342715D01*
X91083410Y-114338535D01*
X91005703Y-114298941D01*
X90954908Y-114250968D01*
X90938113Y-114183147D01*
X90960650Y-114117012D01*
X91003546Y-114079099D01*
X91069503Y-114043843D01*
X91069515Y-114043837D01*
X91138913Y-113997465D01*
X90539410Y-113397962D01*
X90602993Y-113380925D01*
X90717007Y-113315099D01*
X90810099Y-113222007D01*
X90875925Y-113107993D01*
X90892962Y-113044410D01*
X91492465Y-113643913D01*
X91538837Y-113574515D01*
X91538838Y-113574511D01*
X91585509Y-113487198D01*
X91645814Y-113341612D01*
X91674555Y-113246864D01*
X91705298Y-113092302D01*
X91705298Y-113092299D01*
X91715000Y-112993789D01*
X91715000Y-112836210D01*
X91705298Y-112737700D01*
X91705298Y-112737697D01*
X91674555Y-112583135D01*
X91645814Y-112488387D01*
X91585509Y-112342801D01*
X91538844Y-112255498D01*
X91538838Y-112255488D01*
X91492465Y-112186085D01*
X90892962Y-112785588D01*
X90875925Y-112722007D01*
X90810099Y-112607993D01*
X90717007Y-112514901D01*
X90602993Y-112449075D01*
X90539410Y-112432037D01*
X91138912Y-111832534D01*
X91069511Y-111786161D01*
X91069500Y-111786155D01*
X91003545Y-111750900D01*
X90953701Y-111701937D01*
X90938241Y-111633799D01*
X90962073Y-111568119D01*
X91005702Y-111531059D01*
X91091610Y-111487287D01*
X91182745Y-111421074D01*
X91257213Y-111366971D01*
X91257215Y-111366968D01*
X91257219Y-111366966D01*
X91401966Y-111222219D01*
X91401968Y-111222215D01*
X91401971Y-111222213D01*
X91463052Y-111138141D01*
X91522287Y-111056610D01*
X91615220Y-110874219D01*
X91678477Y-110679534D01*
X91710500Y-110477352D01*
X91710500Y-110272648D01*
X91703874Y-110230815D01*
X91678477Y-110070465D01*
X91615218Y-109875776D01*
X91581503Y-109809607D01*
X91522287Y-109693390D01*
X91489049Y-109647641D01*
X91401971Y-109527786D01*
X91257213Y-109383028D01*
X91091614Y-109262715D01*
X91057910Y-109245542D01*
X90998917Y-109215483D01*
X90948123Y-109167511D01*
X90931328Y-109099690D01*
X90953865Y-109033555D01*
X90998917Y-108994516D01*
X91091610Y-108947287D01*
X91230183Y-108846609D01*
X91257213Y-108826971D01*
X91257215Y-108826968D01*
X91257219Y-108826966D01*
X91401966Y-108682219D01*
X91401968Y-108682215D01*
X91401971Y-108682213D01*
X91454732Y-108609590D01*
X91522287Y-108516610D01*
X91615220Y-108334219D01*
X91678477Y-108139534D01*
X91710500Y-107937352D01*
X91710500Y-107732648D01*
X91678477Y-107530466D01*
X91615220Y-107335781D01*
X91615218Y-107335778D01*
X91615218Y-107335776D01*
X91559565Y-107226552D01*
X91522287Y-107153390D01*
X91464971Y-107074500D01*
X91401971Y-106987786D01*
X91257213Y-106843028D01*
X91091614Y-106722715D01*
X91050703Y-106701870D01*
X90998917Y-106675483D01*
X90948123Y-106627511D01*
X90931328Y-106559690D01*
X90953865Y-106493555D01*
X90998917Y-106454516D01*
X91091610Y-106407287D01*
X91148849Y-106365701D01*
X91257213Y-106286971D01*
X91257215Y-106286968D01*
X91257219Y-106286966D01*
X91401966Y-106142219D01*
X91401968Y-106142215D01*
X91401971Y-106142213D01*
X91476714Y-106039336D01*
X91522287Y-105976610D01*
X91615220Y-105794219D01*
X91678477Y-105599534D01*
X91710500Y-105397352D01*
X91710500Y-105192648D01*
X91678477Y-104990466D01*
X91656718Y-104923500D01*
X91622824Y-104819185D01*
X91615220Y-104795781D01*
X91615218Y-104795778D01*
X91615218Y-104795776D01*
X91581503Y-104729607D01*
X91522287Y-104613390D01*
X91512559Y-104600000D01*
X91401971Y-104447786D01*
X91257213Y-104303028D01*
X91091614Y-104182715D01*
X91048715Y-104160857D01*
X90998917Y-104135483D01*
X90948123Y-104087511D01*
X90931328Y-104019690D01*
X90953865Y-103953555D01*
X90998917Y-103914516D01*
X91091610Y-103867287D01*
X91142541Y-103830284D01*
X91257213Y-103746971D01*
X91257215Y-103746968D01*
X91257219Y-103746966D01*
X91401966Y-103602219D01*
X91401968Y-103602215D01*
X91401971Y-103602213D01*
X91454732Y-103529590D01*
X91522287Y-103436610D01*
X91615220Y-103254219D01*
X91678477Y-103059534D01*
X91710500Y-102857352D01*
X91710500Y-102652648D01*
X91697422Y-102570080D01*
X91678477Y-102450465D01*
X91646586Y-102352317D01*
X91615220Y-102255781D01*
X91615218Y-102255778D01*
X91615218Y-102255776D01*
X91569906Y-102166847D01*
X91522287Y-102073390D01*
X91514556Y-102062749D01*
X91401971Y-101907786D01*
X91257213Y-101763028D01*
X91091614Y-101642715D01*
X91083410Y-101638535D01*
X91005703Y-101598941D01*
X90954908Y-101550968D01*
X90938113Y-101483147D01*
X90960650Y-101417012D01*
X91003546Y-101379099D01*
X91069503Y-101343843D01*
X91069515Y-101343837D01*
X91138913Y-101297465D01*
X90539410Y-100697962D01*
X90602993Y-100680925D01*
X90717007Y-100615099D01*
X90810099Y-100522007D01*
X90875925Y-100407993D01*
X90892962Y-100344410D01*
X91492465Y-100943913D01*
X91538837Y-100874515D01*
X91538838Y-100874511D01*
X91585509Y-100787198D01*
X91645814Y-100641612D01*
X91674555Y-100546864D01*
X91705298Y-100392302D01*
X91705298Y-100392299D01*
X91715000Y-100293789D01*
X91715000Y-100136210D01*
X91705298Y-100037700D01*
X91705298Y-100037697D01*
X91674555Y-99883135D01*
X91645814Y-99788387D01*
X91585509Y-99642801D01*
X91538844Y-99555498D01*
X91538838Y-99555488D01*
X91492465Y-99486085D01*
X90892962Y-100085588D01*
X90875925Y-100022007D01*
X90810099Y-99907993D01*
X90717007Y-99814901D01*
X90602993Y-99749075D01*
X90539410Y-99732037D01*
X91138912Y-99132534D01*
X91069511Y-99086161D01*
X91069500Y-99086155D01*
X91003545Y-99050900D01*
X90953701Y-99001937D01*
X90938241Y-98933799D01*
X90962073Y-98868119D01*
X91005702Y-98831059D01*
X91091610Y-98787287D01*
X91141144Y-98751298D01*
X91257213Y-98666971D01*
X91257215Y-98666968D01*
X91257219Y-98666966D01*
X91401966Y-98522219D01*
X91401968Y-98522215D01*
X91401971Y-98522213D01*
X91478450Y-98416947D01*
X91522287Y-98356610D01*
X91615220Y-98174219D01*
X91678477Y-97979534D01*
X91710500Y-97777352D01*
X91710500Y-97572648D01*
X91678477Y-97370466D01*
X91675076Y-97360000D01*
X91615218Y-97175776D01*
X91581503Y-97109607D01*
X91522287Y-96993390D01*
X91487920Y-96946087D01*
X91401971Y-96827786D01*
X91257213Y-96683028D01*
X91091614Y-96562715D01*
X91084384Y-96559031D01*
X90998917Y-96515483D01*
X90948123Y-96467511D01*
X90931328Y-96399690D01*
X90953865Y-96333555D01*
X90998917Y-96294516D01*
X91091610Y-96247287D01*
X91180290Y-96182858D01*
X91257213Y-96126971D01*
X91257215Y-96126968D01*
X91257219Y-96126966D01*
X91401966Y-95982219D01*
X91401968Y-95982215D01*
X91401971Y-95982213D01*
X91477809Y-95877829D01*
X91522287Y-95816610D01*
X91615220Y-95634219D01*
X91678477Y-95439534D01*
X91710500Y-95237352D01*
X91710500Y-95032648D01*
X91678477Y-94830466D01*
X91665823Y-94791522D01*
X91630468Y-94682709D01*
X91615220Y-94635781D01*
X91615218Y-94635778D01*
X91615218Y-94635776D01*
X91568863Y-94544800D01*
X91522287Y-94453390D01*
X91514556Y-94442749D01*
X91401971Y-94287786D01*
X91257213Y-94143028D01*
X91091614Y-94022715D01*
X91085006Y-94019348D01*
X90998917Y-93975483D01*
X90948123Y-93927511D01*
X90931328Y-93859690D01*
X90953865Y-93793555D01*
X90998917Y-93754516D01*
X91091610Y-93707287D01*
X91130280Y-93679192D01*
X91257213Y-93586971D01*
X91257215Y-93586968D01*
X91257219Y-93586966D01*
X91401966Y-93442219D01*
X91401968Y-93442215D01*
X91401971Y-93442213D01*
X91512121Y-93290602D01*
X91522287Y-93276610D01*
X91615220Y-93094219D01*
X91678477Y-92899534D01*
X91710500Y-92697352D01*
X91710500Y-92492648D01*
X91678477Y-92290466D01*
X91615220Y-92095781D01*
X91615218Y-92095778D01*
X91615218Y-92095776D01*
X91581503Y-92029607D01*
X91522287Y-91913390D01*
X91478187Y-91852691D01*
X91401971Y-91747786D01*
X91257213Y-91603028D01*
X91091614Y-91482715D01*
X91085006Y-91479348D01*
X90998917Y-91435483D01*
X90948123Y-91387511D01*
X90931328Y-91319690D01*
X90953865Y-91253555D01*
X90998917Y-91214516D01*
X91091610Y-91167287D01*
X91151701Y-91123629D01*
X91257213Y-91046971D01*
X91257215Y-91046968D01*
X91257219Y-91046966D01*
X91401966Y-90902219D01*
X91401968Y-90902215D01*
X91401971Y-90902213D01*
X91455123Y-90829054D01*
X91522287Y-90736610D01*
X91615220Y-90554219D01*
X91678477Y-90359534D01*
X91710500Y-90157352D01*
X91710500Y-89952648D01*
X91678477Y-89750466D01*
X91615220Y-89555781D01*
X91615218Y-89555778D01*
X91615218Y-89555776D01*
X91562447Y-89452209D01*
X91522287Y-89373390D01*
X91459681Y-89287219D01*
X91401971Y-89207786D01*
X91257213Y-89063028D01*
X91091613Y-88942715D01*
X91091612Y-88942714D01*
X91091610Y-88942713D01*
X91038947Y-88915880D01*
X91006245Y-88899217D01*
X90955449Y-88851242D01*
X90938654Y-88783421D01*
X90961192Y-88717286D01*
X91004083Y-88679376D01*
X91069783Y-88644259D01*
X91200811Y-88556709D01*
X91277412Y-88493843D01*
X91388843Y-88382412D01*
X91451709Y-88305811D01*
X91539259Y-88174783D01*
X91585972Y-88087389D01*
X91646278Y-87941798D01*
X91675044Y-87846968D01*
X91705787Y-87692410D01*
X91715500Y-87593793D01*
X91715500Y-87436207D01*
X91705787Y-87337590D01*
X91675044Y-87183032D01*
X91646278Y-87088202D01*
X91585972Y-86942611D01*
X91583451Y-86937895D01*
X91539265Y-86855228D01*
X91539263Y-86855226D01*
X91539259Y-86855217D01*
X91539248Y-86855200D01*
X91451721Y-86724206D01*
X91451712Y-86724194D01*
X91451709Y-86724189D01*
X91388843Y-86647588D01*
X91277412Y-86536157D01*
X91200811Y-86473291D01*
X91200804Y-86473286D01*
X91200793Y-86473278D01*
X91069799Y-86385751D01*
X91069788Y-86385744D01*
X91069783Y-86385741D01*
X91047645Y-86373908D01*
X91004086Y-86350625D01*
X90954242Y-86301662D01*
X90938782Y-86233524D01*
X90962614Y-86167845D01*
X91006246Y-86130782D01*
X91091610Y-86087287D01*
X91171178Y-86029478D01*
X91257213Y-85966971D01*
X91257215Y-85966968D01*
X91257219Y-85966966D01*
X91401966Y-85822219D01*
X91401968Y-85822215D01*
X91401971Y-85822213D01*
X91457144Y-85746273D01*
X91522287Y-85656610D01*
X91615220Y-85474219D01*
X91678477Y-85279534D01*
X91710500Y-85077352D01*
X91710500Y-84872648D01*
X91678477Y-84670466D01*
X91615220Y-84475781D01*
X91615218Y-84475778D01*
X91615218Y-84475776D01*
X91581503Y-84409607D01*
X91522287Y-84293390D01*
X91504653Y-84269118D01*
X91401971Y-84127786D01*
X91257213Y-83983028D01*
X91091614Y-83862715D01*
X91085006Y-83859348D01*
X90998917Y-83815483D01*
X90948123Y-83767511D01*
X90931328Y-83699690D01*
X90953865Y-83633555D01*
X90998917Y-83594516D01*
X91091610Y-83547287D01*
X91184060Y-83480119D01*
X91257213Y-83426971D01*
X91257215Y-83426968D01*
X91257219Y-83426966D01*
X91401966Y-83282219D01*
X91401968Y-83282215D01*
X91401971Y-83282213D01*
X91469624Y-83189095D01*
X91522287Y-83116610D01*
X91615220Y-82934219D01*
X91678477Y-82739534D01*
X91710500Y-82537352D01*
X91710500Y-82332648D01*
X91704886Y-82297203D01*
X91678477Y-82130465D01*
X91636095Y-82000027D01*
X91615220Y-81935781D01*
X91615218Y-81935778D01*
X91615218Y-81935776D01*
X91572258Y-81851463D01*
X91522287Y-81753390D01*
X91505930Y-81730876D01*
X91401971Y-81587786D01*
X91257213Y-81443028D01*
X91091614Y-81322715D01*
X91067627Y-81310493D01*
X90998917Y-81275483D01*
X90948123Y-81227511D01*
X90931328Y-81159690D01*
X90953865Y-81093555D01*
X90998917Y-81054516D01*
X91091610Y-81007287D01*
X91112770Y-80991913D01*
X91257213Y-80886971D01*
X91257215Y-80886968D01*
X91257219Y-80886966D01*
X91401966Y-80742219D01*
X91401968Y-80742215D01*
X91401971Y-80742213D01*
X91478761Y-80636519D01*
X91522287Y-80576610D01*
X91615220Y-80394219D01*
X91678477Y-80199534D01*
X91710500Y-79997352D01*
X91710500Y-79792648D01*
X91678477Y-79590466D01*
X91615220Y-79395781D01*
X91615218Y-79395778D01*
X91615218Y-79395776D01*
X91579902Y-79326465D01*
X91522287Y-79213390D01*
X91514556Y-79202749D01*
X91401971Y-79047786D01*
X91257213Y-78903028D01*
X91091614Y-78782715D01*
X91060852Y-78767041D01*
X90998917Y-78735483D01*
X90948123Y-78687511D01*
X90931328Y-78619690D01*
X90953865Y-78553555D01*
X90998917Y-78514516D01*
X91091610Y-78467287D01*
X91135092Y-78435696D01*
X91257213Y-78346971D01*
X91257215Y-78346968D01*
X91257219Y-78346966D01*
X91401966Y-78202219D01*
X91401968Y-78202215D01*
X91401971Y-78202213D01*
X91502982Y-78063181D01*
X91522287Y-78036610D01*
X91615220Y-77854219D01*
X91678477Y-77659534D01*
X91710500Y-77457352D01*
X91710500Y-77252648D01*
X91683708Y-77083495D01*
X91678477Y-77050465D01*
X91620791Y-76872927D01*
X91615220Y-76855781D01*
X91615218Y-76855778D01*
X91615218Y-76855776D01*
X91559990Y-76747387D01*
X91522287Y-76673390D01*
X91504222Y-76648525D01*
X91401971Y-76507786D01*
X91257213Y-76363028D01*
X91091614Y-76242715D01*
X91083410Y-76238535D01*
X91005703Y-76198941D01*
X90954908Y-76150968D01*
X90938113Y-76083147D01*
X90960650Y-76017012D01*
X91003546Y-75979099D01*
X91069503Y-75943843D01*
X91069515Y-75943837D01*
X91138913Y-75897465D01*
X90539410Y-75297962D01*
X90602993Y-75280925D01*
X90717007Y-75215099D01*
X90810099Y-75122007D01*
X90875925Y-75007993D01*
X90892962Y-74944410D01*
X91492465Y-75543913D01*
X91538837Y-75474515D01*
X91538838Y-75474511D01*
X91585509Y-75387198D01*
X91645814Y-75241612D01*
X91674555Y-75146864D01*
X91705298Y-74992302D01*
X91705298Y-74992299D01*
X91715000Y-74893789D01*
X91715000Y-74736210D01*
X91705298Y-74637700D01*
X91705298Y-74637697D01*
X91674555Y-74483135D01*
X91645814Y-74388387D01*
X91585509Y-74242801D01*
X91538844Y-74155498D01*
X91538838Y-74155488D01*
X91492465Y-74086085D01*
X90892962Y-74685588D01*
X90875925Y-74622007D01*
X90810099Y-74507993D01*
X90717007Y-74414901D01*
X90602993Y-74349075D01*
X90539410Y-74332037D01*
X91138912Y-73732534D01*
X91069511Y-73686161D01*
X91069500Y-73686155D01*
X91003545Y-73650900D01*
X90953701Y-73601937D01*
X90938241Y-73533799D01*
X90962073Y-73468119D01*
X91005702Y-73431059D01*
X91091610Y-73387287D01*
X91182745Y-73321074D01*
X91257213Y-73266971D01*
X91257215Y-73266968D01*
X91257219Y-73266966D01*
X91401966Y-73122219D01*
X91401968Y-73122215D01*
X91401971Y-73122213D01*
X91501260Y-72985551D01*
X91522287Y-72956610D01*
X91615220Y-72774219D01*
X91678477Y-72579534D01*
X91710500Y-72377352D01*
X91710500Y-72172648D01*
X91678477Y-71970466D01*
X91666712Y-71934258D01*
X91621296Y-71794482D01*
X91615220Y-71775781D01*
X91615218Y-71775778D01*
X91615218Y-71775776D01*
X91581503Y-71709607D01*
X91522287Y-71593390D01*
X91514556Y-71582749D01*
X91401971Y-71427786D01*
X91257213Y-71283028D01*
X91091614Y-71162715D01*
X91085006Y-71159348D01*
X90998917Y-71115483D01*
X90948123Y-71067511D01*
X90931328Y-70999690D01*
X90953865Y-70933555D01*
X90998917Y-70894516D01*
X91091610Y-70847287D01*
X91197733Y-70770185D01*
X91257213Y-70726971D01*
X91257215Y-70726968D01*
X91257219Y-70726966D01*
X91401966Y-70582219D01*
X91401968Y-70582215D01*
X91401971Y-70582213D01*
X91489170Y-70462192D01*
X91522287Y-70416610D01*
X91615220Y-70234219D01*
X91678477Y-70039534D01*
X91710500Y-69837352D01*
X91710500Y-69632648D01*
X91678477Y-69430466D01*
X91615220Y-69235781D01*
X91615218Y-69235778D01*
X91615218Y-69235776D01*
X91556914Y-69121350D01*
X91522287Y-69053390D01*
X91505657Y-69030500D01*
X91401971Y-68887786D01*
X91257213Y-68743028D01*
X91091613Y-68622715D01*
X91091612Y-68622714D01*
X91091610Y-68622713D01*
X91034653Y-68593691D01*
X90909223Y-68529781D01*
X90714534Y-68466522D01*
X90539995Y-68438878D01*
X90512352Y-68434500D01*
X90307648Y-68434500D01*
X90283329Y-68438351D01*
X90105465Y-68466522D01*
X89910776Y-68529781D01*
X89728386Y-68622715D01*
X89562786Y-68743028D01*
X89418028Y-68887786D01*
X89297715Y-69053386D01*
X89204781Y-69235776D01*
X89141522Y-69430465D01*
X89109500Y-69632648D01*
X89109500Y-69755191D01*
X89089815Y-69822230D01*
X89037011Y-69867985D01*
X88967853Y-69877929D01*
X88904297Y-69848904D01*
X88897819Y-69842872D01*
X86929673Y-67874726D01*
X86929669Y-67874723D01*
X86823127Y-67803535D01*
X86704744Y-67754499D01*
X86704738Y-67754497D01*
X86660094Y-67745617D01*
X86598183Y-67713232D01*
X86563609Y-67652516D01*
X86567349Y-67582746D01*
X86608216Y-67526075D01*
X86673234Y-67500493D01*
X86684286Y-67500000D01*
X93626000Y-67500000D01*
X93693039Y-67519685D01*
G37*
%TD.AperFunction*%
%TA.AperFunction,Conductor*%
G36*
X63330791Y-110868605D02*
G01*
X63416061Y-110912053D01*
X63500776Y-110955218D01*
X63500778Y-110955218D01*
X63500781Y-110955220D01*
X63583229Y-110982009D01*
X63695465Y-111018477D01*
X63723555Y-111022926D01*
X63897648Y-111050500D01*
X63897649Y-111050500D01*
X64102351Y-111050500D01*
X64102352Y-111050500D01*
X64304534Y-111018477D01*
X64318842Y-111013827D01*
X64334054Y-111013392D01*
X64348315Y-111008074D01*
X64368268Y-111012414D01*
X64388682Y-111011831D01*
X64402769Y-111019920D01*
X64416588Y-111022926D01*
X64444842Y-111044077D01*
X64616139Y-111215374D01*
X64616149Y-111215385D01*
X64620479Y-111219715D01*
X64620480Y-111219716D01*
X64732284Y-111331520D01*
X64793680Y-111366966D01*
X64819095Y-111381639D01*
X64819097Y-111381641D01*
X64857151Y-111403611D01*
X64869215Y-111410577D01*
X65021943Y-111451500D01*
X71858843Y-111451500D01*
X71873575Y-111455309D01*
X71885963Y-111454502D01*
X71906715Y-111463879D01*
X71918954Y-111467044D01*
X71925589Y-111470721D01*
X71948390Y-111487287D01*
X72036237Y-111532047D01*
X72038111Y-111533086D01*
X72061203Y-111556471D01*
X72085090Y-111579031D01*
X72085628Y-111581206D01*
X72087204Y-111582802D01*
X72093988Y-111614960D01*
X72101886Y-111646852D01*
X72101163Y-111648973D01*
X72101626Y-111651167D01*
X72089947Y-111681885D01*
X72079349Y-111712987D01*
X72077503Y-111714618D01*
X72076797Y-111716476D01*
X72068293Y-111722758D01*
X72036455Y-111750899D01*
X71970497Y-111786155D01*
X71901086Y-111832534D01*
X71901085Y-111832534D01*
X72500589Y-112432037D01*
X72437007Y-112449075D01*
X72322993Y-112514901D01*
X72229901Y-112607993D01*
X72164075Y-112722007D01*
X72147037Y-112785588D01*
X71547534Y-112186085D01*
X71547534Y-112186086D01*
X71501158Y-112255493D01*
X71454490Y-112342801D01*
X71394185Y-112488387D01*
X71365444Y-112583135D01*
X71334701Y-112737697D01*
X71334701Y-112737700D01*
X71325000Y-112836210D01*
X71325000Y-112993789D01*
X71334701Y-113092299D01*
X71334701Y-113092302D01*
X71365444Y-113246864D01*
X71394185Y-113341612D01*
X71454490Y-113487198D01*
X71501155Y-113574501D01*
X71501161Y-113574511D01*
X71547534Y-113643912D01*
X72147037Y-113044410D01*
X72164075Y-113107993D01*
X72229901Y-113222007D01*
X72322993Y-113315099D01*
X72437007Y-113380925D01*
X72500589Y-113397962D01*
X71901085Y-113997465D01*
X71970488Y-114043838D01*
X71970498Y-114043844D01*
X72036454Y-114079099D01*
X72086298Y-114128062D01*
X72101758Y-114196200D01*
X72077926Y-114261879D01*
X72034295Y-114298942D01*
X71948386Y-114342715D01*
X71782786Y-114463028D01*
X71638028Y-114607786D01*
X71517715Y-114773386D01*
X71424781Y-114955776D01*
X71361522Y-115150465D01*
X71329500Y-115352648D01*
X71329500Y-115557351D01*
X71361522Y-115759534D01*
X71424781Y-115954223D01*
X71517715Y-116136613D01*
X71638028Y-116302213D01*
X71782786Y-116446971D01*
X71887132Y-116522781D01*
X71948390Y-116567287D01*
X72039840Y-116613883D01*
X72041080Y-116614515D01*
X72091876Y-116662490D01*
X72108671Y-116730311D01*
X72086134Y-116796446D01*
X72041080Y-116835485D01*
X71948386Y-116882715D01*
X71782786Y-117003028D01*
X71638028Y-117147786D01*
X71517715Y-117313386D01*
X71424781Y-117495776D01*
X71361522Y-117690465D01*
X71329500Y-117892648D01*
X71329500Y-118097351D01*
X71361522Y-118299534D01*
X71424781Y-118494223D01*
X71517715Y-118676613D01*
X71638028Y-118842213D01*
X71782786Y-118986971D01*
X71937749Y-119099556D01*
X71948390Y-119107287D01*
X72130781Y-119200220D01*
X72153401Y-119207569D01*
X72211075Y-119247007D01*
X72238273Y-119311366D01*
X72226358Y-119380212D01*
X72179113Y-119431688D01*
X72115081Y-119449500D01*
X67002129Y-119449500D01*
X67002123Y-119449501D01*
X66942516Y-119455908D01*
X66807671Y-119506202D01*
X66807664Y-119506206D01*
X66692455Y-119592452D01*
X66692452Y-119592455D01*
X66606206Y-119707664D01*
X66606202Y-119707671D01*
X66555908Y-119842517D01*
X66549501Y-119902116D01*
X66549501Y-119902123D01*
X66549500Y-119902135D01*
X66549500Y-120575500D01*
X66529815Y-120642539D01*
X66477011Y-120688294D01*
X66425500Y-120699500D01*
X66421155Y-120699500D01*
X66266510Y-120730261D01*
X66266498Y-120730264D01*
X66120827Y-120790602D01*
X66120814Y-120790609D01*
X65989711Y-120878210D01*
X65989707Y-120878213D01*
X65878213Y-120989707D01*
X65878210Y-120989711D01*
X65790609Y-121120814D01*
X65790602Y-121120827D01*
X65730264Y-121266498D01*
X65730261Y-121266510D01*
X65699500Y-121421153D01*
X65699500Y-121523085D01*
X65679815Y-121590124D01*
X65627011Y-121635879D01*
X65557853Y-121645823D01*
X65494297Y-121616798D01*
X65487819Y-121610766D01*
X63186819Y-119309766D01*
X63153334Y-119248443D01*
X63150500Y-119222085D01*
X63150500Y-118599092D01*
X63170185Y-118532053D01*
X63222989Y-118486298D01*
X63292147Y-118476354D01*
X63330791Y-118488605D01*
X63389417Y-118518477D01*
X63500776Y-118575218D01*
X63500778Y-118575218D01*
X63500781Y-118575220D01*
X63605137Y-118609127D01*
X63695465Y-118638477D01*
X63796557Y-118654488D01*
X63897648Y-118670500D01*
X63897649Y-118670500D01*
X64102351Y-118670500D01*
X64102352Y-118670500D01*
X64304534Y-118638477D01*
X64499219Y-118575220D01*
X64681610Y-118482287D01*
X64774590Y-118414732D01*
X64847213Y-118361971D01*
X64847215Y-118361968D01*
X64847219Y-118361966D01*
X64991966Y-118217219D01*
X64991968Y-118217215D01*
X64991971Y-118217213D01*
X65112284Y-118051614D01*
X65112285Y-118051613D01*
X65112287Y-118051610D01*
X65119117Y-118038204D01*
X65167091Y-117987409D01*
X65229602Y-117970500D01*
X65520398Y-117970500D01*
X65587437Y-117990185D01*
X65630883Y-118038205D01*
X65637715Y-118051614D01*
X65758028Y-118217213D01*
X65902786Y-118361971D01*
X66031132Y-118455218D01*
X66068390Y-118482287D01*
X66139417Y-118518477D01*
X66250776Y-118575218D01*
X66250778Y-118575218D01*
X66250781Y-118575220D01*
X66355137Y-118609127D01*
X66445465Y-118638477D01*
X66546557Y-118654488D01*
X66647648Y-118670500D01*
X66647649Y-118670500D01*
X66852351Y-118670500D01*
X66852352Y-118670500D01*
X67054534Y-118638477D01*
X67249219Y-118575220D01*
X67431610Y-118482287D01*
X67524590Y-118414732D01*
X67597213Y-118361971D01*
X67597215Y-118361968D01*
X67597219Y-118361966D01*
X67741966Y-118217219D01*
X67741968Y-118217215D01*
X67741971Y-118217213D01*
X67862284Y-118051614D01*
X67862285Y-118051613D01*
X67862287Y-118051610D01*
X67869117Y-118038204D01*
X67917091Y-117987409D01*
X67979602Y-117970500D01*
X68270398Y-117970500D01*
X68337437Y-117990185D01*
X68380883Y-118038205D01*
X68387715Y-118051614D01*
X68508028Y-118217213D01*
X68652786Y-118361971D01*
X68781132Y-118455218D01*
X68818390Y-118482287D01*
X68889417Y-118518477D01*
X69000776Y-118575218D01*
X69000778Y-118575218D01*
X69000781Y-118575220D01*
X69105137Y-118609127D01*
X69195465Y-118638477D01*
X69296557Y-118654488D01*
X69397648Y-118670500D01*
X69397649Y-118670500D01*
X69602351Y-118670500D01*
X69602352Y-118670500D01*
X69804534Y-118638477D01*
X69999219Y-118575220D01*
X70181610Y-118482287D01*
X70274590Y-118414732D01*
X70347213Y-118361971D01*
X70347215Y-118361968D01*
X70347219Y-118361966D01*
X70491966Y-118217219D01*
X70491968Y-118217215D01*
X70491971Y-118217213D01*
X70544732Y-118144590D01*
X70612287Y-118051610D01*
X70705220Y-117869219D01*
X70768477Y-117674534D01*
X70800500Y-117472352D01*
X70800500Y-117267648D01*
X70768477Y-117065465D01*
X70729486Y-116945465D01*
X70705220Y-116870781D01*
X70705218Y-116870778D01*
X70705218Y-116870776D01*
X70662792Y-116787511D01*
X70612287Y-116688390D01*
X70593470Y-116662490D01*
X70491971Y-116522786D01*
X70347213Y-116378028D01*
X70181613Y-116257715D01*
X70181612Y-116257714D01*
X70181610Y-116257713D01*
X70124653Y-116228691D01*
X69999223Y-116164781D01*
X69804534Y-116101522D01*
X69629995Y-116073878D01*
X69602352Y-116069500D01*
X69397648Y-116069500D01*
X69373329Y-116073351D01*
X69195465Y-116101522D01*
X69000776Y-116164781D01*
X68818386Y-116257715D01*
X68652786Y-116378028D01*
X68508028Y-116522786D01*
X68387715Y-116688385D01*
X68380883Y-116701795D01*
X68332909Y-116752591D01*
X68270398Y-116769500D01*
X67979602Y-116769500D01*
X67912563Y-116749815D01*
X67869117Y-116701795D01*
X67862284Y-116688385D01*
X67741971Y-116522786D01*
X67597213Y-116378028D01*
X67431613Y-116257715D01*
X67431612Y-116257714D01*
X67431610Y-116257713D01*
X67374653Y-116228691D01*
X67249223Y-116164781D01*
X67054534Y-116101522D01*
X66879995Y-116073878D01*
X66852352Y-116069500D01*
X66647648Y-116069500D01*
X66623329Y-116073351D01*
X66445465Y-116101522D01*
X66250776Y-116164781D01*
X66068386Y-116257715D01*
X65902786Y-116378028D01*
X65758028Y-116522786D01*
X65637715Y-116688385D01*
X65630883Y-116701795D01*
X65582909Y-116752591D01*
X65520398Y-116769500D01*
X65229602Y-116769500D01*
X65162563Y-116749815D01*
X65119117Y-116701795D01*
X65112284Y-116688385D01*
X64991971Y-116522786D01*
X64847213Y-116378028D01*
X64681613Y-116257715D01*
X64681612Y-116257714D01*
X64681610Y-116257713D01*
X64624653Y-116228691D01*
X64499223Y-116164781D01*
X64304534Y-116101522D01*
X64129995Y-116073878D01*
X64102352Y-116069500D01*
X63897648Y-116069500D01*
X63873329Y-116073351D01*
X63695465Y-116101522D01*
X63500776Y-116164781D01*
X63330795Y-116251392D01*
X63262126Y-116264288D01*
X63197385Y-116238012D01*
X63157128Y-116180905D01*
X63150500Y-116140907D01*
X63150500Y-110979092D01*
X63170185Y-110912053D01*
X63222989Y-110866298D01*
X63292147Y-110856354D01*
X63330791Y-110868605D01*
G37*
%TD.AperFunction*%
%TA.AperFunction,Conductor*%
G36*
X70097942Y-95755185D02*
G01*
X70143697Y-95807989D01*
X70153641Y-95877147D01*
X70124616Y-95940703D01*
X70118584Y-95947181D01*
X66996266Y-99069499D01*
X66994062Y-99071702D01*
X66961176Y-99094048D01*
X66961316Y-99094285D01*
X66957551Y-99096511D01*
X66955658Y-99097798D01*
X66954605Y-99098253D01*
X66813138Y-99181916D01*
X66806969Y-99186702D01*
X66805072Y-99184256D01*
X66756358Y-99210857D01*
X66686666Y-99205873D01*
X66654296Y-99185069D01*
X66653031Y-99186702D01*
X66646862Y-99181917D01*
X66505396Y-99098255D01*
X66505393Y-99098254D01*
X66347573Y-99052402D01*
X66347567Y-99052401D01*
X66310701Y-99049500D01*
X66310694Y-99049500D01*
X65879306Y-99049500D01*
X65879298Y-99049500D01*
X65842432Y-99052401D01*
X65842426Y-99052402D01*
X65684606Y-99098254D01*
X65684603Y-99098255D01*
X65543137Y-99181917D01*
X65543129Y-99181923D01*
X65426923Y-99298129D01*
X65426919Y-99298135D01*
X65343255Y-99439603D01*
X65343254Y-99439606D01*
X65297402Y-99597426D01*
X65297401Y-99597432D01*
X65294500Y-99634298D01*
X65294500Y-101415701D01*
X65297401Y-101452567D01*
X65297402Y-101452573D01*
X65343254Y-101610393D01*
X65343255Y-101610396D01*
X65426917Y-101751862D01*
X65426923Y-101751870D01*
X65543129Y-101868076D01*
X65543133Y-101868079D01*
X65543135Y-101868081D01*
X65684602Y-101951744D01*
X65726224Y-101963836D01*
X65842426Y-101997597D01*
X65842429Y-101997597D01*
X65842431Y-101997598D01*
X65879306Y-102000500D01*
X65879314Y-102000500D01*
X66310686Y-102000500D01*
X66310694Y-102000500D01*
X66347569Y-101997598D01*
X66347571Y-101997597D01*
X66347573Y-101997597D01*
X66389191Y-101985505D01*
X66505398Y-101951744D01*
X66646865Y-101868081D01*
X66646870Y-101868075D01*
X66653031Y-101863298D01*
X66654933Y-101865750D01*
X66703579Y-101839155D01*
X66773274Y-101844104D01*
X66805695Y-101864940D01*
X66806969Y-101863298D01*
X66813132Y-101868078D01*
X66813135Y-101868081D01*
X66954602Y-101951744D01*
X66996224Y-101963836D01*
X67112426Y-101997597D01*
X67112429Y-101997597D01*
X67112431Y-101997598D01*
X67149306Y-102000500D01*
X67149314Y-102000500D01*
X67580686Y-102000500D01*
X67580694Y-102000500D01*
X67617569Y-101997598D01*
X67617571Y-101997597D01*
X67617573Y-101997597D01*
X67659191Y-101985505D01*
X67775398Y-101951744D01*
X67916865Y-101868081D01*
X67916870Y-101868075D01*
X67923031Y-101863298D01*
X67924933Y-101865750D01*
X67973579Y-101839155D01*
X68043274Y-101844104D01*
X68075695Y-101864940D01*
X68076969Y-101863298D01*
X68083132Y-101868078D01*
X68083135Y-101868081D01*
X68224602Y-101951744D01*
X68266224Y-101963836D01*
X68382426Y-101997597D01*
X68382429Y-101997597D01*
X68382431Y-101997598D01*
X68419306Y-102000500D01*
X68419314Y-102000500D01*
X68850686Y-102000500D01*
X68850694Y-102000500D01*
X68887569Y-101997598D01*
X68887571Y-101997597D01*
X68887573Y-101997597D01*
X68929191Y-101985505D01*
X69045398Y-101951744D01*
X69186865Y-101868081D01*
X69186870Y-101868076D01*
X69193026Y-101863301D01*
X69194839Y-101865638D01*
X69243949Y-101838798D01*
X69313643Y-101843756D01*
X69345996Y-101864551D01*
X69347278Y-101862900D01*
X69353447Y-101867685D01*
X69494801Y-101951281D01*
X69652514Y-101997100D01*
X69652511Y-101997100D01*
X69654998Y-101997295D01*
X69655000Y-101997295D01*
X70155000Y-101997295D01*
X70155001Y-101997295D01*
X70157486Y-101997100D01*
X70315198Y-101951281D01*
X70456552Y-101867685D01*
X70456561Y-101867678D01*
X70572678Y-101751561D01*
X70572685Y-101751552D01*
X70656282Y-101610196D01*
X70656283Y-101610193D01*
X70702099Y-101452495D01*
X70702100Y-101452489D01*
X70704999Y-101415649D01*
X70705000Y-101415634D01*
X70705000Y-100775000D01*
X70155000Y-100775000D01*
X70155000Y-101997295D01*
X69655000Y-101997295D01*
X69655000Y-100649000D01*
X69674685Y-100581961D01*
X69727489Y-100536206D01*
X69779000Y-100525000D01*
X69905000Y-100525000D01*
X69905000Y-100399000D01*
X69924685Y-100331961D01*
X69977489Y-100286206D01*
X70029000Y-100275000D01*
X70705000Y-100275000D01*
X70705000Y-99634365D01*
X70704999Y-99634350D01*
X70702100Y-99597510D01*
X70683967Y-99535094D01*
X70684167Y-99465225D01*
X70722110Y-99406555D01*
X70785748Y-99377712D01*
X70803044Y-99376500D01*
X71389950Y-99376500D01*
X71456989Y-99396185D01*
X71502744Y-99448989D01*
X71512688Y-99518147D01*
X71499308Y-99558953D01*
X71454493Y-99642794D01*
X71454491Y-99642799D01*
X71394185Y-99788387D01*
X71365444Y-99883135D01*
X71334701Y-100037697D01*
X71334701Y-100037700D01*
X71325000Y-100136210D01*
X71325000Y-100293789D01*
X71334701Y-100392299D01*
X71334701Y-100392302D01*
X71365444Y-100546864D01*
X71394185Y-100641612D01*
X71454490Y-100787198D01*
X71501155Y-100874501D01*
X71501161Y-100874511D01*
X71547534Y-100943912D01*
X72147037Y-100344408D01*
X72164075Y-100407993D01*
X72229901Y-100522007D01*
X72322993Y-100615099D01*
X72437007Y-100680925D01*
X72500589Y-100697962D01*
X71901085Y-101297465D01*
X71970488Y-101343838D01*
X71970498Y-101343844D01*
X72036454Y-101379099D01*
X72086298Y-101428062D01*
X72101758Y-101496200D01*
X72077926Y-101561879D01*
X72034295Y-101598942D01*
X71948386Y-101642715D01*
X71782786Y-101763028D01*
X71638028Y-101907786D01*
X71517715Y-102073386D01*
X71424781Y-102255776D01*
X71361522Y-102450465D01*
X71340456Y-102583473D01*
X71329500Y-102652648D01*
X71329500Y-102857352D01*
X71333878Y-102884995D01*
X71361522Y-103059534D01*
X71424781Y-103254223D01*
X71508335Y-103418205D01*
X71521231Y-103486874D01*
X71494955Y-103551615D01*
X71437848Y-103591872D01*
X71397850Y-103598500D01*
X68880057Y-103598500D01*
X68721942Y-103598500D01*
X68709700Y-103601780D01*
X68708059Y-103602220D01*
X68708058Y-103602219D01*
X68569214Y-103639423D01*
X68569209Y-103639426D01*
X68432290Y-103718475D01*
X68432282Y-103718481D01*
X68154479Y-103996284D01*
X68134835Y-104030311D01*
X68124475Y-104048256D01*
X68120293Y-104055499D01*
X68120291Y-104055502D01*
X68097966Y-104094168D01*
X68047398Y-104142383D01*
X67978790Y-104155604D01*
X67924620Y-104134130D01*
X67923580Y-104135890D01*
X67775396Y-104048255D01*
X67775393Y-104048254D01*
X67617573Y-104002402D01*
X67617567Y-104002401D01*
X67580701Y-103999500D01*
X67580694Y-103999500D01*
X67149306Y-103999500D01*
X67149298Y-103999500D01*
X67112432Y-104002401D01*
X67112426Y-104002402D01*
X66954606Y-104048254D01*
X66954603Y-104048255D01*
X66813137Y-104131917D01*
X66806969Y-104136702D01*
X66805072Y-104134256D01*
X66756358Y-104160857D01*
X66686666Y-104155873D01*
X66654296Y-104135069D01*
X66653031Y-104136702D01*
X66646862Y-104131917D01*
X66505396Y-104048255D01*
X66505393Y-104048254D01*
X66347573Y-104002402D01*
X66347567Y-104002401D01*
X66310701Y-103999500D01*
X66310694Y-103999500D01*
X65879306Y-103999500D01*
X65879298Y-103999500D01*
X65842432Y-104002401D01*
X65842426Y-104002402D01*
X65684606Y-104048254D01*
X65684603Y-104048255D01*
X65543137Y-104131917D01*
X65543129Y-104131923D01*
X65426923Y-104248129D01*
X65426917Y-104248137D01*
X65343255Y-104389603D01*
X65343254Y-104389606D01*
X65297402Y-104547426D01*
X65297401Y-104547432D01*
X65294500Y-104584298D01*
X65294500Y-106365701D01*
X65297401Y-106402567D01*
X65297402Y-106402573D01*
X65343254Y-106560393D01*
X65343255Y-106560396D01*
X65343256Y-106560398D01*
X65349119Y-106570311D01*
X65426917Y-106701862D01*
X65426923Y-106701870D01*
X65543129Y-106818076D01*
X65543133Y-106818079D01*
X65543135Y-106818081D01*
X65588620Y-106844980D01*
X65636303Y-106896047D01*
X65649500Y-106951712D01*
X65649500Y-108199902D01*
X65629815Y-108266941D01*
X65613181Y-108287583D01*
X65082655Y-108818108D01*
X65021332Y-108851593D01*
X64951640Y-108846609D01*
X64907293Y-108818108D01*
X64847213Y-108758028D01*
X64681613Y-108637715D01*
X64681612Y-108637714D01*
X64681610Y-108637713D01*
X64624653Y-108608691D01*
X64499223Y-108544781D01*
X64304534Y-108481522D01*
X64129995Y-108453878D01*
X64102352Y-108449500D01*
X63897648Y-108449500D01*
X63873329Y-108453351D01*
X63695465Y-108481522D01*
X63500776Y-108544781D01*
X63330795Y-108631392D01*
X63262126Y-108644288D01*
X63197385Y-108618012D01*
X63157128Y-108560905D01*
X63150500Y-108520907D01*
X63150500Y-107277913D01*
X63170185Y-107210874D01*
X63186814Y-107190237D01*
X64494518Y-105882532D01*
X64494537Y-105882516D01*
X64499498Y-105877554D01*
X64499501Y-105877553D01*
X64627553Y-105749501D01*
X64733996Y-105602994D01*
X64816211Y-105441639D01*
X64824368Y-105416533D01*
X64830320Y-105398216D01*
X64830320Y-105398215D01*
X64832929Y-105390185D01*
X64872172Y-105269409D01*
X64884762Y-105189914D01*
X64900501Y-105090551D01*
X64900501Y-104905052D01*
X64900500Y-104905037D01*
X64900500Y-98345681D01*
X64900501Y-98345656D01*
X64900501Y-98159455D01*
X64900501Y-98159454D01*
X64872171Y-97980591D01*
X64816211Y-97808361D01*
X64816211Y-97808360D01*
X64775858Y-97729165D01*
X64733996Y-97647006D01*
X64718372Y-97625501D01*
X64627553Y-97500499D01*
X64499501Y-97372447D01*
X64499500Y-97372446D01*
X64496389Y-97369335D01*
X64496374Y-97369321D01*
X63381893Y-96254840D01*
X63381884Y-96254830D01*
X63341448Y-96214394D01*
X63249501Y-96122447D01*
X63249497Y-96122444D01*
X63249493Y-96122440D01*
X63102997Y-96016006D01*
X63102996Y-96016005D01*
X63102994Y-96016004D01*
X63012676Y-95969984D01*
X62961881Y-95922010D01*
X62945086Y-95854189D01*
X62967624Y-95788054D01*
X63022339Y-95744603D01*
X63068972Y-95735500D01*
X70030903Y-95735500D01*
X70097942Y-95755185D01*
G37*
%TD.AperFunction*%
%TA.AperFunction,Conductor*%
G36*
X62564218Y-101487528D02*
G01*
X62596971Y-101549245D01*
X62599500Y-101574160D01*
X62599500Y-102926662D01*
X62579815Y-102993701D01*
X62527011Y-103039456D01*
X62457853Y-103049400D01*
X62394297Y-103020375D01*
X62377125Y-103002150D01*
X62365956Y-102987595D01*
X62365955Y-102987595D01*
X61564612Y-103788940D01*
X61559111Y-103768409D01*
X61480119Y-103631592D01*
X61368408Y-103519881D01*
X61231591Y-103440889D01*
X61211058Y-103435387D01*
X62012403Y-102634043D01*
X62012403Y-102634040D01*
X61946504Y-102583473D01*
X61946491Y-102583464D01*
X61753520Y-102472054D01*
X61753502Y-102472045D01*
X61547620Y-102386764D01*
X61485178Y-102370033D01*
X61425518Y-102333668D01*
X61394989Y-102270821D01*
X61403284Y-102201445D01*
X61447769Y-102147567D01*
X61485175Y-102130484D01*
X61547781Y-102113710D01*
X61753726Y-102028405D01*
X61946774Y-101916948D01*
X62123624Y-101781247D01*
X62281247Y-101623624D01*
X62377124Y-101498674D01*
X62433551Y-101457471D01*
X62503297Y-101453316D01*
X62564218Y-101487528D01*
G37*
%TD.AperFunction*%
%TA.AperFunction,Conductor*%
G36*
X75100000Y-96112661D02*
G01*
X75127259Y-96214394D01*
X75179920Y-96305606D01*
X75254394Y-96380080D01*
X75345606Y-96432741D01*
X75447339Y-96460000D01*
X75453553Y-96460000D01*
X74774076Y-97139474D01*
X74818650Y-97171859D01*
X75000968Y-97264755D01*
X75195582Y-97327990D01*
X75397683Y-97360000D01*
X75602317Y-97360000D01*
X75804417Y-97327990D01*
X75999031Y-97264755D01*
X76181353Y-97171857D01*
X76214223Y-97147976D01*
X76280029Y-97124495D01*
X76348083Y-97140320D01*
X76396778Y-97190425D01*
X76410654Y-97258903D01*
X76385306Y-97324012D01*
X76374790Y-97335974D01*
X75571584Y-98139181D01*
X75510261Y-98172666D01*
X75483903Y-98175500D01*
X74005476Y-98175500D01*
X73938437Y-98155815D01*
X73892682Y-98103011D01*
X73882738Y-98033853D01*
X73887545Y-98013183D01*
X73898475Y-97979542D01*
X73898475Y-97979538D01*
X73898477Y-97979534D01*
X73930500Y-97777352D01*
X73930500Y-97572648D01*
X73898477Y-97370466D01*
X73895076Y-97360000D01*
X73835218Y-97175776D01*
X73801503Y-97109607D01*
X73742287Y-96993390D01*
X73707920Y-96946087D01*
X73621971Y-96827786D01*
X73570416Y-96776231D01*
X73566082Y-96768294D01*
X73558842Y-96762876D01*
X73549599Y-96738108D01*
X73536931Y-96714908D01*
X73537576Y-96705888D01*
X73534414Y-96697415D01*
X73540029Y-96671581D01*
X73541915Y-96645216D01*
X73547726Y-96636171D01*
X73549255Y-96629140D01*
X73570359Y-96600949D01*
X73570402Y-96600883D01*
X73573585Y-96597698D01*
X73576772Y-96594512D01*
X73576775Y-96594510D01*
X73576779Y-96594505D01*
X74001798Y-96169485D01*
X74063119Y-96136002D01*
X74132811Y-96140986D01*
X74188744Y-96182858D01*
X74211950Y-96237769D01*
X74232010Y-96364418D01*
X74295244Y-96559031D01*
X74388141Y-96741350D01*
X74388147Y-96741359D01*
X74420523Y-96785921D01*
X74420524Y-96785922D01*
X75100000Y-96106446D01*
X75100000Y-96112661D01*
G37*
%TD.AperFunction*%
%TA.AperFunction,Conductor*%
G36*
X79925616Y-88365910D02*
G01*
X79942147Y-88363534D01*
X79959390Y-88371408D01*
X79978097Y-88374454D01*
X79990511Y-88385621D01*
X80005703Y-88392559D01*
X80015951Y-88408505D01*
X80030042Y-88421181D01*
X80042445Y-88449731D01*
X80043477Y-88451337D01*
X80043912Y-88453108D01*
X80044105Y-88453552D01*
X80045261Y-88457780D01*
X80067949Y-88571836D01*
X80090038Y-88625165D01*
X80097946Y-88644256D01*
X80143366Y-88753911D01*
X80143371Y-88753920D01*
X80252859Y-88917780D01*
X80252860Y-88917781D01*
X80252861Y-88917782D01*
X80392218Y-89057139D01*
X80392219Y-89057139D01*
X80399286Y-89064206D01*
X80399285Y-89064206D01*
X80399289Y-89064209D01*
X81242215Y-89907137D01*
X81242219Y-89907140D01*
X81406079Y-90016628D01*
X81406085Y-90016631D01*
X81406086Y-90016632D01*
X81588165Y-90092052D01*
X81781455Y-90130500D01*
X81781458Y-90130501D01*
X81781460Y-90130501D01*
X81984655Y-90130501D01*
X81984675Y-90130500D01*
X83830600Y-90130500D01*
X83897639Y-90150185D01*
X83937987Y-90192501D01*
X83999747Y-90299474D01*
X83999748Y-90299476D01*
X84167370Y-90517926D01*
X84167376Y-90517933D01*
X84362066Y-90712623D01*
X84362072Y-90712628D01*
X84580521Y-90880249D01*
X84733778Y-90968732D01*
X84818971Y-91017919D01*
X84818976Y-91017921D01*
X84818979Y-91017923D01*
X85073368Y-91123295D01*
X85339334Y-91194560D01*
X85612326Y-91230500D01*
X85612333Y-91230500D01*
X85887667Y-91230500D01*
X85887674Y-91230500D01*
X86160666Y-91194560D01*
X86426632Y-91123295D01*
X86681021Y-91017923D01*
X86919479Y-90880249D01*
X86927267Y-90874272D01*
X86992433Y-90849077D01*
X87060878Y-90863113D01*
X87110870Y-90911925D01*
X87126536Y-90980015D01*
X87102902Y-91045767D01*
X87090436Y-91060328D01*
X82727584Y-95423181D01*
X82666261Y-95456666D01*
X82639903Y-95459500D01*
X79729602Y-95459500D01*
X79662563Y-95439815D01*
X79619117Y-95391795D01*
X79612287Y-95378390D01*
X79612285Y-95378387D01*
X79612284Y-95378385D01*
X79491971Y-95212786D01*
X79347213Y-95068028D01*
X79181613Y-94947715D01*
X79181612Y-94947714D01*
X79181610Y-94947713D01*
X79121230Y-94916948D01*
X78999223Y-94854781D01*
X78804534Y-94791522D01*
X78629995Y-94763878D01*
X78602352Y-94759500D01*
X78397648Y-94759500D01*
X78373329Y-94763351D01*
X78195465Y-94791522D01*
X78000776Y-94854781D01*
X77818386Y-94947715D01*
X77652786Y-95068028D01*
X77508028Y-95212786D01*
X77387715Y-95378386D01*
X77294781Y-95560776D01*
X77231522Y-95755465D01*
X77199500Y-95957648D01*
X77199500Y-96162351D01*
X77231522Y-96364534D01*
X77236173Y-96378848D01*
X77238165Y-96448690D01*
X77205921Y-96504842D01*
X76775974Y-96934789D01*
X76714651Y-96968274D01*
X76644959Y-96963290D01*
X76589026Y-96921418D01*
X76564609Y-96855954D01*
X76579461Y-96787681D01*
X76587977Y-96774220D01*
X76611858Y-96741351D01*
X76704755Y-96559031D01*
X76767990Y-96364417D01*
X76800000Y-96162317D01*
X76800000Y-95957682D01*
X76767990Y-95755582D01*
X76704755Y-95560968D01*
X76611859Y-95378650D01*
X76579474Y-95334077D01*
X76579474Y-95334076D01*
X75900000Y-96013553D01*
X75900000Y-96007339D01*
X75872741Y-95905606D01*
X75820080Y-95814394D01*
X75745606Y-95739920D01*
X75654394Y-95687259D01*
X75552661Y-95660000D01*
X75546446Y-95660000D01*
X76225922Y-94980524D01*
X76225921Y-94980523D01*
X76181359Y-94948147D01*
X76181350Y-94948141D01*
X75999031Y-94855244D01*
X75804418Y-94792010D01*
X75677769Y-94771950D01*
X75614635Y-94742020D01*
X75577704Y-94682709D01*
X75578702Y-94612846D01*
X75609485Y-94561798D01*
X75858506Y-94312778D01*
X75858511Y-94312774D01*
X75868714Y-94302570D01*
X75868716Y-94302570D01*
X75980520Y-94190766D01*
X76008081Y-94143028D01*
X76053662Y-94064080D01*
X76053667Y-94064070D01*
X76053668Y-94064069D01*
X76059577Y-94053835D01*
X76100501Y-93901107D01*
X76100501Y-93742993D01*
X76100501Y-93735398D01*
X76100500Y-93735380D01*
X76100500Y-89669601D01*
X76120185Y-89602562D01*
X76168206Y-89559116D01*
X76181610Y-89552287D01*
X76347219Y-89431966D01*
X76491966Y-89287219D01*
X76491968Y-89287215D01*
X76491971Y-89287213D01*
X76612284Y-89121614D01*
X76612285Y-89121613D01*
X76612287Y-89121610D01*
X76619117Y-89108204D01*
X76667091Y-89057409D01*
X76729602Y-89040500D01*
X77270398Y-89040500D01*
X77337437Y-89060185D01*
X77380883Y-89108205D01*
X77387715Y-89121614D01*
X77508028Y-89287213D01*
X77652786Y-89431971D01*
X77807749Y-89544556D01*
X77818390Y-89552287D01*
X77899499Y-89593614D01*
X78000776Y-89645218D01*
X78000778Y-89645218D01*
X78000781Y-89645220D01*
X78075818Y-89669601D01*
X78195465Y-89708477D01*
X78296557Y-89724488D01*
X78397648Y-89740500D01*
X78397649Y-89740500D01*
X78602351Y-89740500D01*
X78602352Y-89740500D01*
X78804534Y-89708477D01*
X78999219Y-89645220D01*
X79181610Y-89552287D01*
X79319357Y-89452209D01*
X79347213Y-89431971D01*
X79347215Y-89431968D01*
X79347219Y-89431966D01*
X79491966Y-89287219D01*
X79491968Y-89287215D01*
X79491971Y-89287213D01*
X79549681Y-89207781D01*
X79612287Y-89121610D01*
X79705220Y-88939219D01*
X79768477Y-88744534D01*
X79800500Y-88542352D01*
X79800500Y-88486272D01*
X79805840Y-88468085D01*
X79806192Y-88449134D01*
X79815480Y-88435253D01*
X79820185Y-88419233D01*
X79834507Y-88406822D01*
X79845051Y-88391067D01*
X79860370Y-88384411D01*
X79872989Y-88373478D01*
X79891749Y-88370780D01*
X79909135Y-88363228D01*
X79925616Y-88365910D01*
G37*
%TD.AperFunction*%
%TA.AperFunction,Conductor*%
G36*
X80434752Y-81799835D02*
G01*
X80479101Y-81828336D01*
X80781229Y-82130465D01*
X81010011Y-82359247D01*
X81043496Y-82420570D01*
X81038512Y-82490262D01*
X81032816Y-82503221D01*
X81002569Y-82562585D01*
X81002567Y-82562589D01*
X80934473Y-82772164D01*
X80900000Y-82989818D01*
X80900000Y-83210181D01*
X80934473Y-83427835D01*
X81002567Y-83637410D01*
X81102611Y-83833756D01*
X81148932Y-83897513D01*
X81857861Y-83188584D01*
X81880667Y-83273694D01*
X81939910Y-83376306D01*
X82023694Y-83460090D01*
X82126306Y-83519333D01*
X82211414Y-83542137D01*
X81503473Y-84250078D01*
X81442150Y-84283563D01*
X81377474Y-84280328D01*
X81357952Y-84273985D01*
X81249086Y-84256742D01*
X81140222Y-84239500D01*
X80919778Y-84239500D01*
X80852991Y-84250078D01*
X80702047Y-84273985D01*
X80492396Y-84342103D01*
X80492393Y-84342104D01*
X80295974Y-84442187D01*
X80117641Y-84571752D01*
X80117636Y-84571756D01*
X79961756Y-84727636D01*
X79961752Y-84727641D01*
X79832187Y-84905974D01*
X79732104Y-85102393D01*
X79732103Y-85102396D01*
X79663985Y-85312047D01*
X79653796Y-85376377D01*
X79629500Y-85529778D01*
X79629500Y-85750222D01*
X79640902Y-85822213D01*
X79663985Y-85967952D01*
X79732103Y-86177603D01*
X79732104Y-86177606D01*
X79795315Y-86301662D01*
X79829390Y-86368537D01*
X79832187Y-86374025D01*
X79961752Y-86552358D01*
X79961756Y-86552363D01*
X79993181Y-86583788D01*
X80026666Y-86645111D01*
X80029500Y-86671469D01*
X80029500Y-88207931D01*
X80009815Y-88274970D01*
X79957011Y-88320725D01*
X79887853Y-88330669D01*
X79824297Y-88301644D01*
X79786523Y-88242866D01*
X79783027Y-88227329D01*
X79768477Y-88135465D01*
X79729335Y-88015000D01*
X79705220Y-87940781D01*
X79705218Y-87940778D01*
X79705218Y-87940776D01*
X79654162Y-87840575D01*
X79612287Y-87758390D01*
X79575672Y-87707993D01*
X79491971Y-87592786D01*
X79347213Y-87448028D01*
X79181613Y-87327715D01*
X79181612Y-87327714D01*
X79181610Y-87327713D01*
X79124653Y-87298691D01*
X78999223Y-87234781D01*
X78804534Y-87171522D01*
X78629995Y-87143878D01*
X78602352Y-87139500D01*
X78397648Y-87139500D01*
X78373329Y-87143351D01*
X78195465Y-87171522D01*
X78000776Y-87234781D01*
X77818386Y-87327715D01*
X77652786Y-87448028D01*
X77508028Y-87592786D01*
X77387715Y-87758385D01*
X77380883Y-87771795D01*
X77332909Y-87822591D01*
X77270398Y-87839500D01*
X76729602Y-87839500D01*
X76662563Y-87819815D01*
X76619117Y-87771795D01*
X76612284Y-87758385D01*
X76491971Y-87592786D01*
X76347213Y-87448028D01*
X76181613Y-87327715D01*
X76181612Y-87327714D01*
X76181610Y-87327713D01*
X76124653Y-87298691D01*
X75999223Y-87234781D01*
X75804534Y-87171522D01*
X75629995Y-87143878D01*
X75602352Y-87139500D01*
X75397648Y-87139500D01*
X75373329Y-87143351D01*
X75195465Y-87171522D01*
X75000776Y-87234781D01*
X74818386Y-87327715D01*
X74652786Y-87448028D01*
X74508028Y-87592786D01*
X74387715Y-87758386D01*
X74294781Y-87940776D01*
X74231522Y-88135465D01*
X74202180Y-88320725D01*
X74199500Y-88337648D01*
X74199500Y-88542352D01*
X74201776Y-88556721D01*
X74231522Y-88744534D01*
X74294781Y-88939223D01*
X74387715Y-89121613D01*
X74508028Y-89287213D01*
X74508034Y-89287219D01*
X74652781Y-89431966D01*
X74818390Y-89552287D01*
X74831793Y-89559116D01*
X74882589Y-89607088D01*
X74899500Y-89669601D01*
X74899500Y-93521952D01*
X74879815Y-93588991D01*
X74863181Y-93609633D01*
X73956514Y-94516299D01*
X73895191Y-94549784D01*
X73825499Y-94544800D01*
X73769566Y-94502928D01*
X73758351Y-94484917D01*
X73742287Y-94453390D01*
X73742285Y-94453387D01*
X73742284Y-94453385D01*
X73621971Y-94287786D01*
X73477213Y-94143028D01*
X73311614Y-94022715D01*
X73305006Y-94019348D01*
X73218917Y-93975483D01*
X73168123Y-93927511D01*
X73151328Y-93859690D01*
X73173865Y-93793555D01*
X73218917Y-93754516D01*
X73311610Y-93707287D01*
X73350280Y-93679192D01*
X73477213Y-93586971D01*
X73477215Y-93586968D01*
X73477219Y-93586966D01*
X73621966Y-93442219D01*
X73621968Y-93442215D01*
X73621971Y-93442213D01*
X73732121Y-93290602D01*
X73742287Y-93276610D01*
X73835220Y-93094219D01*
X73898477Y-92899534D01*
X73930500Y-92697352D01*
X73930500Y-92492648D01*
X73898477Y-92290466D01*
X73835220Y-92095781D01*
X73835218Y-92095778D01*
X73835218Y-92095776D01*
X73801503Y-92029607D01*
X73742287Y-91913390D01*
X73698187Y-91852691D01*
X73621971Y-91747786D01*
X73477213Y-91603028D01*
X73311614Y-91482715D01*
X73305006Y-91479348D01*
X73218917Y-91435483D01*
X73168123Y-91387511D01*
X73151328Y-91319690D01*
X73173865Y-91253555D01*
X73218917Y-91214516D01*
X73311610Y-91167287D01*
X73371701Y-91123629D01*
X73477213Y-91046971D01*
X73477215Y-91046968D01*
X73477219Y-91046966D01*
X73621966Y-90902219D01*
X73621968Y-90902215D01*
X73621971Y-90902213D01*
X73675123Y-90829054D01*
X73742287Y-90736610D01*
X73835220Y-90554219D01*
X73898477Y-90359534D01*
X73930500Y-90157352D01*
X73930500Y-89952648D01*
X73898477Y-89750466D01*
X73835220Y-89555781D01*
X73835218Y-89555778D01*
X73835218Y-89555776D01*
X73782447Y-89452209D01*
X73742287Y-89373390D01*
X73679681Y-89287219D01*
X73621971Y-89207786D01*
X73477217Y-89063032D01*
X73400415Y-89007232D01*
X73357750Y-88951902D01*
X73351771Y-88882288D01*
X73384377Y-88820494D01*
X73442640Y-88786765D01*
X73463039Y-88781559D01*
X73519584Y-88758136D01*
X73519584Y-88758135D01*
X72759410Y-87997962D01*
X72822993Y-87980925D01*
X72937007Y-87915099D01*
X73030099Y-87822007D01*
X73095925Y-87707993D01*
X73112962Y-87644410D01*
X73873135Y-88404584D01*
X73873136Y-88404584D01*
X73896552Y-88348053D01*
X73914544Y-88297053D01*
X73934999Y-88154780D01*
X73935000Y-88154779D01*
X73935000Y-86875214D01*
X73932106Y-86821237D01*
X73932106Y-86821235D01*
X73896561Y-86681969D01*
X73896559Y-86681962D01*
X73873135Y-86625414D01*
X73112962Y-87385588D01*
X73095925Y-87322007D01*
X73030099Y-87207993D01*
X72937007Y-87114901D01*
X72822993Y-87049075D01*
X72759410Y-87032037D01*
X73519584Y-86271862D01*
X73463059Y-86248449D01*
X73463048Y-86248445D01*
X73434374Y-86238329D01*
X73377703Y-86197462D01*
X73352122Y-86132443D01*
X73365754Y-86063916D01*
X73402745Y-86021074D01*
X73477215Y-85966969D01*
X73477215Y-85966968D01*
X73477219Y-85966966D01*
X73621966Y-85822219D01*
X73621968Y-85822215D01*
X73621971Y-85822213D01*
X73677144Y-85746273D01*
X73742287Y-85656610D01*
X73835220Y-85474219D01*
X73898477Y-85279534D01*
X73930500Y-85077352D01*
X73930500Y-84872648D01*
X73898477Y-84670466D01*
X73835220Y-84475781D01*
X73835218Y-84475778D01*
X73835218Y-84475776D01*
X73801503Y-84409607D01*
X73742287Y-84293390D01*
X73724653Y-84269118D01*
X73621971Y-84127786D01*
X73477213Y-83983028D01*
X73311614Y-83862715D01*
X73305006Y-83859348D01*
X73218917Y-83815483D01*
X73168123Y-83767511D01*
X73151328Y-83699690D01*
X73173865Y-83633555D01*
X73218917Y-83594516D01*
X73311610Y-83547287D01*
X73404060Y-83480119D01*
X73477213Y-83426971D01*
X73477215Y-83426968D01*
X73477219Y-83426966D01*
X73621966Y-83282219D01*
X73621968Y-83282215D01*
X73621971Y-83282213D01*
X73689624Y-83189095D01*
X73742287Y-83116610D01*
X73835220Y-82934219D01*
X73898477Y-82739534D01*
X73930500Y-82537352D01*
X73930500Y-82332648D01*
X73924886Y-82297203D01*
X73898477Y-82130465D01*
X73868374Y-82037819D01*
X73866379Y-81967977D01*
X73902459Y-81908144D01*
X73965160Y-81877316D01*
X73986305Y-81875500D01*
X79207650Y-81875500D01*
X79274689Y-81895185D01*
X79276541Y-81896398D01*
X79370821Y-81959394D01*
X79370823Y-81959395D01*
X79370827Y-81959397D01*
X79423813Y-81981344D01*
X79516503Y-82019737D01*
X79671153Y-82050499D01*
X79671156Y-82050500D01*
X79671158Y-82050500D01*
X79828844Y-82050500D01*
X79828845Y-82050499D01*
X79983497Y-82019737D01*
X80129179Y-81959394D01*
X80260289Y-81871789D01*
X80303740Y-81828337D01*
X80365060Y-81794852D01*
X80434752Y-81799835D01*
G37*
%TD.AperFunction*%
%TA.AperFunction,Conductor*%
G36*
X71355141Y-76601275D02*
G01*
X71357812Y-76600614D01*
X71388471Y-76611061D01*
X71419541Y-76620185D01*
X71421341Y-76622263D01*
X71423947Y-76623151D01*
X71444097Y-76648525D01*
X71465296Y-76672989D01*
X71465687Y-76675710D01*
X71467399Y-76677866D01*
X71470632Y-76710100D01*
X71475240Y-76742147D01*
X71474181Y-76745486D01*
X71474372Y-76747387D01*
X71462987Y-76780795D01*
X71424782Y-76855776D01*
X71424781Y-76855778D01*
X71424780Y-76855781D01*
X71419211Y-76872920D01*
X71361522Y-77050465D01*
X71329500Y-77252648D01*
X71329500Y-77457351D01*
X71361522Y-77659534D01*
X71424781Y-77854223D01*
X71485171Y-77972743D01*
X71493587Y-77989261D01*
X71517715Y-78036613D01*
X71638028Y-78202213D01*
X71782786Y-78346971D01*
X71937749Y-78459556D01*
X71948390Y-78467287D01*
X72039840Y-78513883D01*
X72041080Y-78514515D01*
X72091876Y-78562490D01*
X72108671Y-78630311D01*
X72086134Y-78696446D01*
X72041080Y-78735485D01*
X71948386Y-78782715D01*
X71782786Y-78903028D01*
X71638028Y-79047786D01*
X71517715Y-79213386D01*
X71424781Y-79395776D01*
X71361522Y-79590465D01*
X71329500Y-79792648D01*
X71329500Y-79997351D01*
X71361522Y-80199534D01*
X71424781Y-80394223D01*
X71450249Y-80444205D01*
X71463145Y-80512874D01*
X71436869Y-80577615D01*
X71379762Y-80617872D01*
X71339764Y-80624500D01*
X66188389Y-80624500D01*
X66127971Y-80636518D01*
X66084743Y-80645116D01*
X66067546Y-80648537D01*
X65953716Y-80695687D01*
X65953707Y-80695692D01*
X65851268Y-80764140D01*
X65807705Y-80807703D01*
X65764142Y-80851267D01*
X62911681Y-83703728D01*
X62850358Y-83737213D01*
X62780666Y-83732229D01*
X62724733Y-83690357D01*
X62700316Y-83624893D01*
X62700000Y-83616047D01*
X62700000Y-83250000D01*
X61548482Y-83250000D01*
X61559111Y-83231591D01*
X61600000Y-83078991D01*
X61600000Y-82921009D01*
X61559111Y-82768409D01*
X61548482Y-82750000D01*
X62700000Y-82750000D01*
X62700000Y-82000027D01*
X62699999Y-82000014D01*
X62689506Y-81897310D01*
X62689505Y-81897303D01*
X62634358Y-81730881D01*
X62634356Y-81730876D01*
X62542315Y-81581655D01*
X62418344Y-81457684D01*
X62269123Y-81365643D01*
X62269118Y-81365641D01*
X62102696Y-81310494D01*
X62102689Y-81310493D01*
X61999985Y-81300000D01*
X61250000Y-81300000D01*
X61250000Y-82451517D01*
X61231591Y-82440889D01*
X61078991Y-82400000D01*
X60921009Y-82400000D01*
X60768409Y-82440889D01*
X60750000Y-82451517D01*
X60750000Y-81300000D01*
X60000014Y-81300000D01*
X59897310Y-81310493D01*
X59897303Y-81310494D01*
X59730881Y-81365641D01*
X59730876Y-81365643D01*
X59581655Y-81457684D01*
X59457684Y-81581655D01*
X59365643Y-81730876D01*
X59365641Y-81730881D01*
X59310494Y-81897303D01*
X59310493Y-81897310D01*
X59300000Y-82000014D01*
X59300000Y-82750000D01*
X60451518Y-82750000D01*
X60440889Y-82768409D01*
X60400000Y-82921009D01*
X60400000Y-83078991D01*
X60440889Y-83231591D01*
X60451518Y-83250000D01*
X59300000Y-83250000D01*
X59300000Y-83999985D01*
X59310493Y-84102689D01*
X59310494Y-84102696D01*
X59365641Y-84269118D01*
X59365643Y-84269123D01*
X59457684Y-84418344D01*
X59581655Y-84542315D01*
X59730876Y-84634356D01*
X59730881Y-84634358D01*
X59897303Y-84689505D01*
X59897310Y-84689506D01*
X60000014Y-84699999D01*
X60000027Y-84700000D01*
X60278572Y-84700000D01*
X60345611Y-84719685D01*
X60391366Y-84772489D01*
X60401310Y-84841647D01*
X60372285Y-84905203D01*
X60326024Y-84938561D01*
X60246283Y-84971590D01*
X60246273Y-84971595D01*
X60053226Y-85083052D01*
X60053217Y-85083058D01*
X59876377Y-85218751D01*
X59876370Y-85218757D01*
X59718757Y-85376370D01*
X59718751Y-85376377D01*
X59583058Y-85553217D01*
X59583052Y-85553226D01*
X59471595Y-85746273D01*
X59471593Y-85746277D01*
X59386293Y-85952209D01*
X59386290Y-85952219D01*
X59335631Y-86141284D01*
X59328597Y-86167534D01*
X59328594Y-86167547D01*
X59299501Y-86388533D01*
X59299500Y-86388549D01*
X59299500Y-86611450D01*
X59299501Y-86611466D01*
X59328594Y-86832452D01*
X59328595Y-86832457D01*
X59328596Y-86832463D01*
X59381392Y-87029500D01*
X59386290Y-87047780D01*
X59386293Y-87047790D01*
X59466771Y-87242080D01*
X59471595Y-87253726D01*
X59583052Y-87446774D01*
X59583057Y-87446780D01*
X59583058Y-87446782D01*
X59718751Y-87623622D01*
X59718757Y-87623629D01*
X59876370Y-87781242D01*
X59876377Y-87781248D01*
X59926639Y-87819815D01*
X60053226Y-87916948D01*
X60246274Y-88028405D01*
X60376140Y-88082197D01*
X60442815Y-88109815D01*
X60452219Y-88113710D01*
X60513857Y-88130225D01*
X60573516Y-88166590D01*
X60604045Y-88229437D01*
X60595750Y-88298813D01*
X60551265Y-88352691D01*
X60513858Y-88369773D01*
X60452219Y-88386290D01*
X60452217Y-88386290D01*
X60452216Y-88386291D01*
X60452209Y-88386293D01*
X60246277Y-88471593D01*
X60246273Y-88471595D01*
X60053226Y-88583052D01*
X60053217Y-88583058D01*
X59876377Y-88718751D01*
X59876370Y-88718757D01*
X59718757Y-88876370D01*
X59718751Y-88876377D01*
X59583058Y-89053217D01*
X59583052Y-89053226D01*
X59471595Y-89246273D01*
X59471593Y-89246277D01*
X59386293Y-89452209D01*
X59386290Y-89452219D01*
X59334577Y-89645218D01*
X59328597Y-89667534D01*
X59328594Y-89667547D01*
X59299501Y-89888533D01*
X59299500Y-89888549D01*
X59299500Y-90111450D01*
X59299501Y-90111466D01*
X59328594Y-90332452D01*
X59328595Y-90332457D01*
X59328596Y-90332463D01*
X59386290Y-90547780D01*
X59386293Y-90547790D01*
X59471593Y-90753722D01*
X59471595Y-90753726D01*
X59583052Y-90946774D01*
X59583057Y-90946780D01*
X59583058Y-90946782D01*
X59718751Y-91123622D01*
X59718757Y-91123629D01*
X59876370Y-91281242D01*
X59876377Y-91281248D01*
X59933396Y-91325000D01*
X60053226Y-91416948D01*
X60246274Y-91528405D01*
X60452219Y-91613710D01*
X60513857Y-91630225D01*
X60573516Y-91666590D01*
X60604045Y-91729437D01*
X60595750Y-91798813D01*
X60551265Y-91852691D01*
X60513858Y-91869773D01*
X60452219Y-91886290D01*
X60452217Y-91886290D01*
X60452216Y-91886291D01*
X60452209Y-91886293D01*
X60246277Y-91971593D01*
X60246273Y-91971595D01*
X60053226Y-92083052D01*
X60053217Y-92083058D01*
X59876377Y-92218751D01*
X59876370Y-92218757D01*
X59718757Y-92376370D01*
X59718751Y-92376377D01*
X59583058Y-92553217D01*
X59583052Y-92553226D01*
X59471595Y-92746273D01*
X59471593Y-92746277D01*
X59386293Y-92952209D01*
X59386290Y-92952219D01*
X59348242Y-93094219D01*
X59328597Y-93167534D01*
X59328594Y-93167547D01*
X59299501Y-93388533D01*
X59299500Y-93388549D01*
X59299500Y-93611450D01*
X59299501Y-93611466D01*
X59328594Y-93832452D01*
X59328595Y-93832457D01*
X59328596Y-93832463D01*
X59379573Y-94022713D01*
X59386290Y-94047780D01*
X59386293Y-94047790D01*
X59443697Y-94186375D01*
X59451166Y-94255845D01*
X59419891Y-94318324D01*
X59359802Y-94353976D01*
X59289977Y-94351482D01*
X59241455Y-94321509D01*
X58686819Y-93766873D01*
X58653334Y-93705550D01*
X58650500Y-93679192D01*
X58650500Y-81820808D01*
X58670185Y-81753769D01*
X58686819Y-81733127D01*
X60983127Y-79436819D01*
X61044450Y-79403334D01*
X61070808Y-79400500D01*
X64814071Y-79400500D01*
X64898615Y-79383682D01*
X64939744Y-79375501D01*
X65058127Y-79326465D01*
X65164669Y-79255277D01*
X67255276Y-77164669D01*
X67309515Y-77083493D01*
X67363126Y-77038689D01*
X67432451Y-77029982D01*
X67485502Y-77052066D01*
X67568390Y-77112287D01*
X67750776Y-77205218D01*
X67750778Y-77205218D01*
X67750781Y-77205220D01*
X67797796Y-77220496D01*
X67945465Y-77268477D01*
X68046557Y-77284488D01*
X68147648Y-77300500D01*
X68147649Y-77300500D01*
X68352351Y-77300500D01*
X68352352Y-77300500D01*
X68554534Y-77268477D01*
X68749219Y-77205220D01*
X68931610Y-77112287D01*
X69044894Y-77029982D01*
X69097213Y-76991971D01*
X69097215Y-76991968D01*
X69097219Y-76991966D01*
X69241966Y-76847219D01*
X69241968Y-76847215D01*
X69241971Y-76847213D01*
X69362284Y-76681614D01*
X69362283Y-76681614D01*
X69362287Y-76681610D01*
X69369117Y-76668204D01*
X69417091Y-76617409D01*
X69479602Y-76600500D01*
X71352502Y-76600500D01*
X71355141Y-76601275D01*
G37*
%TD.AperFunction*%
%TA.AperFunction,Conductor*%
G36*
X71340734Y-81895185D02*
G01*
X71386489Y-81947989D01*
X71396433Y-82017147D01*
X71391626Y-82037819D01*
X71361522Y-82130465D01*
X71329500Y-82332648D01*
X71329500Y-82537351D01*
X71361522Y-82739534D01*
X71424781Y-82934223D01*
X71517715Y-83116613D01*
X71638028Y-83282213D01*
X71782786Y-83426971D01*
X71909914Y-83519333D01*
X71948390Y-83547287D01*
X72039840Y-83593883D01*
X72041080Y-83594515D01*
X72091876Y-83642490D01*
X72108671Y-83710311D01*
X72086134Y-83776446D01*
X72041080Y-83815485D01*
X71948386Y-83862715D01*
X71782786Y-83983028D01*
X71638028Y-84127786D01*
X71517715Y-84293386D01*
X71424781Y-84475776D01*
X71361522Y-84670465D01*
X71329500Y-84872648D01*
X71329500Y-85077351D01*
X71361522Y-85279534D01*
X71424781Y-85474223D01*
X71517715Y-85656613D01*
X71638028Y-85822213D01*
X71782786Y-85966971D01*
X71948388Y-86087286D01*
X71948390Y-86087287D01*
X72034294Y-86131057D01*
X72085090Y-86179031D01*
X72101886Y-86246852D01*
X72079349Y-86312987D01*
X72036455Y-86350899D01*
X71970497Y-86386155D01*
X71901086Y-86432534D01*
X71901085Y-86432534D01*
X72500589Y-87032037D01*
X72437007Y-87049075D01*
X72322993Y-87114901D01*
X72229901Y-87207993D01*
X72164075Y-87322007D01*
X72147037Y-87385588D01*
X71547534Y-86786085D01*
X71547534Y-86786086D01*
X71501158Y-86855493D01*
X71454490Y-86942801D01*
X71394185Y-87088387D01*
X71365444Y-87183135D01*
X71334701Y-87337697D01*
X71334701Y-87337700D01*
X71325000Y-87436210D01*
X71325000Y-87593789D01*
X71334701Y-87692299D01*
X71334701Y-87692302D01*
X71365444Y-87846864D01*
X71394185Y-87941612D01*
X71454490Y-88087198D01*
X71501155Y-88174501D01*
X71501161Y-88174511D01*
X71547534Y-88243912D01*
X72147037Y-87644410D01*
X72164075Y-87707993D01*
X72229901Y-87822007D01*
X72322993Y-87915099D01*
X72437007Y-87980925D01*
X72500589Y-87997962D01*
X71901085Y-88597465D01*
X71970488Y-88643838D01*
X71970498Y-88643844D01*
X72036454Y-88679099D01*
X72086298Y-88728062D01*
X72101758Y-88796200D01*
X72077926Y-88861879D01*
X72034295Y-88898942D01*
X71948386Y-88942715D01*
X71782786Y-89063028D01*
X71638028Y-89207786D01*
X71517715Y-89373386D01*
X71424781Y-89555776D01*
X71361522Y-89750465D01*
X71329500Y-89952648D01*
X71329500Y-90157351D01*
X71361522Y-90359534D01*
X71424781Y-90554223D01*
X71517715Y-90736613D01*
X71638028Y-90902213D01*
X71782786Y-91046971D01*
X71888299Y-91123629D01*
X71948390Y-91167287D01*
X72039840Y-91213883D01*
X72041080Y-91214515D01*
X72091876Y-91262490D01*
X72108671Y-91330311D01*
X72086134Y-91396446D01*
X72041080Y-91435485D01*
X71948386Y-91482715D01*
X71782786Y-91603028D01*
X71638028Y-91747786D01*
X71517715Y-91913386D01*
X71424781Y-92095776D01*
X71361522Y-92290465D01*
X71329500Y-92492648D01*
X71329500Y-92697351D01*
X71361522Y-92899534D01*
X71424781Y-93094223D01*
X71517712Y-93276609D01*
X71545498Y-93314853D01*
X71545497Y-93314853D01*
X71638028Y-93442212D01*
X71638032Y-93442217D01*
X71782786Y-93586971D01*
X71909720Y-93679192D01*
X71948390Y-93707287D01*
X72018459Y-93742989D01*
X72041080Y-93754515D01*
X72091876Y-93802490D01*
X72108671Y-93870311D01*
X72086134Y-93936446D01*
X72041080Y-93975485D01*
X71948386Y-94022715D01*
X71782786Y-94143028D01*
X71782782Y-94143032D01*
X71762181Y-94163634D01*
X71700858Y-94197119D01*
X71631166Y-94192135D01*
X71575233Y-94150263D01*
X71550816Y-94084799D01*
X71550500Y-94075953D01*
X71550500Y-93921155D01*
X71550499Y-93921153D01*
X71526895Y-93802490D01*
X71519737Y-93766503D01*
X71519735Y-93766498D01*
X71459397Y-93620827D01*
X71459390Y-93620814D01*
X71438142Y-93589015D01*
X71438140Y-93589013D01*
X71371789Y-93489711D01*
X71350598Y-93468520D01*
X71350596Y-93468517D01*
X71260292Y-93378213D01*
X71260288Y-93378210D01*
X71129185Y-93290609D01*
X71129172Y-93290602D01*
X70983501Y-93230264D01*
X70983489Y-93230261D01*
X70828845Y-93199500D01*
X70828842Y-93199500D01*
X70671158Y-93199500D01*
X70671155Y-93199500D01*
X70516510Y-93230261D01*
X70516498Y-93230264D01*
X70370827Y-93290602D01*
X70370814Y-93290609D01*
X70239125Y-93378602D01*
X70172447Y-93399480D01*
X70170234Y-93399500D01*
X65050097Y-93399500D01*
X64983058Y-93379815D01*
X64962416Y-93363181D01*
X62531467Y-90932232D01*
X62497982Y-90870909D01*
X62502966Y-90801217D01*
X62511755Y-90782563D01*
X62528405Y-90753726D01*
X62613710Y-90547781D01*
X62671404Y-90332463D01*
X62700500Y-90111457D01*
X62700500Y-89888543D01*
X62671404Y-89667537D01*
X62613710Y-89452219D01*
X62528405Y-89246274D01*
X62416948Y-89053226D01*
X62339200Y-88951902D01*
X62281248Y-88876377D01*
X62281242Y-88876370D01*
X62123629Y-88718757D01*
X62123622Y-88718751D01*
X61946782Y-88583058D01*
X61946780Y-88583057D01*
X61946774Y-88583052D01*
X61753726Y-88471595D01*
X61753722Y-88471593D01*
X61547790Y-88386293D01*
X61547783Y-88386291D01*
X61547781Y-88386290D01*
X61486142Y-88369774D01*
X61426483Y-88333410D01*
X61395954Y-88270563D01*
X61404249Y-88201188D01*
X61448734Y-88147310D01*
X61486141Y-88130226D01*
X61547781Y-88113710D01*
X61753726Y-88028405D01*
X61946774Y-87916948D01*
X62123624Y-87781247D01*
X62281247Y-87623624D01*
X62416948Y-87446774D01*
X62528405Y-87253726D01*
X62613710Y-87047781D01*
X62671404Y-86832463D01*
X62700500Y-86611457D01*
X62700500Y-86388543D01*
X62671404Y-86167537D01*
X62613710Y-85952219D01*
X62592302Y-85900536D01*
X62584834Y-85831071D01*
X62616108Y-85768591D01*
X62619154Y-85765434D01*
X66472771Y-81911819D01*
X66534094Y-81878334D01*
X66560452Y-81875500D01*
X71273695Y-81875500D01*
X71340734Y-81895185D01*
G37*
%TD.AperFunction*%
%TA.AperFunction,Conductor*%
G36*
X86261231Y-69050185D02*
G01*
X86281873Y-69066819D01*
X89102862Y-71887808D01*
X89136347Y-71949131D01*
X89137654Y-71994886D01*
X89109500Y-72172647D01*
X89109500Y-72377351D01*
X89141522Y-72579534D01*
X89204781Y-72774223D01*
X89297715Y-72956613D01*
X89418028Y-73122213D01*
X89562782Y-73266967D01*
X89562787Y-73266971D01*
X89639583Y-73322767D01*
X89682249Y-73378097D01*
X89688228Y-73447710D01*
X89655622Y-73509505D01*
X89597365Y-73543233D01*
X89576973Y-73548437D01*
X89576962Y-73548441D01*
X89520415Y-73571863D01*
X90280589Y-74332037D01*
X90217007Y-74349075D01*
X90102993Y-74414901D01*
X90009901Y-74507993D01*
X89944075Y-74622007D01*
X89927037Y-74685589D01*
X89166863Y-73925415D01*
X89166862Y-73925415D01*
X89143446Y-73981947D01*
X89143431Y-73981987D01*
X89125457Y-74032939D01*
X89125455Y-74032946D01*
X89105000Y-74175219D01*
X89105000Y-75454785D01*
X89107893Y-75508762D01*
X89107893Y-75508764D01*
X89143438Y-75648030D01*
X89143442Y-75648043D01*
X89166862Y-75704584D01*
X89927037Y-74944410D01*
X89944075Y-75007993D01*
X90009901Y-75122007D01*
X90102993Y-75215099D01*
X90217007Y-75280925D01*
X90280589Y-75297962D01*
X89520414Y-76058135D01*
X89576960Y-76081557D01*
X89576986Y-76081567D01*
X89605621Y-76091669D01*
X89662294Y-76132534D01*
X89687876Y-76197552D01*
X89674246Y-76266080D01*
X89637256Y-76308924D01*
X89562782Y-76363032D01*
X89418028Y-76507786D01*
X89297715Y-76673386D01*
X89204781Y-76855776D01*
X89141522Y-77050465D01*
X89109500Y-77252648D01*
X89109500Y-77457351D01*
X89141522Y-77659534D01*
X89204781Y-77854223D01*
X89265171Y-77972743D01*
X89273587Y-77989261D01*
X89297715Y-78036613D01*
X89418028Y-78202213D01*
X89562786Y-78346971D01*
X89717749Y-78459556D01*
X89728390Y-78467287D01*
X89819840Y-78513883D01*
X89821080Y-78514515D01*
X89871876Y-78562490D01*
X89888671Y-78630311D01*
X89866134Y-78696446D01*
X89821080Y-78735485D01*
X89728386Y-78782715D01*
X89562786Y-78903028D01*
X89418028Y-79047786D01*
X89297715Y-79213386D01*
X89204781Y-79395776D01*
X89141522Y-79590465D01*
X89109500Y-79792648D01*
X89109500Y-79997352D01*
X89109499Y-79997352D01*
X89134968Y-80158154D01*
X89126013Y-80227447D01*
X89100176Y-80265232D01*
X88777227Y-80588182D01*
X88715906Y-80621666D01*
X88689548Y-80624500D01*
X82292350Y-80624500D01*
X82225311Y-80604815D01*
X82223459Y-80603602D01*
X82129184Y-80540609D01*
X82129172Y-80540602D01*
X81983501Y-80480264D01*
X81983489Y-80480261D01*
X81828845Y-80449500D01*
X81828842Y-80449500D01*
X81671158Y-80449500D01*
X81671155Y-80449500D01*
X81516510Y-80480261D01*
X81516498Y-80480264D01*
X81370827Y-80540602D01*
X81370814Y-80540609D01*
X81239711Y-80628210D01*
X81239707Y-80628213D01*
X81196259Y-80671662D01*
X81134936Y-80705147D01*
X81065244Y-80700163D01*
X81020897Y-80671662D01*
X79186416Y-78837181D01*
X79152931Y-78775858D01*
X79157915Y-78706166D01*
X79199787Y-78650233D01*
X79265251Y-78625816D01*
X79274097Y-78625500D01*
X79372920Y-78625500D01*
X79372927Y-78625500D01*
X79616677Y-78593409D01*
X79854153Y-78529778D01*
X80081292Y-78435694D01*
X80294208Y-78312767D01*
X80489256Y-78163101D01*
X80663101Y-77989256D01*
X80812767Y-77794208D01*
X80935694Y-77581292D01*
X81029778Y-77354153D01*
X81093409Y-77116677D01*
X81125500Y-76872927D01*
X81125500Y-76628711D01*
X84899500Y-76628711D01*
X84899500Y-76871288D01*
X84930955Y-77110222D01*
X84931162Y-77111789D01*
X84932469Y-77116668D01*
X84993947Y-77346104D01*
X85073270Y-77537606D01*
X85086776Y-77570212D01*
X85208064Y-77780289D01*
X85208066Y-77780292D01*
X85208067Y-77780293D01*
X85355733Y-77972736D01*
X85355739Y-77972743D01*
X85527256Y-78144260D01*
X85527263Y-78144266D01*
X85551811Y-78163102D01*
X85719711Y-78291936D01*
X85929788Y-78413224D01*
X86153900Y-78506054D01*
X86388211Y-78568838D01*
X86568586Y-78592584D01*
X86628711Y-78600500D01*
X86628712Y-78600500D01*
X86871289Y-78600500D01*
X86925166Y-78593407D01*
X87111789Y-78568838D01*
X87346100Y-78506054D01*
X87570212Y-78413224D01*
X87780289Y-78291936D01*
X87972738Y-78144265D01*
X88144265Y-77972738D01*
X88291936Y-77780289D01*
X88413224Y-77570212D01*
X88506054Y-77346100D01*
X88568838Y-77111789D01*
X88600500Y-76871288D01*
X88600500Y-76628712D01*
X88599377Y-76620185D01*
X88568838Y-76388214D01*
X88568838Y-76388211D01*
X88506054Y-76153900D01*
X88504347Y-76149780D01*
X88464881Y-76054500D01*
X88413224Y-75929788D01*
X88291936Y-75719711D01*
X88204612Y-75605908D01*
X88144266Y-75527263D01*
X88144260Y-75527256D01*
X87972743Y-75355739D01*
X87972736Y-75355733D01*
X87780293Y-75208067D01*
X87780292Y-75208066D01*
X87780289Y-75208064D01*
X87570212Y-75086776D01*
X87515967Y-75064307D01*
X87346104Y-74993947D01*
X87228944Y-74962554D01*
X87111789Y-74931162D01*
X87111788Y-74931161D01*
X87111785Y-74931161D01*
X86871289Y-74899500D01*
X86871288Y-74899500D01*
X86628712Y-74899500D01*
X86628711Y-74899500D01*
X86388214Y-74931161D01*
X86153895Y-74993947D01*
X85929794Y-75086773D01*
X85929785Y-75086777D01*
X85719706Y-75208067D01*
X85527263Y-75355733D01*
X85527256Y-75355739D01*
X85355739Y-75527256D01*
X85355733Y-75527263D01*
X85208067Y-75719706D01*
X85208064Y-75719710D01*
X85208064Y-75719711D01*
X85194933Y-75742454D01*
X85086777Y-75929785D01*
X85086773Y-75929794D01*
X84993947Y-76153895D01*
X84931161Y-76388214D01*
X84899500Y-76628711D01*
X81125500Y-76628711D01*
X81125500Y-76627073D01*
X81093409Y-76383323D01*
X81029778Y-76145847D01*
X80935694Y-75918708D01*
X80812767Y-75705792D01*
X80736123Y-75605908D01*
X80663102Y-75510745D01*
X80663096Y-75510738D01*
X80489261Y-75336903D01*
X80489254Y-75336897D01*
X80294212Y-75187236D01*
X80294211Y-75187235D01*
X80294208Y-75187233D01*
X80081292Y-75064306D01*
X80081285Y-75064303D01*
X79854162Y-74970225D01*
X79854155Y-74970223D01*
X79854153Y-74970222D01*
X79616677Y-74906591D01*
X79562817Y-74899500D01*
X79372934Y-74874500D01*
X79372927Y-74874500D01*
X79127073Y-74874500D01*
X79127065Y-74874500D01*
X78895059Y-74905045D01*
X78883323Y-74906591D01*
X78645847Y-74970222D01*
X78645837Y-74970225D01*
X78418714Y-75064303D01*
X78418705Y-75064307D01*
X78205787Y-75187236D01*
X78010745Y-75336897D01*
X78010738Y-75336903D01*
X77836903Y-75510738D01*
X77836897Y-75510745D01*
X77687236Y-75705787D01*
X77564307Y-75918705D01*
X77564303Y-75918714D01*
X77470225Y-76145837D01*
X77470222Y-76145847D01*
X77411626Y-76364534D01*
X77406592Y-76383320D01*
X77406590Y-76383331D01*
X77374500Y-76627065D01*
X77374500Y-76725903D01*
X77354815Y-76792942D01*
X77302011Y-76838697D01*
X77232853Y-76848641D01*
X77169297Y-76819616D01*
X77162819Y-76813584D01*
X75987590Y-75638355D01*
X75987588Y-75638352D01*
X75868717Y-75519481D01*
X75868709Y-75519475D01*
X75764828Y-75459500D01*
X75764825Y-75459499D01*
X75731787Y-75440424D01*
X75731786Y-75440423D01*
X75731785Y-75440423D01*
X75579057Y-75399499D01*
X75420943Y-75399499D01*
X75413347Y-75399499D01*
X75413331Y-75399500D01*
X74059000Y-75399500D01*
X73991961Y-75379815D01*
X73946206Y-75327011D01*
X73935000Y-75275500D01*
X73935000Y-74175224D01*
X73934999Y-74175204D01*
X73932106Y-74121237D01*
X73932106Y-74121235D01*
X73896561Y-73981969D01*
X73896559Y-73981962D01*
X73873135Y-73925414D01*
X73112961Y-74685587D01*
X73095925Y-74622007D01*
X73030099Y-74507993D01*
X72937007Y-74414901D01*
X72822993Y-74349075D01*
X72759410Y-74332037D01*
X73519584Y-73571862D01*
X73463059Y-73548449D01*
X73463048Y-73548445D01*
X73434374Y-73538329D01*
X73377703Y-73497462D01*
X73352122Y-73432443D01*
X73365754Y-73363916D01*
X73402745Y-73321074D01*
X73477215Y-73266969D01*
X73477215Y-73266968D01*
X73477219Y-73266966D01*
X73621966Y-73122219D01*
X73621968Y-73122215D01*
X73621971Y-73122213D01*
X73721260Y-72985551D01*
X73742287Y-72956610D01*
X73835220Y-72774219D01*
X73898477Y-72579534D01*
X73930500Y-72377352D01*
X73930500Y-72172648D01*
X73898477Y-71970466D01*
X73886712Y-71934258D01*
X73841296Y-71794482D01*
X73835220Y-71775781D01*
X73835218Y-71775778D01*
X73835218Y-71775776D01*
X73801503Y-71709607D01*
X73742287Y-71593390D01*
X73734556Y-71582749D01*
X73621971Y-71427786D01*
X73477217Y-71283032D01*
X73477212Y-71283028D01*
X73396440Y-71224344D01*
X73353774Y-71169015D01*
X73347795Y-71099401D01*
X73380400Y-71037606D01*
X73432433Y-71005641D01*
X73519606Y-70978478D01*
X73665185Y-70890472D01*
X73785472Y-70770185D01*
X73873478Y-70624606D01*
X73924086Y-70462196D01*
X73930500Y-70391616D01*
X73930500Y-69154500D01*
X73950185Y-69087461D01*
X74002989Y-69041706D01*
X74054500Y-69030500D01*
X86194192Y-69030500D01*
X86261231Y-69050185D01*
G37*
%TD.AperFunction*%
%TA.AperFunction,Conductor*%
G36*
X71467437Y-72895185D02*
G01*
X71510883Y-72943205D01*
X71517715Y-72956614D01*
X71638028Y-73122213D01*
X71782786Y-73266971D01*
X71948388Y-73387286D01*
X71948390Y-73387287D01*
X72034294Y-73431057D01*
X72085090Y-73479031D01*
X72101886Y-73546852D01*
X72079349Y-73612987D01*
X72036455Y-73650899D01*
X71970497Y-73686155D01*
X71901086Y-73732534D01*
X71901085Y-73732534D01*
X72500589Y-74332037D01*
X72437007Y-74349075D01*
X72322993Y-74414901D01*
X72229901Y-74507993D01*
X72164075Y-74622007D01*
X72147037Y-74685588D01*
X71547534Y-74086085D01*
X71547534Y-74086086D01*
X71501158Y-74155493D01*
X71454490Y-74242801D01*
X71394185Y-74388387D01*
X71365444Y-74483135D01*
X71334701Y-74637697D01*
X71334701Y-74637700D01*
X71325000Y-74736210D01*
X71325000Y-74893789D01*
X71334701Y-74992299D01*
X71334701Y-74992302D01*
X71365444Y-75146864D01*
X71393547Y-75239505D01*
X71394170Y-75309372D01*
X71356922Y-75368485D01*
X71293628Y-75398076D01*
X71274886Y-75399500D01*
X69479602Y-75399500D01*
X69412563Y-75379815D01*
X69369117Y-75331795D01*
X69362287Y-75318390D01*
X69362285Y-75318387D01*
X69362284Y-75318385D01*
X69241971Y-75152786D01*
X69097213Y-75008028D01*
X68931613Y-74887715D01*
X68931612Y-74887714D01*
X68931610Y-74887713D01*
X68749219Y-74794780D01*
X68560891Y-74733588D01*
X68503216Y-74694151D01*
X68476018Y-74629793D01*
X68484648Y-74568208D01*
X68519737Y-74483497D01*
X68539113Y-74386085D01*
X68550638Y-74328150D01*
X68583023Y-74266239D01*
X68584517Y-74264717D01*
X69937417Y-72911819D01*
X69998740Y-72878334D01*
X70025098Y-72875500D01*
X71400398Y-72875500D01*
X71467437Y-72895185D01*
G37*
%TD.AperFunction*%
%TD*%
M02*
